<svg xmlns="http://www.w3.org/2000/svg" viewBox="0 0 135.04 134.14"><defs><style>.cls-1{fill:#044da4;}</style></defs><g id="Camada_2" data-name="Camada 2"><g id="Camada_1-2" data-name="Camada 1"><g id="Layer_2" data-name="Layer 2"><path class="cls-1" d="M62.14,70.22l62.46,62.4a6.33,6.33,0,0,0,8.92-8.92L76.24,66.42l55.63-55.64a6.3,6.3,0,0,0,0-8.91h0a6.32,6.32,0,0,0-8.94,0l0,0L62.14,62.63A5.7,5.7,0,0,0,62.14,70.22Z"/><path class="cls-1" d="M1.57,70.22,64,132.62A6.33,6.33,0,0,0,73,123.7L15.67,66.42,71.3,10.78a6.3,6.3,0,0,0,0-8.91h0a6.32,6.32,0,0,0-8.91,0L1.57,62.63A5.38,5.38,0,0,0,1.57,70.22Z"/></g></g></g></svg>