<svg xmlns="http://www.w3.org/2000/svg" xmlns:xlink="http://www.w3.org/1999/xlink" viewBox="0 0 563 389.44"><defs><style>.cls-1{isolation:isolate;}.cls-2{fill:#767a8b;}.cls-3{fill:#5b78ac;}.cls-4{fill:#c1c1c1;}.cls-16,.cls-4{mix-blend-mode:multiply;}.cls-10,.cls-11,.cls-5,.cls-6,.cls-8,.cls-81,.cls-9{fill:none;stroke-miterlimit:10;}.cls-5,.cls-81{stroke:#747474;}.cls-5{stroke-width:3px;}.cls-10,.cls-6{stroke:#a7a7a7;}.cls-6{stroke-width:2px;}.cls-7{fill:#5b5b5b;}.cls-11,.cls-8,.cls-9{stroke:#414141;}.cls-8{stroke-width:0.75px;}.cls-9{stroke-width:4px;}.cls-10{stroke-width:2.77px;}.cls-11{stroke-width:0.76px;}.cls-12{fill:url(#Áåçûìÿííûé_ãðàäèåíò_113);}.cls-13{fill:url(#Áåçûìÿííûé_ãðàäèåíò_113-2);}.cls-14{fill:url(#Áåçûìÿííûé_ãðàäèåíò_113-3);}.cls-15{fill:url(#Áåçûìÿííûé_ãðàäèåíò_113-4);}.cls-17{fill:#a7a7a7;}.cls-18{fill:#8e8e8e;}.cls-19{fill:url(#Áåçûìÿííûé_ãðàäèåíò_116);}.cls-20{fill:url(#Áåçûìÿííûé_ãðàäèåíò_116-2);}.cls-21{fill:url(#Áåçûìÿííûé_ãðàäèåíò_116-3);}.cls-22{fill:url(#Áåçûìÿííûé_ãðàäèåíò_116-4);}.cls-23{fill:url(#Áåçûìÿííûé_ãðàäèåíò_115);}.cls-24{fill:url(#Áåçûìÿííûé_ãðàäèåíò_115-2);}.cls-25{fill:url(#Áåçûìÿííûé_ãðàäèåíò_115-3);}.cls-26{fill:url(#Áåçûìÿííûé_ãðàäèåíò_114);}.cls-27{fill:url(#Áåçûìÿííûé_ãðàäèåíò_114-2);}.cls-28{fill:url(#Áåçûìÿííûé_ãðàäèåíò_114-3);}.cls-29{fill:url(#Áåçûìÿííûé_ãðàäèåíò_116-5);}.cls-30{fill:url(#Áåçûìÿííûé_ãðàäèåíò_116-6);}.cls-31{fill:url(#Áåçûìÿííûé_ãðàäèåíò_116-7);}.cls-32{fill:url(#Áåçûìÿííûé_ãðàäèåíò_116-8);}.cls-33{fill:url(#Áåçûìÿííûé_ãðàäèåíò_115-4);}.cls-34{fill:url(#Áåçûìÿííûé_ãðàäèåíò_115-5);}.cls-35{fill:url(#Áåçûìÿííûé_ãðàäèåíò_115-6);}.cls-36{fill:url(#Áåçûìÿííûé_ãðàäèåíò_114-4);}.cls-37{fill:url(#Áåçûìÿííûé_ãðàäèåíò_114-5);}.cls-38{fill:url(#Áåçûìÿííûé_ãðàäèåíò_114-6);}.cls-39{fill:url(#Áåçûìÿííûé_ãðàäèåíò_116-9);}.cls-40{fill:url(#Áåçûìÿííûé_ãðàäèåíò_116-10);}.cls-41{fill:url(#Áåçûìÿííûé_ãðàäèåíò_116-11);}.cls-42{fill:url(#Áåçûìÿííûé_ãðàäèåíò_116-12);}.cls-43{fill:url(#Áåçûìÿííûé_ãðàäèåíò_115-7);}.cls-44{fill:url(#Áåçûìÿííûé_ãðàäèåíò_115-8);}.cls-45{fill:url(#Áåçûìÿííûé_ãðàäèåíò_115-9);}.cls-46{fill:url(#Áåçûìÿííûé_ãðàäèåíò_114-7);}.cls-47{fill:url(#Áåçûìÿííûé_ãðàäèåíò_114-8);}.cls-48{fill:url(#Áåçûìÿííûé_ãðàäèåíò_114-9);}.cls-49{fill:url(#Áåçûìÿííûé_ãðàäèåíò_116-13);}.cls-50{fill:url(#Áåçûìÿííûé_ãðàäèåíò_116-14);}.cls-51{fill:url(#Áåçûìÿííûé_ãðàäèåíò_116-15);}.cls-52{fill:url(#Áåçûìÿííûé_ãðàäèåíò_116-16);}.cls-53{fill:url(#Áåçûìÿííûé_ãðàäèåíò_115-10);}.cls-54{fill:url(#Áåçûìÿííûé_ãðàäèåíò_115-11);}.cls-55{fill:url(#Áåçûìÿííûé_ãðàäèåíò_115-12);}.cls-56{fill:url(#Áåçûìÿííûé_ãðàäèåíò_114-10);}.cls-57{fill:url(#Áåçûìÿííûé_ãðàäèåíò_114-11);}.cls-58{fill:url(#Áåçûìÿííûé_ãðàäèåíò_114-12);}.cls-59{fill:url(#Áåçûìÿííûé_ãðàäèåíò_116-17);}.cls-60{fill:url(#Áåçûìÿííûé_ãðàäèåíò_116-18);}.cls-61{fill:url(#Áåçûìÿííûé_ãðàäèåíò_116-19);}.cls-62{fill:url(#Áåçûìÿííûé_ãðàäèåíò_116-20);}.cls-63{fill:url(#Áåçûìÿííûé_ãðàäèåíò_115-13);}.cls-64{fill:url(#Áåçûìÿííûé_ãðàäèåíò_115-14);}.cls-65{fill:url(#Áåçûìÿííûé_ãðàäèåíò_115-15);}.cls-66{fill:url(#Áåçûìÿííûé_ãðàäèåíò_114-13);}.cls-67{fill:url(#Áåçûìÿííûé_ãðàäèåíò_114-14);}.cls-68{fill:url(#Áåçûìÿííûé_ãðàäèåíò_114-15);}.cls-69{fill:url(#Áåçûìÿííûé_ãðàäèåíò_116-21);}.cls-70{fill:url(#Áåçûìÿííûé_ãðàäèåíò_116-22);}.cls-71{fill:url(#Áåçûìÿííûé_ãðàäèåíò_116-23);}.cls-72{fill:url(#Áåçûìÿííûé_ãðàäèåíò_116-24);}.cls-73{fill:url(#Áåçûìÿííûé_ãðàäèåíò_115-16);}.cls-74{fill:url(#Áåçûìÿííûé_ãðàäèåíò_115-17);}.cls-75{fill:url(#Áåçûìÿííûé_ãðàäèåíò_115-18);}.cls-76{fill:url(#Áåçûìÿííûé_ãðàäèåíò_114-16);}.cls-77{fill:url(#Áåçûìÿííûé_ãðàäèåíò_114-17);}.cls-78{fill:url(#Áåçûìÿííûé_ãðàäèåíò_114-18);}.cls-79{fill:url(#Áåçûìÿííûé_ãðàäèåíò_113-5);}.cls-80{fill:url(#Áåçûìÿííûé_ãðàäèåíò_113-6);}.cls-81{stroke-width:10.91px;}</style><linearGradient id="Áåçûìÿííûé_ãðàäèåíò_113" x1="281.5" y1="363.58" x2="281.5" y2="354.96" gradientUnits="userSpaceOnUse"><stop offset="0" stop-color="#5b5b5b"/><stop offset="0.32" stop-color="#747474"/><stop offset="0.37" stop-color="#a7a7a7"/><stop offset="1" stop-color="#a7a7a7"/></linearGradient><linearGradient id="Áåçûìÿííûé_ãðàäèåíò_113-2" x1="281.5" y1="372.2" x2="281.5" y2="363.58" xlink:href="#Áåçûìÿííûé_ãðàäèåíò_113"/><linearGradient id="Áåçûìÿííûé_ãðàäèåíò_113-3" x1="281.5" y1="380.82" x2="281.5" y2="372.2" xlink:href="#Áåçûìÿííûé_ãðàäèåíò_113"/><linearGradient id="Áåçûìÿííûé_ãðàäèåíò_113-4" x1="281.5" y1="389.44" x2="281.5" y2="380.82" xlink:href="#Áåçûìÿííûé_ãðàäèåíò_113"/><linearGradient id="Áåçûìÿííûé_ãðàäèåíò_116" x1="54.82" y1="231.96" x2="59.31" y2="231.96" gradientUnits="userSpaceOnUse"><stop offset="0" stop-color="#5b5b5b"/><stop offset="0.17" stop-color="#5b5b5b"/><stop offset="0.18" stop-color="#5b5b5b"/><stop offset="0.25" stop-color="#757575"/><stop offset="0.38" stop-color="#a5a5a5"/><stop offset="0.48" stop-color="#c2c2c2"/><stop offset="0.54" stop-color="#cdcdcd"/><stop offset="1" stop-color="#cdcdcd"/></linearGradient><linearGradient id="Áåçûìÿííûé_ãðàäèåíò_116-2" x1="62.92" y1="231.96" x2="67.41" y2="231.96" xlink:href="#Áåçûìÿííûé_ãðàäèåíò_116"/><linearGradient id="Áåçûìÿííûé_ãðàäèåíò_116-3" x1="71.02" y1="231.96" x2="75.51" y2="231.96" xlink:href="#Áåçûìÿííûé_ãðàäèåíò_116"/><linearGradient id="Áåçûìÿííûé_ãðàäèåíò_116-4" x1="79.13" y1="231.96" x2="83.61" y2="231.96" xlink:href="#Áåçûìÿííûé_ãðàäèåíò_116"/><linearGradient id="Áåçûìÿííûé_ãðàäèåíò_115" x1="68.82" y1="342.45" x2="68.82" y2="336" gradientUnits="userSpaceOnUse"><stop offset="0" stop-color="#5b5b5b"/><stop offset="0.33" stop-color="#5b5b5b"/><stop offset="0.44" stop-color="#8e8e8e"/><stop offset="1" stop-color="#8e8e8e"/></linearGradient><linearGradient id="Áåçûìÿííûé_ãðàäèåíò_115-2" x1="68.82" y1="348.98" x2="68.82" y2="342.52" xlink:href="#Áåçûìÿííûé_ãðàäèåíò_115"/><linearGradient id="Áåçûìÿííûé_ãðàäèåíò_115-3" x1="68.82" y1="355.09" x2="68.82" y2="348.63" xlink:href="#Áåçûìÿííûé_ãðàäèåíò_115"/><linearGradient id="Áåçûìÿííûé_ãðàäèåíò_114" x1="-3416.12" y1="-699.28" x2="-3416.12" y2="-705.73" gradientTransform="translate(3484.94 827.19)" gradientUnits="userSpaceOnUse"><stop offset="0" stop-color="#8e8e8e"/><stop offset="0.56" stop-color="#8e8e8e"/><stop offset="0.67" stop-color="#5b5b5b"/><stop offset="1" stop-color="#5b5b5b"/></linearGradient><linearGradient id="Áåçûìÿííûé_ãðàäèåíò_114-2" x1="-3416.12" y1="-692.75" x2="-3416.12" y2="-699.21" gradientTransform="translate(3484.94 814.14)" xlink:href="#Áåçûìÿííûé_ãðàäèåíò_114"/><linearGradient id="Áåçûìÿííûé_ãðàäèåíò_114-3" x1="-3416.12" y1="-686.64" x2="-3416.12" y2="-693.1" gradientTransform="translate(3484.94 801.92)" xlink:href="#Áåçûìÿííûé_ãðàäèåíò_114"/><linearGradient id="Áåçûìÿííûé_ãðàäèåíò_116-5" x1="139.89" y1="231.96" x2="144.38" y2="231.96" xlink:href="#Áåçûìÿííûé_ãðàäèåíò_116"/><linearGradient id="Áåçûìÿííûé_ãðàäèåíò_116-6" x1="147.99" y1="231.96" x2="152.48" y2="231.96" xlink:href="#Áåçûìÿííûé_ãðàäèåíò_116"/><linearGradient id="Áåçûìÿííûé_ãðàäèåíò_116-7" x1="156.1" y1="231.96" x2="160.58" y2="231.96" xlink:href="#Áåçûìÿííûé_ãðàäèåíò_116"/><linearGradient id="Áåçûìÿííûé_ãðàäèåíò_116-8" x1="164.2" y1="231.96" x2="168.69" y2="231.96" xlink:href="#Áåçûìÿííûé_ãðàäèåíò_116"/><linearGradient id="Áåçûìÿííûé_ãðàäèåíò_115-4" x1="153.89" y1="342.45" x2="153.89" y2="336" xlink:href="#Áåçûìÿííûé_ãðàäèåíò_115"/><linearGradient id="Áåçûìÿííûé_ãðàäèåíò_115-5" x1="153.89" y1="348.98" x2="153.89" y2="342.52" xlink:href="#Áåçûìÿííûé_ãðàäèåíò_115"/><linearGradient id="Áåçûìÿííûé_ãðàäèåíò_115-6" x1="153.89" y1="355.09" x2="153.89" y2="348.63" xlink:href="#Áåçûìÿííûé_ãðàäèåíò_115"/><linearGradient id="Áåçûìÿííûé_ãðàäèåíò_114-4" x1="-3501.19" y1="-699.28" x2="-3501.19" y2="-705.73" gradientTransform="translate(3655.08 827.19)" xlink:href="#Áåçûìÿííûé_ãðàäèåíò_114"/><linearGradient id="Áåçûìÿííûé_ãðàäèåíò_114-5" x1="-3501.19" y1="-692.75" x2="-3501.19" y2="-699.21" gradientTransform="translate(3655.08 814.14)" xlink:href="#Áåçûìÿííûé_ãðàäèåíò_114"/><linearGradient id="Áåçûìÿííûé_ãðàäèåíò_114-6" x1="-3501.19" y1="-686.64" x2="-3501.19" y2="-693.1" gradientTransform="translate(3655.08 801.92)" xlink:href="#Áåçûìÿííûé_ãðàäèåíò_114"/><linearGradient id="Áåçûìÿííûé_ãðàäèåíò_116-9" x1="224.96" y1="231.96" x2="229.45" y2="231.96" xlink:href="#Áåçûìÿííûé_ãðàäèåíò_116"/><linearGradient id="Áåçûìÿííûé_ãðàäèåíò_116-10" x1="233.07" y1="231.96" x2="237.55" y2="231.96" xlink:href="#Áåçûìÿííûé_ãðàäèåíò_116"/><linearGradient id="Áåçûìÿííûé_ãðàäèåíò_116-11" x1="241.17" y1="231.96" x2="245.66" y2="231.96" xlink:href="#Áåçûìÿííûé_ãðàäèåíò_116"/><linearGradient id="Áåçûìÿííûé_ãðàäèåíò_116-12" x1="249.27" y1="231.96" x2="253.76" y2="231.96" xlink:href="#Áåçûìÿííûé_ãðàäèåíò_116"/><linearGradient id="Áåçûìÿííûé_ãðàäèåíò_115-7" x1="238.96" y1="342.45" x2="238.96" y2="336" xlink:href="#Áåçûìÿííûé_ãðàäèåíò_115"/><linearGradient id="Áåçûìÿííûé_ãðàäèåíò_115-8" x1="238.96" y1="348.98" x2="238.96" y2="342.52" xlink:href="#Áåçûìÿííûé_ãðàäèåíò_115"/><linearGradient id="Áåçûìÿííûé_ãðàäèåíò_115-9" x1="238.96" y1="355.09" x2="238.96" y2="348.63" xlink:href="#Áåçûìÿííûé_ãðàäèåíò_115"/><linearGradient id="Áåçûìÿííûé_ãðàäèåíò_114-7" x1="-3586.26" y1="-699.28" x2="-3586.26" y2="-705.73" gradientTransform="translate(3825.23 827.19)" xlink:href="#Áåçûìÿííûé_ãðàäèåíò_114"/><linearGradient id="Áåçûìÿííûé_ãðàäèåíò_114-8" x1="-3586.26" y1="-692.75" x2="-3586.26" y2="-699.21" gradientTransform="translate(3825.23 814.14)" xlink:href="#Áåçûìÿííûé_ãðàäèåíò_114"/><linearGradient id="Áåçûìÿííûé_ãðàäèåíò_114-9" x1="-3586.26" y1="-686.64" x2="-3586.26" y2="-693.1" gradientTransform="translate(3825.23 801.92)" xlink:href="#Áåçûìÿííûé_ãðàäèåíò_114"/><linearGradient id="Áåçûìÿííûé_ãðàäèåíò_116-13" x1="310.04" y1="231.96" x2="314.52" y2="231.96" xlink:href="#Áåçûìÿííûé_ãðàäèåíò_116"/><linearGradient id="Áåçûìÿííûé_ãðàäèåíò_116-14" x1="318.14" y1="231.96" x2="322.63" y2="231.96" xlink:href="#Áåçûìÿííûé_ãðàäèåíò_116"/><linearGradient id="Áåçûìÿííûé_ãðàäèåíò_116-15" x1="326.24" y1="231.96" x2="330.73" y2="231.96" xlink:href="#Áåçûìÿííûé_ãðàäèåíò_116"/><linearGradient id="Áåçûìÿííûé_ãðàäèåíò_116-16" x1="334.34" y1="231.96" x2="338.83" y2="231.96" xlink:href="#Áåçûìÿííûé_ãðàäèåíò_116"/><linearGradient id="Áåçûìÿííûé_ãðàäèåíò_115-10" x1="324.04" y1="342.45" x2="324.04" y2="336" xlink:href="#Áåçûìÿííûé_ãðàäèåíò_115"/><linearGradient id="Áåçûìÿííûé_ãðàäèåíò_115-11" x1="324.04" y1="348.98" x2="324.04" y2="342.52" xlink:href="#Áåçûìÿííûé_ãðàäèåíò_115"/><linearGradient id="Áåçûìÿííûé_ãðàäèåíò_115-12" x1="324.04" y1="355.09" x2="324.04" y2="348.63" xlink:href="#Áåçûìÿííûé_ãðàäèåíò_115"/><linearGradient id="Áåçûìÿííûé_ãðàäèåíò_114-10" x1="-3671.34" y1="-699.28" x2="-3671.34" y2="-705.73" gradientTransform="translate(3995.37 827.19)" xlink:href="#Áåçûìÿííûé_ãðàäèåíò_114"/><linearGradient id="Áåçûìÿííûé_ãðàäèåíò_114-11" x1="-3671.34" y1="-692.75" x2="-3671.34" y2="-699.21" gradientTransform="translate(3995.37 814.14)" xlink:href="#Áåçûìÿííûé_ãðàäèåíò_114"/><linearGradient id="Áåçûìÿííûé_ãðàäèåíò_114-12" x1="-3671.34" y1="-686.64" x2="-3671.34" y2="-693.1" gradientTransform="translate(3995.37 801.92)" xlink:href="#Áåçûìÿííûé_ãðàäèåíò_114"/><linearGradient id="Áåçûìÿííûé_ãðàäèåíò_116-17" x1="395.11" y1="231.96" x2="399.6" y2="231.96" xlink:href="#Áåçûìÿííûé_ãðàäèåíò_116"/><linearGradient id="Áåçûìÿííûé_ãðàäèåíò_116-18" x1="403.21" y1="231.96" x2="407.7" y2="231.96" xlink:href="#Áåçûìÿííûé_ãðàäèåíò_116"/><linearGradient id="Áåçûìÿííûé_ãðàäèåíò_116-19" x1="411.31" y1="231.96" x2="415.8" y2="231.96" xlink:href="#Áåçûìÿííûé_ãðàäèåíò_116"/><linearGradient id="Áåçûìÿííûé_ãðàäèåíò_116-20" x1="419.42" y1="231.96" x2="423.9" y2="231.96" xlink:href="#Áåçûìÿííûé_ãðàäèåíò_116"/><linearGradient id="Áåçûìÿííûé_ãðàäèåíò_115-13" x1="409.11" y1="342.45" x2="409.11" y2="336" xlink:href="#Áåçûìÿííûé_ãðàäèåíò_115"/><linearGradient id="Áåçûìÿííûé_ãðàäèåíò_115-14" x1="409.11" y1="348.98" x2="409.11" y2="342.52" xlink:href="#Áåçûìÿííûé_ãðàäèåíò_115"/><linearGradient id="Áåçûìÿííûé_ãðàäèåíò_115-15" x1="409.11" y1="355.09" x2="409.11" y2="348.63" xlink:href="#Áåçûìÿííûé_ãðàäèåíò_115"/><linearGradient id="Áåçûìÿííûé_ãðàäèåíò_114-13" x1="-3756.41" y1="-699.28" x2="-3756.41" y2="-705.73" gradientTransform="translate(4165.52 827.19)" xlink:href="#Áåçûìÿííûé_ãðàäèåíò_114"/><linearGradient id="Áåçûìÿííûé_ãðàäèåíò_114-14" x1="-3756.41" y1="-692.75" x2="-3756.41" y2="-699.21" gradientTransform="translate(4165.52 814.14)" xlink:href="#Áåçûìÿííûé_ãðàäèåíò_114"/><linearGradient id="Áåçûìÿííûé_ãðàäèåíò_114-15" x1="-3756.41" y1="-686.64" x2="-3756.41" y2="-693.1" gradientTransform="translate(4165.52 801.92)" xlink:href="#Áåçûìÿííûé_ãðàäèåíò_114"/><linearGradient id="Áåçûìÿííûé_ãðàäèåíò_116-21" x1="480.18" y1="231.96" x2="484.67" y2="231.96" xlink:href="#Áåçûìÿííûé_ãðàäèåíò_116"/><linearGradient id="Áåçûìÿííûé_ãðàäèåíò_116-22" x1="488.28" y1="231.96" x2="492.77" y2="231.96" xlink:href="#Áåçûìÿííûé_ãðàäèåíò_116"/><linearGradient id="Áåçûìÿííûé_ãðàäèåíò_116-23" x1="496.39" y1="231.96" x2="500.87" y2="231.96" xlink:href="#Áåçûìÿííûé_ãðàäèåíò_116"/><linearGradient id="Áåçûìÿííûé_ãðàäèåíò_116-24" x1="504.49" y1="231.96" x2="508.98" y2="231.96" xlink:href="#Áåçûìÿííûé_ãðàäèåíò_116"/><linearGradient id="Áåçûìÿííûé_ãðàäèåíò_115-16" x1="494.18" y1="342.45" x2="494.18" y2="336" xlink:href="#Áåçûìÿííûé_ãðàäèåíò_115"/><linearGradient id="Áåçûìÿííûé_ãðàäèåíò_115-17" x1="494.18" y1="348.98" x2="494.18" y2="342.52" xlink:href="#Áåçûìÿííûé_ãðàäèåíò_115"/><linearGradient id="Áåçûìÿííûé_ãðàäèåíò_115-18" x1="494.18" y1="355.09" x2="494.18" y2="348.63" xlink:href="#Áåçûìÿííûé_ãðàäèåíò_115"/><linearGradient id="Áåçûìÿííûé_ãðàäèåíò_114-16" x1="-3841.48" y1="-699.28" x2="-3841.48" y2="-705.73" gradientTransform="translate(4335.66 827.19)" xlink:href="#Áåçûìÿííûé_ãðàäèåíò_114"/><linearGradient id="Áåçûìÿííûé_ãðàäèåíò_114-17" x1="-3841.48" y1="-692.75" x2="-3841.48" y2="-699.21" gradientTransform="translate(4335.66 814.14)" xlink:href="#Áåçûìÿííûé_ãðàäèåíò_114"/><linearGradient id="Áåçûìÿííûé_ãðàäèåíò_114-18" x1="-3841.48" y1="-686.64" x2="-3841.48" y2="-693.1" gradientTransform="translate(4335.66 801.92)" xlink:href="#Áåçûìÿííûé_ãðàäèåíò_114"/><linearGradient id="Áåçûìÿííûé_ãðàäèåíò_113-5" x1="281.51" y1="108.82" x2="281.51" y2="100.71" xlink:href="#Áåçûìÿííûé_ãðàäèåíò_113"/><linearGradient id="Áåçûìÿííûé_ãðàäèåíò_113-6" x1="281.51" y1="86.82" x2="281.51" y2="78.71" xlink:href="#Áåçûìÿííûé_ãðàäèåíò_113"/></defs><g class="cls-1"><g id="Camada_2" data-name="Camada 2"><g id="Desenho"><rect class="cls-2" x="71.72" y="100.71" width="419.57" height="256.87"/><rect class="cls-3" x="181.5" y="139.04" width="30.5" height="67.07"/><polygon class="cls-4" points="181.5 161.07 181.5 139.04 212 139.04 212 193.07 181.5 161.07"/><rect class="cls-5" x="181.5" y="139.04" width="30.5" height="67.07"/><line class="cls-5" x1="196.58" y1="139.23" x2="196.58" y2="205.94"/><line class="cls-5" x1="181.5" y1="159.95" x2="212" y2="159.95"/><line class="cls-5" x1="181.5" y1="185.19" x2="212" y2="185.19"/><rect class="cls-6" x="181.5" y="139.04" width="30.5" height="67.07"/><line class="cls-6" x1="196.58" y1="139.23" x2="196.58" y2="205.94"/><line class="cls-6" x1="181.5" y1="159.95" x2="212" y2="159.95"/><line class="cls-6" x1="181.5" y1="185.19" x2="212" y2="185.19"/><rect class="cls-3" x="96.88" y="139.04" width="30.5" height="67.07"/><polygon class="cls-4" points="96.88 161.07 96.88 139.04 127.38 139.04 127.38 193.07 96.88 161.07"/><rect class="cls-5" x="96.88" y="139.04" width="30.5" height="67.07"/><line class="cls-5" x1="111.96" y1="139.23" x2="111.96" y2="205.94"/><line class="cls-5" x1="96.88" y1="159.95" x2="127.38" y2="159.95"/><line class="cls-5" x1="96.88" y1="185.19" x2="127.38" y2="185.19"/><rect class="cls-6" x="96.88" y="139.04" width="30.5" height="67.07"/><line class="cls-6" x1="111.96" y1="139.23" x2="111.96" y2="205.94"/><line class="cls-6" x1="96.88" y1="159.95" x2="127.38" y2="159.95"/><line class="cls-6" x1="96.88" y1="185.19" x2="127.38" y2="185.19"/><rect class="cls-3" x="266.25" y="139.04" width="30.5" height="67.07"/><polygon class="cls-4" points="266.25 161.07 266.25 139.04 296.75 139.04 296.75 193.07 266.25 161.07"/><rect class="cls-5" x="266.25" y="139.04" width="30.5" height="67.07"/><line class="cls-5" x1="281.33" y1="139.23" x2="281.33" y2="205.94"/><line class="cls-5" x1="266.25" y1="159.95" x2="296.75" y2="159.95"/><line class="cls-5" x1="266.25" y1="185.19" x2="296.75" y2="185.19"/><rect class="cls-6" x="266.25" y="139.04" width="30.5" height="67.07"/><line class="cls-6" x1="281.33" y1="139.23" x2="281.33" y2="205.94"/><line class="cls-6" x1="266.25" y1="159.95" x2="296.75" y2="159.95"/><line class="cls-6" x1="266.25" y1="185.19" x2="296.75" y2="185.19"/><rect class="cls-3" x="351" y="139.04" width="30.5" height="67.07"/><polygon class="cls-4" points="351 161.07 351 139.04 381.5 139.04 381.5 193.07 351 161.07"/><rect class="cls-5" x="351" y="139.04" width="30.5" height="67.07"/><line class="cls-5" x1="366.08" y1="139.23" x2="366.08" y2="205.94"/><line class="cls-5" x1="351" y1="159.95" x2="381.5" y2="159.95"/><line class="cls-5" x1="351" y1="185.19" x2="381.5" y2="185.19"/><rect class="cls-6" x="351" y="139.04" width="30.5" height="67.07"/><line class="cls-6" x1="366.08" y1="139.23" x2="366.08" y2="205.94"/><line class="cls-6" x1="351" y1="159.95" x2="381.5" y2="159.95"/><line class="cls-6" x1="351" y1="185.19" x2="381.5" y2="185.19"/><rect class="cls-3" x="434.16" y="139.04" width="30.5" height="67.07"/><polygon class="cls-4" points="434.16 161.07 434.16 139.04 464.66 139.04 464.66 193.07 434.16 161.07"/><rect class="cls-5" x="434.16" y="139.04" width="30.5" height="67.07"/><line class="cls-5" x1="449.25" y1="139.23" x2="449.25" y2="205.94"/><line class="cls-5" x1="434.16" y1="159.95" x2="464.66" y2="159.95"/><line class="cls-5" x1="434.16" y1="185.19" x2="464.66" y2="185.19"/><rect class="cls-6" x="434.16" y="139.04" width="30.5" height="67.07"/><line class="cls-6" x1="449.25" y1="139.23" x2="449.25" y2="205.94"/><line class="cls-6" x1="434.16" y1="159.95" x2="464.66" y2="159.95"/><line class="cls-6" x1="434.16" y1="185.19" x2="464.66" y2="185.19"/><rect class="cls-3" x="181.5" y="250.54" width="30.5" height="67.07"/><polygon class="cls-4" points="181.5 272.57 181.5 250.54 212 250.54 212 304.57 181.5 272.57"/><rect class="cls-5" x="181.5" y="250.54" width="30.5" height="67.07"/><line class="cls-5" x1="196.58" y1="250.73" x2="196.58" y2="317.44"/><line class="cls-5" x1="181.5" y1="271.45" x2="212" y2="271.45"/><line class="cls-5" x1="181.5" y1="296.69" x2="212" y2="296.69"/><rect class="cls-6" x="181.5" y="250.54" width="30.5" height="67.07"/><line class="cls-6" x1="196.58" y1="250.73" x2="196.58" y2="317.44"/><line class="cls-6" x1="181.5" y1="271.45" x2="212" y2="271.45"/><line class="cls-6" x1="181.5" y1="296.69" x2="212" y2="296.69"/><rect class="cls-3" x="96.88" y="250.54" width="30.5" height="67.07"/><polygon class="cls-4" points="96.88 272.57 96.88 250.54 127.38 250.54 127.38 304.57 96.88 272.57"/><rect class="cls-5" x="96.88" y="250.54" width="30.5" height="67.07"/><line class="cls-5" x1="111.96" y1="250.73" x2="111.96" y2="317.44"/><line class="cls-5" x1="96.88" y1="271.45" x2="127.38" y2="271.45"/><line class="cls-5" x1="96.88" y1="296.69" x2="127.38" y2="296.69"/><rect class="cls-6" x="96.88" y="250.54" width="30.5" height="67.07"/><line class="cls-6" x1="111.96" y1="250.73" x2="111.96" y2="317.44"/><line class="cls-6" x1="96.88" y1="271.45" x2="127.38" y2="271.45"/><line class="cls-6" x1="96.88" y1="296.69" x2="127.38" y2="296.69"/><rect class="cls-3" x="351" y="250.54" width="30.5" height="67.07"/><polygon class="cls-4" points="351 272.57 351 250.54 381.5 250.54 381.5 304.57 351 272.57"/><rect class="cls-5" x="351" y="250.54" width="30.5" height="67.07"/><line class="cls-5" x1="366.08" y1="250.73" x2="366.08" y2="317.44"/><line class="cls-5" x1="351" y1="271.45" x2="381.5" y2="271.45"/><line class="cls-5" x1="351" y1="296.69" x2="381.5" y2="296.69"/><rect class="cls-6" x="351" y="250.54" width="30.5" height="67.07"/><line class="cls-6" x1="366.08" y1="250.73" x2="366.08" y2="317.44"/><line class="cls-6" x1="351" y1="271.45" x2="381.5" y2="271.45"/><line class="cls-6" x1="351" y1="296.69" x2="381.5" y2="296.69"/><rect class="cls-3" x="435.16" y="250.54" width="30.5" height="67.07"/><polygon class="cls-4" points="435.16 272.57 435.16 250.54 465.66 250.54 465.66 304.57 435.16 272.57"/><rect class="cls-5" x="435.16" y="250.54" width="30.5" height="67.07"/><line class="cls-5" x1="450.25" y1="250.73" x2="450.25" y2="317.44"/><line class="cls-5" x1="435.16" y1="271.45" x2="465.66" y2="271.45"/><line class="cls-5" x1="435.16" y1="296.69" x2="465.66" y2="296.69"/><rect class="cls-6" x="435.16" y="250.54" width="30.5" height="67.07"/><line class="cls-6" x1="450.25" y1="250.73" x2="450.25" y2="317.44"/><line class="cls-6" x1="435.16" y1="271.45" x2="465.66" y2="271.45"/><line class="cls-6" x1="435.16" y1="296.69" x2="465.66" y2="296.69"/><path class="cls-7" d="M301.05,356.07H262V275.63a19.55,19.55,0,0,1,19.55-19.56h0a19.55,19.55,0,0,1,19.55,19.56Z"/><line class="cls-8" x1="281.28" y1="256.36" x2="281.28" y2="355.82"/><path class="cls-9" d="M301.05,356.07H262V275.63a19.55,19.55,0,0,1,19.55-19.56h0a19.55,19.55,0,0,1,19.55,19.56Z"/><path class="cls-10" d="M301.05,356.07H262V275.63a19.55,19.55,0,0,1,19.55-19.56h0a19.55,19.55,0,0,1,19.55,19.56Z"/><rect class="cls-11" x="284.83" y="326.75" width="11.67" height="23.99"/><rect class="cls-11" x="284.83" y="294.32" width="11.67" height="28.3"/><path class="cls-11" d="M296.5,290H284.83V262.24h0a11.66,11.66,0,0,1,11.67,11.67Z"/><rect class="cls-11" x="265.83" y="326.75" width="11.67" height="23.99" transform="translate(543.33 677.49) rotate(180)"/><rect class="cls-11" x="265.83" y="294.32" width="11.67" height="28.3" transform="translate(543.33 616.94) rotate(180)"/><path class="cls-11" d="M265.83,290H277.5V262.24h0a11.67,11.67,0,0,0-11.67,11.67Z"/><rect class="cls-12" x="37.5" y="354.96" width="488.01" height="8.62"/><rect class="cls-13" x="25" y="363.58" width="513" height="8.62"/><rect class="cls-14" x="12.5" y="372.2" width="538" height="8.62"/><rect class="cls-15" y="380.82" width="563" height="8.62"/><g class="cls-16"><path class="cls-17" d="M104.87,108.82H60.69a3,3,0,0,0-3,3v.52a3,3,0,0,0,3,3h1.5a3,3,0,0,0-1.6,2.62v.52a3,3,0,0,0,3,3h2v.07H65.3a3,3,0,0,0-3,3V125a3,3,0,0,0,3,3h.22V336H65.3a3,3,0,0,0-3,3v.53a3,3,0,0,0,3,3h.22v.07h-2a3,3,0,0,0-3,3V346a3,3,0,0,0,1.6,2.62h-1.5a3,3,0,0,0-3,3v.52a3,3,0,0,0,3,3h44.18a3,3,0,0,0,3-3v-.52h0a3,3,0,0,0-.81-2l-.07-.08a2.85,2.85,0,0,0-1.32-.75,2.82,2.82,0,0,0-.77-.12h-1.5a2.92,2.92,0,0,0,.87-.69l.1-.12a1.46,1.46,0,0,0,.17-.24,2.71,2.71,0,0,0,.21-.37s0-.11,0-.16a1.42,1.42,0,0,0,.11-.35,1.24,1.24,0,0,0,0-.16,3.07,3.07,0,0,0,0-.53v-.52a3,3,0,0,0-3-3h-1.17v-.12h0l.18-.06.34-.1.21-.11.27-.14.2-.15.23-.19a1.29,1.29,0,0,0,.16-.17,2.2,2.2,0,0,0,.2-.23l.13-.19c.06-.09.11-.19.16-.28l.09-.2a3.58,3.58,0,0,0,.11-.35,1.21,1.21,0,0,1,0-.18,3.43,3.43,0,0,0,0-.56h0V339a3.43,3.43,0,0,0,0-.56,1.21,1.21,0,0,1,0-.18c0-.12-.07-.23-.11-.35l-.09-.19-.16-.29-.13-.18a1.59,1.59,0,0,0-.2-.24,1.29,1.29,0,0,0-.16-.17l-.23-.19-.2-.14a2.34,2.34,0,0,0-.27-.15l-.21-.1a2.24,2.24,0,0,0-.34-.11l-.18-.05h0V127.85h0l.18,0a2.24,2.24,0,0,0,.34-.11l.21-.1a2.34,2.34,0,0,0,.27-.15l.2-.14.23-.19a1.29,1.29,0,0,0,.16-.17,2.2,2.2,0,0,0,.2-.23c0-.07.09-.13.13-.19a2.69,2.69,0,0,0,.16-.29L103,126c0-.12.08-.23.11-.35a1.21,1.21,0,0,1,0-.18,3.43,3.43,0,0,0,0-.56v-.53a3.43,3.43,0,0,0,0-.56,1.21,1.21,0,0,1,0-.18,3.58,3.58,0,0,0-.11-.35l-.09-.19a2.69,2.69,0,0,0-.16-.29l-.13-.19a2.2,2.2,0,0,0-.2-.23,1.29,1.29,0,0,0-.16-.17l-.23-.19-.2-.14a2.34,2.34,0,0,0-.27-.15,1,1,0,0,0-.21-.1,2,2,0,0,0-.35-.11l-.17-.06h0v-.12H102a2.88,2.88,0,0,0,.59-.06,3,3,0,0,0,2.37-2.91h0v-.52h0a3.07,3.07,0,0,0,0-.53,1.24,1.24,0,0,0,0-.16,1.42,1.42,0,0,0-.11-.35l0-.15a2.32,2.32,0,0,0-.21-.38,2.07,2.07,0,0,0-.17-.24l-.1-.12a2.92,2.92,0,0,0-.87-.69h1.5a3,3,0,0,0,3-3v-.52a3,3,0,0,0-3-3Z"/><path class="cls-17" d="M190.78,108.82H146.6a3,3,0,0,0-3,3v.52a3,3,0,0,0,3,3h1.5a3,3,0,0,0-1.61,2.62v.52a3,3,0,0,0,3,3h2v.07h-.22a3,3,0,0,0-3,3V125a3,3,0,0,0,3,3h.22V336h-.22a3,3,0,0,0-3,3v.53a3,3,0,0,0,3,3h.22v.07h-2a3,3,0,0,0-3,3V346a3,3,0,0,0,1.61,2.62h-1.5a3,3,0,0,0-3,3v.52a3,3,0,0,0,3,3h44.18a3,3,0,0,0,2.45-1.31,2.89,2.89,0,0,0,.51-1.66v-.52h0a3,3,0,0,0-.8-2s0-.05-.07-.08a2.91,2.91,0,0,0-1.32-.75,2.82,2.82,0,0,0-.77-.12h-1.51a2.84,2.84,0,0,0,.88-.69l.09-.12a2.5,2.5,0,0,0,.18-.24c.07-.12.14-.24.2-.37a1,1,0,0,0,.06-.16,2,2,0,0,0,.11-.35c0-.06,0-.11,0-.16a3.07,3.07,0,0,0,0-.53v-.52a3,3,0,0,0-3-3h-1.17v-.12h0l.18-.06.35-.1.21-.11.27-.14.19-.15a2.11,2.11,0,0,0,.23-.19,1.37,1.37,0,0,0,.17-.17c.07-.07.13-.15.2-.23l.13-.19a2.64,2.64,0,0,0,.15-.29,1.11,1.11,0,0,0,.09-.19,2,2,0,0,0,.11-.35,1.21,1.21,0,0,0,0-.18,2.6,2.6,0,0,0,.06-.56h0V339a2.6,2.6,0,0,0-.06-.56,1.21,1.21,0,0,0,0-.18,2.35,2.35,0,0,0-.11-.35,1.63,1.63,0,0,0-.09-.19c0-.1-.09-.19-.15-.29l-.13-.18a2.54,2.54,0,0,0-.2-.24l-.17-.17a2.11,2.11,0,0,0-.23-.19,1.33,1.33,0,0,0-.19-.14l-.27-.15-.21-.1a2,2,0,0,0-.35-.11l-.18-.05h0V127.85h0l.18,0a2,2,0,0,0,.35-.11l.21-.1c.09,0,.18-.09.27-.15a1.33,1.33,0,0,0,.19-.14,2.11,2.11,0,0,0,.23-.19,1.37,1.37,0,0,0,.17-.17,2.54,2.54,0,0,0,.2-.24l.13-.18a2.64,2.64,0,0,0,.15-.29,1.63,1.63,0,0,0,.09-.19,2.35,2.35,0,0,0,.11-.35,1.21,1.21,0,0,0,0-.18,2.6,2.6,0,0,0,.06-.56v-.53a2.6,2.6,0,0,0-.06-.56,1.21,1.21,0,0,0,0-.18,2,2,0,0,0-.11-.35,1.11,1.11,0,0,0-.09-.19,2.64,2.64,0,0,0-.15-.29l-.13-.19c-.07-.08-.13-.16-.2-.23a1.37,1.37,0,0,0-.17-.17,2.11,2.11,0,0,0-.23-.19,1.33,1.33,0,0,0-.19-.14c-.09-.06-.18-.1-.27-.15a1,1,0,0,0-.21-.1,2,2,0,0,0-.35-.11l-.18-.06h0v-.12h1.17a2.91,2.91,0,0,0,.6-.06,3,3,0,0,0,2.37-2.91h0v-.52h0a3.07,3.07,0,0,0,0-.53c0-.05,0-.1,0-.16a2,2,0,0,0-.11-.35.94.94,0,0,0-.06-.15,3.39,3.39,0,0,0-.2-.38,2.15,2.15,0,0,0-.18-.24l-.09-.12a2.92,2.92,0,0,0-.87-.69h1.5a3,3,0,0,0,2.45-1.31,2.91,2.91,0,0,0,.51-1.66v-.52a2.91,2.91,0,0,0-.51-1.66A3,3,0,0,0,190.78,108.82Z"/><path class="cls-17" d="M276.68,108.82H232.5a3,3,0,0,0-3,3v.52a3,3,0,0,0,3,3H234a3,3,0,0,0-1.61,2.62v.52a3,3,0,0,0,3,3h2v.07h-.21a3,3,0,0,0-3,3V125a3,3,0,0,0,3,3h.21V336h-.21a3,3,0,0,0-3,3v.53a3,3,0,0,0,3,3h.21v.07h-2a3,3,0,0,0-3,3V346a3,3,0,0,0,1.61,2.62H232.5a3,3,0,0,0-3,3v.52a3,3,0,0,0,3,3h44.18a3,3,0,0,0,2.74-1.82,2.91,2.91,0,0,0,.23-1.15v-.52a2.89,2.89,0,0,0-.18-1,3,3,0,0,0-2.19-1.93,2.91,2.91,0,0,0-.6-.06h-1.5a3,3,0,0,0,.88-.69l.09-.12a1.46,1.46,0,0,0,.17-.24,2.71,2.71,0,0,0,.21-.37l.06-.16a3.58,3.58,0,0,0,.11-.35l0-.16a3.07,3.07,0,0,0,.06-.53v-.52a2.94,2.94,0,0,0-1.82-2.73,2.92,2.92,0,0,0-1.15-.24h-1.17v-.12h0l.18-.06.35-.1.21-.11.27-.14.19-.15a2.11,2.11,0,0,0,.23-.19c.06,0,.11-.11.17-.17a2.11,2.11,0,0,0,.19-.23,2.14,2.14,0,0,0,.13-.19,2.69,2.69,0,0,0,.16-.29l.09-.19a2,2,0,0,0,.11-.35,1.21,1.21,0,0,0,.05-.18,3.43,3.43,0,0,0,.06-.56h0V339a3.43,3.43,0,0,0-.06-.56,1.21,1.21,0,0,0-.05-.18,2.35,2.35,0,0,0-.11-.35l-.09-.19-.16-.29-.13-.18a1.55,1.55,0,0,0-.19-.24l-.17-.17a2.11,2.11,0,0,0-.23-.19l-.19-.14-.27-.15-.21-.1a2.35,2.35,0,0,0-.35-.11l-.18-.05h0V127.85h0l.18,0a2.35,2.35,0,0,0,.35-.11l.21-.1.27-.15.19-.14a2.11,2.11,0,0,0,.23-.19c.06,0,.11-.11.17-.17a1.55,1.55,0,0,0,.19-.24l.13-.18a2.69,2.69,0,0,0,.16-.29l.09-.19a2.35,2.35,0,0,0,.11-.35,1.21,1.21,0,0,0,.05-.18A3.43,3.43,0,0,0,275,125v-.53a3.43,3.43,0,0,0-.06-.56,1.21,1.21,0,0,0-.05-.18,2,2,0,0,0-.11-.35l-.09-.19a2.69,2.69,0,0,0-.16-.29,2.14,2.14,0,0,0-.13-.19,2.11,2.11,0,0,0-.19-.23c-.06-.06-.11-.12-.17-.17a2.11,2.11,0,0,0-.23-.19l-.19-.14a1.82,1.82,0,0,0-.27-.15,1,1,0,0,0-.21-.1,2.35,2.35,0,0,0-.35-.11l-.18-.06h0v-.12h1.17a3.05,3.05,0,0,0,.6-.06,3,3,0,0,0,2.37-2.91h0v-.52h0a3.07,3.07,0,0,0-.06-.53l0-.16a3.58,3.58,0,0,0-.11-.35l-.06-.15a2.32,2.32,0,0,0-.21-.38,2.07,2.07,0,0,0-.17-.24l-.09-.12a3,3,0,0,0-.88-.69h1.5a2.83,2.83,0,0,0,1.16-.24,3,3,0,0,0,1.58-1.58,2.91,2.91,0,0,0,.23-1.15v-.52a2.91,2.91,0,0,0-.23-1.15A3,3,0,0,0,276.68,108.82Z"/><path class="cls-17" d="M360.09,108.82H315.91a3,3,0,0,0-3,3v.52a3,3,0,0,0,3,3h1.5a3,3,0,0,0-1.61,2.62v.52a3,3,0,0,0,3,3h2v.07h-.22a3,3,0,0,0-3,3V125a3,3,0,0,0,3,3h.22V336h-.22a3,3,0,0,0-3,3v.53a3,3,0,0,0,3,3h.22v.07h-2a3,3,0,0,0-3,3V346a3,3,0,0,0,1.61,2.62h-1.5a3,3,0,0,0-3,3v.52a3,3,0,0,0,3,3h44.18a3,3,0,0,0,3-3v-.52h0a2.94,2.94,0,0,0-.81-2l-.06-.08a3.2,3.2,0,0,0-2.09-.87h-1.51a2.84,2.84,0,0,0,.88-.69l.09-.12a2.5,2.5,0,0,0,.18-.24c.07-.12.14-.24.2-.37a1,1,0,0,0,.06-.16,2,2,0,0,0,.11-.35c0-.06,0-.11,0-.16a3.07,3.07,0,0,0,.05-.53v-.52a3,3,0,0,0-1.81-2.73,3,3,0,0,0-1.16-.24h-1.17v-.12h0l.18-.06.35-.1.21-.11.27-.14.19-.15a2.11,2.11,0,0,0,.23-.19,1.37,1.37,0,0,0,.17-.17c.07-.07.13-.15.2-.23l.13-.19.15-.28a1.76,1.76,0,0,0,.09-.2,2,2,0,0,0,.11-.35,1.21,1.21,0,0,0,.05-.18,2.6,2.6,0,0,0,.06-.56h0V339a2.6,2.6,0,0,0-.06-.56,1.21,1.21,0,0,0-.05-.18,2.35,2.35,0,0,0-.11-.35,1.63,1.63,0,0,0-.09-.19l-.15-.29-.13-.18a2.54,2.54,0,0,0-.2-.24,1.37,1.37,0,0,0-.17-.17,2.11,2.11,0,0,0-.23-.19,1.33,1.33,0,0,0-.19-.14l-.27-.15-.21-.1a2,2,0,0,0-.35-.11l-.18-.05h0V127.85h0l.18,0a2,2,0,0,0,.35-.11l.21-.1c.09,0,.18-.09.27-.15a1.33,1.33,0,0,0,.19-.14,2.11,2.11,0,0,0,.23-.19,1.37,1.37,0,0,0,.17-.17c.07-.07.13-.15.2-.23s.09-.13.13-.19l.15-.29a1.63,1.63,0,0,0,.09-.19,2.35,2.35,0,0,0,.11-.35,1.21,1.21,0,0,0,.05-.18,2.6,2.6,0,0,0,.06-.56v-.53a2.6,2.6,0,0,0-.06-.56,1.21,1.21,0,0,0-.05-.18,2,2,0,0,0-.11-.35,1.11,1.11,0,0,0-.09-.19l-.15-.29-.13-.19c-.07-.08-.13-.16-.2-.23a1.37,1.37,0,0,0-.17-.17,2.11,2.11,0,0,0-.23-.19,1.33,1.33,0,0,0-.19-.14c-.09-.06-.18-.1-.27-.15a1,1,0,0,0-.21-.1,2,2,0,0,0-.35-.11l-.18-.06h0v-.12h1.17a2.91,2.91,0,0,0,.6-.06,3,3,0,0,0,2.37-2.91h0v-.52h0a3.07,3.07,0,0,0-.05-.53c0-.05,0-.1,0-.16a3.58,3.58,0,0,0-.11-.35.94.94,0,0,0-.06-.15,3.39,3.39,0,0,0-.2-.38c-.06-.09-.12-.16-.18-.24l-.09-.12a2.92,2.92,0,0,0-.87-.69h1.5a3,3,0,0,0,2.45-1.31,3,3,0,0,0,.51-1.66v-.52a3,3,0,0,0-.51-1.66A3,3,0,0,0,360.09,108.82Z"/><path class="cls-17" d="M446,108.82H401.81a3,3,0,0,0-3,3v.52a3,3,0,0,0,3,3h1.51a3,3,0,0,0-1.61,2.62v.52a3,3,0,0,0,3,3h2v.07h-.21a3,3,0,0,0-3,3V125a3,3,0,0,0,3,3h.21V336h-.21a3,3,0,0,0-3,3v.53a3,3,0,0,0,3,3h.21v.07h-2a3,3,0,0,0-3,3V346a3,3,0,0,0,1.61,2.62h-1.51a3,3,0,0,0-3,3v.52a3,3,0,0,0,3,3H446a3,3,0,0,0,3-3v-.52h0a2.94,2.94,0,0,0-.81-2l-.06-.08a2.89,2.89,0,0,0-1.33-.75,2.76,2.76,0,0,0-.77-.12h-1.5a3,3,0,0,0,.88-.69l.09-.12a1.46,1.46,0,0,0,.17-.24,2.71,2.71,0,0,0,.21-.37l.06-.16a3.58,3.58,0,0,0,.11-.35l0-.16a3.07,3.07,0,0,0,.06-.53v-.52a2.94,2.94,0,0,0-1.82-2.73,2.92,2.92,0,0,0-1.15-.24H442v-.12h0l.18-.06.35-.1.21-.11L443,342l.19-.15a2.11,2.11,0,0,0,.23-.19c.06,0,.11-.11.17-.17a2.11,2.11,0,0,0,.19-.23,2.14,2.14,0,0,0,.13-.19,2.69,2.69,0,0,0,.16-.29l.09-.19a2,2,0,0,0,.11-.35,1.21,1.21,0,0,0,.05-.18,3.43,3.43,0,0,0,.06-.56h0V339a3.43,3.43,0,0,0-.06-.56,1.21,1.21,0,0,0-.05-.18,2.35,2.35,0,0,0-.11-.35l-.09-.19-.16-.29-.13-.18a1.55,1.55,0,0,0-.19-.24l-.17-.17a2.11,2.11,0,0,0-.23-.19l-.19-.14-.27-.15-.22-.1a1.93,1.93,0,0,0-.34-.11l-.18-.05h0V127.85h0l.18,0a1.93,1.93,0,0,0,.34-.11l.22-.1.27-.15.19-.14a2.11,2.11,0,0,0,.23-.19c.06,0,.11-.11.17-.17a1.55,1.55,0,0,0,.19-.24l.13-.18a2.69,2.69,0,0,0,.16-.29l.09-.19a2.35,2.35,0,0,0,.11-.35,1.21,1.21,0,0,0,.05-.18,3.43,3.43,0,0,0,.06-.56v-.53a3.43,3.43,0,0,0-.06-.56,1.21,1.21,0,0,0-.05-.18,2,2,0,0,0-.11-.35l-.09-.19a2.69,2.69,0,0,0-.16-.29,2.14,2.14,0,0,0-.13-.19,2.11,2.11,0,0,0-.19-.23c-.06-.06-.11-.12-.17-.17a2.11,2.11,0,0,0-.23-.19l-.19-.14-.27-.15a1,1,0,0,0-.21-.1,2.35,2.35,0,0,0-.35-.11l-.18-.06h0v-.12h1.17a3.05,3.05,0,0,0,.6-.06,3,3,0,0,0,2.37-2.91h0v-.52h0a3.07,3.07,0,0,0-.06-.53l0-.16a3.58,3.58,0,0,0-.11-.35l-.06-.15a2.32,2.32,0,0,0-.21-.38,2.07,2.07,0,0,0-.17-.24l-.09-.12a3,3,0,0,0-.88-.69H446a3,3,0,0,0,3-3v-.52a3,3,0,0,0-3-3Z"/><polygon class="cls-17" points="490.53 208.57 75.46 138.07 75.46 105.39 490.53 105.39 490.53 208.57"/></g><rect class="cls-18" x="51.56" y="108.82" width="35.32" height="246.27"/><rect class="cls-19" x="54.82" y="132.3" width="4.49" height="199.3" rx="2.22"/><rect class="cls-20" x="62.92" y="132.3" width="4.49" height="199.3" rx="2.22"/><rect class="cls-21" x="71.02" y="132.3" width="4.49" height="199.3" rx="2.22"/><rect class="cls-22" x="79.13" y="132.3" width="4.49" height="199.3" rx="2.22"/><rect class="cls-23" x="48.38" y="336" width="40.89" height="6.46" rx="2.97"/><rect class="cls-24" x="46.63" y="342.52" width="44.39" height="6.46" rx="2.97"/><rect class="cls-25" x="43.76" y="348.63" width="50.11" height="6.46" rx="2.97"/><rect class="cls-26" x="48.38" y="121.46" width="40.89" height="6.46" rx="2.97" transform="translate(137.64 249.37) rotate(180)"/><rect class="cls-27" x="46.63" y="114.93" width="44.39" height="6.46" rx="2.97" transform="translate(137.64 236.32) rotate(180)"/><rect class="cls-28" x="43.76" y="108.82" width="50.11" height="6.46" rx="2.97" transform="translate(137.64 224.1) rotate(180)"/><path class="cls-4" d="M93.88,112.31v-.52a3,3,0,0,0-3-3H69.22V355.09H90.91a3,3,0,0,0,3-3v-.52a3,3,0,0,0-3-3h-1.5A3,3,0,0,0,91,346v-.52a3,3,0,0,0-3-3H86.88v-.12a3,3,0,0,0,2.38-2.91V339a3,3,0,0,0-2.38-2.9V127.85a3,3,0,0,0,2.38-2.9v-.53a3,3,0,0,0-2.38-2.91v-.12h1.17a3,3,0,0,0,3-3v-.52a3,3,0,0,0-1.6-2.62h1.5A3,3,0,0,0,93.88,112.31Z"/><rect class="cls-18" x="136.63" y="108.82" width="35.32" height="246.27"/><rect class="cls-29" x="139.89" y="132.3" width="4.49" height="199.3" rx="2.22"/><rect class="cls-30" x="147.99" y="132.3" width="4.49" height="199.3" rx="2.22"/><rect class="cls-31" x="156.1" y="132.3" width="4.49" height="199.3" rx="2.22"/><rect class="cls-32" x="164.2" y="132.3" width="4.49" height="199.3" rx="2.22"/><rect class="cls-33" x="133.45" y="336" width="40.89" height="6.46" rx="2.97"/><rect class="cls-34" x="131.7" y="342.52" width="44.39" height="6.46" rx="2.97"/><rect class="cls-35" x="128.84" y="348.63" width="50.11" height="6.46" rx="2.97"/><rect class="cls-36" x="133.45" y="121.46" width="40.89" height="6.46" rx="2.97" transform="translate(307.78 249.37) rotate(180)"/><rect class="cls-37" x="131.7" y="114.93" width="44.39" height="6.46" rx="2.97" transform="translate(307.78 236.32) rotate(180)"/><rect class="cls-38" x="128.84" y="108.82" width="50.11" height="6.46" rx="2.97" transform="translate(307.78 224.1) rotate(180)"/><path class="cls-4" d="M179,112.31v-.52a3,3,0,0,0-3-3H154.29V355.09H176a3,3,0,0,0,3-3v-.52a3,3,0,0,0-3-3h-1.5a3,3,0,0,0,1.6-2.62v-.52a3,3,0,0,0-3-3H172v-.12a3,3,0,0,0,2.38-2.91V339a3,3,0,0,0-2.38-2.9V127.85a3,3,0,0,0,2.38-2.9v-.53a3,3,0,0,0-2.38-2.91v-.12h1.17a3,3,0,0,0,3-3v-.52a3,3,0,0,0-1.6-2.62H176A3,3,0,0,0,179,112.31Z"/><rect class="cls-18" x="221.7" y="108.82" width="35.32" height="246.27"/><rect class="cls-39" x="224.96" y="132.3" width="4.49" height="199.3" rx="2.22"/><rect class="cls-40" x="233.07" y="132.3" width="4.49" height="199.3" rx="2.22"/><rect class="cls-41" x="241.17" y="132.3" width="4.49" height="199.3" rx="2.22"/><rect class="cls-42" x="249.27" y="132.3" width="4.49" height="199.3" rx="2.22"/><rect class="cls-43" x="218.52" y="336" width="40.89" height="6.46" rx="2.97"/><rect class="cls-44" x="216.77" y="342.52" width="44.39" height="6.46" rx="2.97"/><rect class="cls-45" x="213.91" y="348.63" width="50.11" height="6.46" rx="2.97"/><rect class="cls-46" x="218.52" y="121.46" width="40.89" height="6.46" rx="2.97" transform="translate(477.93 249.37) rotate(180)"/><rect class="cls-47" x="216.77" y="114.93" width="44.39" height="6.46" rx="2.97" transform="translate(477.93 236.32) rotate(180)"/><rect class="cls-48" x="213.91" y="108.82" width="50.11" height="6.46" rx="2.97" transform="translate(477.93 224.1) rotate(180)"/><path class="cls-4" d="M264,112.31v-.52a3,3,0,0,0-3-3H239.36V355.09h21.69a3,3,0,0,0,3-3v-.52a3,3,0,0,0-3-3h-1.5a3,3,0,0,0,1.61-2.62v-.52a3,3,0,0,0-3-3H257v-.12a3,3,0,0,0,2.39-2.91V339a3,3,0,0,0-2.39-2.9V127.85a3,3,0,0,0,2.39-2.9v-.53a3,3,0,0,0-2.39-2.91v-.12h1.17a3,3,0,0,0,3-3v-.52a3,3,0,0,0-1.61-2.62h1.5A3,3,0,0,0,264,112.31Z"/><rect class="cls-18" x="306.78" y="108.82" width="35.32" height="246.27"/><rect class="cls-49" x="310.04" y="132.3" width="4.49" height="199.3" rx="2.22"/><rect class="cls-50" x="318.14" y="132.3" width="4.49" height="199.3" rx="2.22"/><rect class="cls-51" x="326.24" y="132.3" width="4.49" height="199.3" rx="2.22"/><rect class="cls-52" x="334.34" y="132.3" width="4.49" height="199.3" rx="2.22"/><rect class="cls-53" x="303.59" y="336" width="40.89" height="6.46" rx="2.97"/><rect class="cls-54" x="301.84" y="342.52" width="44.39" height="6.46" rx="2.97"/><rect class="cls-55" x="298.98" y="348.63" width="50.11" height="6.46" rx="2.97"/><rect class="cls-56" x="303.59" y="121.46" width="40.89" height="6.46" rx="2.97" transform="translate(648.07 249.37) rotate(180)"/><rect class="cls-57" x="301.84" y="114.93" width="44.39" height="6.46" rx="2.97" transform="translate(648.07 236.32) rotate(180)"/><rect class="cls-58" x="298.98" y="108.82" width="50.11" height="6.46" rx="2.97" transform="translate(648.07 224.1) rotate(180)"/><path class="cls-4" d="M349.09,112.31v-.52a3,3,0,0,0-3-3h-21.7V355.09h21.7a3,3,0,0,0,3-3v-.52a3,3,0,0,0-3-3h-1.51a3,3,0,0,0,1.61-2.62v-.52a3,3,0,0,0-3-3h-1.17v-.12a3,3,0,0,0,2.39-2.91V339a3,3,0,0,0-2.39-2.9V127.85a3,3,0,0,0,2.39-2.9v-.53a3,3,0,0,0-2.39-2.91v-.12h1.17a3,3,0,0,0,3-3v-.52a3,3,0,0,0-1.61-2.62h1.51A3,3,0,0,0,349.09,112.31Z"/><rect class="cls-18" x="391.85" y="108.82" width="35.32" height="246.27"/><rect class="cls-59" x="395.11" y="132.3" width="4.49" height="199.3" rx="2.22"/><rect class="cls-60" x="403.21" y="132.3" width="4.49" height="199.3" rx="2.22"/><rect class="cls-61" x="411.31" y="132.3" width="4.49" height="199.3" rx="2.22"/><rect class="cls-62" x="419.42" y="132.3" width="4.49" height="199.3" rx="2.22"/><rect class="cls-63" x="388.67" y="336" width="40.89" height="6.46" rx="2.97"/><rect class="cls-64" x="386.92" y="342.52" width="44.39" height="6.46" rx="2.97"/><rect class="cls-65" x="384.05" y="348.63" width="50.11" height="6.46" rx="2.97"/><rect class="cls-66" x="388.67" y="121.46" width="40.89" height="6.46" rx="2.97" transform="translate(818.22 249.37) rotate(180)"/><rect class="cls-67" x="386.92" y="114.93" width="44.39" height="6.46" rx="2.97" transform="translate(818.22 236.32) rotate(180)"/><rect class="cls-68" x="384.05" y="108.82" width="50.11" height="6.46" rx="2.97" transform="translate(818.22 224.1) rotate(180)"/><path class="cls-4" d="M434.16,112.31v-.52a3,3,0,0,0-3-3H409.51V355.09H431.2a3,3,0,0,0,3-3v-.52a3,3,0,0,0-3-3h-1.5a3,3,0,0,0,1.6-2.62v-.52a3,3,0,0,0-3-3h-1.18v-.12a3,3,0,0,0,2.39-2.91V339a3,3,0,0,0-2.39-2.9V127.85a3,3,0,0,0,2.39-2.9v-.53a3,3,0,0,0-2.39-2.91v-.12h1.18a3,3,0,0,0,3-3v-.52a3,3,0,0,0-1.6-2.62h1.5A3,3,0,0,0,434.16,112.31Z"/><rect class="cls-18" x="476.92" y="108.82" width="35.32" height="246.27"/><rect class="cls-69" x="480.18" y="132.3" width="4.49" height="199.3" rx="2.22"/><rect class="cls-70" x="488.28" y="132.3" width="4.49" height="199.3" rx="2.22"/><rect class="cls-71" x="496.39" y="132.3" width="4.49" height="199.3" rx="2.22"/><rect class="cls-72" x="504.49" y="132.3" width="4.49" height="199.3" rx="2.22"/><rect class="cls-73" x="473.74" y="336" width="40.89" height="6.46" rx="2.97"/><rect class="cls-74" x="471.99" y="342.52" width="44.39" height="6.46" rx="2.97"/><rect class="cls-75" x="469.12" y="348.63" width="50.11" height="6.46" rx="2.97"/><rect class="cls-76" x="473.74" y="121.46" width="40.89" height="6.46" rx="2.97" transform="translate(988.36 249.37) rotate(180)"/><rect class="cls-77" x="471.99" y="114.93" width="44.39" height="6.46" rx="2.97" transform="translate(988.36 236.32) rotate(180)"/><rect class="cls-78" x="469.12" y="108.82" width="50.11" height="6.46" rx="2.97" transform="translate(988.36 224.1) rotate(180)"/><path class="cls-4" d="M519.24,112.31v-.52a3,3,0,0,0-3-3H494.58V355.09h21.69a3,3,0,0,0,3-3v-.52a3,3,0,0,0-3-3h-1.5a3,3,0,0,0,1.6-2.62v-.52a3,3,0,0,0-3-3h-1.17v-.12a3,3,0,0,0,2.38-2.91V339a3,3,0,0,0-2.38-2.9V127.85a3,3,0,0,0,2.38-2.9v-.53a3,3,0,0,0-2.38-2.91v-.12h1.17a3,3,0,0,0,3-3v-.52a3,3,0,0,0-1.6-2.62h1.5A3,3,0,0,0,519.24,112.31Z"/><rect class="cls-18" x="34.75" y="82.76" width="493.53" height="22"/><rect class="cls-79" x="27.05" y="100.71" width="508.93" height="8.12"/><rect class="cls-80" x="27.05" y="78.71" width="508.93" height="8.12"/><polygon class="cls-18" points="281.51 79.41 30.75 79.41 156.13 41.91 281.51 4.41 406.89 41.91 532.27 79.41 281.51 79.41"/><polyline class="cls-81" points="46.37 77.07 163.94 41.91 281.51 6.74 399.09 41.91 516.66 77.07"/><path class="cls-17" d="M536,76.11,281.51,0,27.26,76v7.4H536.5ZM281.51,8.81,504.06,75.37H59Z"/></g></g></g></svg>