<svg xmlns="http://www.w3.org/2000/svg" viewBox="0 0 485.32 320.72"><defs><style>.cls-1{fill:#575ba5;}.cls-2{fill:#cfd4ec;}.cls-3{fill:#f0f3f9;}.cls-4{fill:#ecd165;}.cls-5{fill:#2f2c60;}.cls-6{fill:#575ba3;}.cls-30,.cls-7{fill:#373484;}.cls-8{fill:#cd8085;}.cls-9{fill:#dcabb0;}.cls-10{fill:#dce1f1;}.cls-11{fill:#945c2e;}.cls-12{fill:#d1872b;}.cls-13{fill:#a36d3c;}.cls-14{fill:#373481;}.cls-15{fill:#272253;}.cls-16{fill:#965c2e;}.cls-17{fill:#c27123;opacity:0.6;}.cls-18{fill:#a56d3c;}.cls-19{fill:#b24318;}.cls-20{fill:#c4541c;}.cls-21{fill:#eacf65;}.cls-22{fill:#daa9ae;}.cls-23{fill:#e6ca66;}.cls-24{fill:#c88d94;}.cls-25{fill:#575ba1;}.cls-26{fill:#cd832c;}.cls-26,.cls-30{opacity:0.2;}.cls-27{fill:#aa3d0c;}.cls-28{fill:#b85223;}.cls-29{fill:#deadb2;}.cls-31{fill:#c5541d;}.cls-32{fill:#575b9f;}.cls-33{fill:#dadfef;}.cls-34{fill:#e8cd66;}.cls-35{fill:#d58b2a;}.cls-36{fill:#c75d1d;}</style></defs><g id="Camada_2" data-name="Camada 2"><g id="Desenho"><g id="_floor" data-name="
floor"><path class="cls-1" d="M483,316.56H2.29A2.11,2.11,0,0,0,0,318.4v.49a2.1,2.1,0,0,0,2.29,1.83H483a2.1,2.1,0,0,0,2.29-1.83v-.49A2.11,2.11,0,0,0,483,316.56Z"/></g><rect class="cls-2" x="106.96" y="35.81" width="73.01" height="105.52"/><path class="cls-3" d="M113.61,115.92H173.3a1.7,1.7,0,1,0,0-3.4H113.61a1.7,1.7,0,1,0,0,3.4Z"/><path class="cls-3" d="M173.3,120.35H113.61a1.7,1.7,0,0,0,0,3.4H173.3a1.7,1.7,0,1,0,0-3.4Z"/><path class="cls-3" d="M173.3,128.17H113.61a1.7,1.7,0,0,0,0,3.4H173.3a1.7,1.7,0,1,0,0-3.4Z"/><polygon class="cls-4" points="165.59 102.21 162.65 102.19 161.76 99.38 160.83 102.18 157.88 102.16 160.25 103.9 159.32 106.7 161.72 104.98 164.09 106.73 163.2 103.93 165.59 102.21"/><polygon class="cls-4" points="153.51 102.12 152.62 99.31 151.69 102.11 148.74 102.09 151.11 103.83 150.18 106.63 152.58 104.92 154.95 106.67 154.06 103.86 156.45 102.14 153.51 102.12"/><polygon class="cls-4" points="144.37 102.05 143.48 99.25 142.55 102.04 139.6 102.02 141.97 103.77 141.04 106.56 143.44 104.85 145.81 106.6 144.92 103.79 147.31 102.08 144.37 102.05"/><polygon class="cls-4" points="135.23 101.98 134.34 99.18 133.41 101.97 130.46 101.95 132.83 103.7 131.9 106.49 134.3 104.78 136.67 106.53 135.78 103.72 138.17 102.01 135.23 101.98"/><polygon class="cls-4" points="126.09 101.92 125.2 99.11 124.27 101.9 121.32 101.88 123.69 103.63 122.76 106.42 125.16 104.71 127.53 106.46 126.64 103.65 129.03 101.94 126.09 101.92"/><circle class="cls-3" cx="143.46" cy="70.07" r="24.54" transform="translate(-3.27 7.13) rotate(-2.81)"/><path class="cls-5" d="M141.69,51.93s-.56-1.16-3.39-.84-3.62,2.85-3.75,4.54S132.79,77,129.5,79.9L140,78.32Z"/><path class="cls-6" d="M142.51,52.13s-3-1-4.6.49a3.18,3.18,0,0,0-.69,3.5Z"/><path class="cls-7" d="M152,58.07s-.05-6.65-10.75-5.88A5.23,5.23,0,0,0,137,55c-1.21,2.35-1.73,6.49,2.16,13.12Z"/><path class="cls-8" d="M149.87,78.08a1.32,1.32,0,0,0-.67-.56h0l-.37-.08-.6-.1a16.67,16.67,0,0,1-.37-6.59l-8.7-2.65c.68,5.71-.09,8.26-.47,9.12l-.48.07C133.94,77.92,153.34,86.31,149.87,78.08Z"/><path class="cls-9" d="M149.53,73s-10.61.48-10.81-6.13-1.71-11,5.06-11.6,8.16,1.9,8.77,4.09S152.29,72.67,149.53,73Z"/><path class="cls-10" d="M157.24,90.37a24.45,24.45,0,0,1-4.45,2.4l-.18.07-.05,0-.69.26A24.14,24.14,0,0,1,147,94.35a24.68,24.68,0,0,1-17.77-4.29h0l-.37-.27h0l-.47-.36a22.69,22.69,0,0,1-1.75-1.5c1-4.19,1.88-7.42,2.35-7.88a4,4,0,0,1,1-.66h0c2.64-1.37,8.23-2.12,8.23-2.12v0a2.85,2.85,0,0,0,.3.29h0a9.65,9.65,0,0,0,1.11.8,13.41,13.41,0,0,0,6.92,2.05c1.56,0,2.27-.42,2.56-.93.47-.84-.21-2-.27-2.06h0a1.72,1.72,0,0,1,.38.08l.07,0,.55.17c7.22,2.28,7.34,3.19,7.34,3.19,1.27,1.38,2.27,4,3.16,7-.56.53-1.15,1-1.75,1.5C158.12,89.75,157.69,90.07,157.24,90.37Z"/><path class="cls-7" d="M154.35,59.6c-.42-3.44-3.86-5.61-6.77-5.61s-5.69.3-5.69.3c-6.56,2.93-3.12,13.17-3.12,13.17s3.81-2.57,4.29-5.75c.3-2,3.49-3.06,5.35-3.83.41.25,4.67,3,4.19,6.48C152.6,64.36,154.77,63,154.35,59.6Z"/><rect class="cls-2" x="324.85" y="35.81" width="73.01" height="105.52"/><path class="cls-3" d="M331.5,115.92h59.7a1.7,1.7,0,0,0,0-3.4H331.5a1.7,1.7,0,1,0,0,3.4Z"/><path class="cls-3" d="M391.2,120.35H331.5a1.7,1.7,0,1,0,0,3.4h59.7a1.7,1.7,0,0,0,0-3.4Z"/><path class="cls-3" d="M391.2,128.17H331.5a1.7,1.7,0,0,0,0,3.4h59.7a1.7,1.7,0,0,0,0-3.4Z"/><polygon class="cls-4" points="379.65 99.38 378.72 102.18 375.77 102.16 378.14 103.9 377.21 106.7 379.61 104.98 381.98 106.73 381.09 103.93 383.49 102.21 380.54 102.19 379.65 99.38"/><polygon class="cls-4" points="370.51 99.31 369.58 102.11 366.63 102.09 369 103.83 368.07 106.63 370.47 104.92 372.84 106.67 371.95 103.86 374.35 102.14 371.4 102.12 370.51 99.31"/><polygon class="cls-4" points="361.37 99.25 360.44 102.04 357.49 102.02 359.86 103.77 358.93 106.56 361.33 104.85 363.7 106.6 362.81 103.79 365.21 102.08 362.26 102.05 361.37 99.25"/><polygon class="cls-4" points="352.23 99.18 351.3 101.97 348.35 101.95 350.72 103.7 349.79 106.49 352.19 104.78 354.56 106.53 353.67 103.72 356.06 102.01 353.12 101.98 352.23 99.18"/><polygon class="cls-4" points="343.09 99.11 342.16 101.9 339.21 101.88 341.58 103.63 340.65 106.42 343.05 104.71 345.42 106.46 344.53 103.65 346.93 101.94 343.98 101.92 343.09 99.11"/><circle class="cls-3" cx="361.35" cy="70.07" r="24.54"/><path class="cls-11" d="M357.76,76.06a12.4,12.4,0,0,0,1-5.42l7.54-5.19c.66,6.41,1.79,8.13,1.73,10.65,0,0-4,2.67-6.9,2.66C359,78.74,357.75,76.09,357.76,76.06Z"/><path class="cls-12" d="M384,79.48a24.51,24.51,0,0,1-5.82,8.43,22.69,22.69,0,0,1-1.75,1.5c-.43.34-.86.66-1.31,1a25.07,25.07,0,0,1-4.45,2.4l-.18.07-.05,0-.69.26a24,24,0,0,1-4.87,1.23,24.68,24.68,0,0,1-17.77-4.29l-.37-.27h0l-.47-.36a22.69,22.69,0,0,1-1.75-1.5A25.58,25.58,0,0,1,341.87,85c.78-1.37,1.55-2.64,2.3-3.74,1.05-1.56,6.94-3.77,13.7-5.54v0h0A3.44,3.44,0,0,0,361.39,78c2.73,0,6.14-1.88,6.35-4.38,0,0,10.8,2,13,2.82A6.75,6.75,0,0,1,384,79.48Z"/><path class="cls-13" d="M357,70.92s9.19.42,9.36-5.31,1.47-9.52-4.38-10-7.07,1.64-7.59,3.53S354.58,70.66,357,70.92Z"/><path class="cls-14" d="M366.31,66s-.73-8.19-9.05-7.52c-6,.49-4.3-5.68-4.3-5.68a85.81,85.81,0,0,1,10.5.13C372.93,53.86,367.15,64.77,366.31,66Z"/><path class="cls-15" d="M44.51,310c-6.71-.29-7,6.54-7,6.54H51.27S51.23,309.73,44.51,310Z"/><path class="cls-15" d="M84,310c-6.71-.29-7,6.54-7,6.54H90.79S90.75,309.73,84,310Z"/><path class="cls-5" d="M91.55,312.08l-13.84-.17-3.31,0A461.93,461.93,0,0,1,65,251c-.08-1.07-.18-2.05-.29-3V191.33c9.94,1.61,19.09,4,19.09,4l.54,7.19,0,.5Z"/><path class="cls-7" d="M68.68,195.15v21.17s-2,.51-2.21,1.92-1,57.61-13.58,93.84H36.19s.56-110.5,3.64-117.66Z"/><path class="cls-15" d="M42,200A14.23,14.23,0,0,0,54,193.86l-.39-.23a13.75,13.75,0,0,1-12,5.92V200Z"/><path class="cls-15" d="M84.18,200.31a13.58,13.58,0,0,1-6.19-5l.38-.23a13.17,13.17,0,0,0,5.76,4.64Z"/><path class="cls-16" d="M69.91,125.56c1.26-1.57-3.9-2.17-3.92-2.27C65.3,118.41,64.75,113,64.75,113l-12.54-1.33c-.28,3.85,0,7.26-1.15,11.72,0,.09-6.15.79.38,7.48C54.79,134.27,68.84,132.28,69.91,125.56Z"/><path class="cls-12" d="M98.33,164.45c-.11.89-.21,1.88-.28,2.81a3.59,3.59,0,0,1-3,3.27c-9,1.59-10.81-1.09-10.81-1.09-2,5.57.76,19.86.92,24.51a1.49,1.49,0,0,1-1.52,1.55l-43.1-.65a2.36,2.36,0,0,1-2.32-2.45c0-.88,0-2,0-3.25-.21-5.9-1.21-15-2.16-18.61-1.71-6.4-4.56-16.23-6.23-25.18A38.88,38.88,0,0,1,29,134.29c.26-6.26,2-6.79,3.73-7.66,2.82-1.4,7.81-2.62,18.4-3.66a3.5,3.5,0,0,0-.09.55c0,2.38,5.08,4.5,9.21,4.23,3.48-.23,5.7-2.81,5.7-4.24,0-.2,0-.42,0-.67,11.32.9,18.13,3.84,18.13,3.84S94.2,140.79,98,157.9A19.24,19.24,0,0,1,98.33,164.45Z"/><path class="cls-17" d="M80.35,138.65s3.5,12.95.33,16.62c0,0,3.11.19,3.6-.58C86.07,151.9,80.35,138.65,80.35,138.65Z"/><path class="cls-17" d="M72.42,166.87s-20.11,7.59-23.91,8.73-3.42,15.94-3.42,15.94a3.86,3.86,0,0,1-4.31,2c-3.22-.51-.37-9.87-2-16.2s-1.58-9.11-1.58-9.11L71,165Z"/><path class="cls-17" d="M49.31,149.44l-1.16-5.06c-1.34-5.06-2.7-4.8-2.7-4.8h0a.82.82,0,0,0-.85.27c-1.63,1.72,2.54,12.35,2.54,12.35s-1.55,5,.84,3.4c1.5-1,1.52-3.79,1.33-6.17Z"/><path class="cls-16" d="M88.86,154a8.82,8.82,0,0,0-10.92,2l-1.6.6-3.08.73L52.59,158.7S50.39,169.86,48,171c0,0,21.16-1.68,31-8.86l1.23-.82a10.29,10.29,0,0,0,5.52-2c2.59-1.9,2.07-1.16,3.94-2.47S88.86,154,88.86,154Z"/><path class="cls-18" d="M87.16,158.92a1.65,1.65,0,0,1,1.14.76c1.55,2.45,6.75,11.26,1.8,11.34-5.77.11-14.24-.14-25.33-7.23a90.93,90.93,0,0,0-9.67-5.21l-5.84.47s-2.78-6.33-1.28-6.69c5.93-1.4,4.53-1.51,6.82-1.38,1.62.09,2.71.14,7.37,2.61C66.41,155.83,73.52,156.62,87.16,158.92Z"/><path class="cls-12" d="M41.21,132.73a67.73,67.73,0,0,1,8,26.32s3.49-.85,4.09,0c1.93,2.69-1.41,11.1-5.37,12,0,0-10.63,1.21-13.21.32,0,0-2.52-6-5.49-29Z"/><path class="cls-5" d="M39.29,298.6c1.34-8.86,2.45-19.36,3.07-30.33.09-1.68.17-3.4.25-5.13.08-1.9.16-3.83.22-5.73a8.84,8.84,0,0,0-.33-2.13,8.7,8.7,0,0,1-.32-1.94c.18-7.22,0-13.83-.1-19.66q0-2.3-.09-4.5c-.25-13.26-.34-20.77-.33-20.84h0c0,.07-.34,7.55-.09,20.82,0,1.47.06,3,.09,4.5.13,5.83.28,12.43.1,19.64a8.46,8.46,0,0,0,.33,2.07,9.09,9.09,0,0,1,.32,2c-.06,1.9-.14,3.82-.22,5.72-.08,1.73-.16,3.45-.26,5.12-.61,11-1.42,21.56-2.76,30.4Z"/><path class="cls-18" d="M66.44,114.66s-14.12,3.28-16-5.55-5-14.35,3.92-16.81,11.43.52,12.78,3.31S70.07,113.57,66.44,114.66Z"/><path class="cls-1" d="M50.41,109.11s-1-11.64,11.65-14c9.22-1.68,7.19-9.5,7.19-9.5s-15.19,1.94-18.18,2.79C36.94,92.5,48.79,107.47,50.41,109.11Z"/><rect class="cls-2" x="191.24" width="122.56" height="177.14"/><path class="cls-3" d="M202.42,134.49H302.63a2.86,2.86,0,0,0,0-5.71H202.42a2.86,2.86,0,1,0,0,5.71Z"/><path class="cls-3" d="M302.63,141.91H202.42a2.87,2.87,0,0,0-2.86,2.86h0a2.86,2.86,0,0,0,2.86,2.85H302.63a2.86,2.86,0,0,0,2.85-2.85h0A2.86,2.86,0,0,0,302.63,141.91Z"/><path class="cls-3" d="M302.63,155.05H202.42a2.86,2.86,0,0,0-2.86,2.85h0a2.87,2.87,0,0,0,2.86,2.86H302.63a2.86,2.86,0,0,0,2.85-2.86h0A2.86,2.86,0,0,0,302.63,155.05Z"/><circle class="cls-3" cx="252.52" cy="57.51" r="41.19" transform="translate(134 287.78) rotate(-75.59)"/><path class="cls-19" d="M282.3,62.05c-7.75-4-13.07-5.68-12.76-10.78s-2-27-16.93-21.29c0,0-2.39-1.07-3.46-.91a2.92,2.92,0,0,1,1.32.63,11.51,11.51,0,0,0-6.26,1.2c-1.13.64-2.23,2.34-3.2,4.7-.06.16-.13.31-.19.47-.4,1-.78,2.2-1.12,3.43a52.55,52.55,0,0,0-1.43,7.11h0c-.12.82-.21,1.65-.29,2.48h0s0,.08,0,.11c-.56,6.17-.14,12.57,1.89,16.93a10.59,10.59,0,0,0,2.4,3.42,16.19,16.19,0,0,1-1.16-3.48,40.24,40.24,0,0,1-.87-5.84,36.8,36.8,0,0,0,1.31,5.83,17.58,17.58,0,0,0,2,4.48c4.27,2.8,10.23,8.44,15.61,14.27,1.2,1.31,2.37,2.62,3.48,3.92h0c1.91,2.22,3.67,4.39,5.13,6.35h0l.06.08c.11.15.22.29.32.44a41.34,41.34,0,0,0,23.89-26.56A38.39,38.39,0,0,0,282.3,62.05Z"/><path class="cls-8" d="M244.15,70.88c1.38-.64.53-12.37.53-12.37l11.67-2.31c.81,3.84.39,10.55,1.84,10.84.05,0-2.19,4.45-5.61,5.38C248.94,73.41,244.1,70.9,244.15,70.88Z"/><path class="cls-6" d="M255.81,33.92s-6-5.63-12.21.56A79.79,79.79,0,0,1,255.81,33.92Z"/><path class="cls-20" d="M256.84,55.13s3.23-5.1,4-9.47c.55-3.11-1-14.66-12.64-13a15.75,15.75,0,0,0-6.54,2.47c-2.52,1.7-6.16,5.38-2.09,15.46l1.06,3.4Z"/><path class="cls-9" d="M277.85,90a41.25,41.25,0,0,1-9.67,5.63l-.29.11c0-.11,0-.22-.05-.33h0c0-.09,0-.19,0-.29h0c-.23-1.59-.45-3.08-.63-4.35-.38-2.59-.63-4.32-.63-4.32l2.68-.29,8.15-.87s0,.21.11.82h0C277.56,86.79,277.69,88,277.85,90Z"/><path class="cls-9" d="M235,66.71v.13L233.83,83s-2.72,3-5.62,6l-.15.16h0l-.82.86A41.3,41.3,0,0,1,218,80c1.59-1.67,3.32-3.42,5.06-5.08,4.48-4.25,9.07-7.92,11.85-8.2Z"/><path class="cls-21" d="M278.07,85.83c-2-9.61-5.22-13.78-5.22-13.78h0c-3.7-2.8-10.07-5.07-15.23-5.64l-.23,0h0a7,7,0,0,1-6.21,3.17,7.63,7.63,0,0,1-6.24-3,4.91,4.91,0,0,1-.38-.55c-1.13,0-2.13.07-3,.11h-.44l-1.24.06a37.24,37.24,0,0,0-4.87.43h0S232.08,66,222.66,74c0,0,5.33,12.23,5.39,15.18l.15-.11h0c-.07.51-.13,1-.19,1.55h0a41,41,0,0,0,24.51,8.09,41.53,41.53,0,0,0,5.94-.43,40.77,40.77,0,0,0,8.19-2.06l1.15-.44c0-.13,0-.25,0-.37h0a1.49,1.49,0,0,0,0-.21c.19-1.73.42-3.42.67-5h0Z"/><path class="cls-22" d="M242.62,61.6s14.59.25,14.6-8.84,1.9-15.17-7.41-15.71S238.68,40,237.94,43,238.83,61.31,242.62,61.6Z"/><path class="cls-20" d="M243.16,36.83s4,10.66,10.12,12.23,8.79-.06,8.79-.06a17.4,17.4,0,0,1-5.68-10.26S246.17,31.75,243.16,36.83Z"/><path class="cls-20" d="M244.15,37.69s-3,2.38-3.71,4.7-1.05,7.07-2.44,6.91c0,0-3-7.24.37-11.34C242,33.61,244.15,37.69,244.15,37.69Z"/><polygon class="cls-4" points="289.68 111.47 284.74 111.44 283.25 106.72 281.68 111.41 276.74 111.38 280.72 114.31 279.15 119 283.18 116.13 287.15 119.06 285.66 114.35 289.68 111.47"/><polygon class="cls-4" points="269.39 111.32 267.9 106.61 266.34 111.3 261.39 111.26 265.37 114.2 263.81 118.89 267.83 116.01 271.81 118.95 270.32 114.23 274.34 111.36 269.39 111.32"/><polygon class="cls-4" points="254.05 111.2 252.56 106.49 251 111.18 246.05 111.14 250.03 114.08 248.47 118.77 252.49 115.9 256.47 118.83 254.97 114.12 259 111.24 254.05 111.2"/><polygon class="cls-4" points="238.71 111.09 237.21 106.38 235.65 111.07 230.71 111.03 234.68 113.97 233.12 118.66 237.14 115.78 241.12 118.72 239.63 114 243.65 111.13 238.71 111.09"/><polygon class="cls-4" points="223.36 110.97 221.87 106.26 220.31 110.95 215.36 110.91 219.34 113.85 217.78 118.54 221.8 115.67 225.78 118.6 224.28 113.89 228.31 111.01 223.36 110.97"/><path class="cls-22" d="M377,152.62l-5.3-.43a9.17,9.17,0,0,0-11.44,1.55s-2.11,2.4.17,3.08,1.52.12,4.7,1.14,6.64.63,8.33-1.07l1.87-1.9Z"/><path class="cls-23" d="M372.33,151.87v6.32s30,4,33.9,3.64c2.42-.2,16.36-10.71,18.91-17.5,1.59-4.23,2.71-7.65,2.71-7.65l2.92-18.13s-8.85.67-10.3,3.61-16.16,25-17.29,26.91C403.18,149.07,375.22,151.55,372.33,151.87Z"/><path class="cls-24" d="M434,110.5s-1.34,11-1.5,12.58l12.54,4.3,2.24-7.78a26.8,26.8,0,0,1-2.3-13.49Z"/><path class="cls-22" d="M432.91,111.36s12.78.58,13-7.38,2.05-13.25-6.1-14S430,92.3,429.28,94.94,429.59,111,432.91,111.36Z"/><path class="cls-25" d="M445.93,104s-1-10.63-12.34-10.25-9.31-12.79,8.45-7.58C454.49,89.81,447.07,102.29,445.93,104Z"/><path class="cls-15" d="M428.37,310.13l-2,6.43H406.52S411.6,307.89,428.37,310.13Z"/><path class="cls-15" d="M463.63,310.13l-1.77,6.43H444.28S448.78,307.89,463.63,310.13Z"/><path class="cls-5" d="M422.38,189.7l34,.74s-12.84,63.69-27.73,120.09l-18,.52Z"/><path class="cls-14" d="M460.36,188.6s9.92,49.09,4.25,122.45H449.22l-9.63-96.7h0c-.28-2.82-4.63-5.29-4.63-5.29l-.33-18.84Z"/><path class="cls-15" d="M459.56,199.68A14.72,14.72,0,0,1,447,193.29l.4-.23a14.19,14.19,0,0,0,12.45,6.61h-.32Z"/><path class="cls-5" d="M461,297.91c-1.39-9.2-2.55-20.12-3.18-31.51-.1-1.74-.19-3.54-.27-5.33-.09-2-.16-4-.22-5.95a8.63,8.63,0,0,1,.34-2.22,8.74,8.74,0,0,0,.33-2c-.19-7.49,0-14.36.1-20.42,0-1.59.07-3.14.1-4.67.25-13.78.35-21.58.34-21.66h0c0,.08.35,7.84.1,21.64,0,1.53-.07,3.08-.1,4.67-.14,6.05-.29,12.92-.1,20.4a9.23,9.23,0,0,1-.35,2.16,8.69,8.69,0,0,0-.33,2.07c.07,2,.14,4,.23,5.95.08,1.79.17,3.58.27,5.32.63,11.38,1.47,22.39,2.87,31.58Z"/><path class="cls-23" d="M420.6,187.29c.06,1.82.72,3.12,2.54,3.1,0,0,13.15.44,17.49.37,4.78-.06,19-.88,19-.88h.79a2.54,2.54,0,0,0,2.39-3.27c-1.38-4.59-3.41-13.48-1.94-22.83a108.44,108.44,0,0,0,1.36-22.57c-.57-10.09-3-17.13-6.46-19.94a61.23,61.23,0,0,0-10-2.63c-1.31,2-3.6,4.45-7.12,4.45a7,7,0,0,1-6.52-4.59c-4.29.18-9.16,1.69-10.79,2.69-3.36,2.06-3.46,23.29-1.57,46.79C420.36,175.73,420.48,183.56,420.6,187.29Z"/><path class="cls-26" d="M446,117.32s-3.33,4.8-7.17,5.07l3.78,5.57s8.43-4,7.91-8.25C450.54,119.71,447.25,117.41,446,117.32Z"/><path class="cls-22" d="M429.46,171.47l-1.34-.58A9.18,9.18,0,0,1,417,173.8s-2.85-1.42-1-2.91,1.36-.69,3.91-2.84,5.91-3.1,8.12-2.18l2.45,1Z"/><path class="cls-26" d="M433.33,117.22s2.26,5.42,5.79,5.14l-3.56,5.6s-7-4.25-7.25-8.27C428.31,119.69,432.1,117.31,433.33,117.22Z"/><path class="cls-14" d="M441.71,122.5h-5.09a.74.74,0,0,0-.41,1c.2.78,2.09,2.76,2.73,2.8S443.23,123.81,441.71,122.5Z"/><path class="cls-23" d="M433.28,116.61s1.74,5.51,5.57,5.78l-3.65,4.88s-6.79-4.17-7-8.19C428.2,119.08,432.05,116.7,433.28,116.61Z"/><path class="cls-23" d="M446.16,116.68s-3.47,5.44-7.31,5.71l3.64,5s7.84-3.66,8.05-7.67C450.54,119.71,447.39,116.77,446.16,116.68Z"/><path class="cls-25" d="M439.83,126s-1.64,12.32-1.64,15.83c0,14.78,2.3,37.73,2.3,37.73a6.51,6.51,0,0,1-1.63,4.6,27.21,27.21,0,0,1-3.79,3.36,13.07,13.07,0,0,1-3.52-6.5c-.62-2.8-1.46-20.08,2-38.57a142.19,142.19,0,0,1,4.5-16.72S439.42,125.5,439.83,126Z"/><path class="cls-26" d="M448.1,180.62a20.12,20.12,0,0,0,11.49,9.26h.79a2.54,2.54,0,0,0,2.39-3.27c-1.38-4.59-3.41-13.48-1.94-22.83a108.44,108.44,0,0,0,1.36-22.57c-4.3-2.83-10.84-6-14.09-1.68C443,146.25,441.5,169.07,448.1,180.62Z"/><path class="cls-23" d="M450.54,119.71a42.84,42.84,0,0,1,9.7,2.12c4.13,1.6,10.21,39.19,7.55,44.32-2.5,4.84-39.93,5.89-39.93,5.89l.45-5.49S451,161.19,458,158.77Z"/><polygon class="cls-5" points="428.91 146.15 396.08 146.15 402.88 170.07 435.44 170.07 428.91 146.15"/><polygon class="cls-14" points="428.41 146.15 395.58 146.15 402.38 170.07 434.93 170.07 428.41 146.15"/><rect class="cls-5" x="402.37" y="170.07" width="42.33" height="0.83" transform="translate(847.08 340.97) rotate(180)"/><path class="cls-2" d="M415.76,158.68a2.54,2.54,0,0,0-1.86-2.32,1.41,1.41,0,0,0-1.86,1.4,2.54,2.54,0,0,0,1.86,2.32A1.4,1.4,0,0,0,415.76,158.68Z"/><path class="cls-12" d="M282,298.5V235.1a2.23,2.23,0,0,0-2.22-2.23h-5.61a2.24,2.24,0,0,0-2.23,2.23v63.4a26.22,26.22,0,0,0-20,18.09H302A26.22,26.22,0,0,0,282,298.5Z"/><path class="cls-5" d="M161.09,156.34s.48-8.45-10.43-8-12.12,10.43-11.27,14.53,5,7.45,7.93,7.27a25.8,25.8,0,0,0,5.87-1.18Z"/><path class="cls-18" d="M205.37,220.9a6.64,6.64,0,0,0-8.31-.9l-14.28-4.61-2.92,5,16,3.07c1.26,1.2,3.77,1.42,6,.62s1.75-.38,3.38-.92S205.37,220.9,205.37,220.9Z"/><path class="cls-27" d="M198,260.72a.19.19,0,0,0,0,.08,30.49,30.49,0,0,1-3.63,11.09c-3.58,6-10.38,12.77-26.67,15-.79.1-1.61.2-2.44.28-1.52.16-3.12.28-4.8.35l-.64,0a78.71,78.71,0,0,1-16-2.4c-12.14-2.88-20.06-8.81-25.06-16h0a39.51,39.51,0,0,1-3.82-6.93,53.23,53.23,0,0,1-3.94-20,66.46,66.46,0,0,1,2.11-15.67,28.93,28.93,0,0,1,3.86-8.6c.46-.67,1-1.33,1.48-2a21.81,21.81,0,0,1,6-5c5.8-3.31,24.88-6.6,41,1.93C195.28,228.55,199.76,247.94,198,260.72Z"/><path class="cls-12" d="M185.28,311.91H161.62V275.76H155v36.15H130.39a2.33,2.33,0,1,0,0,4.65h54.89a2.33,2.33,0,1,0,0-4.65Z"/><path class="cls-28" d="M198,260.8a30.49,30.49,0,0,1-3.63,11.09c-3.58,6-10.38,12.77-26.67,15q-1.11.15-2.28.27h-.16c-1.52.16-3.12.27-4.8.35l-.64,0a79.35,79.35,0,0,1-16-2.39l-.74-.19-.46-.11-.39-.1-1.18-.33-.3-.09-.52-.16-.68-.22-.68-.22-.75-.26-.46-.17-1.22-.46-.31-.13-.46-.19,0,0-.6-.26-.64-.29-.53-.24-.06,0-.56-.27-.49-.24-.12-.07-.48-.25-.69-.37-.48-.27-.54-.31-.53-.32-.5-.31-.4-.26-.28-.18-.36-.24-.5-.34-1-.7-.47-.36-.4-.31-1-.79-.4-.35-.32-.29-.33-.29-.32-.3-.32-.3-.4-.4-.33-.33c-.36-.37-.71-.74-1-1.12l-.26-.29,0,0-.45-.54c-.21-.24-.42-.49-.62-.74l-.24-.31c-.21-.27-.42-.54-.62-.82l-.3-.4-.31-.45a39.23,39.23,0,0,1-2.88-5.67,150.77,150.77,0,0,1,35.87-6.26l.81,0a102.57,102.57,0,0,1,13.42.38C177,258.58,188.39,259.77,198,260.8Z"/><path class="cls-16" d="M167.55,185.9l-14-1.23a63.43,63.43,0,0,0,1-14l10,3.05S163.24,181.45,167.55,185.9Z"/><path class="cls-18" d="M167.83,177.84s-12,2.19-13.27-5.32-3.65-12.27,4-14,9.6.89,10.63,3.3S170.92,177.07,167.83,177.84Z"/><polygon class="cls-29" points="232.76 308.47 239.58 315.43 243.68 312.51 237.8 299.4 232.76 308.47"/><path class="cls-16" d="M151.91,240.78c-.71,1.5-10.15,18.48,5.52,23s54.93.7,54.93.7.84,13.32,5.27,19.56c7.12,10,25.24,28.58,25.24,28.58l3.31-.11s-22-58.15-27.08-61.86c-3.73-2.72-22.52-7.53-32.91-9.14-2.53-.39-17.84-.85-21.94-1C157.83,240.24,152.31,240,151.91,240.78Z"/><path class="cls-7" d="M240.6,311.37l1.57,5.19h15.57S253.76,309.56,240.6,311.37Z"/><path class="cls-18" d="M145.7,240.78c-.71,1.5-10.15,18.48,5.52,23s52.28,2.56,52.28,2.56S207,277.8,211.42,284c7.12,10,25.24,28.58,25.24,28.58l7-.11S218,254.36,212.89,250.65c-3.73-2.72-22.52-7.53-32.91-9.14-2.53-.39-17.84-.85-21.94-1C151.61,240.24,146.1,240,145.7,240.78Z"/><path class="cls-1" d="M218,250c-.07,0-.53-.09-6,.09-5.82.2-11.82,17.67-11.82,17.67-5.07.8-40.46-.74-54.49-4.9-3.35-1-5.48-2.13-5.7-3.42-.34-2.08.16-4.94,1-7.9a87.55,87.55,0,0,1,5.59-13.62,21.59,21.59,0,0,0,7,1.58,113.19,113.19,0,0,0,16.68,0C186.81,237.57,217.37,249.31,218,250Z"/><path class="cls-1" d="M189.05,217.41l-.82,3.14-.36,1.34s-12-1.22-12.28-3c-.14-.88-2.34-7.82-4.49-14.51s-4.21-13-4.21-13l-1.1-8.07s7.26,1.37,8,2.29c1.77,2.24,7.22,28.19,7.22,28.19C181.55,214,189.05,217.41,189.05,217.41Z"/><path class="cls-30" d="M188.23,220.55l-.36,1.34s-12-1.22-12.28-3c-.14-.88-2.34-7.82-4.49-14.51l-.5-10.66s6.23,11.79,7.75,19.19c0,0-.23,3.51,1.51,4.07C181.11,217.42,185.7,219.43,188.23,220.55Z"/><path class="cls-1" d="M172,230.8a36.42,36.42,0,0,0,2.92,8.51h-.09l-30.71,4s.6-1.51,1.37-3.85c1.58-4.8,3.9-13.13,3.4-19.32-.23-2.77-.33-8.8-.82-16-.35-5.19-.9-11-1.85-16.55,0,0,4.3-3,7.59-3.78,5.49-1.29,12.1-.36,20,1.82,0,0,7,25.47-1.61,42.24a5.08,5.08,0,0,0-.22,2.91Z"/><path class="cls-31" d="M155.27,156.52s-2.9-1.05-4.74.75.13,4,.13,4Z"/><path class="cls-7" d="M154.56,172.52s4.78-1,4.59-5.87,4.78-6.61,9.43-6c0,0,0-6-12.13-4.76S154.56,172.52,154.56,172.52Z"/><path class="cls-16" d="M153.76,183.83s4.32,6.16,10.47,6c0,0,2.69-4.68,1.56-6.44S153.76,183.83,153.76,183.83Z"/><polygon class="cls-14" points="212.69 200.03 251.96 200.03 243.83 228.65 204.89 228.65 212.69 200.03"/><polygon class="cls-32" points="213.29 200.03 252.56 200.03 244.43 228.65 205.49 228.65 213.29 200.03"/><rect class="cls-14" x="193.79" y="228.65" width="50.64" height="0.99"/><path class="cls-33" d="M228.42,215a3,3,0,0,1,2.23-2.78,1.69,1.69,0,0,1,2.22,1.67,3,3,0,0,1-2.22,2.78A1.68,1.68,0,0,1,228.42,215Z"/><path class="cls-30" d="M174.87,239.31h-.09c-3.4-.1-9.21-.17-12.26.37.28-.11,9.22-3.65,9.43-8.89A36.42,36.42,0,0,0,174.87,239.31Z"/><path class="cls-30" d="M153.6,254.09c-3.14-1.74-1.57-8.87,0-14.53,3-5.54,14.32-22.45,15.66-23.65,1.5-1.34,0-1.9,0-1.9-9.65-.61-15.08-9.81-15.08-9.81l-2.68,2,.07.19A26.77,26.77,0,0,0,148,204.2c.49,7.17.59,13.2.82,16,.49,6-1.7,14.07-3.27,18.92A111.06,111.06,0,0,0,141,251.6l1.28,2.67,3.4,8.65c14,4.15,49.42,5.7,54.49,4.9C196.58,256.76,158.32,256.7,153.6,254.09Z"/><path class="cls-18" d="M197.67,226a6.64,6.64,0,0,0-8.31-.9l-14.27-4.61-2.92,5,16,3.07c1.25,1.2,3.77,1.42,6,.62s1.75-.38,3.38-.92S197.67,226,197.67,226Z"/><path class="cls-1" d="M153.76,183.83s-9.17,2.07-10.66,6.67c-.69,2.13,9.07,29.32,12.42,31.3s19,4.86,19,4.86l.92-6.16s-10.58-4.62-11.45-6S153.76,183.83,153.76,183.83Z"/><polygon class="cls-34" points="175.42 220.5 173.56 219.67 170.6 226.21 174.48 227.02 175.42 220.5"/><polygon class="cls-34" points="189.05 217.41 187.19 216.57 185.07 221.64 187.87 221.89 189.05 217.41"/><path class="cls-35" d="M167.72,286.86l-.83.1-1.23.14-.22,0h0c-1.08.15-2.51.31-3.49.36l-1.34,0h-.75a79.35,79.35,0,0,1-16-2.39l-.74-.19-.46-.11-.39-.1-1.18-.33-.3-.09-.52-.16-.68-.22-.68-.22-.75-.26-.46-.17-1.22-.46-.31-.13-.46-.19,0,0-.6-.26-.64-.29-.53-.24-.06,0-.56-.27-.49-.24-.12-.07-.48-.25-.69-.37-.48-.27-.54-.31-.53-.32-.5-.31-.4-.26-.28-.18-.36-.24-.5-.34-1-.7-.47-.36-.4-.31-1-.79-.4-.35-.32-.29-.33-.29-.32-.3-.32-.3-.4-.4-.33-.33c-.36-.37-.71-.74-1-1.12l-.26-.29,0,0-.45-.54c-.21-.24-.42-.49-.62-.74l-.24-.31c-.21-.27-.42-.54-.62-.82l-.3-.4-.31-.45a39.87,39.87,0,0,1-3.82-6.93,53.23,53.23,0,0,1-3.94-20,66.46,66.46,0,0,1,2.11-15.67,28.76,28.76,0,0,1,3.86-8.59c.35-.52.71-1,1.1-1.5.12-.16.25-.31.38-.47,6.81,7.13,22.2,23.92,34.11,41.16C159.81,267.56,165.74,278.15,167.72,286.86Z"/><path class="cls-36" d="M166.89,287l-1.23.14-.22,0h0c-1.08.15-2.51.31-3.49.36l-1.34,0h-.75a79.35,79.35,0,0,1-16-2.39l-.74-.19-.46-.11-.39-.1-1.18-.33-.3-.09-.52-.16-.68-.22-.68-.22-.75-.26-.46-.17-1.22-.46-.31-.13-.46-.19,0,0-.6-.26-.64-.29-.53-.24-.06,0-.56-.27-.49-.24-.12-.07-.48-.25-.69-.37-.48-.27-.54-.31-.53-.32-.5-.31-.4-.26-.28-.18-.36-.24-.5-.34-1-.7-.47-.36-.4-.31-1-.79-.4-.35-.32-.29-.33-.29-.32-.3-.32-.3-.4-.4-.33-.33c-.36-.37-.71-.74-1-1.12l-.26-.29,0,0-.45-.54c-.21-.24-.42-.49-.62-.74l-.24-.31c-.21-.27-.42-.54-.62-.82l-.3-.4-.31-.45a39.87,39.87,0,0,1-3.82-6.93,53.23,53.23,0,0,1-3.94-20,66.46,66.46,0,0,1,2.11-15.67,28.76,28.76,0,0,1,3.86-8.59c.35-.52.71-1,1.1-1.5,7,7.38,22,23.84,33.68,40.73C159,267.58,164.91,278.26,166.89,287Z"/><path class="cls-1" d="M235.1,311.37l1.57,5.19h15.58S248.26,309.56,235.1,311.37Z"/><path class="cls-12" d="M188.74,229.63H365.17a2.54,2.54,0,0,1,2.54,2.54v1.39a2.55,2.55,0,0,1-2.55,2.55H188.74a2.55,2.55,0,0,1-2.55-2.55v-1.39A2.54,2.54,0,0,1,188.74,229.63Z"/></g></g></svg>