<svg xmlns="http://www.w3.org/2000/svg" xmlns:xlink="http://www.w3.org/1999/xlink" viewBox="0 0 389.72 396.01"><defs><style>.cls-1{isolation:isolate;}.cls-2{fill:url(#linear-gradient);}.cls-3{fill:#91b3fa;}.cls-22,.cls-23,.cls-4{fill:#fff;}.cls-4{mix-blend-mode:soft-light;}.cls-5{fill:#bdd0fb;}.cls-6{fill:url(#linear-gradient-2);}.cls-7{fill:url(#linear-gradient-3);}.cls-8{fill:url(#linear-gradient-4);}.cls-9{fill:url(#linear-gradient-5);}.cls-10{fill:url(#linear-gradient-6);}.cls-11{fill:url(#linear-gradient-7);}.cls-12{fill:url(#linear-gradient-8);}.cls-13{fill:url(#linear-gradient-9);}.cls-14{fill:url(#linear-gradient-10);}.cls-15{fill:url(#linear-gradient-11);}.cls-16{fill:url(#linear-gradient-12);}.cls-17{fill:url(#linear-gradient-13);}.cls-18{fill:url(#linear-gradient-14);}.cls-19{fill:url(#linear-gradient-15);}.cls-20{fill:url(#linear-gradient-16);}.cls-21{fill:url(#linear-gradient-17);}.cls-22{opacity:0.74;}.cls-24{fill:url(#linear-gradient-18);}.cls-25{fill:url(#linear-gradient-19);}.cls-26{fill:url(#linear-gradient-20);}.cls-27{fill:url(#linear-gradient-21);}.cls-28{fill:url(#linear-gradient-22);}.cls-29{fill:url(#linear-gradient-23);}.cls-30{fill:url(#linear-gradient-24);}.cls-31{fill:url(#linear-gradient-25);}.cls-32{fill:url(#linear-gradient-26);}.cls-33{fill:url(#linear-gradient-27);}.cls-34{fill:url(#linear-gradient-28);}.cls-35{fill:url(#linear-gradient-29);}.cls-36{fill:url(#linear-gradient-30);}.cls-37{fill:url(#linear-gradient-31);}.cls-38{fill:url(#linear-gradient-32);}.cls-39{fill:url(#linear-gradient-33);}.cls-40{fill:url(#linear-gradient-34);}.cls-41{fill:url(#linear-gradient-35);}</style><linearGradient id="linear-gradient" x1="423.1" y1="399.65" x2="130.54" y2="143.66" gradientUnits="userSpaceOnUse"><stop offset="0" stop-color="#dae3fe"/><stop offset="1" stop-color="#e9effd"/></linearGradient><linearGradient id="linear-gradient-2" x1="393.11" y1="-86.27" x2="51.14" y2="384.61" gradientUnits="userSpaceOnUse"><stop offset="0" stop-color="#4f52ff"/><stop offset="1" stop-color="#4042e2"/></linearGradient><linearGradient id="linear-gradient-3" x1="207.72" y1="244.77" x2="198.16" y2="355.66" xlink:href="#linear-gradient-2"/><linearGradient id="linear-gradient-4" x1="202.8" y1="148.96" x2="204.72" y2="348.76" xlink:href="#linear-gradient-2"/><linearGradient id="linear-gradient-5" x1="203.77" y1="317.02" x2="204.72" y2="212.81" xlink:href="#linear-gradient-2"/><linearGradient id="linear-gradient-6" x1="228.9" y1="12.47" x2="190.6" y2="102.82" xlink:href="#linear-gradient-2"/><linearGradient id="linear-gradient-7" x1="20.68" y1="102.28" x2="151.32" y2="102.28" xlink:href="#linear-gradient-2"/><linearGradient id="linear-gradient-8" x1="98.06" y1="49.29" x2="91.9" y2="63.83" xlink:href="#linear-gradient-2"/><linearGradient id="linear-gradient-9" x1="353.38" y1="65.87" x2="306.12" y2="177.35" xlink:href="#linear-gradient-2"/><linearGradient id="linear-gradient-10" x1="218.8" y1="14.31" x2="195.86" y2="85.05" xlink:href="#linear-gradient-2"/><linearGradient id="linear-gradient-11" x1="326.42" y1="49.75" x2="320.25" y2="64.29" xlink:href="#linear-gradient-2"/><linearGradient id="linear-gradient-12" x1="310.28" y1="241.35" x2="316.02" y2="158.18" xlink:href="#linear-gradient-2"/><linearGradient id="linear-gradient-13" x1="317.64" y1="124.23" x2="311.37" y2="204.41" xlink:href="#linear-gradient-2"/><linearGradient id="linear-gradient-14" x1="74.02" y1="267.91" x2="87.4" y2="139.81" xlink:href="#linear-gradient-2"/><linearGradient id="linear-gradient-15" x1="86.53" y1="83.2" x2="83.63" y2="226.25" xlink:href="#linear-gradient-2"/><linearGradient id="linear-gradient-16" x1="448.47" y1="-106.29" x2="52.7" y2="332.51" gradientUnits="userSpaceOnUse"><stop offset="0" stop-color="#ff928e"/><stop offset="1" stop-color="#fe7062"/></linearGradient><linearGradient id="linear-gradient-17" x1="428.16" y1="100.99" x2="259.9" y2="191.81" gradientUnits="userSpaceOnUse"><stop offset="0" stop-color="#e1473d"/><stop offset="1" stop-color="#e9605a"/></linearGradient><linearGradient id="linear-gradient-18" x1="-15248.98" y1="274.43" x2="-15226.88" y2="274.43" gradientTransform="matrix(-1, 0, 0, 1, -14890.34, 0)" gradientUnits="userSpaceOnUse"><stop offset="0" stop-color="#febbba"/><stop offset="1" stop-color="#ff928e"/></linearGradient><linearGradient id="linear-gradient-19" x1="319.84" y1="388.14" x2="336.42" y2="388.14" xlink:href="#linear-gradient-2"/><linearGradient id="linear-gradient-20" x1="-9632.98" y1="260.43" x2="-9632.98" y2="294.84" gradientTransform="matrix(-1, 0, 0, 1, -9304.98, 0)" gradientUnits="userSpaceOnUse"><stop offset="0" stop-color="#09005d"/><stop offset="1" stop-color="#1a0f91"/></linearGradient><linearGradient id="linear-gradient-21" x1="-15222.15" y1="369.27" x2="-15225.32" y2="396.9" xlink:href="#linear-gradient-18"/><linearGradient id="linear-gradient-22" x1="-9604.19" y1="260.43" x2="-9604.19" y2="294.84" xlink:href="#linear-gradient-20"/><linearGradient id="linear-gradient-23" x1="287.32" y1="388.58" x2="311.18" y2="388.58" xlink:href="#linear-gradient-2"/><linearGradient id="linear-gradient-24" x1="-15196.36" y1="372.23" x2="-15199.53" y2="399.86" xlink:href="#linear-gradient-18"/><linearGradient id="linear-gradient-25" x1="-15158.75" y1="245.89" x2="-15260" y2="403.01" gradientTransform="matrix(-1, 0, 0, 1, -14890.34, 0)" xlink:href="#linear-gradient-20"/><linearGradient id="linear-gradient-26" x1="361.38" y1="176.45" x2="322.18" y2="261.53" gradientUnits="userSpaceOnUse"><stop offset="0" stop-color="#fe7062"/><stop offset="1" stop-color="#ff928e"/></linearGradient><linearGradient id="linear-gradient-27" x1="-15215.16" y1="192.65" x2="-15227.25" y2="244.88" xlink:href="#linear-gradient-18"/><linearGradient id="linear-gradient-28" x1="-13376.69" y1="-10422.19" x2="-13398.13" y2="-10393.82" gradientTransform="matrix(-0.69, -0.73, -0.73, 0.69, -16429.96, -2413.66)" xlink:href="#linear-gradient-18"/><linearGradient id="linear-gradient-29" x1="-13393.07" y1="-10415.37" x2="-13367.45" y2="-10415.37" gradientTransform="matrix(-0.69, -0.73, -0.73, 0.69, -16429.96, -2413.66)" xlink:href="#linear-gradient-20"/><linearGradient id="linear-gradient-30" x1="-13408.1" y1="-10399.72" x2="-13390.9" y2="-10417.37" gradientTransform="matrix(-0.69, -0.73, -0.73, 0.69, -16429.96, -2413.66)" xlink:href="#linear-gradient-18"/><linearGradient id="linear-gradient-31" x1="424.55" y1="135.94" x2="373.88" y2="199.99" xlink:href="#linear-gradient-17"/><linearGradient id="linear-gradient-32" x1="-15215.53" y1="288.07" x2="-15224.02" y2="303.18" gradientTransform="matrix(-1, 0, 0, 1, -14890.34, 0)" xlink:href="#linear-gradient-20"/><linearGradient id="linear-gradient-33" x1="345.8" y1="187.37" x2="286.53" y2="233.74" xlink:href="#linear-gradient-26"/><linearGradient id="linear-gradient-34" x1="-15887.99" y1="191.37" x2="-15961.96" y2="286.01" gradientTransform="matrix(-1, 0, 0, 1, -15658.11, 0)" xlink:href="#linear-gradient-18"/><linearGradient id="linear-gradient-35" x1="-15878.09" y1="199.11" x2="-15952.06" y2="293.75" gradientTransform="matrix(-1, 0, 0, 1, -15658.11, 0)" xlink:href="#linear-gradient-18"/></defs><g class="cls-1"><g id="Camada_2" data-name="Camada 2"><g id="Desenho"><path class="cls-2" d="M373.38,266.7c-37.81,89-138.53,138.91-225.87,125.45-14.22-2.19-53.18-8.71-87.68-39.47-66.41-59.23-80.61-176.5-27-259.14C71.78,33.39,141.68-.71,208.09,1c14.3.36,69.13,2.63,117.31,42.36a180.53,180.53,0,0,1,36.75,41.7C395.18,136.71,398,208.68,373.38,266.7Z"/><path class="cls-3" d="M47,25.46a2.29,2.29,0,0,1,3.56-2.53c18.12,13.52,62.69,55.08,62,136.65-.82,102.33,24.39,136.78,53.12,156.27,0,0-37.15-6.48-64-41.29C35.73,189.11,59.18,63.11,47,25.46Z"/><path class="cls-4" d="M63,55.57c3.32,11,6.43,22.07,9.13,33.23s5.17,22.37,7.23,33.65,3.83,22.62,5.16,34,2.26,22.8,3.1,34.28,1.77,23,3.81,34.52a116.42,116.42,0,0,0,10.86,33.35c1.35,2.61,2.76,5.2,4.3,7.68s3.11,5,4.76,7.38a120.9,120.9,0,0,0,38.24,35.74,2.22,2.22,0,0,0,2.34-3.77h0c-2.39-1.53-4.76-3.08-7-4.74-1.16-.81-2.28-1.67-3.42-2.51s-2.24-1.71-3.31-2.63a117.13,117.13,0,0,1-12.26-11.62,128.49,128.49,0,0,1-19.24-27.73,112,112,0,0,1-6.46-15.57,126.82,126.82,0,0,1-4.13-16.42c-2.06-11.15-3-22.58-4-34s-2.1-23-3.66-34.41q-1.15-8.58-2.61-17.12c-.47-2.85-1-5.69-1.51-8.52s-1.11-5.67-1.7-8.49q-3.54-17-8.12-33.64c-3.11-11.1-6.51-22.12-10.33-33a.59.59,0,0,0-1.13.37Z"/><path class="cls-5" d="M112.55,353.06a5.78,5.78,0,0,1-8.79,3.85C84.62,344.8,33.59,305.67,24.35,228,16.55,162.46,6.09,127.64.25,112.17a3.62,3.62,0,0,1,5.36-4.32C38,128.8,138.35,206.56,112.55,353.06Z"/><path class="cls-4" d="M107.08,354.05a1.55,1.55,0,0,1-.24.19,1.6,1.6,0,0,1-2.21-.49c-.54-.85-54-85.73-69-176.41a1.6,1.6,0,1,1,3.16-.52c14.86,90,68,174.37,68.5,175.21A1.59,1.59,0,0,1,107.08,354.05Z"/><polygon class="cls-6" points="219.95 328.6 187.95 328.6 202.32 0 204.31 0.23 219.95 328.6"/><rect class="cls-7" x="128.8" y="283.54" width="149.85" height="15.02"/><rect class="cls-8" x="116.07" y="298.56" width="176.47" height="15.02"/><rect class="cls-9" x="102.19" y="313.58" width="203.08" height="15.02"/><rect class="cls-10" x="91.07" y="54.67" width="237.37" height="5.95"/><polygon class="cls-11" points="22.59 152.67 20.68 151.23 95.12 51.9 151.32 151.36 149.24 152.54 94.84 56.26 22.59 152.67"/><circle class="cls-12" cx="94.98" cy="56.56" r="7.9"/><polygon class="cls-13" points="252.86 154.78 250.95 153.34 325.39 54.01 381.59 153.47 379.51 154.65 325.11 58.37 252.86 154.78"/><circle class="cls-14" cx="203.58" cy="61.23" r="22.84"/><circle class="cls-15" cx="323.34" cy="57.02" r="7.9"/><path class="cls-16" d="M316.23,218.38a64.32,64.32,0,0,0,64.32-64.32H251.91A64.32,64.32,0,0,0,316.23,218.38Z"/><rect class="cls-17" x="245.31" y="147.44" width="140.26" height="9.79" rx="1.45"/><path class="cls-18" d="M86,216.27A64.32,64.32,0,0,0,150.28,152H21.64A64.32,64.32,0,0,0,86,216.27Z"/><rect class="cls-19" x="15.04" y="145.33" width="140.26" height="9.79" rx="1.45"/><path class="cls-20" d="M40.26,150.26a8.19,8.19,0,0,1,6.36-2.19c25,2.24,71.61-9.79,102.08-41,2.12-2.17,6-.94,8.4.87,33.89,25.33,90.06,30.57,109.56,31.64a8.25,8.25,0,0,1,7.73,7.37c17.73,171.29-93.79,233.35-116.92,244.31a8.27,8.27,0,0,1-7.88-.46C34.32,319,39.25,225.65,37.65,156.46A8.22,8.22,0,0,1,40.26,150.26Z"/><path class="cls-21" d="M274.39,147a8.25,8.25,0,0,0-7.73-7.37C247.16,138.54,190.93,133.3,157,108a9.73,9.73,0,0,0-5.52-2v285.8a8.4,8.4,0,0,0,5.89-.45C180.54,380.33,292.12,318.27,274.39,147Z"/><path class="cls-22" d="M154.35,379a2.88,2.88,0,0,1-1.55-.45c-44.22-28.27-73-62.06-88.11-103.32C51.23,238.37,50.57,200.86,50,167.77l-.08-4.41a2.87,2.87,0,0,1,2.88-2.92h0c27.34,0,68.38-12.07,98.49-39a2.86,2.86,0,0,1,3.5-.26c14.19,9.42,46.78,25.87,105.46,30.2a2.84,2.84,0,0,1,2.64,2.61c5.87,66.87-8,123.41-41.34,168.07-24.87,33.35-54.36,50.73-65.88,56.65h0A2.87,2.87,0,0,1,154.35,379ZM52.81,161.84a1.53,1.53,0,0,0-1.09.44,1.48,1.48,0,0,0-.41,1.05l.08,4.41c.58,33,1.23,70.37,14.61,107,15,41,43.6,74.53,87.55,102.62a1.49,1.49,0,0,0,1.47.08h0c11.44-5.88,40.71-23.13,65.4-56.25,33.08-44.37,46.9-100.59,41.07-167.11a1.47,1.47,0,0,0-1.35-1.34,322,322,0,0,1-49.68-7.53c-22.75-5.43-41.74-13.13-56.46-22.89a1.46,1.46,0,0,0-1.79.13c-30.38,27.22-71.81,39.4-99.4,39.4Z"/><path class="cls-23" d="M249.93,183.18c-.41-8.09-5.64-14.88-12.16-15.74-5.18-.68-9.79,2.39-12.24,7.37-2.46-5.22-7.11-8.78-12.39-8.63-6.71.19-12.17,6.59-12.6,14.83a19.08,19.08,0,0,0,4.69,13.82l19,16.22a2.06,2.06,0,0,0,2.7.08l18.56-14.8A17.64,17.64,0,0,0,249.93,183.18Z"/><path class="cls-24" d="M350.69,263a33.87,33.87,0,0,0,7.95,5.81,65.88,65.88,0,0,1-14.54,12.93l-1.8,4-5.76-6.91S346.88,273.77,350.69,263Z"/><path class="cls-25" d="M319.84,394a1.61,1.61,0,0,1,0-.37c1.87-7.4,11.13-12,11.13-12l3.68.29c2.11,6.52,1.83,10.52,1.5,12.3,0,.05,0,.1,0,.15A86.63,86.63,0,0,1,319.84,394Z"/><path class="cls-26" d="M336.15,394.4a1.61,1.61,0,0,1-1.17,1.18c-4.31.9-11.15.17-14-.2a1.35,1.35,0,0,1-1.11-1.34A86.63,86.63,0,0,0,336.15,394.4Z"/><path class="cls-27" d="M336.16,376.48,334.61,384a1.24,1.24,0,0,1-1.05,1,10.4,10.4,0,0,1-2.41,0,1.53,1.53,0,0,1-1.22-1.8l1.08-6.65Z"/><path class="cls-28" d="M303.94,394.32c4.06-.11,6.16-.59,7.24-1,0,.4,0,.81,0,1.24a.81.81,0,0,1-.77.81l-22.26-.14a1,1,0,0,1-.82-1.48C290.24,394,297.68,394.5,303.94,394.32Z"/><path class="cls-29" d="M287.32,393.72a.91.91,0,0,1,.09-.17c2-2.75,7-8.22,16.87-10.59l4.75-.15s2.11,3.67,2.15,10.48c-1.08.44-3.18.92-7.24,1C297.68,394.5,290.24,394,287.32,393.72Z"/><path class="cls-30" d="M309.91,375.62c-.06.35-.71,5.73-1,7.81a1,1,0,0,1-.87.94,11.25,11.25,0,0,1-3.26-.05,1.4,1.4,0,0,1-1.06-1.41v-8.45Z"/><path class="cls-31" d="M313.72,277.47S302.27,321,302.47,375.74a2.14,2.14,0,0,0,1.68,2.07,24.89,24.89,0,0,0,5.31.61,2,2,0,0,0,1.88-1.64c1.6-9.42,10.81-62.45,16.06-71.06,0,0,3.46,47.23,2.35,71.74a1.17,1.17,0,0,0,1,1.21,19.81,19.81,0,0,0,4.26,0,1.56,1.56,0,0,0,1.38-1.32c1.15-8,7.73-55.4,7.45-89.56,0-1.93-5.1-10.31-5.1-10.31Z"/><path class="cls-32" d="M297.79,224.81a47,47,0,0,0,4.85-7.39c1.9-3.6.15,2.32.67-1.74,14.24-10.27,35.69-5.07,44-4a11.13,11.13,0,0,1,7,3.76c7.11,8.23,22.71,30.75,4.35,53.44a33.87,33.87,0,0,1-7.95-5.81c2-5.73,2.19-13.05-2.06-22a21.79,21.79,0,0,1-.55,2.11,130.49,130.49,0,0,0-6.16,37.62,1.18,1.18,0,0,1-.74,1.1c-7.72,3.09-22.59,1.25-27.58.51a1.68,1.68,0,0,1-1.4-1.91c2.45-17.74-10.12-46.92-13.44-54.23A4.92,4.92,0,0,0,297.79,224.81Z"/><path class="cls-33" d="M334,196.72l1.49,15.2s-8.56,2.58-14.78-1.81L325,196.29Z"/><path class="cls-34" d="M324,179.39c-.2.19-8.68,16.85-8.68,16.85l9.61,4.64,10.38-14.6S327.47,176.14,324,179.39Z"/><path class="cls-35" d="M331.08,186.69A1.56,1.56,0,0,1,331,188l-4.8,8a1.64,1.64,0,0,1-.26.33c-.57.53-2.53,2.07-4,0-1.28-1.79-2.49-3.42-3.78-4.1a1.53,1.53,0,0,0-2.07.68,57.27,57.27,0,0,0-3.28,7.79,1.52,1.52,0,0,0,.88,1.87,43.09,43.09,0,0,0,9.21,2.69,1.54,1.54,0,0,0,1.45-.62c1.47-2,5.61-7.64,7-9s3.74-.82,4.83-.5a1.56,1.56,0,0,0,1.23-.17c1.1-.66,3-2.32,1.27-5.14a1.53,1.53,0,0,1,.47-2.08,3.39,3.39,0,0,0,1.3-4.81,4.78,4.78,0,0,0-5.18-2.54,1.6,1.6,0,0,1-1.67-.93,1,1,0,0,0-.79-.62,1.49,1.49,0,0,1-1.2-1.75,3.93,3.93,0,0,0-2.2-4.5c-4.14-2.28-7.78,1.43-8.7,4.57s3.71,5.36,6.63,5.73C329.43,183.13,330.61,185.47,331.08,186.69Z"/><path class="cls-36" d="M329.5,198.53s1.85-5.4,4.21-5.2,4.22,2.55,1.29,5.2C331.36,201.82,329.5,198.53,329.5,198.53Z"/><path class="cls-37" d="M349.41,239.63c3.11-8.52,2-18.8,2-18.9l-.86.1c0,.1,1.12,10.18-1.93,18.51Z"/><path class="cls-38" d="M327.82,304.61a.43.43,0,0,0,.42-.33c.95-3.66,8.06-7.68,8.13-7.72a.43.43,0,1,0-.42-.76c-.31.18-7.5,4.25-8.54,8.27a.43.43,0,0,0,.31.52Z"/><path class="cls-39" d="M268.88,229.6c16.11,2.41,26.61-7.75,34.43-13.92,10.33-8.14,18.37-4.18,18.37-4.18l-11,21c-16.45,15.51-33.31,12.06-43.94,7A20.49,20.49,0,0,1,268.88,229.6Z"/><path class="cls-40" d="M246.24,220l5.35,2.87a46.8,46.8,0,0,0,17.29,6.74,20.49,20.49,0,0,0-2.16,10,49.47,49.47,0,0,1-11-7C243.6,225.31,246.24,220,246.24,220Z"/><path class="cls-41" d="M230.51,227.51a4,4,0,0,1,2.3-2.52l10.84-4.36s.17-1.39-2.29-2.33-1.88-3.69-1.88-3.69,3.35,1.52,8.26,3.95a11.53,11.53,0,0,1,5.22,5.68l-2.79,3.67a49.65,49.65,0,0,1-20.26,1.6Z"/></g></g></g></svg>