<svg xmlns="http://www.w3.org/2000/svg" xmlns:xlink="http://www.w3.org/1999/xlink" viewBox="0 0 365.54 330.46"><defs><style>.cls-1{fill:#044da4;}.cls-2{fill:#131833;}.cls-3{fill:#fff;}.cls-4{fill:#f8ab7e;}.cls-5{fill:#ce625f;}.cls-6{fill:#ffcb97;}.cls-7{fill:url(#linear-gradient);}.cls-8{fill:url(#linear-gradient-2);}.cls-9{fill:#ffa92f;}.cls-10{fill:#f9dd42;}.cls-11{fill:url(#linear-gradient-3);}.cls-12{fill:url(#linear-gradient-4);}.cls-13{fill:url(#linear-gradient-5);}.cls-14{fill:url(#linear-gradient-6);}.cls-15{fill:url(#linear-gradient-7);}.cls-16{fill:url(#linear-gradient-8);}.cls-17{fill:url(#linear-gradient-9);}.cls-18{fill:url(#linear-gradient-10);}.cls-19{fill:url(#linear-gradient-11);}.cls-20{fill:url(#linear-gradient-12);}.cls-21{fill:url(#linear-gradient-13);}.cls-22{fill:url(#linear-gradient-14);}.cls-23{fill:url(#linear-gradient-15);}.cls-24{fill:url(#linear-gradient-16);}.cls-25{fill:url(#linear-gradient-17);}.cls-26{fill:url(#linear-gradient-18);}.cls-27{fill:url(#linear-gradient-19);}.cls-28{fill:url(#linear-gradient-20);}.cls-29{fill:url(#linear-gradient-21);}.cls-30{fill:url(#linear-gradient-22);}.cls-31{fill:url(#linear-gradient-23);}.cls-32{fill:url(#linear-gradient-24);}.cls-33{fill:url(#linear-gradient-25);}.cls-34{fill:url(#linear-gradient-26);}.cls-35{fill:url(#linear-gradient-27);}.cls-36{fill:url(#linear-gradient-28);}.cls-37{fill:url(#linear-gradient-29);}.cls-38{fill:url(#linear-gradient-30);}.cls-39{fill:url(#linear-gradient-31);}.cls-40{fill:url(#linear-gradient-32);}.cls-41{fill:#e28e69;}.cls-42{fill:#0f7e84;}.cls-43{fill:#ddc899;}.cls-44{fill:#f9e8b9;}.cls-45{fill:#1da8b2;}</style><linearGradient id="linear-gradient" x1="210.25" y1="166.72" x2="263.87" y2="166.72" gradientUnits="userSpaceOnUse"><stop offset="0.01" stop-color="#f7941e"/><stop offset="0.99" stop-color="#f15a29"/></linearGradient><linearGradient id="linear-gradient-2" x1="210.29" y1="163.06" x2="263.83" y2="163.06" gradientUnits="userSpaceOnUse"><stop offset="0.01" stop-color="#f9df43"/><stop offset="1" stop-color="#ffa92e"/></linearGradient><linearGradient id="linear-gradient-3" x1="210.65" y1="159.59" x2="264.27" y2="159.59" xlink:href="#linear-gradient"/><linearGradient id="linear-gradient-4" x1="210.69" y1="155.92" x2="264.23" y2="155.92" xlink:href="#linear-gradient-2"/><linearGradient id="linear-gradient-5" x1="207.08" y1="152.75" x2="260.7" y2="152.75" xlink:href="#linear-gradient"/><linearGradient id="linear-gradient-6" x1="207.12" y1="149.08" x2="260.66" y2="149.08" xlink:href="#linear-gradient-2"/><linearGradient id="linear-gradient-7" x1="214.54" y1="147.5" x2="268.15" y2="147.5" xlink:href="#linear-gradient"/><linearGradient id="linear-gradient-8" x1="214.57" y1="143.84" x2="268.11" y2="143.84" xlink:href="#linear-gradient-2"/><linearGradient id="linear-gradient-9" x1="208.3" y1="140.25" x2="261.91" y2="140.25" xlink:href="#linear-gradient"/><linearGradient id="linear-gradient-10" x1="208.34" y1="136.59" x2="261.87" y2="136.59" xlink:href="#linear-gradient-2"/><linearGradient id="linear-gradient-11" x1="213.06" y1="133.12" x2="266.67" y2="133.12" xlink:href="#linear-gradient"/><linearGradient id="linear-gradient-12" x1="213.1" y1="129.45" x2="266.63" y2="129.45" xlink:href="#linear-gradient-2"/><linearGradient id="linear-gradient-13" x1="209.91" y1="126.1" x2="263.52" y2="126.1" xlink:href="#linear-gradient"/><linearGradient id="linear-gradient-14" x1="209.94" y1="122.43" x2="263.48" y2="122.43" xlink:href="#linear-gradient-2"/><linearGradient id="linear-gradient-15" x1="212.13" y1="118.98" x2="265.74" y2="118.98" xlink:href="#linear-gradient"/><linearGradient id="linear-gradient-16" x1="212.17" y1="115.31" x2="265.7" y2="115.31" xlink:href="#linear-gradient-2"/><linearGradient id="linear-gradient-17" x1="209.02" y1="111.87" x2="262.63" y2="111.87" xlink:href="#linear-gradient"/><linearGradient id="linear-gradient-18" x1="209.06" y1="108.2" x2="262.59" y2="108.2" xlink:href="#linear-gradient-2"/><linearGradient id="linear-gradient-19" x1="208.57" y1="104.75" x2="262.19" y2="104.75" xlink:href="#linear-gradient"/><linearGradient id="linear-gradient-20" x1="208.61" y1="101.08" x2="262.15" y2="101.08" xlink:href="#linear-gradient-2"/><linearGradient id="linear-gradient-21" x1="250.69" y1="182.38" x2="304.3" y2="182.38" xlink:href="#linear-gradient"/><linearGradient id="linear-gradient-22" x1="250.73" y1="178.71" x2="304.26" y2="178.71" xlink:href="#linear-gradient-2"/><linearGradient id="linear-gradient-23" x1="251.09" y1="175.24" x2="304.7" y2="175.24" xlink:href="#linear-gradient"/><linearGradient id="linear-gradient-24" x1="251.12" y1="171.57" x2="304.66" y2="171.57" xlink:href="#linear-gradient-2"/><linearGradient id="linear-gradient-25" x1="247.52" y1="168.4" x2="301.13" y2="168.4" xlink:href="#linear-gradient"/><linearGradient id="linear-gradient-26" x1="247.56" y1="164.73" x2="301.09" y2="164.73" xlink:href="#linear-gradient-2"/><linearGradient id="linear-gradient-27" x1="254.97" y1="163.16" x2="308.58" y2="163.16" xlink:href="#linear-gradient"/><linearGradient id="linear-gradient-28" x1="255.01" y1="159.49" x2="308.54" y2="159.49" xlink:href="#linear-gradient-2"/><linearGradient id="linear-gradient-29" x1="248.73" y1="155.91" x2="302.35" y2="155.91" xlink:href="#linear-gradient"/><linearGradient id="linear-gradient-30" x1="248.77" y1="152.24" x2="302.31" y2="152.24" xlink:href="#linear-gradient-2"/><linearGradient id="linear-gradient-31" x1="253.49" y1="148.77" x2="307.11" y2="148.77" xlink:href="#linear-gradient"/><linearGradient id="linear-gradient-32" x1="253.53" y1="145.1" x2="307.07" y2="145.1" xlink:href="#linear-gradient-2"/></defs><g id="Camada_2" data-name="Camada 2"><g id="Desenho"><rect class="cls-1" width="365.54" height="330.46"/><polygon class="cls-2" points="85.9 213.51 0 175.46 0 106.61 121.43 160.4 85.9 213.51"/><ellipse class="cls-3" cx="108.56" cy="180.01" rx="39.93" ry="25.63" transform="translate(-95.33 231.19) rotate(-73)"/><path class="cls-4" d="M95.53,224.4s15.39,5.9,23.72-2.2c0,0,4.4-5.9,9.37-6.37,0,0,7.87.23,11.69-13.88,0,0,5.73-15.16,7.12-22.1a22.4,22.4,0,0,0,.08-10.85,40.68,40.68,0,0,1-.72-8.71,66.61,66.61,0,0,0-1.39-14.81,34.67,34.67,0,0,1-.81-5.32s0-15.27-8-14.23a3.74,3.74,0,0,0-2.9,2.46l.27-16.06s1-8.59-6.77-8.76l-2.43.78s-2-5.12-8.68-2.78c0,0-3.65,1.65-6.16,7.46l-2.35,6.43s-2.6-4.17-6.85-2.52c0,0-4.75,1.16-6.83,12.87a82.69,82.69,0,0,0-.78,14.58,64.9,64.9,0,0,1-.52,7.9,70.32,70.32,0,0,0-.26,13.45C92.87,170,90,178.81,90,178.81s-2,18.68-3.24,19.09l-3.24-3.24s-1.39-12.5-9.61-11.23c0,0-5.78,1.51-6.82,13.89l-.58,3.82s-1.74,4.86,3.93,7.29c0,0,10.62,6,14,9.95C84.42,218.38,87.63,222.08,95.53,224.4Z"/><path class="cls-5" d="M133.71,128.39a149.91,149.91,0,0,0,.93,17.44,47.75,47.75,0,0,1-.12,11.92s-1,5.67,1.28,8l6.71,5.44a38.73,38.73,0,0,1-4.28-15s-.81-7.06-1.28-9.95Z"/><path class="cls-5" d="M124.78,104.35s2.8,4.11-1.59,20.77c0,0-2.32,13.88-2,18.16,0,0,.43,8.54-.35,12.53,0,0-1.91,5.9,4.51,9.89,0,0-2.34-3-1.91-10.67,0,0,.41-20,2.15-30.61C125.62,124.42,129.72,106,124.78,104.35Z"/><path class="cls-5" d="M107.59,115.46s2.52,8.62-.37,20.65a57.93,57.93,0,0,0,0,10.53s1.85,15-.75,23.14c0,0,2.08-3.47,4,1,0,0-.35-15.44-.52-25.16a88,88,0,0,1,0-14.41s-.26-19.35,6.16-29.68C116.1,101.57,110.54,103.57,107.59,115.46Z"/><path class="cls-5" d="M73.89,183.43s7.64-2.42,9.61,11.23l3.24,3.24s1-.81,3.24-19.09c0,0,0,16.43,2.2,17.12,0,0-4.29,1,4.28,8.56,0,0,3.7,2.78,1.62,8.1,0,0,1.62-4.45-6.71-9.6l-6-4.28s1,3.24-2.66,7.75c0,0,3-6.83,0-10.76C82.69,195.7,80.37,182.16,73.89,183.43Z"/><path class="cls-5" d="M101.89,188.76s23.61,3.7,21.53,25.92C123.42,214.68,129.67,192.92,101.89,188.76Z"/><path class="cls-5" d="M103.28,186.91s22-12.27,40.73-.7C144,186.21,127.58,177.19,103.28,186.91Z"/><path class="cls-6" d="M67.07,197.32l1.56,2.2s1.16,1.68,2.25-.7l1.51-6.3a1.57,1.57,0,0,0-.64-1.8s-2.72-3.24,2.14-7.29C73.89,183.43,67.88,184.59,67.07,197.32Z"/><path class="cls-7" d="M263.83,166.72c0,4.36-12,7.89-26.77,7.89s-26.77-3.53-26.77-7.89c0-.49-.15-3.84.15-4.31,2.31-3.66,13.51-3.57,26.62-3.57s24.26,0,26.62,3.65C264,163,263.83,166.22,263.83,166.72Z"/><path class="cls-8" d="M263.83,163.06c0,4.35-12,7.88-26.77,7.88s-26.77-3.53-26.77-7.88,12-7.89,26.77-7.89S263.83,158.7,263.83,163.06Z"/><path class="cls-9" d="M237.06,169.1c-12,0-24.39-2.36-24.39-6.32s12.4-6.32,24.39-6.32,24.39,2.37,24.39,6.32S249.05,169.1,237.06,169.1Zm0-12c-14.23,0-23.79,3-23.79,5.72s9.56,5.73,23.79,5.73,23.8-3,23.8-5.73S251.29,157.06,237.06,157.06Z"/><path class="cls-9" d="M246,164.25c0-1-1.65-1.52-3.61-1.72,2-.31,2.68-.72,2.68-1.58s-1.74-1.59-5.35-1.71v-1h-3.56v.93h-1.33v-.93h-3.56v.93h-3.1v1.31h1.58V165h-1.58v1.32h3.1v.94h3.56v-.94h1.33v.94h3.56v-.95C244.13,166.21,246,165.57,246,164.25Zm-10.59-3.69h1.73c1,0,1.8.27,1.8.74s-.41.78-1.86.78h-1.67Zm2.19,4.43h-2.19v-1.76h2.11c1.5,0,2.3.37,2.3.89S238.73,165,237.58,165Z"/><path class="cls-10" d="M246,164c0-1-1.65-1.53-3.61-1.73,2-.3,2.68-.72,2.68-1.57s-1.74-1.6-5.35-1.71V158h-3.56v.92h-1.33V158h-3.56v.92h-3.1v1.31h1.58v4.47h-1.58V166h3.1V167h3.56V166h1.33V167h3.56V166C244.13,165.91,246,165.28,246,164Zm-10.59-3.7h1.73c1,0,1.8.27,1.8.74s-.41.78-1.86.78h-1.67Zm2.19,4.44h-2.19v-1.77h2.11c1.5,0,2.3.38,2.3.89S238.73,164.7,237.58,164.7Z"/><path class="cls-11" d="M264.22,159.59c0,4.35-12,7.88-26.77,7.88s-26.76-3.53-26.76-7.88c0-.5-.15-3.85.15-4.32,2.3-3.66,13.51-3.57,26.61-3.57s24.26,0,26.62,3.65C264.39,155.83,264.22,159.08,264.22,159.59Z"/><path class="cls-12" d="M264.23,155.92c0,4.35-12,7.88-26.77,7.88s-26.77-3.53-26.77-7.88,12-7.88,26.77-7.88S264.23,151.56,264.23,155.92Z"/><path class="cls-9" d="M237.46,162c-12,0-24.39-2.37-24.39-6.33s12.4-6.32,24.39-6.32,24.39,2.37,24.39,6.32S249.45,162,237.46,162Zm0-12.05c-14.24,0-23.8,3-23.8,5.72s9.56,5.73,23.8,5.73,23.79-3,23.79-5.73S251.69,149.92,237.46,149.92Z"/><path class="cls-9" d="M246.37,157.12c0-1-1.64-1.53-3.61-1.73,2.05-.31,2.68-.72,2.68-1.57s-1.74-1.6-5.34-1.72v-.94h-3.56v.92H235.2v-.92h-3.55v.92h-3.11v1.31h1.59v4.47h-1.59v1.32h3.11v.93h3.55v-.93h1.34v.93h3.56v-1C244.53,159.07,246.37,158.44,246.37,157.12Zm-10.58-3.7h1.72c1,0,1.81.27,1.81.74s-.41.78-1.86.78h-1.67Zm2.19,4.44h-2.19v-1.77h2.11c1.5,0,2.29.38,2.29.89S239.13,157.86,238,157.86Z"/><path class="cls-10" d="M246.37,156.82c0-1-1.64-1.52-3.61-1.73,2.05-.3,2.68-.72,2.68-1.57s-1.74-1.59-5.34-1.71v-.95h-3.56v.92H235.2v-.92h-3.55v.92h-3.11v1.31h1.59v4.47h-1.59v1.32h3.11v.94h3.55v-.94h1.34v.94h3.56v-.95C244.53,158.78,246.37,158.14,246.37,156.82Zm-10.58-3.7h1.72c1,0,1.81.28,1.81.74s-.41.79-1.86.79h-1.67Zm2.19,4.44h-2.19v-1.77h2.11c1.5,0,2.29.38,2.29.9S239.13,157.56,238,157.56Z"/><path class="cls-13" d="M260.65,152.75c0,4.35-12,7.88-26.76,7.88s-26.77-3.53-26.77-7.88c0-.5-.15-3.85.15-4.32,2.31-3.66,13.51-3.57,26.62-3.57s24.25,0,26.62,3.65C260.82,149,260.65,152.24,260.65,152.75Z"/><path class="cls-14" d="M260.66,149.08c0,4.35-12,7.88-26.77,7.88s-26.77-3.53-26.77-7.88,12-7.88,26.77-7.88S260.66,144.72,260.66,149.08Z"/><path class="cls-9" d="M233.89,155.12c-12,0-24.39-2.36-24.39-6.32s12.4-6.32,24.39-6.32,24.39,2.37,24.39,6.32S245.88,155.12,233.89,155.12Zm0-12c-14.23,0-23.79,3-23.79,5.72s9.56,5.73,23.79,5.73,23.79-3,23.79-5.73S248.12,143.08,233.89,143.08Z"/><path class="cls-9" d="M242.8,150.27c0-1-1.64-1.52-3.61-1.72,2.05-.31,2.68-.72,2.68-1.58s-1.74-1.59-5.34-1.71v-.94H233v.92h-1.34v-.92h-3.55v.92H225v1.31h1.59V151H225v1.32h3.11v.93h3.55v-.93H233v.93h3.56v-1C241,152.23,242.8,151.6,242.8,150.27Zm-10.58-3.69h1.72c1,0,1.81.27,1.81.74s-.41.78-1.86.78h-1.67Zm2.19,4.44h-2.19v-1.77h2.11c1.5,0,2.29.38,2.29.89S235.56,151,234.41,151Z"/><path class="cls-10" d="M242.8,150c0-1-1.64-1.53-3.61-1.73,2.05-.3,2.68-.72,2.68-1.57s-1.74-1.6-5.34-1.71V144H233v.92h-1.34V144h-3.55v.92H225v1.31h1.59v4.47H225V152h3.11V153h3.55V152H233V153h3.56V152C241,151.94,242.8,151.3,242.8,150Zm-10.58-3.7h1.72c1,0,1.81.28,1.81.74s-.41.78-1.86.78h-1.67Zm2.19,4.44h-2.19V149h2.11c1.5,0,2.29.38,2.29.9S235.56,150.72,234.41,150.72Z"/><path class="cls-15" d="M268.11,147.5c0,4.36-12,7.88-26.77,7.88s-26.77-3.52-26.77-7.88c0-.49-.15-3.84.15-4.31,2.31-3.66,13.52-3.57,26.62-3.57s24.26,0,26.62,3.65C268.27,143.75,268.11,147,268.11,147.5Z"/><path class="cls-16" d="M268.11,143.84c0,4.35-12,7.88-26.77,7.88s-26.77-3.53-26.77-7.88,12-7.89,26.77-7.89S268.11,139.48,268.11,143.84Z"/><path class="cls-9" d="M241.34,149.88c-12,0-24.39-2.36-24.39-6.32s12.4-6.32,24.39-6.32,24.39,2.37,24.39,6.32S253.33,149.88,241.34,149.88Zm0-12c-14.23,0-23.79,3-23.79,5.72s9.56,5.73,23.79,5.73,23.8-3,23.8-5.73S255.58,137.84,241.34,137.84Z"/><path class="cls-9" d="M250.26,145c0-1-1.64-1.52-3.61-1.72,2-.31,2.68-.72,2.68-1.58s-1.74-1.59-5.35-1.71v-1h-3.55V140h-1.34v-.93h-3.56V140h-3.1v1.31H234v4.46h-1.58v1.32h3.1V148h3.56v-.94h1.34V148H244v-.95C248.41,147,250.26,146.35,250.26,145Zm-10.59-3.69h1.73c1,0,1.8.27,1.8.74s-.41.78-1.86.78h-1.67Zm2.19,4.43h-2.19V144h2.11c1.5,0,2.3.37,2.3.89S243,145.77,241.86,145.77Z"/><path class="cls-10" d="M250.26,144.74c0-1-1.64-1.53-3.61-1.73,2-.3,2.68-.72,2.68-1.57s-1.74-1.6-5.35-1.72v-.94h-3.55v.92h-1.34v-.92h-3.56v.92h-3.1V141H234v4.47h-1.58v1.32h3.1v.93h3.56v-.93h1.34v.93H244v-.95C248.41,146.69,250.26,146.06,250.26,144.74ZM239.67,141h1.73c1,0,1.8.27,1.8.74s-.41.78-1.86.78h-1.67Zm2.19,4.44h-2.19v-1.77h2.11c1.5,0,2.3.38,2.3.89S243,145.48,241.86,145.48Z"/><path class="cls-17" d="M261.87,140.25c0,4.36-12,7.89-26.77,7.89s-26.77-3.53-26.77-7.89c0-.49-.14-3.84.15-4.31,2.31-3.66,13.52-3.57,26.62-3.57s24.26,0,26.62,3.65C262,136.5,261.87,139.75,261.87,140.25Z"/><path class="cls-18" d="M261.87,136.59c0,4.35-12,7.88-26.77,7.88s-26.76-3.53-26.76-7.88,12-7.89,26.76-7.89S261.87,132.23,261.87,136.59Z"/><path class="cls-9" d="M235.1,142.63c-12,0-24.38-2.36-24.38-6.32S223.12,130,235.1,130s24.39,2.37,24.39,6.32S247.09,142.63,235.1,142.63Zm0-12c-14.23,0-23.79,3-23.79,5.72S220.87,142,235.1,142s23.8-3,23.8-5.73S249.34,130.59,235.1,130.59Z"/><path class="cls-9" d="M244,137.78c0-1-1.64-1.52-3.61-1.72,2.05-.31,2.68-.72,2.68-1.58s-1.74-1.59-5.35-1.71v-1h-3.55v.93h-1.34v-.93h-3.56v.93h-3.1v1.31h1.59v4.46h-1.59v1.32h3.1v.94h3.56v-.94h1.34v.94h3.55v-.95C242.17,139.74,244,139.1,244,137.78Zm-10.58-3.69h1.72c1,0,1.8.27,1.8.74s-.41.78-1.86.78h-1.66Zm2.18,4.43h-2.18v-1.76h2.1c1.51,0,2.3.37,2.3.89S236.77,138.52,235.62,138.52Z"/><path class="cls-10" d="M244,137.49c0-1-1.64-1.53-3.61-1.73,2.05-.3,2.68-.72,2.68-1.57s-1.74-1.6-5.35-1.72v-.94h-3.55v.92h-1.34v-.92h-3.56v.92h-3.1v1.31h1.59v4.47h-1.59v1.32h3.1v.93h3.56v-.93h1.34v.93h3.55v-.95C242.17,139.44,244,138.81,244,137.49Zm-10.58-3.7h1.72c1,0,1.8.27,1.8.74s-.41.78-1.86.78h-1.66Zm2.18,4.44h-2.18v-1.77h2.1c1.51,0,2.3.38,2.3.89S236.77,138.23,235.62,138.23Z"/><path class="cls-19" d="M266.63,133.12c0,4.35-12,7.88-26.77,7.88s-26.77-3.53-26.77-7.88c0-.5-.14-3.85.15-4.32,2.31-3.66,13.52-3.57,26.62-3.57s24.26,0,26.62,3.65C266.79,129.36,266.63,132.61,266.63,133.12Z"/><path class="cls-20" d="M266.63,129.45c0,4.35-12,7.88-26.77,7.88s-26.76-3.53-26.76-7.88,12-7.88,26.76-7.88S266.63,125.09,266.63,129.45Z"/><path class="cls-9" d="M239.86,135.49c-12,0-24.38-2.36-24.38-6.32s12.39-6.32,24.38-6.32,24.39,2.37,24.39,6.32S251.85,135.49,239.86,135.49Zm0-12c-14.23,0-23.79,3-23.79,5.72s9.56,5.73,23.79,5.73,23.8-3,23.8-5.73S254.1,123.45,239.86,123.45Z"/><path class="cls-9" d="M248.78,130.65c0-1-1.64-1.53-3.61-1.73,2.05-.31,2.68-.72,2.68-1.57s-1.74-1.6-5.35-1.72v-.94H239v.92h-1.34v-.92h-3.56v.92H231v1.31h1.58v4.47H231v1.32h3.1v.93h3.56v-.93H239v.93h3.55v-.95C246.93,132.6,248.78,132,248.78,130.65ZM238.2,127h1.72c1,0,1.8.27,1.8.74s-.41.78-1.86.78H238.2Zm2.18,4.44H238.2v-1.77h2.1c1.5,0,2.3.38,2.3.89S241.53,131.39,240.38,131.39Z"/><path class="cls-10" d="M248.78,130.35c0-1-1.64-1.53-3.61-1.73,2.05-.3,2.68-.72,2.68-1.57s-1.74-1.6-5.35-1.71v-1H239v.92h-1.34v-.92h-3.56v.92H231v1.31h1.58v4.47H231v1.32h3.1v.94h3.56v-.94H239v.94h3.55v-.95C246.93,132.31,248.78,131.67,248.78,130.35Zm-10.58-3.7h1.72c1,0,1.8.28,1.8.74s-.41.78-1.86.78H238.2Zm2.18,4.44H238.2v-1.77h2.1c1.5,0,2.3.38,2.3.9S241.53,131.09,240.38,131.09Z"/><path class="cls-21" d="M263.48,126.1c0,4.35-12,7.88-26.77,7.88s-26.77-3.53-26.77-7.88c0-.5-.15-3.85.15-4.32,2.31-3.66,13.52-3.57,26.62-3.57s24.26,0,26.62,3.65C263.64,122.34,263.48,125.59,263.48,126.1Z"/><ellipse class="cls-22" cx="236.71" cy="122.43" rx="26.77" ry="7.88"/><path class="cls-9" d="M236.71,128.48c-12,0-24.39-2.37-24.39-6.32s12.4-6.32,24.39-6.32,24.39,2.36,24.39,6.32S248.7,128.48,236.71,128.48Zm0-12c-14.23,0-23.79,3-23.79,5.73s9.56,5.72,23.79,5.72,23.8-3,23.8-5.72S251,116.43,236.71,116.43Z"/><path class="cls-9" d="M245.63,123.63c0-1-1.64-1.53-3.61-1.73,2-.3,2.68-.72,2.68-1.57s-1.74-1.6-5.35-1.71v-1H235.8v.92h-1.34v-.92H230.9v.92h-3.1v1.31h1.58v4.47H227.8v1.32h3.1v.93h3.56v-.93h1.34v.93h3.55v-1C243.78,125.58,245.63,125,245.63,123.63ZM235,119.93h1.73c1,0,1.8.27,1.8.74s-.41.78-1.86.78H235Zm2.19,4.44H235V122.6h2.11c1.5,0,2.3.38,2.3.89S238.38,124.37,237.23,124.37Z"/><path class="cls-10" d="M245.63,123.33c0-1-1.64-1.52-3.61-1.73,2-.3,2.68-.72,2.68-1.57s-1.74-1.59-5.35-1.71v-.95H235.8v.92h-1.34v-.92H230.9v.92h-3.1v1.31h1.58v4.47H227.8v1.32h3.1v.94h3.56v-.94h1.34v.94h3.55v-1C243.78,125.29,245.63,124.65,245.63,123.33ZM235,119.63h1.73c1,0,1.8.28,1.8.74s-.41.79-1.86.79H235Zm2.19,4.44H235V122.3h2.11c1.5,0,2.3.38,2.3.9S238.38,124.07,237.23,124.07Z"/><path class="cls-23" d="M265.7,119c0,4.35-12,7.88-26.77,7.88s-26.77-3.53-26.77-7.88c0-.49-.14-3.84.15-4.31,2.31-3.66,13.52-3.57,26.62-3.57s24.26,0,26.62,3.64C265.86,115.22,265.7,118.47,265.7,119Z"/><path class="cls-24" d="M265.7,115.31c0,4.36-12,7.89-26.76,7.89s-26.77-3.53-26.77-7.89,12-7.88,26.77-7.88S265.7,111,265.7,115.31Z"/><path class="cls-9" d="M238.94,121.36c-12,0-24.39-2.36-24.39-6.32s12.4-6.32,24.39-6.32,24.38,2.37,24.38,6.32S250.92,121.36,238.94,121.36Zm0-12c-14.24,0-23.8,3-23.8,5.72s9.56,5.73,23.8,5.73,23.79-3,23.79-5.73S253.17,109.32,238.94,109.32Z"/><path class="cls-9" d="M247.85,116.51c0-1-1.64-1.52-3.61-1.72,2-.31,2.68-.73,2.68-1.58s-1.74-1.59-5.35-1.71v-1H238v.93h-1.34v-.93h-3.55v.93H230v1.31h1.59v4.46H230v1.32h3.11v.94h3.55v-.94H238v.94h3.55v-1C246,118.47,247.85,117.83,247.85,116.51Zm-10.58-3.69H239c1,0,1.81.27,1.81.74s-.42.78-1.86.78h-1.67Zm2.18,4.43h-2.18v-1.76h2.1c1.51,0,2.3.37,2.3.89S240.6,117.25,239.45,117.25Z"/><path class="cls-10" d="M247.85,116.21c0-1-1.64-1.52-3.61-1.72,2-.31,2.68-.72,2.68-1.58s-1.74-1.59-5.35-1.71v-1H238v.93h-1.34v-.93h-3.55v.93H230v1.31h1.59V117H230v1.32h3.11v.93h3.55v-.93H238v.93h3.55v-.95C246,118.17,247.85,117.54,247.85,116.21Zm-10.58-3.69H239c1,0,1.81.27,1.81.74s-.42.78-1.86.78h-1.67Zm2.18,4.44h-2.18v-1.77h2.1c1.51,0,2.3.37,2.3.89S240.6,117,239.45,117Z"/><path class="cls-25" d="M262.59,111.87c0,4.35-12,7.88-26.77,7.88s-26.77-3.53-26.77-7.88c0-.5-.14-3.85.15-4.32,2.31-3.66,13.52-3.56,26.62-3.56s24.26,0,26.62,3.64C262.75,108.11,262.59,111.36,262.59,111.87Z"/><path class="cls-26" d="M262.59,108.2c0,4.35-12,7.88-26.77,7.88s-26.76-3.53-26.76-7.88,12-7.88,26.76-7.88S262.59,103.85,262.59,108.2Z"/><path class="cls-9" d="M235.82,114.25c-12,0-24.39-2.37-24.39-6.32s12.4-6.32,24.39-6.32,24.39,2.36,24.39,6.32S247.81,114.25,235.82,114.25Zm0-12c-14.23,0-23.79,3-23.79,5.73s9.56,5.72,23.79,5.72,23.8-3,23.8-5.72S250.06,102.2,235.82,102.2Z"/><path class="cls-9" d="M244.74,109.4c0-1-1.64-1.53-3.61-1.73,2.05-.3,2.68-.72,2.68-1.57s-1.74-1.6-5.35-1.71v-1h-3.55v.92h-1.34v-.92H230v.92h-3.1v1.31h1.58v4.47h-1.58v1.32H230v.94h3.56v-.94h1.34v.94h3.55v-1C242.89,111.35,244.74,110.72,244.74,109.4Zm-10.59-3.7h1.73c1,0,1.8.28,1.8.74s-.41.78-1.86.78h-1.67Zm2.19,4.44h-2.19v-1.77h2.11c1.5,0,2.3.38,2.3.89S237.49,110.14,236.34,110.14Z"/><path class="cls-10" d="M244.74,109.1c0-1-1.64-1.52-3.61-1.73,2.05-.3,2.68-.72,2.68-1.57s-1.74-1.59-5.35-1.71v-1h-3.55v.92h-1.34v-.92H230v.92h-3.1v1.31h1.58v4.47h-1.58v1.32H230v.94h3.56v-.94h1.34v.94h3.55v-.95C242.89,111.06,244.74,110.42,244.74,109.1Zm-10.59-3.7h1.73c1,0,1.8.28,1.8.74s-.41.79-1.86.79h-1.67Zm2.19,4.44h-2.19v-1.77h2.11c1.5,0,2.3.38,2.3.9S237.49,109.84,236.34,109.84Z"/><path class="cls-27" d="M262.14,104.75c0,4.36-12,7.88-26.76,7.88s-26.77-3.52-26.77-7.88c0-.49-.15-3.84.15-4.31,2.3-3.66,13.51-3.57,26.62-3.57s24.25,0,26.61,3.64C262.31,101,262.14,104.24,262.14,104.75Z"/><path class="cls-28" d="M262.15,101.08c0,4.36-12,7.89-26.77,7.89s-26.77-3.53-26.77-7.89,12-7.88,26.77-7.88S262.15,96.73,262.15,101.08Z"/><path class="cls-9" d="M235.38,107.13c-12,0-24.39-2.36-24.39-6.32s12.4-6.32,24.39-6.32,24.39,2.37,24.39,6.32S247.37,107.13,235.38,107.13Zm0-12c-14.23,0-23.8,3-23.8,5.72s9.57,5.73,23.8,5.73,23.79-3,23.79-5.73S249.61,95.09,235.38,95.09Z"/><path class="cls-9" d="M227.27,101.94h5.13c0,1,2.32,1.22,3.48,1.25,1,0,2.34-.1,2.34-.62,0-1-10.6-.56-10.6-3.73,0-1.84,3.87-2.68,6.57-2.68,2.32,0,4.67.34,5.77,1.27l.28-1H245v3.12h-5c0-.92-1.6-1.45-3.53-1.45-.8,0-1.91.23-1.91.66,0,1.28,10.93,1,10.93,3.91,0,1.94-4,2.64-7.31,2.64a12.62,12.62,0,0,1-5.77-1.15l-.31,1h-4.82Z"/><path class="cls-10" d="M227.27,101.64h5.13c0,1,2.32,1.22,3.48,1.24,1,0,2.34-.1,2.34-.62,0-1-10.6-.56-10.6-3.73,0-1.84,3.87-2.67,6.57-2.67,2.32,0,4.67.33,5.77,1.26l.28-1H245V99.2h-5c0-.92-1.6-1.44-3.53-1.44-.8,0-1.91.22-1.91.66,0,1.28,10.93,1,10.93,3.9,0,1.94-4,2.64-7.31,2.64a12.62,12.62,0,0,1-5.77-1.15l-.31,1h-4.82Z"/><path class="cls-29" d="M304.26,182.38c0,4.35-12,7.88-26.77,7.88s-26.76-3.53-26.76-7.88c0-.49-.15-3.84.14-4.31,2.31-3.66,13.52-3.57,26.62-3.57s24.26,0,26.62,3.64C304.42,178.62,304.26,181.87,304.26,182.38Z"/><path class="cls-30" d="M304.26,178.71c0,4.36-12,7.88-26.76,7.88s-26.77-3.52-26.77-7.88,12-7.88,26.77-7.88S304.26,174.36,304.26,178.71Z"/><path class="cls-9" d="M277.5,184.76c-12,0-24.39-2.36-24.39-6.32s12.4-6.32,24.39-6.32,24.38,2.36,24.38,6.32S289.48,184.76,277.5,184.76Zm0-12c-14.24,0-23.8,3-23.8,5.73s9.56,5.73,23.8,5.73,23.79-3,23.79-5.73S291.73,172.71,277.5,172.71Z"/><path class="cls-9" d="M286.41,179.91c0-1-1.64-1.52-3.61-1.73,2.05-.3,2.68-.72,2.68-1.57s-1.74-1.59-5.35-1.71v-1h-3.55v.92h-1.34V174h-3.55v.92h-3.11v1.31h1.59v4.47h-1.59V182h3.11v.94h3.55V182h1.34v.94h3.55V182C284.56,181.87,286.41,181.23,286.41,179.91Zm-10.58-3.7h1.72c1,0,1.81.28,1.81.75s-.42.78-1.86.78h-1.67Zm2.18,4.44h-2.18v-1.76h2.1c1.51,0,2.3.37,2.3.89S279.16,180.65,278,180.65Z"/><path class="cls-10" d="M286.41,179.61c0-1-1.64-1.52-3.61-1.72,2.05-.31,2.68-.72,2.68-1.58s-1.74-1.59-5.35-1.71v-.95h-3.55v.93h-1.34v-.93h-3.55v.93h-3.11v1.31h1.59v4.46h-1.59v1.32h3.11v.94h3.55v-.94h1.34v.94h3.55v-1C284.56,181.57,286.41,180.93,286.41,179.61Zm-10.58-3.69h1.72c1,0,1.81.27,1.81.74s-.42.78-1.86.78h-1.67Zm2.18,4.43h-2.18v-1.76h2.1c1.51,0,2.3.37,2.3.89S279.16,180.35,278,180.35Z"/><path class="cls-31" d="M304.66,175.24c0,4.36-12,7.88-26.77,7.88s-26.77-3.52-26.77-7.88c0-.49-.15-3.84.15-4.31,2.31-3.66,13.52-3.57,26.62-3.57s24.26,0,26.62,3.64C304.82,171.49,304.66,174.73,304.66,175.24Z"/><path class="cls-32" d="M304.66,171.57c0,4.36-12,7.89-26.77,7.89s-26.77-3.53-26.77-7.89,12-7.88,26.77-7.88S304.66,167.22,304.66,171.57Z"/><path class="cls-9" d="M277.89,177.62c-12,0-24.39-2.36-24.39-6.32S265.9,165,277.89,165s24.39,2.37,24.39,6.32S289.88,177.62,277.89,177.62Zm0-12c-14.23,0-23.79,3-23.79,5.72s9.56,5.73,23.79,5.73,23.8-3,23.8-5.73S292.13,165.58,277.89,165.58Z"/><path class="cls-9" d="M286.81,172.77c0-1-1.64-1.52-3.61-1.72,2.05-.31,2.68-.72,2.68-1.58s-1.74-1.59-5.35-1.71v-.95H277v.93h-1.34v-.93h-3.56v.93H269v1.31h1.58v4.46H269v1.32h3.1v.94h3.56v-.94H277v.94h3.55v-1C285,174.73,286.81,174.09,286.81,172.77Zm-10.59-3.69H278c1,0,1.8.27,1.8.74s-.41.78-1.86.78h-1.67Zm2.19,4.43h-2.19v-1.76h2.11c1.5,0,2.3.37,2.3.89S279.56,173.51,278.41,173.51Z"/><path class="cls-10" d="M286.81,172.48c0-1-1.64-1.53-3.61-1.73,2.05-.31,2.68-.72,2.68-1.57s-1.74-1.6-5.35-1.72v-.94H277v.92h-1.34v-.92h-3.56v.92H269v1.31h1.58v4.47H269v1.32h3.1v.93h3.56v-.93H277v.93h3.55v-.95C285,174.43,286.81,173.8,286.81,172.48Zm-10.59-3.7H278c1,0,1.8.27,1.8.74s-.41.78-1.86.78h-1.67Zm2.19,4.44h-2.19v-1.77h2.11c1.5,0,2.3.38,2.3.89S279.56,173.22,278.41,173.22Z"/><path class="cls-33" d="M301.09,168.4c0,4.36-12,7.88-26.77,7.88s-26.77-3.52-26.77-7.88c0-.49-.14-3.84.15-4.31,2.31-3.66,13.52-3.57,26.62-3.57s24.26,0,26.62,3.64C301.25,164.65,301.09,167.89,301.09,168.4Z"/><path class="cls-34" d="M301.09,164.73c0,4.36-12,7.89-26.77,7.89s-26.76-3.53-26.76-7.89,12-7.88,26.76-7.88S301.09,160.38,301.09,164.73Z"/><path class="cls-9" d="M274.32,170.78c-12,0-24.38-2.36-24.38-6.32s12.4-6.32,24.38-6.32,24.39,2.37,24.39,6.32S286.31,170.78,274.32,170.78Zm0-12c-14.23,0-23.79,3-23.79,5.72s9.56,5.73,23.79,5.73,23.8-3,23.8-5.73S288.56,158.74,274.32,158.74Z"/><path class="cls-9" d="M283.24,165.93c0-1-1.64-1.52-3.61-1.72,2.05-.31,2.68-.72,2.68-1.58s-1.74-1.59-5.35-1.71V160h-3.55v.93h-1.34V160h-3.56v.93h-3.1v1.31H267v4.46h-1.58V168h3.1v.94h3.56V168h1.34v.94H277v-1C281.39,167.89,283.24,167.25,283.24,165.93Zm-10.58-3.69h1.72c1,0,1.8.27,1.8.74s-.41.78-1.86.78h-1.66Zm2.18,4.43h-2.18v-1.76h2.1c1.5,0,2.3.37,2.3.89S276,166.67,274.84,166.67Z"/><path class="cls-10" d="M283.24,165.63c0-1-1.64-1.52-3.61-1.72,2.05-.31,2.68-.72,2.68-1.58s-1.74-1.59-5.35-1.71v-1h-3.55v.93h-1.34v-.93h-3.56v.93h-3.1v1.31H267v4.47h-1.58v1.32h3.1v.93h3.56v-.93h1.34v.93H277v-.95C281.39,167.59,283.24,167,283.24,165.63Zm-10.58-3.69h1.72c1,0,1.8.27,1.8.74s-.41.78-1.86.78h-1.66Zm2.18,4.44h-2.18v-1.77h2.1c1.5,0,2.3.37,2.3.89S276,166.38,274.84,166.38Z"/><path class="cls-35" d="M308.54,163.16c0,4.35-12,7.88-26.77,7.88S255,167.51,255,163.16c0-.49-.15-3.84.15-4.31,2.3-3.66,13.51-3.57,26.61-3.57s24.26,0,26.62,3.64C308.7,159.4,308.54,162.65,308.54,163.16Z"/><path class="cls-36" d="M308.54,159.49c0,4.36-12,7.88-26.76,7.88S255,163.85,255,159.49s12-7.88,26.77-7.88S308.54,155.14,308.54,159.49Z"/><path class="cls-9" d="M281.78,165.54c-12,0-24.39-2.36-24.39-6.32s12.4-6.32,24.39-6.32,24.39,2.36,24.39,6.32S293.77,165.54,281.78,165.54Zm0-12c-14.24,0-23.8,3-23.8,5.73s9.56,5.73,23.8,5.73,23.79-3,23.79-5.73S296,153.49,281.78,153.49Z"/><path class="cls-9" d="M290.69,160.69c0-1-1.64-1.52-3.61-1.73,2.05-.3,2.68-.72,2.68-1.57s-1.74-1.59-5.34-1.71v-1h-3.56v.92h-1.34v-.92H276v.92h-3.11V157h1.59v4.47h-1.59v1.32H276v.94h3.55v-.94h1.34v.94h3.56v-.95C288.85,162.65,290.69,162,290.69,160.69ZM280.11,157h1.72c1,0,1.81.28,1.81.75s-.41.78-1.86.78h-1.67Zm2.19,4.44h-2.19v-1.77h2.1c1.51,0,2.3.38,2.3.9S283.44,161.43,282.3,161.43Z"/><path class="cls-10" d="M290.69,160.39c0-1-1.64-1.52-3.61-1.72,2.05-.31,2.68-.72,2.68-1.58s-1.74-1.59-5.34-1.71v-.95h-3.56v.93h-1.34v-.93H276v.93h-3.11v1.31h1.59v4.46h-1.59v1.32H276v.94h3.55v-.94h1.34v.94h3.56v-.95C288.85,162.35,290.69,161.71,290.69,160.39Zm-10.58-3.69h1.72c1,0,1.81.27,1.81.74s-.41.78-1.86.78h-1.67Zm2.19,4.43h-2.19v-1.76h2.1c1.51,0,2.3.37,2.3.89S283.44,161.13,282.3,161.13Z"/><path class="cls-37" d="M302.3,155.91c0,4.35-12,7.88-26.76,7.88s-26.77-3.53-26.77-7.88c0-.49-.15-3.84.15-4.31,2.31-3.66,13.51-3.57,26.62-3.57s24.26,0,26.62,3.64C302.47,152.15,302.3,155.4,302.3,155.91Z"/><path class="cls-38" d="M302.31,152.24c0,4.36-12,7.88-26.77,7.88s-26.77-3.52-26.77-7.88,12-7.88,26.77-7.88S302.31,147.89,302.31,152.24Z"/><path class="cls-9" d="M275.54,158.29c-12,0-24.39-2.36-24.39-6.32s12.4-6.32,24.39-6.32S299.93,148,299.93,152,287.53,158.29,275.54,158.29Zm0-12c-14.23,0-23.79,3-23.79,5.73s9.56,5.73,23.79,5.73,23.79-3,23.79-5.73S289.77,146.24,275.54,146.24Z"/><path class="cls-9" d="M284.45,153.44c0-1-1.64-1.52-3.61-1.73,2.05-.3,2.68-.72,2.68-1.57s-1.74-1.59-5.34-1.71v-1h-3.56v.92h-1.34v-.92h-3.55v.92h-3.11v1.31h1.59v4.47h-1.59v1.32h3.11v.94h3.55v-.94h1.34v.94h3.56v-.95C282.61,155.4,284.45,154.76,284.45,153.44Zm-10.58-3.7h1.72c1,0,1.81.28,1.81.75s-.41.78-1.86.78h-1.67Zm2.19,4.44h-2.19v-1.77H276c1.5,0,2.29.38,2.29.9S277.21,154.18,276.06,154.18Z"/><path class="cls-10" d="M284.45,153.14c0-1-1.64-1.52-3.61-1.72,2.05-.31,2.68-.72,2.68-1.58s-1.74-1.59-5.34-1.71v-.95h-3.56v.93h-1.34v-.93h-3.55v.93h-3.11v1.31h1.59v4.46h-1.59v1.32h3.11v.94h3.55v-.94h1.34v.94h3.56v-.95C282.61,155.1,284.45,154.46,284.45,153.14Zm-10.58-3.69h1.72c1,0,1.81.27,1.81.74s-.41.78-1.86.78h-1.67Zm2.19,4.43h-2.19v-1.76H276c1.5,0,2.29.37,2.29.89S277.21,153.88,276.06,153.88Z"/><path class="cls-39" d="M307.06,148.77c0,4.36-12,7.88-26.76,7.88s-26.77-3.52-26.77-7.88c0-.49-.15-3.84.15-4.31,2.3-3.66,13.51-3.57,26.62-3.57s24.25,0,26.61,3.64C307.23,145,307.06,148.26,307.06,148.77Z"/><path class="cls-40" d="M307.07,145.1c0,4.36-12,7.89-26.77,7.89s-26.77-3.53-26.77-7.89,12-7.88,26.77-7.88S307.07,140.75,307.07,145.1Z"/><path class="cls-9" d="M280.3,151.15c-12,0-24.39-2.36-24.39-6.32s12.4-6.32,24.39-6.32,24.39,2.37,24.39,6.32S292.29,151.15,280.3,151.15Zm0-12c-14.23,0-23.8,3-23.8,5.72s9.57,5.73,23.8,5.73,23.79-3,23.79-5.73S294.53,139.11,280.3,139.11Z"/><path class="cls-9" d="M271.34,146.19h5.13c0,1,2.32,1.22,3.48,1.24,1,0,2.35-.1,2.35-.62,0-1-10.6-.56-10.6-3.73,0-1.84,3.86-2.67,6.57-2.67,2.32,0,4.66.33,5.76,1.26l.28-1h4.75v3.12h-5c0-.92-1.6-1.44-3.53-1.44-.8,0-1.9.22-1.9.66,0,1.28,10.93,1,10.93,3.9,0,1.94-4,2.64-7.32,2.64a12.65,12.65,0,0,1-5.77-1.14l-.3.95h-4.83Z"/><path class="cls-10" d="M271.34,145.88h5.13c0,1.05,2.32,1.22,3.48,1.25,1,0,2.35-.1,2.35-.63,0-1-10.6-.56-10.6-3.73,0-1.84,3.86-2.67,6.57-2.67,2.32,0,4.66.34,5.76,1.27l.28-1.05h4.75v3.12h-5c0-.92-1.6-1.44-3.53-1.44-.8,0-1.9.23-1.9.66,0,1.28,10.93,1,10.93,3.91,0,1.94-4,2.63-7.32,2.63a12.65,12.65,0,0,1-5.77-1.14l-.3,1h-4.83Z"/><path class="cls-41" d="M194,247.67s-11.2-6.08-13.82-13l13.68-1Z"/><path class="cls-4" d="M302.66,258l-27.23-15.1a36.88,36.88,0,0,1-7.51-11.64,54.66,54.66,0,0,0-6.77-10l-4.21-5.2a7.76,7.76,0,0,0-4.29-2.72,56.07,56.07,0,0,1-8.75-3.72l-5.85-2.8a12.61,12.61,0,0,0-5-3.22s-2.72-.74-3.38-1.4a2.93,2.93,0,0,0-2.43-.75s-3.59-3.54-7.22-2.68c0,0-2-.16-2.23,2.81,0,0,.53,9.43,11.67,13.88a5.7,5.7,0,0,1,2.36,1.47,22.06,22.06,0,0,0,6.06,5,5.53,5.53,0,0,1,2.85,2.8,20,20,0,0,0-.74,5.14,73.64,73.64,0,0,0-8.11-1.3,23.87,23.87,0,0,1-4.23-1.53s-5.08-1.52-9.29-2.26a34.12,34.12,0,0,1-3.3-1,71.12,71.12,0,0,0-8.25-3.13l-5.32-3.1s-6.56-4-10-.74a3,3,0,0,0-.45,3.8s-3.67-.74-5.28,1.11a3.17,3.17,0,0,0-.58,3.22,4.86,4.86,0,0,0-1.49,5.55s.44,2.48,6,7.92c0,0-.42,3.36,2.76,7.9a21.25,21.25,0,0,0,3.92,4.62l1.16,1.08,4.1,4a28.21,28.21,0,0,0,2.6,1.92l8.48,5.07a21.82,21.82,0,0,1,4,2.85s2,2.54,13.31,6.19a86.24,86.24,0,0,0,17.1,4.91s2.06.41,13.29.91l29.46,15.1Z"/><path class="cls-5" d="M219,199.11a2.59,2.59,0,0,0-1,1.55c-.45,1.64-.16,4.69,3.62,9.34a18.7,18.7,0,0,0,7.72,5.41,6.45,6.45,0,0,1,1.81.94l1.4,1.3a19.78,19.78,0,0,0,5.19,4.14s2.42,1.09,3.1,2.91a14.54,14.54,0,0,0-1,5.42s.43,10.83,8.48,18.26c0,0-9.07-13.42-.34-26.83a63.3,63.3,0,0,0-14.28-6.35,3.88,3.88,0,0,0-3-1.07S215.64,206.79,219,199.11Z"/><path class="cls-5" d="M240.64,229.75a75.8,75.8,0,0,0-8.62-1.17,1.77,1.77,0,0,0-.23,0,7.87,7.87,0,0,0-5.17,2.8,9.74,9.74,0,0,1,6.1-1s5.57.55,8,2.62l-.35-2C240.26,230.35,241.31,229.9,240.64,229.75Z"/><path class="cls-5" d="M224.86,234.27s-.8,2.41-2.29,2.16a35.3,35.3,0,0,1-10-3.4s-7-4.25-9.33-5.37a9.12,9.12,0,0,1-2.47-1.32s-5.56-4.92-9.74-5.78c0,0,6.22,3,9.65,6.71a4.15,4.15,0,0,0,1.7,1,80.29,80.29,0,0,1,9.4,4.81,21,21,0,0,0,2.35,1.28s8.31,3.38,8,6A24.13,24.13,0,0,0,224.86,234.27Z"/><path class="cls-5" d="M185.15,224.94a6.28,6.28,0,0,1,5.86.83,63.35,63.35,0,0,1,7,6.93s1.11.91,2.06,1.61c0,0,6.89,5.11,8.13,6.47a5.54,5.54,0,0,0,2,1.08s5.95,1.69,6.94,3c0,0,1.82,1.86,2.84,0a2.48,2.48,0,0,1,2.32-.93s-.86-.8-2.66.22a3.81,3.81,0,0,1-2.41-.46,71.26,71.26,0,0,0-6.65-3.19,7.5,7.5,0,0,1-2.33-1.39l-7.73-5.45a17.35,17.35,0,0,1-2.38-2.23S190.14,220.4,185.15,224.94Z"/><path class="cls-5" d="M215.19,255.43l.62-2s-2.32-1.19-4.83-2.23a17.41,17.41,0,0,1-2.89-1.61,41.74,41.74,0,0,0-5.41-3.92s-5.61-10.43-10.43-9.57a3.88,3.88,0,0,0-2.69,2.19,3.6,3.6,0,0,1,4-2.85s5,.37,10.24,9.33c0,0,5.57,4.7,7.42,5.51l4.83,1.17a4.83,4.83,0,0,1,3.88-.37S217.08,251.06,215.19,255.43Z"/><path class="cls-5" d="M234,241.63s-.36,6.33-3,8.15c0,0-.33,8.58-6.44,11.06,0,0,6.48-.33,7.72-10.61C232.23,250.23,235.44,245.09,234,241.63Z"/><path class="cls-5" d="M234.33,255.31s16.34-7.18,23.27,2.72C257.6,258,249.93,250.6,234.33,255.31Z"/><path class="cls-5" d="M197.69,216s2.11,0,9.16,4.7a55.69,55.69,0,0,1,8.25,3.13l3.3,1s9.56,1.5,13.83,4l-1.86.68a42.12,42.12,0,0,0-12-3.78,16,16,0,0,1-3.59-1.17l-8.1-3.41A41.46,41.46,0,0,0,197.69,216Z"/><path class="cls-3" d="M283.84,240.76s-22.65,6.69-23.68,46.33l23.68,9.27s3.87-28.31,19.83-48.39Z"/><path class="cls-2" d="M298.77,242.65s-25.39,13.73-24,54.57l90.79,33.24V265Z"/><polygon class="cls-5" points="202.84 244.74 210.14 250.23 214.75 252.16 217.06 251.91 216.25 252.74 215.13 255.5 257.95 227.35 202.84 244.74"/><polygon class="cls-42" points="218.46 248.75 144.14 221.68 181.08 200.5 255.4 227.56 218.46 248.75"/><path class="cls-43" d="M218.08,250.23l-77-28L181,199.31l77,28Zm-71.39-28.76,71.67,26.09,34.49-19.78-71.66-26.1Z"/><path class="cls-44" d="M206.82,229.34c-7.59,4.12-18.07,4.55-23.4,1s-3.39-9.62,4.36-13.48,18.22-4.28,23.4-.95S214.41,225.22,206.82,229.34Z"/><polygon class="cls-42" points="209.75 234.5 205.87 233.24 219.38 225.28 223.25 226.53 209.75 234.5"/><polygon class="cls-42" points="176.81 220.26 172.95 218.94 186.6 211.22 190.45 212.54 176.81 220.26"/><path class="cls-43" d="M205.24,243.67s11.35-7.47,23-1l-9.36,6.13Z"/><path class="cls-43" d="M237.45,221.4s.75,8.37,10.39,10.22l8.61-4.64Z"/><path class="cls-43" d="M155.48,215.45s7.93,3.78,2.49,11.29l-12.85-5Z"/><path class="cls-44" d="M174.48,203.92s6.37,3.91,17,.61c0,0-10.62-4.18-10.8-3.89S174.48,203.92,174.48,203.92Z"/><polygon class="cls-45" points="218.59 246.24 144.71 218.01 181.97 197.41 255.86 225.64 218.59 246.24"/><path class="cls-44" d="M218.19,247.72l-76.53-29.24,40.23-22.26,76.52,29.24Zm-70.93-29.89,71.24,27.22,34.8-19.24L182.06,198.6Z"/><path class="cls-44" d="M207.26,226.65c-7.66,4-18.14,4.26-23.42.59s-3.23-9.67,4.57-13.4,18.28-4,23.42-.59S214.91,222.65,207.26,226.65Z"/><polygon class="cls-42" points="210.1 231.85 206.25 230.53 219.87 222.78 223.73 224.1 210.1 231.85"/><polygon class="cls-42" points="177.39 217.1 173.56 215.72 187.32 208.21 191.15 209.6 177.39 217.1"/><path class="cls-44" d="M205.45,241s11.47-7.3,23.05-.66l-9.45,6Z"/><path class="cls-44" d="M238,219.19s.63,8.39,10.24,10.38l8.67-4.5Z"/><path class="cls-44" d="M156.14,212s7.87,3.9,2.31,11.32l-12.77-5.14Z"/><path class="cls-44" d="M175.32,200.73s6.3,4,17,.87c0,0-10.55-4.34-10.74-4.06S175.32,200.73,175.32,200.73Z"/><path class="cls-4" d="M202.68,245.69s-4.26-8.3-11.37-9.55c0,0-3.74-.56-2,4.49,0,0,.87,4.18,5.73,8.17Z"/></g></g></svg>