<svg xmlns="http://www.w3.org/2000/svg" xmlns:xlink="http://www.w3.org/1999/xlink" viewBox="0 0 1620.82 730.38"><defs><style>.cls-1{fill:url(#Gradiente_sem_nome_7);}.cls-2{fill:url(#Gradiente_sem_nome_5);}.cls-3{fill:url(#linear-gradient);}.cls-4{fill:url(#linear-gradient-2);}.cls-5{fill:url(#linear-gradient-3);}.cls-6{fill:url(#linear-gradient-4);}.cls-10,.cls-18,.cls-19,.cls-32,.cls-7{fill:none;stroke-linecap:round;stroke-linejoin:round;stroke-width:3.71px;}.cls-7{stroke:#333652;}.cls-8{fill:url(#linear-gradient-5);}.cls-9{fill:#7593aa;}.cls-10{stroke:#fff;}.cls-11{fill:#fad02c;}.cls-12{fill:url(#linear-gradient-6);}.cls-13{fill:url(#linear-gradient-7);}.cls-14{fill:#90adc6;}.cls-15{fill:#c5ddef;}.cls-16{fill:#fff;}.cls-17{fill:#b8cc71;}.cls-18{stroke:#90adc6;}.cls-19{stroke:#fad02c;}.cls-20{fill:url(#linear-gradient-8);}.cls-21{fill:url(#linear-gradient-9);}.cls-22{fill:url(#linear-gradient-10);}.cls-23{fill:url(#linear-gradient-11);}.cls-24{fill:url(#linear-gradient-12);}.cls-25{fill:#ffd799;}.cls-26{fill:#a37c52;}.cls-27{fill:url(#linear-gradient-13);}.cls-28{fill:url(#linear-gradient-14);}.cls-29{fill:#ea9188;}.cls-30{fill:url(#linear-gradient-15);}.cls-31{fill:url(#linear-gradient-16);}.cls-32{stroke:#7593aa;}</style><radialGradient id="Gradiente_sem_nome_7" cx="810.41" cy="575.89" r="798.48" gradientUnits="userSpaceOnUse"><stop offset="0" stop-color="#c5ddef"/><stop offset="0.96" stop-color="#fdfefe" stop-opacity="0"/><stop offset="1" stop-color="#fff"/></radialGradient><linearGradient id="Gradiente_sem_nome_5" x1="810.41" y1="549.09" x2="810.41" y2="6.22" gradientUnits="userSpaceOnUse"><stop offset="0" stop-color="#c5ddef"/><stop offset="0.09" stop-color="#c8dff0" stop-opacity="0.95"/><stop offset="0.25" stop-color="#cfe3f2" stop-opacity="0.83"/><stop offset="0.46" stop-color="#dae9f5" stop-opacity="0.64"/><stop offset="0.7" stop-color="#eaf3f9" stop-opacity="0.36"/><stop offset="0.98" stop-color="#fefeff" stop-opacity="0.02"/><stop offset="1" stop-color="#fff" stop-opacity="0"/></linearGradient><linearGradient id="linear-gradient" x1="1510.47" y1="490.44" x2="1061.16" y2="490.44" gradientUnits="userSpaceOnUse"><stop offset="0" stop-color="#c5ddef"/><stop offset="1" stop-color="#fff"/></linearGradient><linearGradient id="linear-gradient-2" x1="930.9" y1="521.59" x2="1450.06" y2="521.59" gradientUnits="userSpaceOnUse"><stop offset="0" stop-color="#fad02c"/><stop offset="1" stop-color="#fff"/></linearGradient><linearGradient id="linear-gradient-3" x1="541.8" y1="490.44" x2="-34.83" y2="490.44" gradientTransform="matrix(-1, 0, 0, 1, 635.61, 0)" xlink:href="#linear-gradient"/><linearGradient id="linear-gradient-4" x1="232.61" y1="517.29" x2="825.55" y2="601.74" xlink:href="#linear-gradient-2"/><linearGradient id="linear-gradient-5" x1="975.99" y1="287.83" x2="880.01" y2="319.42" gradientUnits="userSpaceOnUse"><stop offset="0" stop-color="#c5ddef"/><stop offset="1" stop-color="#90adc6"/></linearGradient><linearGradient id="linear-gradient-6" x1="-4098.36" y1="308.91" x2="-4145.52" y2="570.22" gradientTransform="matrix(-1, 0, 0, 1, -3247.17, 0)" gradientUnits="userSpaceOnUse"><stop offset="0" stop-color="#fff"/><stop offset="1" stop-color="#90adc6"/></linearGradient><linearGradient id="linear-gradient-7" x1="-3927.87" y1="208.78" x2="-3878.16" y2="379.58" xlink:href="#linear-gradient-6"/><linearGradient id="linear-gradient-8" x1="-2560.42" y1="513.9" x2="-2432.86" y2="513.9" gradientTransform="matrix(-1, 0, 0, 1, -1259.01, 0)" xlink:href="#linear-gradient-2"/><linearGradient id="linear-gradient-9" x1="1060.27" y1="393.11" x2="1109.92" y2="393.11" xlink:href="#linear-gradient"/><linearGradient id="linear-gradient-10" x1="-1682.95" y1="401.79" x2="-1593.42" y2="401.79" gradientTransform="translate(2765.93)" xlink:href="#linear-gradient-5"/><linearGradient id="linear-gradient-11" x1="-1709.73" y1="510.02" x2="-1581.79" y2="510.02" gradientTransform="translate(2765.93)" xlink:href="#linear-gradient-5"/><linearGradient id="linear-gradient-12" x1="697.47" y1="531.89" x2="855.59" y2="394.26" gradientUnits="userSpaceOnUse"><stop offset="0" stop-color="#fff"/><stop offset="1" stop-color="#fad02c"/></linearGradient><linearGradient id="linear-gradient-13" x1="982.71" y1="146.94" x2="799.72" y2="146.94" gradientUnits="userSpaceOnUse"><stop offset="0" stop-color="#fff"/><stop offset="1" stop-color="#b8cc71"/></linearGradient><linearGradient id="linear-gradient-14" x1="1021.24" y1="212.13" x2="790.55" y2="212.13" gradientUnits="userSpaceOnUse"><stop offset="0" stop-color="#fff"/><stop offset="1" stop-color="#ea9188"/></linearGradient><linearGradient id="linear-gradient-15" x1="530.91" y1="491.71" x2="665.99" y2="491.71" xlink:href="#linear-gradient-5"/><linearGradient id="linear-gradient-16" x1="2454.19" y1="445.83" x2="2127.88" y2="581.37" gradientTransform="translate(-1677.69)" xlink:href="#linear-gradient"/></defs><g id="Camada_2" data-name="Camada 2"><g id="Desenho"><path class="cls-1" d="M0,730.38c135.05,0,135.05-47.46,270.1-47.46s135,47.46,270.1,47.46,135-47.46,270.09-47.46,135.05,47.46,270.1,47.46,135-47.46,270.1-47.46,135,47.46,270.09,47.46l.24-151H0Z"/><path class="cls-2" d="M1556.34,0c-10.67,80.2-71,190.72-221.7,138.8-59-20.34-60.64,136.17-120.45,156.54-60.85,20.73-155.8-51.06-219.62-40.66-64.32,10.49-118.83,106.56-184.16,106.56S690.57,265.17,626.25,254.68c-63.83-10.4-158.77,61.39-219.62,40.66C346.82,275,347.71,130.23,286.18,138.8,93.06,165.67,80.59,81.67,64.48,0"/><path class="cls-3" d="M1564.31,579.43s-6.67-57.65-81.67-61.3-62.2-116.78-130.78-116.68c-69.22.1-64.26,139.89-140.55,104.68-76.9-35.49-89.45-45.38-130.44,12.87-30.76,43.71-105.49-4-128.11,60.43Z"/><path class="cls-4" d="M1450.06,579.43s-5.67-37.47-69.34-39.84-52.8-75.9-111-75.84c-58.76.06-54.55,90.92-119.31,68-65.29-23.07-75.94-29.5-110.74,8.36-26.11,28.41-89.55-2.62-108.75,39.28Z"/><path class="cls-5" d="M56.51,579.43s6.67-57.65,81.67-61.3S200.38,401.35,269,401.45c69.22.1,64.26,139.89,140.55,104.68C486.41,470.64,499,460.75,540,519c30.76,43.71,105.49-4,128.11,60.43Z"/><path class="cls-6" d="M170.76,579.43s5.67-37.47,69.34-39.84,52.8-75.9,111-75.84c58.76.06,54.55,90.92,119.31,68,65.29-23.07,75.94-29.5,110.74,8.36,26.11,28.41,89.55-2.62,108.75,39.28Z"/><path class="cls-7" d="M1035.85,249.71s-52.73,24.2-93.73,87.12"/><path class="cls-8" d="M794.2,320.33s58.45-88.48,93.69-38.14c0,0,57.92-28.45,63.18,18.13,0,0,37.62-7.1,30.66,36.31s-187.53,0-187.53,0Z"/><path class="cls-9" d="M868.64,291.72S878,232.08,848,248.81c0,0-19.18-59.22-43.25-33.32-20,21.56,17,47,17,47s-35.17,32.53,8.86,47.57c0,0-12.88,11.35-2.57,26.75h55C893.9,311.28,902.51,278.67,868.64,291.72Z"/><path class="cls-10" d="M866.78,336.83s-17-61.09-36.87-96.41"/><path class="cls-10" d="M850.42,286.72c-.23-.62,5.78-27.65,5.78-27.65"/><line class="cls-10" x1="863.96" y1="327.2" x2="873.72" y2="303.97"/><line class="cls-10" x1="854.75" y1="298.8" x2="825.89" y2="290.8"/><path class="cls-11" d="M1049.15,229.28c-7.66,3.79-17.94,20.43-17.94,20.43s19.47,1.94,27.13-1.85,11.81-11,9.27-16.15S1056.81,225.5,1049.15,229.28Z"/><path class="cls-7" d="M1053.79,229.28c-7.66,3.79-17.94,20.43-17.94,20.43s19.47,1.94,27.13-1.85,11.81-11,9.27-16.15S1061.45,225.5,1053.79,229.28Z"/><path class="cls-11" d="M996.37,231.29c-2.12,8.28,3.79,26.92,3.79,26.92s14.16-13.49,16.29-21.77-.65-16.13-6.19-17.56S998.5,223,996.37,231.29Z"/><path class="cls-7" d="M1001,231.29c-2.12,8.28,3.79,26.92,3.79,26.92s14.16-13.49,16.29-21.77-.65-16.13-6.19-17.56S1003.14,223,1001,231.29Z"/><path class="cls-11" d="M1039.71,268.65c-8.15-2.58-27.09,2.3-27.09,2.3s12.69,14.88,20.84,17.46,16.15.24,17.87-5.22S1047.85,271.22,1039.71,268.65Z"/><path class="cls-7" d="M1044.35,268.65c-8.15-2.58-27.09,2.3-27.09,2.3s12.69,14.88,20.84,17.46,16.15.24,17.87-5.22S1052.49,271.22,1044.35,268.65Z"/><path class="cls-11" d="M952.18,265.28c2.51,8.17,17.28,21,17.28,21s5-18.9,2.53-27.07-9-13.43-14.44-11.75S949.67,257.11,952.18,265.28Z"/><path class="cls-7" d="M956.82,265.28c2.51,8.17,17.28,21,17.28,21s5-18.9,2.53-27.07-9-13.43-14.44-11.75S954.31,257.11,956.82,265.28Z"/><path class="cls-11" d="M1007.54,298.21c-7.64-3.82-27.12-2-27.12-2s10.21,16.68,17.85,20.5,15.91,2.78,18.47-2.34S1015.18,302,1007.54,298.21Z"/><path class="cls-7" d="M1012.18,298.21c-7.64-3.82-27.11-2-27.11-2s10.2,16.68,17.84,20.5,15.91,2.78,18.47-2.34S1019.82,302,1012.18,298.21Z"/><path class="cls-7" d="M961.72,285.44a408,408,0,0,0-19.6,51.39"/><path class="cls-7" d="M1020.29,191s-18.86,21.6-39.59,57.67"/><line class="cls-7" x1="1029.28" y1="166.77" x2="1020.18" y2="190.94"/><line class="cls-7" x1="1017.64" y1="165.59" x2="1020.19" y2="190.95"/><line class="cls-7" x1="1006.24" y1="169.62" x2="1020.18" y2="190.95"/><line class="cls-7" x1="995.06" y1="186.67" x2="1020.19" y2="190.94"/><line class="cls-7" x1="995.06" y1="186.67" x2="1020.19" y2="190.94"/><line class="cls-7" x1="998.89" y1="176.95" x2="1020.18" y2="190.95"/><line class="cls-7" x1="1038.76" y1="173.96" x2="1020.33" y2="191.05"/><line class="cls-7" x1="1045.01" y1="184.72" x2="1020.33" y2="191.04"/><line class="cls-7" x1="1045.15" y1="196.81" x2="1020.33" y2="191.05"/><line class="cls-7" x1="1032.98" y1="213.17" x2="1020.33" y2="191.04"/><line class="cls-7" x1="1032.98" y1="213.17" x2="1020.33" y2="191.04"/><line class="cls-7" x1="1040.79" y1="206.23" x2="1020.33" y2="191.05"/><path class="cls-12" d="M995.49,404a186.48,186.48,0,0,1-8.75-62.9c0-1.43.06-2.86,0-4.3H747.57v.58a119.21,119.21,0,0,0,9.12,45.9A168.17,168.17,0,0,1,769.43,448V579.43H908.52V511.52h41.31a20.69,20.69,0,0,0,20.8-21.47l-1.45-46.89h20.44a13.45,13.45,0,0,0,12.81-17.57Z"/><path class="cls-13" d="M641.83,122.25A119.61,119.61,0,0,0,747.57,336.83L642,122.17Z"/><path class="cls-14" d="M769.31,441.74c.07,2.07.12,4.14.12,6.21V579.43h92.72l16.21-106.36A16.73,16.73,0,0,0,864,454Z"/><path class="cls-14" d="M540.83,70.31a35.4,35.4,0,0,1,35.4,35.4h-70.8A35.4,35.4,0,0,1,540.83,70.31Z"/><path class="cls-15" d="M490,51.29a54.43,54.43,0,0,1,54.42,54.42H435.56A54.42,54.42,0,0,1,490,51.29Z"/><path class="cls-15" d="M432.8,83.42a22.29,22.29,0,0,1,22.29,22.29H410.51A22.29,22.29,0,0,1,432.8,83.42Z"/><path class="cls-7" d="M440.2,105.71H415.15a22.31,22.31,0,0,1,29.32-21.16,54.43,54.43,0,0,1,92.37-13.18"/><polyline class="cls-7" points="580.87 105.71 549.04 105.71 510.07 105.71"/><path class="cls-14" d="M271.55,154.9a45.93,45.93,0,0,1,45.93,45.93H225.62A45.93,45.93,0,0,1,271.55,154.9Z"/><path class="cls-15" d="M205.57,130.22a70.61,70.61,0,0,1,70.61,70.61H135A70.61,70.61,0,0,1,205.57,130.22Z"/><path class="cls-15" d="M131.39,171.9a28.93,28.93,0,0,1,28.92,28.93H102.46A28.93,28.93,0,0,1,131.39,171.9Z"/><path class="cls-7" d="M139.61,200.83H107.1a28.92,28.92,0,0,1,38.05-27.45A70.61,70.61,0,0,1,265,156.28"/><polyline class="cls-7" points="322.12 200.83 280.82 200.83 230.26 200.83"/><path class="cls-14" d="M1467.79,154.9a45.92,45.92,0,0,1,45.92,45.93h-91.85A45.93,45.93,0,0,1,1467.79,154.9Z"/><path class="cls-15" d="M1401.81,130.22a70.61,70.61,0,0,1,70.61,70.61H1331.21A70.61,70.61,0,0,1,1401.81,130.22Z"/><path class="cls-15" d="M1327.63,171.9a28.93,28.93,0,0,1,28.92,28.93H1298.7A28.93,28.93,0,0,1,1327.63,171.9Z"/><path class="cls-7" d="M1335.85,200.83h-32.51a28.91,28.91,0,0,1,38-27.45,70.62,70.62,0,0,1,119.85-17.1"/><polyline class="cls-7" points="1518.36 200.83 1477.06 200.83 1426.5 200.83"/><path class="cls-7" d="M345.49,35.07c13.91,5.82,15,22,15,22s9.8-11.6,26.21-4.74"/><path class="cls-7" d="M291.19,115.88c14.18-5.11,25.94,6.05,25.94,6.05s-.61-15.18,16.13-21.2"/><path class="cls-7" d="M1261.06,64.26c-14.18-5.1-25.94,6-25.94,6s.61-15.17-16.13-21.2"/><polyline class="cls-16" points="344.16 366.65 315.16 363.51 297.94 387.06 326.94 390.19 344.16 366.65"/><polygon class="cls-15" points="315.16 363.51 303.37 336.83 332.37 339.96 344.16 366.65 315.16 363.51"/><polygon class="cls-11" points="286.16 360.38 297.94 387.06 315.16 363.51 303.37 336.83 286.16 360.38"/><polyline class="cls-7" points="348.8 366.65 319.8 363.51 302.58 387.06 331.58 390.19 348.8 366.65"/><polygon class="cls-7" points="319.8 363.51 308.01 336.83 337.01 339.96 348.8 366.65 319.8 363.51"/><polygon class="cls-7" points="290.8 360.38 302.58 387.06 319.8 363.51 308.01 336.83 290.8 360.38"/><polyline class="cls-16" points="1251.09 334.43 1222.09 331.3 1204.88 354.85 1233.88 357.98 1251.09 334.43"/><polygon class="cls-15" points="1222.09 331.3 1210.31 304.62 1239.31 307.75 1251.09 334.43 1222.09 331.3"/><polygon class="cls-17" points="1193.09 328.16 1204.88 354.85 1222.09 331.3 1210.31 304.62 1193.09 328.16"/><polyline class="cls-7" points="1255.73 334.43 1226.73 331.3 1209.52 354.85 1238.52 357.98 1255.73 334.43"/><polygon class="cls-7" points="1226.73 331.3 1214.95 304.62 1243.95 307.75 1255.73 334.43 1226.73 331.3"/><polygon class="cls-7" points="1197.73 328.16 1209.52 354.85 1226.73 331.3 1214.95 304.62 1197.73 328.16"/><line class="cls-18" x1="199" y1="444.43" x2="221.03" y2="480"/><line class="cls-18" x1="190.37" y1="447.83" x2="212.4" y2="483.41"/><line class="cls-18" x1="181.73" y1="451.24" x2="203.76" y2="486.81"/><line class="cls-19" x1="96.37" y1="487.73" x2="137.15" y2="478.35"/><line class="cls-19" x1="96.81" y1="497" x2="137.58" y2="487.62"/><line class="cls-19" x1="97.24" y1="506.28" x2="138.02" y2="496.9"/><line class="cls-18" x1="1369.09" y1="482.61" x2="1391.12" y2="518.19"/><line class="cls-18" x1="1360.45" y1="486.01" x2="1382.48" y2="521.59"/><line class="cls-18" x1="1351.81" y1="489.42" x2="1373.84" y2="524.99"/><line class="cls-19" x1="1464.71" y1="475.15" x2="1505.49" y2="465.77"/><line class="cls-19" x1="1465.14" y1="484.42" x2="1505.92" y2="475.04"/><line class="cls-19" x1="1465.58" y1="493.69" x2="1506.36" y2="484.31"/><path class="cls-11" d="M1183.67,488c-1.49,11.7-4.38,22.21-6.67,31.13s-3.73,16.12.28,19.78c3.67,3.45,13.43,2.47,23.68-5.35a61.77,61.77,0,0,0,11.23-85.15c-7.87-10.19-17-13.63-21.49-11.24-4.82,2.5-5.2,9.93-5.4,19S1185.26,476.3,1183.67,488Z"/><path class="cls-7" d="M1188.36,545.88c-3-4-1-13.62,7.87-23a60.65,60.65,0,0,1,42.56-18.37"/><path class="cls-7" d="M1216.83,448.4c-7.87-10.19-17-13.63-21.49-11.24-4.82,2.5-5.19,9.93-5.4,19s0,20.1-1.63,31.79a189.49,189.49,0,0,1-4.33,22c-.8,3.2-1.6,6.25-2.34,9.14"/><path class="cls-20" d="M1239.18,530.68c-14.23,3.63-26.77,8.8-37.45,13-10.61,4-19.36,7.06-24.48,2.66-4.82-4-5.1-16.22,3-30.07,7.85-13.64,24.08-28.92,46.35-34.36,22.11-6.07,43.69-.59,57.15,7.53,13.78,8.18,19.44,19,17.16,24.84-2.36,6.34-11.48,7.94-22.71,9.57S1253.38,526.94,1239.18,530.68Z"/><path class="cls-7" d="M1288.6,489.85c13.79,8.17,19.44,19,17.16,24.84-2.36,6.33-11.48,7.93-22.7,9.57s-24.83,3.1-39,6.85-26.78,8.79-37.45,13c-10.62,4-19.36,7-24.49,2.66-4.82-4-5.1-16.22,3-30.07,7.85-13.65,24.09-28.93,46.35-34.36a74.7,74.7,0,0,1,34.36-1.1"/><path class="cls-18" d="M1125.06,335.59s-13.36,26.94-24.77,69.05"/><line class="cls-18" x1="1127.72" y1="308.61" x2="1124.94" y2="335.56"/><line class="cls-18" x1="1115.6" y1="310.52" x2="1124.94" y2="335.56"/><line class="cls-18" x1="1105.11" y1="317.65" x2="1124.94" y2="335.56"/><line class="cls-18" x1="1098.32" y1="337.92" x2="1124.95" y2="335.55"/><line class="cls-18" x1="1098.32" y1="337.92" x2="1124.95" y2="335.55"/><line class="cls-18" x1="1099.61" y1="327.04" x2="1124.94" y2="335.56"/><line class="cls-18" x1="1139.25" y1="313.37" x2="1125.12" y2="335.62"/><line class="cls-18" x1="1148.46" y1="322.62" x2="1125.11" y2="335.62"/><line class="cls-18" x1="1151.82" y1="334.85" x2="1125.11" y2="335.63"/><line class="cls-18" x1="1143.84" y1="354.68" x2="1125.11" y2="335.61"/><line class="cls-18" x1="1143.84" y1="354.68" x2="1125.11" y2="335.61"/><line class="cls-18" x1="1149.92" y1="345.56" x2="1125.11" y2="335.62"/><path class="cls-21" d="M1075.09,394.53c3.25,9.29,5,18.22,6.63,25.74s3.23,13.43,7.58,14.67c4,1.21,11-3.16,15.69-12.83a51.55,51.55,0,0,0-23.36-67.79c-9.67-4.67-17.81-3.82-20.24-.38-2.66,3.67-.18,9.36,3.07,16.24S1071.93,385.2,1075.09,394.53Z"/><path class="cls-7" d="M1101.36,438.51c-3.76-1.87-5.83-9.8-2.68-20.09a50.52,50.52,0,0,1,24.93-29.58"/><path class="cls-7" d="M1086.27,355.08c-9.67-4.67-17.81-3.82-20.24-.38-2.66,3.67-.17,9.36,3.07,16.24s7.47,15,10.64,24.35a159.47,159.47,0,0,1,5,18c.6,2.69,1.14,5.26,1.66,7.69"/><path class="cls-22" d="M1132.48,408.1c-9.28,8-16.72,16.55-23.13,23.66s-11.83,12.49-17.3,11.11c-5.09-1.19-9.86-10.21-9-23.57a64.18,64.18,0,0,1,67.3-58.64c13.34,1,21.6,6.94,22.07,12.16.6,5.61-5.61,10.2-13.39,15.61S1141.69,400,1132.48,408.1Z"/><path class="cls-7" d="M1155.34,359.28c13.34,1,21.6,6.93,22.07,12.16.6,5.61-5.61,10.2-13.39,15.61s-17.38,11.57-26.59,19.67-16.72,16.55-23.13,23.65-11.83,12.49-17.3,11.12c-5.09-1.19-9.86-10.21-9-23.58a63,63,0,0,1,21.81-43,62.25,62.25,0,0,1,25.25-13.62"/><path class="cls-14" d="M1044.93,499.64c4.64,13.28,7.15,26,9.47,36.78s4.61,19.19,10.84,21c5.75,1.73,15.65-4.52,22.42-18.32a72.26,72.26,0,0,0,2.89-55.22c-6.86-20.87-22.66-35.21-36.28-41.66-13.82-6.67-25.46-5.46-28.92-.54-3.81,5.24-.26,13.37,4.38,23.2S1040.4,486.31,1044.93,499.64Z"/><path class="cls-7" d="M1080.48,562.48c-5.39-2.67-8.34-14-3.84-28.7a72.3,72.3,0,0,1,35.64-42.28"/><path class="cls-7" d="M1058.92,443.27c-13.83-6.68-25.47-5.47-28.93-.55-3.81,5.24-.25,13.37,4.38,23.2,4.8,9.89,10.67,21.47,15.2,34.8a227,227,0,0,1,7.1,25.78c.85,3.84,1.62,7.53,2.37,11"/><path class="cls-23" d="M1126.93,519c-13.26,11.45-23.89,23.65-33,33.81-9.19,9.94-16.9,17.85-24.72,15.89-7.28-1.71-14.08-14.6-12.81-33.7,1.11-18.75,10.29-43.71,31.17-61.38,20.35-18.26,46.31-23.91,65-22.42,19.06,1.39,30.86,9.92,31.54,17.38.86,8-8,14.58-19.13,22.31C1153.63,498.61,1140.09,507.46,1126.93,519Z"/><path class="cls-10" d="M1172.45,467.66c-51.63,6.69-91,45.51-98.2,99.09"/><path class="cls-10" d="M1145,474.65a143.8,143.8,0,0,1,18.14,10.6"/><path class="cls-10" d="M1118.56,489.3a132.53,132.53,0,0,1,19.45,6.22"/><path class="cls-10" d="M1097.26,510.38a119.58,119.58,0,0,1,19.78,1.46"/><path class="cls-10" d="M1082.08,537a105.41,105.41,0,0,1,19-3.57"/><path class="cls-10" d="M1145,474.65a114.07,114.07,0,0,1,7.47-18.89"/><path class="cls-10" d="M1118.56,489.3a128.73,128.73,0,0,1,2.4-20.65"/><path class="cls-10" d="M1097.26,510.38a142.15,142.15,0,0,1-2.62-21.26"/><path class="cls-10" d="M1082.08,537a155.18,155.18,0,0,1-7.44-20.8"/><path class="cls-7" d="M1157.61,449.26c19.06,1.38,30.87,9.91,31.55,17.37.85,8-8,14.59-19.14,22.32-11.31,7.68-24.85,16.54-38,28.11s-23.9,23.65-33.06,33.8c-9.18,9.95-16.9,17.85-24.71,15.89-7.29-1.7-14.09-14.59-12.82-33.69,1.11-18.75,10.29-43.72,31.17-61.38a89,89,0,0,1,36.09-19.48"/><path class="cls-7" d="M1295.32,387.77s-46.8,26.38-79.79,87.58"/><path class="cls-15" d="M1305.37,367c-6.78,4.08-15,20.23-15,20.23s18.11.29,24.88-3.8,10-11.07,7.32-15.61S1312.15,362.92,1305.37,367Z"/><path class="cls-7" d="M1310.3,367.55c-6.78,4.08-15,20.22-15,20.22s18.11.29,24.88-3.79,10-11.07,7.32-15.61S1317.07,363.46,1310.3,367.55Z"/><path class="cls-17" d="M1256.83,372.91c-1.32,7.8,5.56,24.54,5.56,24.54s12-13.53,13.36-21.33-1.84-14.84-7.06-15.73S1258.16,365.11,1256.83,372.91Z"/><path class="cls-7" d="M1261.76,373.45c-1.32,7.8,5.56,24.55,5.56,24.55s12-13.53,13.36-21.33-1.84-14.85-7.06-15.73S1263.09,365.65,1261.76,373.45Z"/><path class="cls-15" d="M1304.32,404.05c-7.71-1.76-24.81,4.2-24.81,4.2s12.85,12.75,20.57,14.51,14.92-1,16.09-6.19S1312,405.8,1304.32,404.05Z"/><path class="cls-7" d="M1309.25,404.59c-7.71-1.75-24.81,4.21-24.81,4.21s12.85,12.75,20.57,14.5,14.92-1,16.09-6.18S1317,406.34,1309.25,404.59Z"/><path class="cls-17" d="M1218.67,407.66c2.94,7.35,17.55,18,17.55,18s3.2-17.83.26-25.17-9.31-11.7-14.23-9.73S1215.73,400.32,1218.67,407.66Z"/><path class="cls-7" d="M1223.6,408.21c2.94,7.34,17.55,18,17.55,18s3.2-17.82.26-25.17-9.31-11.7-14.23-9.73S1220.66,400.86,1223.6,408.21Z"/><path class="cls-15" d="M1271.69,432.8c-7.34-2.94-25.17.26-25.17.26s10.7,14.61,18,17.55,14.9,1.34,16.86-3.58S1279,435.74,1271.69,432.8Z"/><path class="cls-7" d="M1277.2,434.34c-7.34-2.94-25.17.26-25.17.26s10.7,14.61,18,17.55,14.9,1.33,16.87-3.58S1284.55,437.28,1277.2,434.34Z"/><rect class="cls-16" x="864.63" y="106.53" width="16.59" height="230.3"/><path class="cls-7" d="M752.21,336.83v.58a119.4,119.4,0,0,0,9.12,45.9A168.17,168.17,0,0,1,774.07,448V579.43H913.16V511.52h41.31a20.68,20.68,0,0,0,20.8-21.47l-1.45-46.89h20.45a13.45,13.45,0,0,0,12.8-17.57L1000.13,404a186.48,186.48,0,0,1-8.75-62.9c0-1.43.06-2.86.06-4.3H827.53"/><path class="cls-7" d="M646.47,122.25A119.61,119.61,0,0,0,752.21,336.83L646.62,122.17Z"/><path class="cls-11" d="M670.74,561.38v4.74a13.31,13.31,0,0,0,13.31,13.31H778.9a13.31,13.31,0,0,0,13.31-13.31V535.7Z"/><path class="cls-24" d="M792.21,474.94a13.31,13.31,0,0,0-13.31-13.31H684.05a13.31,13.31,0,0,0-13.31,13.31v86.44L792.21,535.7Z"/><path class="cls-7" d="M675.38,515.33v51a13.32,13.32,0,0,0,13.52,13.11h94.44a13.32,13.32,0,0,0,13.51-13.11V546"/><path class="cls-7" d="M796.85,505.75v-31a13.32,13.32,0,0,0-13.51-13.11H688.9a13.54,13.54,0,0,0-12.46,8"/><path class="cls-11" d="M803.7,514.17a3.6,3.6,0,0,1,2.27,1.89,18.11,18.11,0,0,0,23.83,8.62,12.39,12.39,0,0,1,8.49-.74l.08,0a12,12,0,0,1,4.59,2.46l6.59,5.68a22.66,22.66,0,0,1,7,23.33h0l-63.25-17.88,5.9-20.88a3.63,3.63,0,0,1,4.49-2.51Z"/><path class="cls-7" d="M808.34,514.17a3.58,3.58,0,0,1,2.27,1.89,18.11,18.11,0,0,0,23.83,8.62,12.41,12.41,0,0,1,8.5-.74l.07,0a12,12,0,0,1,4.59,2.46l6.59,5.68a22.66,22.66,0,0,1,7,23.33h0L798,537.56l5.9-20.88a3.63,3.63,0,0,1,4.49-2.51Z"/><path class="cls-9" d="M825.2,517.33A19.92,19.92,0,0,0,848,500l7.4-46.49a21.46,21.46,0,0,0,.13-3.36c-.55-15-13.79-26.37-28.74-25.18l-80.24-.09.44,13.56c0,.31.07.63.11.94a20.57,20.57,0,0,0,17.51,17.29l49.47,6.55-5.61,32.06a19.91,19.91,0,0,0,16.71,22Z"/><path class="cls-7" d="M848,498.69l7.24-45.15a21.46,21.46,0,0,0,.13-3.36c-.54-15-13.79-26.37-28.74-25.18l-80.24-.09.44,13.56c0,.31.07.63.11.94a20.57,20.57,0,0,0,17.51,17.29l49.47,6.55"/><path class="cls-14" d="M798.73,517.33A19.91,19.91,0,0,0,821.54,500L829,453.54a20.36,20.36,0,0,0,.12-3.36c-.54-15-13.78-26.37-28.74-25.18l-74.42-.09.44,13.56c0,.31.07.63.11.94A20.57,20.57,0,0,0,744,456.7l43.65,6.55L782,495.31a19.9,19.9,0,0,0,16.71,22Z"/><path class="cls-7" d="M798.53,517.33A19.91,19.91,0,0,0,821.34,500l7.41-46.49a20.36,20.36,0,0,0,.12-3.36c-.54-15-13.78-26.37-28.74-25.18l-74.42-.09.44,13.56c0,.31.07.63.11.94a20.57,20.57,0,0,0,17.51,17.29l43.65,6.55-5.6,32.06a19.9,19.9,0,0,0,16.71,22Z"/><polygon class="cls-16" points="723.37 327.19 799.02 321.88 800.33 424.91 721.07 424.91 723.37 327.19"/><polygon class="cls-7" points="728.01 327.19 803.66 321.88 804.97 424.91 725.71 424.91 728.01 327.19"/><path class="cls-25" d="M820.14,386.32l-3.75-23.74-23.17,4,1.87,10.5-28.82,5.5a11.49,11.49,0,1,0,4.28,22.58l40.24-7.62A11.5,11.5,0,0,0,820.14,386.32Z"/><polyline class="cls-7" points="766.33 382.63 795.15 377.13 793.22 366.57"/><path class="cls-7" d="M817.13,367.26l3.07,19.12a11.49,11.49,0,0,1-9.35,11.21l-40.24,7.63"/><path class="cls-25" d="M732.76,408l-3.6,1.19a4.64,4.64,0,0,1-3.82-8.4,4,4,0,0,1,.91-.41l3.6-1.15v0a4.64,4.64,0,1,1-2.92-8.81l10.29-3.23a4.63,4.63,0,1,1,1.77-9.08l26.79,4.55,4.85,22.56-34.94,11.63a4.66,4.66,0,0,1-5.45-2,4.71,4.71,0,0,1-.42-.91A4.64,4.64,0,0,1,732.76,408Z"/><path class="cls-7" d="M770.62,405.22l-34.94,11.63a4.66,4.66,0,0,1-5.45-2,4.71,4.71,0,0,1-.42-.91,4.64,4.64,0,0,1,3-5.86l-3.6,1.19a4.64,4.64,0,0,1-3.82-8.4,4,4,0,0,1,.91-.41l3.6-1.15v0a4.64,4.64,0,1,1-2.92-8.81l10.29-3.23a4.63,4.63,0,1,1,1.77-9.08l26.79,4.55"/><path class="cls-16" d="M791.69,325h0a18.76,18.76,0,0,0-15.19,21.74l4.63,26,36.92-6.55-4.62-26A18.76,18.76,0,0,0,791.69,325Z"/><path class="cls-7" d="M794.08,371.38l28.61-5.12-4.62-26A18.76,18.76,0,0,0,796.33,325h0"/><path class="cls-25" d="M746.79,254.52c11.9-10.13,30.81-7.49,42.22,5.91,1.8,2.12,8.24,5.4,9.45,7.74,1.67,3.22-2.15,5.58-1.59,9a30.29,30.29,0,0,1,.41,6l-11.62,1.77,10.68,5a25.92,25.92,0,0,1-8.24,13.21c-11.9,10.13-30.8,7.49-42.22-5.91S734.88,264.66,746.79,254.52Z"/><path class="cls-7" d="M784.14,252.65a35.18,35.18,0,0,1,9.74,8c1.8,2.12,8.24,5.4,9.45,7.74,1.67,3.22-2.15,5.57-1.58,9a32,32,0,0,1,.41,6l-11.63,1.77,10.68,4.95a25.9,25.9,0,0,1-8.23,13.2,26.75,26.75,0,0,1-21.58,5.83"/><path class="cls-25" d="M817.9,316.75a4.57,4.57,0,0,1,1.82,6.22l-5.79,11a11.61,11.61,0,0,1-10.29,6.21L777.5,380.44a13.24,13.24,0,0,1-20.34,2.3L744,370l15.6-15.63,4.82,4.53,18-26-11-19.48A4.72,4.72,0,0,1,773.3,307a4.8,4.8,0,0,1,2.22-.55,4.71,4.71,0,0,1,4.16,2.49L789,322l14.64-27a4.57,4.57,0,0,1,4-2.38,4.49,4.49,0,0,1,2.2.57,4.59,4.59,0,0,1,1.82,6.22l-8,14.73a4.59,4.59,0,1,1,8,4.41,4.59,4.59,0,0,1,6.22-1.82Z"/><path class="cls-7" d="M803.43,314.16l8-14.73a4.6,4.6,0,0,0-1.82-6.23h0a4.59,4.59,0,0,0-6.22,1.82l-14.64,27"/><path class="cls-7" d="M811.47,318.57a4.59,4.59,0,0,0-1.82-6.22h0a4.57,4.57,0,0,0-6.22,1.81"/><path class="cls-7" d="M743.77,370,757,382.74a13.23,13.23,0,0,0,20.33-2.3l26.15-40.25h0A11.63,11.63,0,0,0,813.72,334l5.79-11a4.58,4.58,0,0,0-1.82-6.22h0a4.58,4.58,0,0,0-6.22,1.82"/><polyline class="cls-7" points="782.13 332.85 764.19 358.85 759.38 354.32"/><path class="cls-7" d="M782.14,332.85l-11-19.48a4.72,4.72,0,0,1,1.94-6.39h0a4.72,4.72,0,0,1,6.38,1.94L788.79,322"/><path class="cls-16" d="M714.21,331.66h0a18.75,18.75,0,0,0,.3,26.51l18.91,18.49,26.21-26.82-18.91-18.48A18.74,18.74,0,0,0,714.21,331.66Z"/><path class="cls-7" d="M745.37,331.36a18.75,18.75,0,0,0-26.52.3h0a18.75,18.75,0,0,0,.3,26.51l18.91,18.49,26.21-26.82"/><path class="cls-16" d="M800.69,349.9,803,362.28a13.52,13.52,0,0,1-7.85,14.85h0l-10.43-4.32"/><path class="cls-7" d="M801.38,353.56l1.62,8.72a13.52,13.52,0,0,1-7.85,14.85h0l-5.92,1.13"/><circle class="cls-26" cx="731.8" cy="314.02" r="24.3" transform="translate(65.74 750.49) rotate(-56.46)"/><path class="cls-7" d="M748.24,335.61a24.31,24.31,0,0,1-35.47-25.79"/><path class="cls-26" d="M778.33,247.56c-.15,10-1.87,24.91-10.17,32.08,0,0,5.56,38-25.16,43.95l-18.91-3.35c-15.18-2.69-24.65-18.39-19.39-32.88,2.23-6.14,6.88-11.22,15.78-12.72,0,0,1.11-46.15,47.76-39.08A11.93,11.93,0,0,1,778.33,247.56Z"/><path class="cls-7" d="M729,320.46c-15.19-2.69-24.66-18.39-19.4-32.88,2.24-6.15,6.89-11.22,15.78-12.73,0,0,1.11-46.14,47.76-39.07a11.93,11.93,0,0,1,10.1,12c-.15,10-1.88,24.91-10.17,32.08,0,0,5.55,38-25.17,43.95"/><path class="cls-11" d="M773.39,514.17a3.6,3.6,0,0,1,2.27,1.89,18.11,18.11,0,0,0,23.83,8.62,12.39,12.39,0,0,1,8.49-.74l.08,0a12,12,0,0,1,4.59,2.46l6.59,5.68a22.66,22.66,0,0,1,7,23.33h0L763,537.56l5.9-20.88a3.63,3.63,0,0,1,4.49-2.51Z"/><path class="cls-7" d="M778,514.17a3.58,3.58,0,0,1,2.27,1.89,18.11,18.11,0,0,0,23.83,8.62,12.41,12.41,0,0,1,8.5-.74l.07,0a12,12,0,0,1,4.59,2.46l6.59,5.68a22.66,22.66,0,0,1,7,23.33h0l-63.26-17.88,5.9-20.88a3.63,3.63,0,0,1,4.49-2.51Z"/><rect class="cls-7" x="869.27" y="106.53" width="16.59" height="230.3"/><polygon class="cls-17" points="973.33 148.17 954.14 121.71 951.32 121.71 791.71 172.16 791.71 174.62 954.14 174.62 973.33 148.17"/><polygon class="cls-27" points="791.71 121.71 791.71 172.16 951.32 121.71 791.71 121.71"/><polygon class="cls-28" points="791.71 185.67 772.52 212.13 791.71 238.58 796.64 238.58 952.9 185.67 791.71 185.67"/><polygon class="cls-29" points="796.64 238.58 954.14 238.58 954.14 185.67 952.9 185.67 796.64 238.58"/><polygon class="cls-7" points="958.78 174.62 796.35 174.62 796.35 121.71 958.78 121.71 977.97 148.17 958.78 174.62"/><polygon class="cls-7" points="796.35 185.67 958.78 185.67 958.78 238.58 796.35 238.58 777.16 212.13 796.35 185.67"/><path class="cls-16" d="M790,100.23h0a40.19,40.19,0,0,0-28.38,28.33h0a40.2,40.2,0,0,0-28.33-28.38h0a40.2,40.2,0,0,0,28.38-28.33h0A40.19,40.19,0,0,0,790,100.23Z"/><path class="cls-16" d="M725.23,82.78h0A25.86,25.86,0,0,0,707,101h0a25.89,25.89,0,0,0-18.25-18.27h0A25.85,25.85,0,0,0,707,64.5h0A25.92,25.92,0,0,0,725.23,82.78Z"/><path class="cls-7" d="M794.61,100.23h0a40.17,40.17,0,0,0-28.37,28.34h0a40.18,40.18,0,0,0-28.34-28.38h0a40.22,40.22,0,0,0,28.38-28.34h0A40.19,40.19,0,0,0,794.61,100.23Z"/><path class="cls-7" d="M729.87,82.78h0A25.89,25.89,0,0,0,711.6,101h0a25.85,25.85,0,0,0-18.25-18.27h0a25.92,25.92,0,0,0,18.28-18.25h0A25.86,25.86,0,0,0,729.87,82.78Z"/><path class="cls-30" d="M556.6,454.46a113.29,113.29,0,0,1,22.27-20.39s1,.43,2.62,1.12,3.64,1.63,5.68,2.59,4,2,5.52,2.72,2.46,1.29,2.46,1.29-1.9-3.28-3.79-6.57l-3.74-6.62c2.46-1.34,4.85-2.68,7.36-3.78,1.23-.57,2.47-1.12,3.69-1.66s2.49-1,3.73-1.46l9.76,17.09s-.43-2.46-1-6.14c-.26-1.84-.56-4-.83-6.28s-.5-4.68-.72-7.08a92,92,0,0,1,31.05-3.69c1.2.08,2.38.16,3.54.26s2.33.3,3.46.47,2.25.36,3.34.55c.55.11,1.09.2,1.63.32l1.6.4c2.12.54,4.16,1.1,6.11,1.75s3.83,1.46,5.62,2.25q-2,1.5-4.12,3l-1,.73-1,.77-2.1,1.54c-2.82,1.95-5.63,4.15-8.5,6.17-5.7,4.29-11.44,8.71-17.13,13.4a292.59,292.59,0,0,0-32.93,31.52s-3.55-2.17-7.22-4.24c-1.82-1-3.67-2.05-5.07-2.81l-2.31-1.22s2.36,3.56,4.81,7,5,6.82,5,6.82l-.84,1a298.32,298.32,0,0,0-28.59,41.27c-8.08,14-14.71,28.24-21,41.46-5.72-8.23-10.16-19.1-12-31.91a98.42,98.42,0,0,1,3.5-42.32s4.33.06,8.6.29c2.13.11,4.25.26,5.83.38l1.91.16.73.07-7.17-4.41-7.13-4.49A114.77,114.77,0,0,1,556.6,454.46Z"/><path class="cls-7" d="M526.64,531.36a100.13,100.13,0,0,1,4.06-37.63s4.33.06,8.59.29c2.14.11,4.26.26,5.84.38l1.9.16.74.07-7.17-4.41-7.13-4.49A114.77,114.77,0,0,1,552,454.46a112.73,112.73,0,0,1,22.27-20.39s1,.43,2.62,1.12,3.64,1.63,5.68,2.59,4,2,5.52,2.72,2.46,1.29,2.46,1.29l-3.8-6.57L583,428.6c2.45-1.34,4.85-2.68,7.35-3.78,1.24-.57,2.47-1.12,3.7-1.66s2.49-1,3.73-1.46l9.76,17.09s-.43-2.46-1-6.14c-.26-1.84-.56-4-.83-6.28s-.51-4.68-.72-7.08a91.93,91.93,0,0,1,31-3.69c1.2.08,2.38.16,3.54.26s2.32.3,3.46.47,2.24.36,3.34.55c.54.11,1.08.2,1.62.32l1.61.4c2.12.54,4.16,1.1,6.11,1.75s3.83,1.46,5.62,2.25q-2,1.5-4.12,3l-1,.73-1,.77-2.1,1.54c-2.82,1.95-5.63,4.15-8.5,6.17-5.7,4.29-11.45,8.71-17.13,13.4a292.59,292.59,0,0,0-32.93,31.52s-3.55-2.17-7.22-4.24c-1.82-1-3.67-2.05-5.07-2.81l-2.31-1.22s2.35,3.56,4.81,7,5,6.82,5,6.82l-.84,1"/><path class="cls-31" d="M612.9,477a113,113,0,0,1,29.56-6.12s.68.9,1.68,2.3,2.3,3.26,3.55,5.14,2.47,3.75,3.35,5.16,1.46,2.37,1.46,2.37l.1-7.59c.09-3.8.19-7.6.19-7.6,2.79.1,5.53.18,8.25.52,1.35.14,2.69.3,4,.46s2.65.44,4,.66L668.65,492s.89-2.33,2.31-5.76c.71-1.72,1.57-3.74,2.5-5.82s2-4.29,3-6.46A91.84,91.84,0,0,1,705,486.65c1,.68,2,1.35,2.91,2s1.84,1.45,2.73,2.17,1.74,1.46,2.58,2.19c.42.37.84.72,1.24,1.11l1.17,1.16c1.55,1.55,3,3.08,4.35,4.63s2.55,3.22,3.68,4.81c-1.68.17-3.36.31-5.05.44l-1.27.09-1.29.13-2.59.25c-3.42.23-7,.69-10.47.95-7.08.77-14.28,1.62-21.56,2.74A291,291,0,0,0,637,519.58s-1.94-3.69-4-7.34c-1-1.83-2.1-3.65-2.92-5L628.72,505s.2,4.27.54,8.49.8,8.4.8,8.4l-1.23.42a297.72,297.72,0,0,0-45.69,20.82C569,551,556.05,559.85,543.84,568a74.5,74.5,0,0,1,6-33.55,98.29,98.29,0,0,1,24.66-34.57s3.7,2.27,7.24,4.65c1.77,1.19,3.52,2.4,4.81,3.31l1.56,1.11.59.44-3.89-7.46L581,494.38A114.43,114.43,0,0,1,612.9,477Z"/><path class="cls-7" d="M608.71,477a113,113,0,0,1,29.56-6.12s.68.9,1.68,2.31,2.3,3.26,3.55,5.13,2.47,3.75,3.35,5.16,1.46,2.37,1.46,2.37l.1-7.59.18-7.59c2.8.1,5.54.17,8.25.51,1.36.15,2.7.3,4,.47s2.65.43,4,.65L664.46,492s.88-2.33,2.31-5.77c.71-1.71,1.56-3.73,2.5-5.82s2-4.28,3-6.46a91.68,91.68,0,0,1,28.55,12.73c1,.68,2,1.36,2.92,2s1.84,1.44,2.73,2.16,1.74,1.47,2.58,2.2c.42.36.84.72,1.24,1.1l1.17,1.16c1.55,1.56,3,3.08,4.35,4.64s2.55,3.22,3.68,4.8c-1.68.17-3.36.32-5,.44l-1.27.09-1.29.14-2.59.24c-3.42.23-7,.69-10.47.95-7.08.77-14.28,1.63-21.56,2.74a291,291,0,0,0-44.43,10.23s-1.94-3.69-4-7.34c-1-1.83-2.1-3.65-2.92-5L624.53,505s.2,4.27.54,8.49.8,8.4.8,8.4l-1.23.42A297.72,297.72,0,0,0,579,543.12c-14.1,7.88-27.09,16.73-39.3,24.84a74.5,74.5,0,0,1,6-33.55,98.38,98.38,0,0,1,24.66-34.57s3.7,2.27,7.24,4.65c1.77,1.19,3.52,2.4,4.81,3.32l1.56,1.11.59.43-3.89-7.46-3.83-7.5A114.71,114.71,0,0,1,608.71,477Z"/><path class="cls-14" d="M463.09,487.19A113.15,113.15,0,0,0,433,485.14s-.56,1-1.35,2.51-1.84,3.54-2.83,5.57-1.93,4-2.62,5.57-1.12,2.54-1.12,2.54-.56-3.75-1.13-7.5-1.21-7.5-1.21-7.5c-2.75.47-5.46.92-8.1,1.63-1.33.32-2.63.66-3.93,1s-2.56.79-3.82,1.19l3,19.44s-1.19-2.19-3.07-5.4c-.94-1.6-2.06-3.48-3.27-5.43s-2.52-4-3.85-6a91.85,91.85,0,0,0-26.57,16.49c-.89.8-1.76,1.61-2.61,2.41s-1.63,1.68-2.41,2.52-1.53,1.68-2.26,2.52c-.36.42-.73.82-1.08,1.26l-1,1.31c-1.32,1.75-2.56,3.46-3.68,5.18s-2.09,3.54-3,5.26c1.69-.06,3.38-.14,5.07-.25l1.27-.08,1.29,0,2.6-.11c3.42-.23,7-.26,10.5-.48,7.12-.2,14.38-.33,21.74-.21a291.56,291.56,0,0,1,45.4,4.11s1.43-3.92,3-7.82c.78-2,1.59-3.9,2.21-5.35l1-2.41s.38,4.26.61,8.49.36,8.43.36,8.43l1.27.25a296.9,296.9,0,0,1,48.09,14.43c15,5.9,29.11,12.9,42.3,19.28-.66-10-4-21.27-10.52-32.43a98.38,98.38,0,0,0-29.12-30.9s-3.35,2.75-6.54,5.59c-1.6,1.42-3.16,2.85-4.32,3.93L492,515.47l-.53.51s1.42-4,2.85-7.92,2.77-8,2.77-8A114.7,114.7,0,0,0,463.09,487.19Z"/><path class="cls-7" d="M539.55,567.67c-.66-10-4-21.26-10.52-32.42a98.41,98.41,0,0,0-29.12-30.91s-3.35,2.75-6.54,5.6c-1.6,1.41-3.16,2.85-4.32,3.93l-1.4,1.31-.52.51s1.42-4,2.85-7.91l2.77-8a114.65,114.65,0,0,0-34-12.91,112.66,112.66,0,0,0-30.11-2.05s-.56,1-1.35,2.51-1.84,3.54-2.83,5.56-1.93,4.05-2.62,5.57-1.12,2.55-1.12,2.55-.56-3.75-1.13-7.51-1.21-7.5-1.21-7.5c-2.75.48-5.47.93-8.1,1.63-1.33.33-2.64.67-3.93,1s-2.56.78-3.82,1.18l3,19.45s-1.19-2.19-3.07-5.4c-.94-1.6-2.06-3.49-3.27-5.43s-2.52-4-3.85-6A91.72,91.72,0,0,0,368.83,509c-.89.8-1.76,1.6-2.61,2.41s-1.63,1.68-2.41,2.51-1.53,1.69-2.26,2.53c-.37.42-.73.82-1.08,1.26l-1,1.31c-1.31,1.75-2.55,3.45-3.68,5.18s-2.08,3.53-3,5.26c1.69-.06,3.38-.15,5.07-.25l1.27-.08,1.29-.05,2.6-.1c3.42-.24,7-.27,10.5-.48,7.12-.2,14.38-.33,21.74-.21a290.35,290.35,0,0,1,45.4,4.11s1.43-3.92,3-7.82c.78-1.95,1.59-3.9,2.21-5.36l1.05-2.4s.38,4.25.61,8.48.36,8.44.36,8.44l1.27.24"/><path class="cls-7" d="M435.73,396.42S485,432.19,514.12,505.34"/><path class="cls-15" d="M426.11,372.33c7.09,5.47,14.22,24.7,14.22,24.7s-20.41-2-27.5-7.5S403,375.76,406.63,371,419,366.85,426.11,372.33Z"/><path class="cls-7" d="M421.51,371.72c7.09,5.47,14.22,24.7,14.22,24.7s-20.41-2-27.5-7.5-9.87-13.77-6.21-18.52S414.41,366.24,421.51,371.72Z"/><path class="cls-15" d="M480,385.29c.48,8.94-9.45,26.89-9.45,26.89s-11.77-16.79-12.25-25.74,4-16.46,10-16.78S479.48,376.34,480,385.29Z"/><path class="cls-7" d="M475.35,384.68c.48,8.94-9.45,26.89-9.45,26.89s-11.77-16.79-12.25-25.74,4-16.46,10-16.78S474.88,375.73,475.35,384.68Z"/><path class="cls-17" d="M427.69,414.75c8.91-1,27.38,8,27.38,8s-16.13,12.68-25,13.64-16.66-3.08-17.31-9.05S418.78,415.72,427.69,414.75Z"/><path class="cls-7" d="M423.09,414.14c8.91-1,27.37,8,27.37,8s-16.12,12.68-25,13.64-16.65-3.08-17.3-9.05S414.18,415.11,423.09,414.14Z"/><path class="cls-14" d="M518.38,429.35c-4.27,7.89-22.1,18-22.1,18s-1.28-20.47,3-28.35,12-11.95,17.28-9.1S522.64,421.47,518.38,429.35Z"/><path class="cls-7" d="M513.77,428.74c-4.26,7.89-22.1,18-22.1,18s-1.27-20.47,3-28.35,12-11.95,17.28-9.1S518,420.86,513.77,428.74Z"/><path class="cls-17" d="M454.74,450.56c8.65-2.35,28.29,3.57,28.29,3.57s-13.94,15.05-22.58,17.4-16.94-.43-18.51-6.22S446.1,452.91,454.74,450.56Z"/><path class="cls-7" d="M450.06,451.17c8.65-2.35,28.28,3.57,28.28,3.57s-13.93,15.05-22.58,17.4-16.93-.43-18.5-6.22S441.41,453.52,450.06,451.17Z"/><path class="cls-32" d="M504.57,448.46a427.18,427.18,0,0,1,9.55,56.88"/><path class="cls-32" d="M463.85,339.28s14.93,26.1,28.8,67.47"/><line class="cls-32" x1="459.61" y1="312.5" x2="463.98" y2="339.24"/><line class="cls-32" x1="471.83" y1="313.69" x2="463.97" y2="339.24"/><line class="cls-32" x1="482.72" y1="320.19" x2="463.98" y2="339.24"/><line class="cls-32" x1="490.68" y1="340.03" x2="463.97" y2="339.23"/><line class="cls-32" x1="490.68" y1="340.03" x2="463.97" y2="339.23"/><line class="cls-32" x1="488.76" y1="329.24" x2="463.97" y2="339.24"/><line class="cls-32" x1="448.38" y1="317.94" x2="463.8" y2="339.31"/><line class="cls-32" x1="439.73" y1="327.71" x2="463.81" y2="339.31"/><line class="cls-32" x1="437.1" y1="340.11" x2="463.8" y2="339.32"/><line class="cls-32" x1="446.23" y1="359.44" x2="463.8" y2="339.3"/><line class="cls-32" x1="446.23" y1="359.44" x2="463.8" y2="339.3"/><line class="cls-32" x1="439.63" y1="350.69" x2="463.8" y2="339.31"/><line class="cls-7" x1="1573.36" y1="579.43" x2="1598.15" y2="579.43"/><line class="cls-7" x1="1026.19" y1="579.43" x2="1557.58" y2="579.43"/><line class="cls-7" x1="260.31" y1="579.43" x2="1011.03" y2="579.43"/><line class="cls-7" x1="87.64" y1="579.43" x2="245.15" y2="579.43"/><line class="cls-7" x1="22.67" y1="579.43" x2="75.26" y2="579.43"/></g></g></svg>