<svg xmlns="http://www.w3.org/2000/svg" xmlns:xlink="http://www.w3.org/1999/xlink" viewBox="0 0 593.33 359.87"><defs><style>.cls-1{mask:url(#mask);filter:url(#luminosity-noclip-2);}.cls-2{mix-blend-mode:multiply;fill:url(#linear-gradient);}.cls-3{isolation:isolate;}.cls-4{opacity:0.3;fill:url(#linear-gradient-2);}.cls-5{opacity:0.5;fill:url(#linear-gradient-3);}.cls-6{fill:url(#linear-gradient-4);}.cls-7{fill:url(#linear-gradient-5);}.cls-8{fill:url(#linear-gradient-6);}.cls-9{fill:url(#linear-gradient-7);}.cls-10{fill:url(#linear-gradient-8);}.cls-11{fill:url(#linear-gradient-9);}.cls-12{fill:url(#linear-gradient-10);}.cls-13{fill:url(#linear-gradient-11);}.cls-14{fill:url(#linear-gradient-12);}.cls-15{fill:url(#linear-gradient-13);}.cls-16{fill:url(#linear-gradient-14);}.cls-17{fill:url(#linear-gradient-15);}.cls-18{fill:url(#linear-gradient-16);}.cls-19,.cls-29,.cls-91,.cls-99{fill:#fff;}.cls-19{opacity:0.62;}.cls-20{fill:url(#linear-gradient-17);}.cls-21{fill:url(#linear-gradient-18);}.cls-22{fill:url(#linear-gradient-19);}.cls-23{fill:url(#linear-gradient-20);}.cls-24{fill:url(#linear-gradient-21);}.cls-25{fill:url(#linear-gradient-22);}.cls-26{fill:url(#linear-gradient-23);}.cls-27{fill:url(#linear-gradient-24);}.cls-28{fill:url(#linear-gradient-25);}.cls-30{fill:url(#linear-gradient-26);}.cls-31{fill:url(#linear-gradient-27);}.cls-32{fill:url(#linear-gradient-28);}.cls-33{fill:url(#linear-gradient-29);}.cls-34{fill:url(#linear-gradient-30);}.cls-35{fill:url(#linear-gradient-31);}.cls-36{fill:url(#linear-gradient-32);}.cls-37{fill:url(#linear-gradient-33);}.cls-38{fill:url(#linear-gradient-34);}.cls-39{fill:url(#linear-gradient-35);}.cls-40{fill:url(#linear-gradient-36);}.cls-41{fill:#eda150;}.cls-42{fill:url(#linear-gradient-37);}.cls-43{fill:url(#linear-gradient-38);}.cls-44{fill:url(#linear-gradient-39);}.cls-45{fill:url(#linear-gradient-40);}.cls-46{fill:url(#linear-gradient-41);}.cls-47{fill:url(#linear-gradient-42);}.cls-48{fill:url(#linear-gradient-43);}.cls-49,.cls-58{mix-blend-mode:soft-light;}.cls-50{fill:url(#linear-gradient-44);}.cls-51{fill:url(#linear-gradient-45);}.cls-52{fill:url(#linear-gradient-46);}.cls-53{fill:url(#linear-gradient-47);}.cls-54{fill:url(#linear-gradient-48);}.cls-55{fill:url(#linear-gradient-49);}.cls-56{fill:url(#linear-gradient-50);}.cls-57{fill:url(#linear-gradient-51);}.cls-58{fill:url(#linear-gradient-52);}.cls-59{fill:url(#linear-gradient-53);}.cls-60{fill:url(#linear-gradient-54);}.cls-61{fill:url(#linear-gradient-55);}.cls-62{fill:url(#linear-gradient-56);}.cls-63{fill:url(#linear-gradient-57);}.cls-64{fill:url(#linear-gradient-58);}.cls-65{fill:url(#linear-gradient-59);}.cls-66{fill:url(#linear-gradient-60);}.cls-67{fill:url(#linear-gradient-61);}.cls-68{fill:url(#linear-gradient-62);}.cls-69{fill:url(#linear-gradient-63);}.cls-70{fill:url(#linear-gradient-64);}.cls-71{fill:url(#linear-gradient-65);}.cls-72{fill:url(#linear-gradient-66);}.cls-73{mask:url(#mask-2);}.cls-74{opacity:0.32;fill:url(#linear-gradient-67);}.cls-75{fill:url(#linear-gradient-68);}.cls-76{fill:url(#linear-gradient-69);}.cls-77{fill:url(#linear-gradient-70);}.cls-78{fill:url(#linear-gradient-71);}.cls-79{fill:url(#linear-gradient-72);}.cls-80{fill:url(#linear-gradient-73);}.cls-81{fill:url(#linear-gradient-74);}.cls-82{fill:url(#linear-gradient-75);}.cls-83{fill:url(#linear-gradient-76);}.cls-84{fill:url(#linear-gradient-77);}.cls-85{fill:url(#linear-gradient-78);}.cls-86{fill:url(#linear-gradient-79);}.cls-87{fill:url(#linear-gradient-80);}.cls-88{fill:url(#linear-gradient-81);}.cls-89{fill:url(#linear-gradient-82);}.cls-90{fill:url(#linear-gradient-83);}.cls-91{opacity:0.78;}.cls-92{fill:url(#linear-gradient-84);}.cls-93{fill:url(#linear-gradient-85);}.cls-94{fill:url(#linear-gradient-86);}.cls-95{fill:url(#linear-gradient-87);}.cls-96{fill:url(#linear-gradient-88);}.cls-97{fill:url(#linear-gradient-89);}.cls-98{fill:url(#linear-gradient-90);}.cls-99{opacity:0.58;}.cls-100{filter:url(#luminosity-noclip);}</style><filter id="luminosity-noclip" x="111.83" y="-8399.43" width="14.85" height="32766" filterUnits="userSpaceOnUse" color-interpolation-filters="sRGB"><feFlood flood-color="#fff" result="bg"/><feBlend in="SourceGraphic" in2="bg"/></filter><mask id="mask" x="111.83" y="-8399.43" width="14.85" height="32766" maskUnits="userSpaceOnUse"><g class="cls-100"/></mask><linearGradient id="linear-gradient" x1="1146.61" y1="-112.3" x2="1161.47" y2="-112.3" gradientTransform="translate(-1032.98 461.11) rotate(-0.83)" gradientUnits="userSpaceOnUse"><stop offset="0" stop-color="#fff"/><stop offset="1"/></linearGradient><linearGradient id="linear-gradient-2" x1="-6306.41" y1="2823.39" x2="-5723.63" y2="2823.39" gradientTransform="translate(-5723.63 3014.86) rotate(180)" gradientUnits="userSpaceOnUse"><stop offset="0" stop-color="#b37cff"/><stop offset="1" stop-color="#f895e7"/></linearGradient><linearGradient id="linear-gradient-3" x1="281.55" y1="2841.69" x2="841.62" y2="2841.69" gradientTransform="matrix(1, 0, 0, -1, -258.84, 3014.86)" xlink:href="#linear-gradient-2"/><linearGradient id="linear-gradient-4" x1="79.14" y1="-4.87" x2="69.55" y2="364.86" gradientTransform="matrix(1, 0, 0, 1, 0, 0)" xlink:href="#linear-gradient-2"/><linearGradient id="linear-gradient-5" x1="119.59" y1="-3.82" x2="110" y2="365.91" gradientTransform="matrix(1, 0, 0, 1, 0, 0)" xlink:href="#linear-gradient-2"/><linearGradient id="linear-gradient-6" x1="158.45" y1="-2.81" x2="148.86" y2="366.91" gradientTransform="matrix(1, 0, 0, 1, 0, 0)" xlink:href="#linear-gradient-2"/><linearGradient id="linear-gradient-7" x1="199.98" y1="-1.74" x2="190.39" y2="367.99" gradientTransform="matrix(1, 0, 0, 1, 0, 0)" xlink:href="#linear-gradient-2"/><linearGradient id="linear-gradient-8" x1="238.71" y1="-0.73" x2="229.13" y2="368.99" gradientTransform="matrix(1, 0, 0, 1, 0, 0)" xlink:href="#linear-gradient-2"/><linearGradient id="linear-gradient-9" x1="279.01" y1="0.31" x2="269.42" y2="370.04" gradientTransform="matrix(1, 0, 0, 1, 0, 0)" xlink:href="#linear-gradient-2"/><linearGradient id="linear-gradient-10" x1="319.34" y1="1.36" x2="309.75" y2="371.09" gradientTransform="matrix(1, 0, 0, 1, 0, 0)" xlink:href="#linear-gradient-2"/><linearGradient id="linear-gradient-11" x1="358.03" y1="2.36" x2="348.44" y2="372.09" gradientTransform="matrix(1, 0, 0, 1, 0, 0)" xlink:href="#linear-gradient-2"/><linearGradient id="linear-gradient-12" x1="398.28" y1="3.41" x2="388.69" y2="373.13" gradientTransform="matrix(1, 0, 0, 1, 0, 0)" xlink:href="#linear-gradient-2"/><linearGradient id="linear-gradient-13" x1="438.67" y1="4.45" x2="429.08" y2="374.18" gradientTransform="matrix(1, 0, 0, 1, 0, 0)" xlink:href="#linear-gradient-2"/><linearGradient id="linear-gradient-14" x1="480" y1="5.53" x2="470.41" y2="375.25" gradientTransform="matrix(1, 0, 0, 1, 0, 0)" xlink:href="#linear-gradient-2"/><linearGradient id="linear-gradient-15" x1="519.15" y1="6.54" x2="509.56" y2="376.27" gradientTransform="matrix(1, 0, 0, 1, 0, 0)" xlink:href="#linear-gradient-2"/><linearGradient id="linear-gradient-16" x1="422.43" y1="434.2" x2="516.95" y2="223.14" gradientUnits="userSpaceOnUse"><stop offset="0" stop-color="#a737d5"/><stop offset="1" stop-color="#ef497a"/></linearGradient><linearGradient id="linear-gradient-17" x1="44.37" y1="434.2" x2="138.88" y2="223.14" xlink:href="#linear-gradient-16"/><linearGradient id="linear-gradient-18" x1="277.04" y1="158.94" x2="267.72" y2="220.4" gradientUnits="userSpaceOnUse"><stop offset="0" stop-color="#2b3582"/><stop offset="1" stop-color="#150e42"/></linearGradient><linearGradient id="linear-gradient-19" x1="273.36" y1="186.62" x2="253.5" y2="258.97" gradientUnits="userSpaceOnUse"><stop offset="0" stop-color="#53d8ff"/><stop offset="1" stop-color="#3840f7"/></linearGradient><linearGradient id="linear-gradient-20" x1="272.62" y1="186.42" x2="252.76" y2="258.77" xlink:href="#linear-gradient-19"/><linearGradient id="linear-gradient-21" x1="270.78" y1="185.91" x2="250.92" y2="258.26" xlink:href="#linear-gradient-19"/><linearGradient id="linear-gradient-22" x1="270.28" y1="185.77" x2="250.42" y2="258.13" xlink:href="#linear-gradient-19"/><linearGradient id="linear-gradient-23" x1="276.4" y1="47.24" x2="270.32" y2="212.63" gradientUnits="userSpaceOnUse"><stop offset="0" stop-color="#fdf53f"/><stop offset="1" stop-color="#d93c65"/></linearGradient><linearGradient id="linear-gradient-24" x1="287.12" y1="105.35" x2="291.58" y2="247.02" xlink:href="#linear-gradient-23"/><linearGradient id="linear-gradient-25" x1="262.56" y1="106.13" x2="267.02" y2="247.8" xlink:href="#linear-gradient-23"/><linearGradient id="linear-gradient-26" x1="35.72" y1="280.82" x2="225.66" y2="280.82" xlink:href="#linear-gradient-18"/><linearGradient id="linear-gradient-27" x1="191.69" y1="316.17" x2="-17.44" y2="189.4" xlink:href="#linear-gradient-19"/><linearGradient id="linear-gradient-28" x1="401.92" y1="280.82" x2="591.86" y2="280.82" xlink:href="#linear-gradient-18"/><linearGradient id="linear-gradient-29" x1="289" y1="369.47" x2="491.97" y2="231.03" xlink:href="#linear-gradient-23"/><linearGradient id="linear-gradient-30" x1="206.72" y1="212.18" x2="174.95" y2="244.6" xlink:href="#linear-gradient-23"/><linearGradient id="linear-gradient-31" x1="287.26" y1="208.37" x2="192.1" y2="255.71" gradientUnits="userSpaceOnUse"><stop offset="0" stop-color="#f9b776"/><stop offset="1" stop-color="#f47960"/></linearGradient><linearGradient id="linear-gradient-32" x1="285.87" y1="196.5" x2="271.83" y2="211.15" xlink:href="#linear-gradient-31"/><linearGradient id="linear-gradient-33" x1="287.71" y1="207.81" x2="192.55" y2="255.14" xlink:href="#linear-gradient-31"/><linearGradient id="linear-gradient-34" x1="213.01" y1="188.99" x2="43.77" y2="412.21" xlink:href="#linear-gradient-23"/><linearGradient id="linear-gradient-35" x1="164.37" y1="223.15" x2="177.01" y2="188.62" xlink:href="#linear-gradient-31"/><linearGradient id="linear-gradient-36" x1="225.44" y1="267.84" x2="181.34" y2="300.26" xlink:href="#linear-gradient-31"/><linearGradient id="linear-gradient-37" x1="192.46" y1="174.08" x2="155.38" y2="202.45" xlink:href="#linear-gradient-31"/><linearGradient id="linear-gradient-38" x1="166.36" y1="151.61" x2="200.89" y2="196.07" xlink:href="#linear-gradient-18"/><linearGradient id="linear-gradient-39" x1="187.86" y1="168.06" x2="150.78" y2="196.43" xlink:href="#linear-gradient-31"/><linearGradient id="linear-gradient-40" x1="248.52" y1="281.82" x2="263.47" y2="281.82" xlink:href="#linear-gradient-31"/><linearGradient id="linear-gradient-41" x1="179.15" y1="346.83" x2="180.75" y2="295.43" xlink:href="#linear-gradient-18"/><linearGradient id="linear-gradient-42" x1="-6856.41" y1="319.41" x2="-6878.02" y2="531.06" gradientTransform="matrix(-0.9, 0.3, 0.37, 1.08, -5854.37, 1789.41)" gradientUnits="userSpaceOnUse"><stop offset="0" stop-color="#53d8ff"/><stop offset="0.21" stop-color="#4db8fd"/><stop offset="1" stop-color="#3840f7"/></linearGradient><linearGradient id="linear-gradient-43" x1="-8002.05" y1="1031.39" x2="-8028.04" y2="1285.87" gradientTransform="matrix(-0.8, 0.19, 0.23, 0.97, -6159.93, 662.29)" xlink:href="#linear-gradient-19"/><linearGradient id="linear-gradient-44" x1="249.62" y1="266.48" x2="310.28" y2="266.48" xlink:href="#linear-gradient-31"/><linearGradient id="linear-gradient-45" x1="331.41" y1="218.85" x2="334.97" y2="309.96" gradientUnits="userSpaceOnUse"><stop offset="0" stop-color="#2c50ff"/><stop offset="1" stop-color="#1a1b80"/></linearGradient><linearGradient id="linear-gradient-46" x1="359.69" y1="251.41" x2="494.89" y2="323.39" xlink:href="#linear-gradient-45"/><linearGradient id="linear-gradient-47" x1="385.34" y1="205.81" x2="375.62" y2="176.63" xlink:href="#linear-gradient-31"/><linearGradient id="linear-gradient-48" x1="381.39" y1="290.94" x2="483.69" y2="290.94" gradientUnits="userSpaceOnUse"><stop offset="0" stop-color="#9cfffb"/><stop offset="1" stop-color="#9bfffa"/></linearGradient><linearGradient id="linear-gradient-49" x1="386.17" y1="290.15" x2="483.78" y2="290.15" xlink:href="#linear-gradient-48"/><linearGradient id="linear-gradient-50" x1="436.51" y1="280.45" x2="457.26" y2="373.51" xlink:href="#linear-gradient-23"/><linearGradient id="linear-gradient-51" x1="376.77" y1="219.32" x2="511.98" y2="291.3" xlink:href="#linear-gradient-45"/><linearGradient id="linear-gradient-52" x1="400.44" y1="248.87" x2="441.98" y2="270.98" xlink:href="#linear-gradient-19"/><linearGradient id="linear-gradient-53" x1="444.4" y1="290.81" x2="412.79" y2="351.6" xlink:href="#linear-gradient-31"/><linearGradient id="linear-gradient-54" x1="-1310.44" y1="1786.89" x2="-1345.4" y2="1833.14" gradientTransform="matrix(-0.69, -0.73, -0.73, 0.69, 780.55, -2014.97)" xlink:href="#linear-gradient-31"/><linearGradient id="linear-gradient-55" x1="354.61" y1="173.72" x2="400.68" y2="173.72" xlink:href="#linear-gradient-16"/><linearGradient id="linear-gradient-56" x1="-1361.64" y1="1823.52" x2="-1333.6" y2="1794.75" gradientTransform="matrix(-0.69, -0.73, -0.73, 0.69, 780.55, -2014.97)" xlink:href="#linear-gradient-31"/><linearGradient id="linear-gradient-57" x1="385.61" y1="358.27" x2="490.27" y2="447.13" xlink:href="#linear-gradient-18"/><linearGradient id="linear-gradient-58" x1="1977.57" y1="-1322.25" x2="1958.72" y2="-1236.62" gradientTransform="translate(-1863.85 787.36) rotate(17.06)" xlink:href="#linear-gradient-23"/><linearGradient id="linear-gradient-59" x1="1154.28" y1="-39.3" x2="1153.1" y2="-148.15" gradientTransform="translate(-1032.98 461.11) rotate(-0.83)" gradientUnits="userSpaceOnUse"><stop offset="0" stop-color="#cb236d"/><stop offset="1" stop-color="#4c246d"/></linearGradient><linearGradient id="linear-gradient-60" x1="1135.46" y1="-139.84" x2="1134.93" y2="-152.54" xlink:href="#linear-gradient-59"/><linearGradient id="linear-gradient-61" x1="1134.79" y1="-158.91" x2="1137.41" y2="-122.5" xlink:href="#linear-gradient-59"/><linearGradient id="linear-gradient-62" x1="1170.85" y1="-141.29" x2="1170.33" y2="-154" xlink:href="#linear-gradient-59"/><linearGradient id="linear-gradient-63" x1="1170.09" y1="-161.45" x2="1172.71" y2="-125.04" xlink:href="#linear-gradient-59"/><linearGradient id="linear-gradient-64" x1="1154.74" y1="-171.63" x2="1152.19" y2="-152.91" xlink:href="#linear-gradient-59"/><linearGradient id="linear-gradient-65" x1="1156.62" y1="-158.98" x2="1143.65" y2="-37.97" xlink:href="#linear-gradient-59"/><linearGradient id="linear-gradient-66" x1="1157.56" y1="-144.05" x2="1152.45" y2="-103.58" gradientTransform="translate(-1032.98 461.11) rotate(-0.83)" xlink:href="#linear-gradient-16"/><filter id="luminosity-noclip-2" x="111.83" y="325.63" width="14.85" height="12.9" filterUnits="userSpaceOnUse" color-interpolation-filters="sRGB"><feFlood flood-color="#fff" result="bg"/><feBlend in="SourceGraphic" in2="bg"/></filter><mask id="mask-2" x="111.83" y="325.63" width="14.85" height="12.9" maskUnits="userSpaceOnUse"><g class="cls-1"><path class="cls-2" d="M123.85,338.41l-8.64.12a2.23,2.23,0,0,1-2.25-1.92l-1.11-8.3a2.23,2.23,0,0,1,2.18-2.53l10.38-.15a2.23,2.23,0,0,1,2.26,2.39l-.62,8.33A2.24,2.24,0,0,1,123.85,338.41Z"/></g></mask><linearGradient id="linear-gradient-67" x1="1146.61" y1="-112.3" x2="1161.47" y2="-112.3" gradientTransform="translate(-1032.98 461.11) rotate(-0.83)" gradientUnits="userSpaceOnUse"><stop offset="0" stop-color="#fff"/><stop offset="1" stop-color="#fff"/></linearGradient><linearGradient id="linear-gradient-68" x1="1300.2" y1="-1164.92" x2="1400.21" y2="-1072.54" gradientTransform="translate(-1471.05 887.93) rotate(13.05)" xlink:href="#linear-gradient-19"/><linearGradient id="linear-gradient-69" x1="1279.22" y1="-1142.22" x2="1379.24" y2="-1049.83" gradientTransform="translate(-1471.05 887.93) rotate(13.05)" xlink:href="#linear-gradient-19"/><linearGradient id="linear-gradient-70" x1="1267.42" y1="-1129.44" x2="1367.43" y2="-1037.05" gradientTransform="translate(-1471.05 887.93) rotate(13.05)" xlink:href="#linear-gradient-19"/><linearGradient id="linear-gradient-71" x1="1287.4" y1="-1151.07" x2="1387.41" y2="-1058.69" gradientTransform="translate(-1471.05 887.93) rotate(13.05)" xlink:href="#linear-gradient-19"/><linearGradient id="linear-gradient-72" x1="1307.12" y1="-1172.42" x2="1407.14" y2="-1080.03" gradientTransform="translate(-1471.05 887.93) rotate(13.05)" xlink:href="#linear-gradient-19"/><linearGradient id="linear-gradient-73" x1="1316.82" y1="-1182.91" x2="1416.83" y2="-1090.53" gradientTransform="translate(-1471.05 887.93) rotate(13.05)" xlink:href="#linear-gradient-19"/><linearGradient id="linear-gradient-74" x1="49.2" y1="72.99" x2="179.54" y2="181.88" xlink:href="#linear-gradient-19"/><linearGradient id="linear-gradient-75" x1="1378.27" y1="-1116.13" x2="1444.67" y2="-1060.25" gradientTransform="translate(-1471.05 887.93) rotate(13.05)" xlink:href="#linear-gradient-19"/><linearGradient id="linear-gradient-76" x1="1367.43" y1="-1103.26" x2="1433.84" y2="-1047.37" gradientTransform="translate(-1471.05 887.93) rotate(13.05)" xlink:href="#linear-gradient-19"/><linearGradient id="linear-gradient-77" x1="1363.3" y1="-1098.34" x2="1429.7" y2="-1042.46" gradientTransform="translate(-1471.05 887.93) rotate(13.05)" xlink:href="#linear-gradient-19"/><linearGradient id="linear-gradient-78" x1="1373.79" y1="-1110.8" x2="1440.18" y2="-1054.92" gradientTransform="translate(-1471.05 887.93) rotate(13.05)" xlink:href="#linear-gradient-19"/><linearGradient id="linear-gradient-79" x1="1383.97" y1="-1122.9" x2="1450.37" y2="-1067.01" gradientTransform="translate(-1471.05 887.93) rotate(13.05)" xlink:href="#linear-gradient-19"/><linearGradient id="linear-gradient-80" x1="1387.07" y1="-1126.58" x2="1453.47" y2="-1070.7" gradientTransform="translate(-1471.05 887.93) rotate(13.05)" xlink:href="#linear-gradient-19"/><linearGradient id="linear-gradient-81" x1="53.91" y1="67.36" x2="184.24" y2="176.24" xlink:href="#linear-gradient-19"/><linearGradient id="linear-gradient-82" x1="446.78" y1="103.78" x2="485.66" y2="58.65" gradientTransform="translate(472.93 -431.94) rotate(81.65)" xlink:href="#linear-gradient-23"/><linearGradient id="linear-gradient-83" x1="507.64" y1="25.73" x2="392.66" y2="199.43" gradientTransform="translate(472.93 -431.94) rotate(81.65)" xlink:href="#linear-gradient-23"/><linearGradient id="linear-gradient-84" x1="504.21" y1="30.71" x2="442.98" y2="133.49" xlink:href="#linear-gradient-23"/><linearGradient id="linear-gradient-85" x1="412.93" y1="133.68" x2="443.31" y2="98.42" gradientTransform="translate(437.03 -356.78) rotate(76.72)" xlink:href="#linear-gradient-23"/><linearGradient id="linear-gradient-86" x1="460.47" y1="72.71" x2="370.65" y2="208.4" gradientTransform="translate(447.35 -356.82) rotate(78.02)" xlink:href="#linear-gradient-23"/><linearGradient id="linear-gradient-87" x1="457.79" y1="76.6" x2="409.97" y2="156.89" xlink:href="#linear-gradient-23"/><linearGradient id="linear-gradient-88" x1="465.17" y1="153.62" x2="490.89" y2="123.76" gradientTransform="translate(545.22 -380.59) rotate(82.03)" xlink:href="#linear-gradient-23"/><linearGradient id="linear-gradient-89" x1="505.43" y1="101.98" x2="429.36" y2="216.91" gradientTransform="translate(545.22 -380.59) rotate(82.03)" xlink:href="#linear-gradient-23"/><linearGradient id="linear-gradient-90" x1="503.16" y1="105.28" x2="462.65" y2="173.28" xlink:href="#linear-gradient-23"/></defs><g class="cls-3"><g id="Camada_2" data-name="Camada 2"><g id="Desenho"><path class="cls-4" d="M6.51,177.87C13.27,189.42,24,199.14,32.29,210c23.92,31.23-1,67.77,10,101.44,9.51,29.33,49.08,37.19,78,38.38,48.73,2,97.41-1,144.39-13.77,32.61-8.86,65.25-20.46,99.62-21.16,35.13-.72,68.17,12.91,102.11,19.35,37.27,7.08,81.84-.61,90.82-40.81,5.57-24.91-9.41-47.85-10.82-72.38-1.85-32.47,31.65-50.28,36-80.64,2.74-19.13-7.48-36.23-20.8-50.08-14.06-14.61-33-27.51-54.65-28.71C484.21,60.31,464,71.81,442.79,77.3c-59.55,15.43-93.35-36-148.15-43.21-24.71-3.23-55.08-1.7-77.52,9.42-20.87,10.34-31,33.3-54.4,40-24.77,7.13-47.44-7.13-71-11.68-24.36-4.72-47.4,3.65-62.65,22C14.31,111.67-1.69,135.11.14,158.61A44.63,44.63,0,0,0,6.51,177.87Z"/><path class="cls-5" d="M576.53,158.34c-6.5,12.6-16.82,23.19-24.78,35-23,34,.93,73.87-9.56,110.57-9.14,32-47.16,40.54-75,41.84-46.83,2.19-93.61-1.09-138.76-15-31.34-9.66-62.71-22.3-95.74-23.07-33.76-.78-65.51,14.07-98.13,21.1-35.82,7.71-78.65-.67-87.29-44.49-5.34-27.15,9.06-52.16,10.4-78.89C59.5,170,27.3,150.55,23.14,117.46c-2.63-20.85,7.18-39.49,20-54.59,13.51-15.92,31.68-30,52.52-31.3,21.79-1.36,41.24,11.17,61.6,17.16C214.47,65.55,247,9.46,299.62,1.63c23.75-3.53,52.94-1.85,74.51,10.26,20.05,11.27,29.78,36.3,52.27,43.64,23.81,7.78,45.59-7.76,68.22-12.73,23.41-5.14,45.55,4,60.21,24,14.21,19.4,29.58,44.95,27.82,70.56A53.12,53.12,0,0,1,576.53,158.34Z"/><rect class="cls-6" x="59.29" y="246.95" width="23.95" height="103.37"/><rect class="cls-7" x="99.31" y="282.48" width="23.95" height="67.85"/><rect class="cls-8" x="139.33" y="194.68" width="23.95" height="155.65"/><rect class="cls-9" x="179.36" y="312.93" width="23.95" height="37.39"/><rect class="cls-10" x="219.38" y="215.48" width="23.95" height="134.84"/><rect class="cls-11" x="259.41" y="238.83" width="23.95" height="111.5"/><rect class="cls-12" x="299.43" y="264.21" width="23.95" height="86.12"/><rect class="cls-13" x="339.45" y="163.21" width="23.95" height="187.12"/><rect class="cls-14" x="379.48" y="183" width="23.95" height="167.33"/><rect class="cls-15" x="419.5" y="212.95" width="23.95" height="137.38"/><rect class="cls-16" x="459.52" y="316.4" width="23.95" height="33.92"/><rect class="cls-17" x="499.55" y="250.51" width="23.95" height="99.82"/><path class="cls-18" d="M521.39,352.42s17.53-22,14.68-42.85-17.08-18.33-23.41-6-12,10.62-8.25-.95,8.47-19.11.68-30.64-8.6-16.41-4.23-26.7,9.88-24.85-7.54-30S458.55,226,462.61,246.89s6.5,23.18.91,30.92-3.27,10.92-2.48,16-7.75,6.22-7.57-.88,11.06-23.85,3.64-31.66-22-7.9-25.7,10.17,8.21,26.19,7.62,32.73-7-3.38-12.59,3.29,1.93,11.89,7.47,15.5,13.87,10.09,5.93,14.79-15.45.2-10.59,14.71Z"/><path class="cls-19" d="M485.35,230.29a8.9,8.9,0,0,0-1.56,1.09,11.47,11.47,0,0,0-1.35,1.35,15,15,0,0,0-2.14,3.19,20,20,0,0,0-2,7.42c0,.32,0,.64-.06,1s0,.64,0,1v1l0,1,0,.48,0,.48.1,1c.09.64.16,1.27.28,1.9s.23,1.26.38,1.88l.22.93.22.9.9,3.6c1.18,4.8,2.32,9.59,3.22,14.41A70.37,70.37,0,0,1,485,287.22a35.48,35.48,0,0,1-.26,3.58,26.87,26.87,0,0,1-.66,3.49,22.54,22.54,0,0,1-1.14,3.33,25.64,25.64,0,0,0-1.24,3.71,59.29,59.29,0,0,0-1.22,7.49q-.39,3.74-.63,7.45c-.34,5-.63,9.88-1.34,14.75-.09.6-.19,1.21-.3,1.81s-.24,1.21-.36,1.81-.28,1.19-.42,1.79c-.08.29-.16.59-.25.88s-.16.59-.26.88l-.3.87c-.1.29-.22.56-.33.85-.21.57-.49,1.11-.75,1.67a15.52,15.52,0,0,1-2.05,3l.2.19a15.83,15.83,0,0,0,2.34-2.94,22.69,22.69,0,0,0,1.65-3.4,42.28,42.28,0,0,0,2.06-7.23c1-4.9,1.48-9.87,2-14.79.28-2.46.52-4.92.86-7.35a59.43,59.43,0,0,1,1.38-7.15,24,24,0,0,1,1.18-3.31,24.92,24.92,0,0,0,1.33-3.68,29.48,29.48,0,0,0,.79-3.8,35.16,35.16,0,0,0,.35-3.83,70.85,70.85,0,0,0-1.27-15.08c-.87-4.94-2.05-9.79-3.37-14.59-.33-1.2-.67-2.4-1-3.59l-.26-.89-.24-.88c-.17-.57-.3-1.16-.44-1.75s-.24-1.17-.36-1.76l-.14-.89c-.05-.29-.09-.59-.12-.89a30.41,30.41,0,0,1-.22-3.57,21.3,21.3,0,0,1,.3-3.56,19.73,19.73,0,0,1,.92-3.45c.22-.55.46-1.1.73-1.63a15.12,15.12,0,0,1,.91-1.56,12,12,0,0,1,2.42-2.7Z"/><path class="cls-19" d="M522.67,304.89a115.81,115.81,0,0,1-2.18,11.58c-.45,1.9-1,3.8-1.51,5.67-.13.47-.29.94-.43,1.4s-.3.93-.46,1.4c-.29.93-.63,1.85-1,2.77s-.69,1.82-1.08,2.72-.76,1.79-1.15,2.68c-.83,1.77-1.7,3.51-2.66,5.2a56.27,56.27,0,0,1-3.17,4.91,51.64,51.64,0,0,1-3.75,4.52l.19.2a33.56,33.56,0,0,0,4.28-4.15,45.21,45.21,0,0,0,3.54-4.82,54.52,54.52,0,0,0,2.86-5.25c.41-.91.84-1.81,1.21-2.74s.72-1.85,1.07-2.78.66-1.88.95-2.83c.16-.47.3-.95.43-1.43s.28-.95.41-1.43c.52-1.92,1-3.86,1.34-5.8a73.27,73.27,0,0,0,1.34-11.8Z"/><path class="cls-20" d="M143.32,352.42s17.53-22,14.68-42.85-17.07-18.33-23.4-6-12,10.62-8.26-.95,8.47-19.11.68-30.64-8.6-16.41-4.22-26.7,9.88-24.85-7.54-30S80.48,226,84.54,246.89s6.51,23.18.91,30.92-3.26,10.92-2.47,16-7.76,6.22-7.57-.88S86.46,269,79,261.23s-22-7.9-25.69,10.17,8.21,26.19,7.61,32.73-7-3.38-12.59,3.29,1.94,11.89,7.47,15.5S69.72,333,61.78,337.71s-15.46.2-10.59,14.71Z"/><path class="cls-19" d="M107.29,230.29a8.9,8.9,0,0,0-1.56,1.09,12.38,12.38,0,0,0-1.36,1.35,15.35,15.35,0,0,0-2.14,3.19,20.16,20.16,0,0,0-2,7.42c0,.32,0,.64-.06,1s0,.64,0,1v1l0,1,0,.48,0,.48.09,1c.1.64.17,1.27.29,1.9s.23,1.26.38,1.88l.21.93.23.9.89,3.6c1.19,4.8,2.33,9.59,3.23,14.41a71.07,71.07,0,0,1,1.34,14.49,32.79,32.79,0,0,1-.27,3.58,25.29,25.29,0,0,1-.66,3.49,21.4,21.4,0,0,1-1.13,3.33,24.48,24.48,0,0,0-1.24,3.71,59.33,59.33,0,0,0-1.23,7.49c-.26,2.49-.46,5-.62,7.45-.34,5-.64,9.88-1.35,14.75-.09.6-.18,1.21-.3,1.81s-.23,1.21-.35,1.81-.28,1.19-.42,1.79l-.25.88c-.09.29-.17.59-.27.88l-.29.87c-.1.29-.23.56-.34.85-.21.57-.49,1.11-.74,1.67a15.52,15.52,0,0,1-2,3l.19.19A15.48,15.48,0,0,0,98,341.86a22.69,22.69,0,0,0,1.65-3.4,42.25,42.25,0,0,0,2-7.23c1-4.9,1.49-9.87,2-14.79.28-2.46.52-4.92.86-7.35a55.76,55.76,0,0,1,1.38-7.15,24,24,0,0,1,1.18-3.31,24.92,24.92,0,0,0,1.33-3.68,29.44,29.44,0,0,0,.78-3.8,37.86,37.86,0,0,0,.36-3.83,70.86,70.86,0,0,0-1.28-15.08c-.87-4.94-2-9.79-3.36-14.59-.34-1.2-.67-2.4-1-3.59l-.26-.89-.24-.88c-.17-.57-.29-1.16-.43-1.75s-.24-1.17-.37-1.76l-.13-.89c0-.29-.09-.59-.12-.89a26.63,26.63,0,0,1-.22-3.57,21.3,21.3,0,0,1,.3-3.56,18.89,18.89,0,0,1,.92-3.45,16.91,16.91,0,0,1,.73-1.63,13.5,13.5,0,0,1,.91-1.56,11.94,11.94,0,0,1,2.41-2.7Z"/><path class="cls-19" d="M144.6,304.89a115.77,115.77,0,0,1-2.17,11.58c-.46,1.9-1,3.8-1.52,5.67-.13.47-.28.94-.43,1.4s-.3.93-.45,1.4c-.3.93-.63,1.85-1,2.77s-.69,1.82-1.07,2.72-.76,1.79-1.16,2.68c-.82,1.77-1.69,3.51-2.66,5.2a56.16,56.16,0,0,1-3.16,4.91,55.46,55.46,0,0,1-3.75,4.52l.19.2a34.15,34.15,0,0,0,4.27-4.15,43.88,43.88,0,0,0,3.54-4.82,56.89,56.89,0,0,0,2.87-5.25c.41-.91.83-1.81,1.2-2.74s.73-1.85,1.08-2.78.66-1.88,1-2.83c.15-.47.29-.95.43-1.43s.28-.95.4-1.43c.53-1.92,1-3.86,1.34-5.8a71.08,71.08,0,0,0,1.34-11.8Z"/><path class="cls-21" d="M298.52,163.65c-.08-1-1.1-1.87-2.84-2.57,1.89-1,2.93-2.15,2.84-3.25-.26-3.3-10.74-5.16-23.4-4.14s-22.7,4.53-22.44,7.84c.08,1,1.11,1.87,2.84,2.57-1.88,1-2.93,2.15-2.84,3.25s1.11,1.87,2.84,2.57c-1.88,1-2.93,2.15-2.84,3.24s1.11,1.88,2.84,2.57c-1.88,1-2.93,2.16-2.84,3.25.12,1.46,2.24,2.64,5.66,3.41a29.47,29.47,0,0,0,.08,3.58c.5,6.09,7.36,10.88,16.43,10.88s16.92-6.52,17-12.64a32.19,32.19,0,0,0-.18-4c4.34-1.45,7-3.22,6.84-4.94-.08-1-1.1-1.87-2.84-2.56,1.89-1,2.93-2.16,2.84-3.25s-1.1-1.87-2.84-2.57C297.57,165.86,298.61,164.74,298.52,163.65Z"/><path class="cls-22" d="M269.26,183.71a55.05,55.05,0,0,1-10-.82.31.31,0,1,1,.12-.6,65.53,65.53,0,0,0,16.72.53,71.6,71.6,0,0,0,14-2.42.31.31,0,0,1,.38.21.3.3,0,0,1-.21.37,72.8,72.8,0,0,1-14.15,2.45C273.76,183.62,271.45,183.71,269.26,183.71Z"/><path class="cls-23" d="M269.33,177.89A47.6,47.6,0,0,1,257,176.55a.29.29,0,0,1-.21-.37.29.29,0,0,1,.37-.21c4.39,1.25,11.46,1.63,18.9,1s14.23-2.09,18.38-4a.3.3,0,0,1,.4.14.31.31,0,0,1-.15.41c-4.2,1.94-11.15,3.45-18.58,4.05C273.79,177.8,271.51,177.89,269.33,177.89Z"/><path class="cls-24" d="M269.26,172.08a44.13,44.13,0,0,1-13-1.57.3.3,0,0,1-.2-.38.32.32,0,0,1,.39-.2c4.32,1.43,11.65,1.9,19.6,1.26,7.37-.6,14.23-2.09,18.38-4a.3.3,0,0,1,.4.15.3.3,0,0,1-.15.4c-4.2,1.94-11.15,3.45-18.58,4C273.75,172,271.45,172.08,269.26,172.08Z"/><path class="cls-25" d="M269.3,166.26a52.18,52.18,0,0,1-10.94-1,.3.3,0,0,1-.23-.36.29.29,0,0,1,.36-.23,63.79,63.79,0,0,0,17.57.7c7.3-.59,14.13-2.07,18.28-4a.3.3,0,0,1,.4.16.3.3,0,0,1-.15.4c-4.21,1.91-11.11,3.41-18.48,4C273.78,166.16,271.49,166.26,269.3,166.26Z"/><path class="cls-26" d="M244.19,134.29a42.76,42.76,0,0,0-7.67-15c-7.53-9.5-19.83-28.81-21.34-55.17C213,25.81,247,6.61,278,9.22s61.65,25.71,58.3,61.38c-2.06,22-14.34,38.59-23.49,48.15a50.79,50.79,0,0,0-12.19,21.61c-2.75,9.91-9.28,22.26-24.81,23C255.73,164.35,247.39,145.62,244.19,134.29Z"/><path class="cls-27" d="M281,155.73l10.86-70.62c.23-1.46.94-2.44,1.6-2.19s1,1.63.8,3.09a.59.59,0,0,0,0,.13l-12.37,70c-.1.53-.36.86-.6.74S280.88,156.24,281,155.73Z"/><path class="cls-28" d="M269.68,156.29,258.83,85.67c-.23-1.46-.95-2.44-1.61-2.19s-1,1.64-.79,3.09c0,0,0,.09,0,.13l12.37,70c.09.53.36.86.6.74S269.76,156.8,269.68,156.29Z"/><path class="cls-29" d="M291.73,79a1.13,1.13,0,0,0-1.42-.37l-6.05,2.83-2.1-6a1.26,1.26,0,0,0-.73-.74,1.49,1.49,0,0,0-1.86.57v0l-5,9.07L270,71.53v0a1.52,1.52,0,0,0-.7-.79,1.81,1.81,0,0,0-2.28.45l-7,9.57a.84.84,0,0,0,.25,1.21,1.17,1.17,0,0,0,1.48-.16L267.88,75l5.51,12.28h0a1,1,0,0,0,.49.47,1.15,1.15,0,0,0,1.44-.37l5.32-8.53,2,4.31,0,0a.41.41,0,0,0,0,.09,1.12,1.12,0,0,0,1.42.37l7.18-3.35A.85.85,0,0,0,291.73,79Z"/><path class="cls-29" d="M313.06,108.7a.5.5,0,0,1-.26-.08.43.43,0,0,1-.09-.6,80.72,80.72,0,0,0,5.1-7.75.42.42,0,0,1,.58-.15.42.42,0,0,1,.16.58,82.36,82.36,0,0,1-5.15,7.83A.42.42,0,0,1,313.06,108.7Z"/><path class="cls-29" d="M322,93.37a.47.47,0,0,1-.17,0,.43.43,0,0,1-.22-.57,67.32,67.32,0,0,0,5.14-35,54,54,0,0,0-3.68-14.61.44.44,0,0,1,.22-.57.41.41,0,0,1,.56.21,55.42,55.42,0,0,1,3.75,14.86,68.18,68.18,0,0,1-5.21,35.43A.43.43,0,0,1,322,93.37Z"/><path class="cls-30" d="M36.17,222.48,84.25,343.39a14.3,14.3,0,0,0,15.34,8.88L225.66,343,180.25,214.39a8,8,0,0,0-7.69-5.17c-22.1.51-102.61,2.49-131.41,5.06A6,6,0,0,0,36.17,222.48Z"/><path class="cls-31" d="M95.35,346.78l-48-122a3.81,3.81,0,0,1,3.46-5.2l118.72-4.5a7.17,7.17,0,0,1,7,4.56L220,338.57Z"/><path class="cls-32" d="M516.3,222.48,468.22,343.39a14.31,14.31,0,0,1-15.35,8.88L326.8,343.45l45.41-129.06a8,8,0,0,1,7.7-5.17c22.1.51,102.61,2.49,131.4,5.06A6,6,0,0,1,516.3,222.48Z"/><path class="cls-33" d="M457.12,346.78l48-122a3.81,3.81,0,0,0-3.46-5.2L383,215.09a7.17,7.17,0,0,0-7,4.56L332.52,338.57Z"/><path class="cls-34" d="M178.11,212.45l1.51,40.38a110,110,0,0,0,12.2,3.46c2.43-7.79,7.76-17.36,12.12-24.48C187.9,226.14,178.11,212.45,178.11,212.45Z"/><path class="cls-35" d="M258.21,211.76c-22,23.76-39.82,25.16-54.27,20.05-4.36,7.12-9.69,16.69-12.12,24.48,58.77,13,72.61-41.07,72.61-41.07Z"/><path class="cls-36" d="M262.67,209.24a8.06,8.06,0,0,1,7.23-1.87c4.69.86,8.87,2.49,11.79,0s3.95.85,3.95.85l-8.75,6.65Z"/><path class="cls-37" d="M257.44,213.89s1.73-7.26,7-6.27,17.12,7.46,20.18,6.27,7-4,9-3l-3.54,4.4s9.09-5.25,10.66-2l-15.14,8.52S263.41,219.54,257.44,213.89Z"/><path class="cls-38" d="M101.93,345.53S94.42,238.33,149.16,205c0,0,15.31-10.11,34.38,9.46s12.92,39.89-3.08,58.94-32.3,53.08-28.42,72.13Z"/><path class="cls-39" d="M176.75,175.8c0,1.27-18.24,27.17-18.24,27.17s3.27,6.44,18.89,11.67l13.48-27.72Z"/><path class="cls-40" d="M169.58,264.69s34.59,29,71.93,16.32a8.91,8.91,0,0,1,7,.53l10.74,5.67a9.59,9.59,0,0,0,12.7-3.55,20.34,20.34,0,0,0,3-8.08l-21-8.5,1.55-2.58s-10.26-.87-12.94,6.48c0,0-19.54,8.13-52.49-28.11C190.09,242.87,175.14,255.58,169.58,264.69Z"/><path class="cls-41" d="M167.72,264.56a.75.75,0,0,1-.43-.13c-14.6-9.87-21.47-25.79-21.54-26a.78.78,0,0,1,.41-1,.77.77,0,0,1,1,.41c.07.16,6.77,15.68,21,25.28a.76.76,0,0,1-.43,1.4Z"/><path class="cls-41" d="M189.41,242.55a.74.74,0,0,1-.64-.35c-.05-.07-4.5-7-13-22.17-2.58-4.63-6-7.55-10.07-8.7-6.8-1.9-13.36,1.75-13.42,1.78a.76.76,0,0,1-1-.28.78.78,0,0,1,.28-1.05c.29-.16,7.16-4,14.58-1.93,4.52,1.26,8.22,4.43,11,9.43,8.45,15.13,12.88,22,12.92,22.09a.76.76,0,0,1-.23,1.06A.75.75,0,0,1,189.41,242.55Z"/><path class="cls-42" d="M191.1,161s6.49,14.9,6.92,22.72,2.12,12.89-6.92,14.47-16.66-2.93-20.78-10.72c0,0-6.47-12-5-16.92S191.1,161,191.1,161Z"/><path class="cls-43" d="M173.41,181.83l.51-.23a1.24,1.24,0,0,0,.61-1.7c-1.28-2.47-3.76-8.11-.55-9.43,4.14-1.7,20.53-5,24.06-10.86,3.4-5.59.39-12.8-4.13-14.85a.63.63,0,0,0-.82.26l-.38.71a.61.61,0,0,1-1.13-.11h0a.61.61,0,0,0-1.11-.16c-1.08,1.74-4,4.56-11.87,6-11.15,2.06-18.53,6.57-18.71,14.28a.62.62,0,0,1-.95.51c-.83-.5-2.14-.74-3.91.74-3.06,2.58-1.81,9.26,4.91,14.76a.6.6,0,0,1,0,1c-1.22.79-3,2.68,1.67,5.19,4.87,2.6,8.5,2.39,9.9,2.16a.61.61,0,0,0,.49-.74l-1.49-6.77a.62.62,0,0,1,.6-.75Z"/><path class="cls-44" d="M173.69,183.26s-2.48-9.52-6.75-6.85,2.22,10.66,5.65,11Z"/><path class="cls-45" d="M248.52,281.54s8.79,8.6,10.48,7.35a30.47,30.47,0,0,0,3.61-3.87,3.76,3.76,0,0,0,.25-4.44l-2.07-3.2a6,6,0,0,0-8.94-1.3A10.84,10.84,0,0,0,248.52,281.54Z"/><path class="cls-46" d="M268.53,348.34a4.08,4.08,0,0,1-4.08,4.08H98.65a6.21,6.21,0,0,1-6.21-6.2l-2.6-3L262,341.71a6.62,6.62,0,0,1,6.53,6.63Z"/><path class="cls-47" d="M382.52,213.05a15.2,15.2,0,0,1,5.05-4.32c8.21-4.39,15.5-13.91,20-22.6a60.73,60.73,0,0,0,6.61-23.85c2.75-37.51-9.78-41.63,32.25-45.46S565.34,69.11,555.85,96.4a65.8,65.8,0,0,1-12.54,22c10.83-3.87,20,9.34,6.36,19.62a94.59,94.59,0,0,1-18.2,10.19c9,6.19,13.89,21.61.25,26.9a25.25,25.25,0,0,1-9.48,1.78c9.81,9.1,15.79,20.86-4.62,20.74-27-.15-42.59-13.2-53.54-.84-8.26,9.33-20.72,14.89-31.29,20.27-10,5.09-39.75,18.92-50.14,5.85C379.8,219.36,380.51,215.83,382.52,213.05Z"/><path class="cls-48" d="M400.67,215.49a16,16,0,0,1,5.67-4.07c9-3.83,17.46-13.15,23-21.86a65.09,65.09,0,0,0,9.25-24.45c6.62-39.2-6-44.72,38-44.74s128.05-38.85,115.47-11.05a70,70,0,0,1-15.21,22c11.62-3,19.81,11.73,4.62,21.24a98.73,98.73,0,0,1-19.88,9c8.72,7.37,12.22,24.06-2.45,28.32a25.75,25.75,0,0,1-10,1c9.26,10.52,14.28,23.45-6.87,21.38-28-2.73-42.82-18-55.41-6-9.5,9-23,13.69-34.48,18.34-10.87,4.4-43.1,16.12-52.56,1.38C397.22,221.87,398.31,218.22,400.67,215.49Z"/><g class="cls-49"><path class="cls-29" d="M540.72,121.69a.57.57,0,0,1-.16-1.12c14.18-4,23.4-8,25.29-10.79a.57.57,0,0,1,.94.64c-2.78,4.14-17.43,8.82-25.92,11.25Z"/></g><g class="cls-49"><path class="cls-29" d="M433,213.29a.54.54,0,0,1-.38-.15.56.56,0,0,1,0-.8c17.81-19.48,26.81-39.9,29.15-66.22,1.39-15.6,11-15.64,22.13-15.69,2.16,0,4.4,0,6.68-.14,9.73-.5,27.25-3.7,43.58-8a.58.58,0,0,1,.7.41.57.57,0,0,1-.41.69c-16.4,4.28-34,7.5-43.81,8-2.31.12-4.56.13-6.73.14-11.44.05-19.7.09-21,14.66-2.37,26.58-11.45,47.2-29.45,66.88A.58.58,0,0,1,433,213.29Z"/></g><path class="cls-50" d="M270,268.44s-3.14-8.28-6.81-7.52a25.05,25.05,0,0,0-7.69,3.58l-5.9,8S266.18,279,272,275.26a127.22,127.22,0,0,0,38.28-.58,83.79,83.79,0,0,1-6-18.13C293.44,262.67,281.79,267.24,270,268.44Z"/><path class="cls-51" d="M359.62,208.41s-24.22,30.51-55.36,48.14a83.79,83.79,0,0,0,6,18.13c16.15-2.65,34.85-9,50.7-23Z"/><path class="cls-52" d="M387,344s-.06-38.62-22.52-78.5a64,64,0,0,1-7.33-41.15l2.46-15.89s30.82-10.42,65-.44c0,0,47.37,39.1,15.71,139.1Z"/><path class="cls-53" d="M364.87,188.13l8,19.2a3.81,3.81,0,0,0,2.89,2.3c4.61.79,15.75,2,23.07-2.79a1.86,1.86,0,0,0,.5-2.61L384.55,183Z"/><path class="cls-54" d="M382.72,278.36a1.77,1.77,0,0,0-1.12,2.53l23.11,44.33a1.79,1.79,0,0,0,2.07.89l75.62-21.84a1.77,1.77,0,0,0,1.22-2.19l-13-45.1a1.77,1.77,0,0,0-2.16-1.22Z"/><path class="cls-55" d="M387.59,273.15a1.86,1.86,0,0,0-1.31,2.45l18.51,50.27a1.86,1.86,0,0,0,2.26,1.14l75.39-21.77a1.85,1.85,0,0,0,1.3-2.18l-10.45-48.38a1.85,1.85,0,0,0-2.24-1.41Z"/><path class="cls-56" d="M394.16,268.07a2.3,2.3,0,0,0-1.89,2.79l12.57,54.27a2.3,2.3,0,0,0,2.87,1.69L482,305.38a2.3,2.3,0,0,0,1.59-2.78l-11.42-44.3a2.29,2.29,0,0,0-2.57-1.69Z"/><path class="cls-57" d="M456.13,288.77c5.76-43.53-27.79-77-27.79-77l-20,23.27c15.16,18.89,22.36,36.2,25.65,49.79C438.4,283.55,448.9,281.55,456.13,288.77Z"/><path class="cls-58" d="M434,285.33a.49.49,0,0,1-.49-.39c-4.09-16.86-12.68-33.54-25.56-49.59a.51.51,0,0,1,.8-.64c13,16.16,21.63,33,25.75,50a.52.52,0,0,1-.38.62Z"/><path class="cls-59" d="M434,284.82c3.06,12.64,2.74,22.07,2.27,26.57a3.51,3.51,0,0,1-3.24,3.14c-1.93.13-4.56.31-6.91.45-2.59.15-5.46-1.49-7.37-2.85a1.15,1.15,0,0,0-1.7,1.46c1.43,2.8,5.06,5.29,7.57,6.76a1.19,1.19,0,0,1-.28,2.18l-10.71,3c17.6,16.57,29.22-2,29.22-2a83.93,83.93,0,0,0,13.25-34.82C448.9,281.55,438.4,283.55,434,284.82Z"/><path class="cls-60" d="M373.13,158.76c-.33.32-14.16,27.47-14.16,27.47l15.67,7.57L391.57,170S378.75,153.47,373.13,158.76Z"/><path class="cls-61" d="M384.45,172.86l-7.82,13a2.49,2.49,0,0,1-.43.54c-.93.86-4.11,3.38-6.57-.05-2.1-2.92-4.07-5.58-6.18-6.67a2.49,2.49,0,0,0-3.37,1.11,92.93,92.93,0,0,0-5.35,12.69,2.49,2.49,0,0,0,1.45,3.05,69.61,69.61,0,0,0,15,4.38,2.5,2.5,0,0,0,2.36-1c2.4-3.28,9.15-12.45,11.45-14.74,2.14-2.13,6.09-1.33,7.87-.82a2.5,2.5,0,0,0,2-.26c1.8-1.09,5-3.8,2.07-8.38a2.51,2.51,0,0,1,.78-3.4c2-1.33,4.2-3.82,2.12-7.85s-5.88-4.45-8.45-4.13a2.59,2.59,0,0,1-2.72-1.52,1.65,1.65,0,0,0-1.29-1,2.44,2.44,0,0,1-2-2.85c.46-2.31.12-5.31-3.57-7.34-6.76-3.72-12.69,2.34-14.19,7.46s6.05,8.72,10.81,9.33c3.49.44,5.41,4.25,6.18,6.25A2.49,2.49,0,0,1,384.45,172.86Z"/><path class="cls-62" d="M382.07,190s3-8.79,6.85-8.47,6.88,4.16,2.11,8.47C385.1,195.33,382.07,190,382.07,190Z"/><path class="cls-63" d="M283.94,348.34a4.08,4.08,0,0,0,4.08,4.08h165.8c3.43,0,6.2-5.82,6.2-9.24H452l-161.49-1.48a6.62,6.62,0,0,0-6.53,6.63Z"/><path class="cls-64" d="M394,143.16c-12.16-3.73-24.35-10.09-23-14.52s15-2.85,27.17.88,24.35,10.09,23,14.52S406.16,146.89,394,143.16Zm3.72-12.11c-14.6-4.48-24.5-4.15-25.18-1.94s7.33,8,21.93,12.52,24.5,4.15,25.18,1.94S412.31,135.53,397.72,131.05Z"/><path class="cls-65" d="M73.25,320.88l1.39,29.77a9.69,9.69,0,0,0,9.78,9.22l71.33-.61a7,7,0,0,0,6.88-6.05c1-7.54,2.24-21,.45-33.63Z"/><path class="cls-29" d="M153.8,357.48h-.64a.11.11,0,0,1,0-.22h.64a.11.11,0,1,1,0,.22Zm-2.14,0H151a.1.1,0,0,1-.11-.1.11.11,0,0,1,.11-.11h.64a.11.11,0,0,1,.11.11A.1.1,0,0,1,151.66,357.5Zm-2.15,0h-.65a.11.11,0,0,1-.11-.1.11.11,0,0,1,.11-.11h.64a.11.11,0,0,1,.11.11A.1.1,0,0,1,149.51,357.52Zm-2.15,0h-.65a.12.12,0,0,1-.11-.11.1.1,0,0,1,.11-.1h.65a.1.1,0,0,1,.1.11C147.47,357.49,147.42,357.53,147.36,357.53Zm-2.15,0h-.65a.11.11,0,0,1-.1-.11.12.12,0,0,1,.1-.11h.65a.11.11,0,0,1,.11.1A.11.11,0,0,1,145.21,357.55Zm-2.15,0h-.64a.11.11,0,0,1-.11-.11.1.1,0,0,1,.1-.11h.65a.1.1,0,0,1,.11.1A.11.11,0,0,1,143.06,357.57Zm-2.15,0h-.64a.11.11,0,0,1-.11-.11.11.11,0,0,1,.1-.11h.65a.1.1,0,0,1,.11.1A.11.11,0,0,1,140.91,357.59Zm-2.15,0h-.64a.1.1,0,0,1-.11-.1.11.11,0,0,1,.11-.11h.64a.11.11,0,0,1,0,.22Zm-2.15,0H136a.1.1,0,0,1-.11-.1.11.11,0,0,1,.11-.11h.64a.11.11,0,0,1,0,.22Zm-2.14,0h-.65a.11.11,0,0,1-.11-.11.11.11,0,0,1,.11-.1h.64a.11.11,0,0,1,.11.11A.12.12,0,0,1,134.47,357.65Zm-2.15,0h-.65a.11.11,0,0,1-.11-.11.12.12,0,0,1,.11-.11h.64a.11.11,0,0,1,.11.11A.1.1,0,0,1,132.32,357.66Zm23-.33a.11.11,0,0,1-.11-.08.11.11,0,0,1,.08-.13l.62-.16a.1.1,0,1,1,.06.2,6.48,6.48,0,0,1-.63.17Zm-25.13.35h-.65a.12.12,0,0,1-.11-.11.11.11,0,0,1,.11-.11h.65a.09.09,0,0,1,.1.1A.1.1,0,0,1,130.17,357.68Zm-2.15,0h-.65a.1.1,0,0,1-.1-.11c0-.06,0-.12.1-.11H128a.11.11,0,0,1,.11.1A.11.11,0,0,1,128,357.7Zm-2.15,0h-.64a.11.11,0,0,1,0-.21h.65a.11.11,0,0,1,0,.22Zm-2.15,0h-.64a.1.1,0,0,1-.11-.1.11.11,0,0,1,.1-.11h.65a.11.11,0,0,1,0,.22Zm-2.15,0h-.64a.11.11,0,0,1-.11-.1.11.11,0,0,1,.11-.11h.64a.11.11,0,0,1,.11.11A.12.12,0,0,1,121.57,357.76Zm-2.15,0h-.64a.11.11,0,0,1-.11-.11.12.12,0,0,1,.11-.11h.64a.11.11,0,0,1,.11.11A.11.11,0,0,1,119.42,357.77Zm-2.14,0h-.65a.11.11,0,1,1,0-.22h.64a.1.1,0,0,1,.11.1A.11.11,0,0,1,117.28,357.79Zm-2.15,0h-.65a.11.11,0,0,1-.11-.11.12.12,0,0,1,.11-.11h.64a.11.11,0,1,1,0,.21Zm-2.15,0h-.65a.1.1,0,0,1-.11-.1.11.11,0,0,1,.11-.11H113a.11.11,0,0,1,.1.11A.1.1,0,0,1,113,357.83Zm-2.15,0h-.65a.09.09,0,0,1-.1-.1.1.1,0,0,1,.1-.11h.65a.1.1,0,0,1,.1.11A.1.1,0,0,1,110.83,357.85Zm-2.15,0H108a.11.11,0,0,1-.11-.1.1.1,0,0,1,.1-.11h.65a.11.11,0,0,1,0,.22Zm-2.15,0h-.64a.11.11,0,0,1-.11-.11.1.1,0,0,1,.1-.1h.65a.11.11,0,0,1,.11.11A.1.1,0,0,1,106.53,357.88Zm-2.15,0h-.64a.11.11,0,1,1,0-.22h.64a.11.11,0,0,1,.11.1A.11.11,0,0,1,104.38,357.9Zm-2.15,0h-.64a.11.11,0,1,1,0-.22h.64a.1.1,0,0,1,.11.1A.11.11,0,0,1,102.23,357.92Zm-2.14,0h-.65a.11.11,0,1,1,0-.22h.64a.1.1,0,0,1,.11.1A.11.11,0,0,1,100.09,357.94Zm-2.15,0h-.65a.1.1,0,0,1-.11-.1.1.1,0,0,1,.11-.11h.64a.11.11,0,0,1,.11.11A.1.1,0,0,1,97.94,358Zm-2.15,0h-.65a.1.1,0,0,1-.11-.1.11.11,0,0,1,.11-.11h.64a.11.11,0,0,1,.11.11A.1.1,0,0,1,95.79,358Zm-2.15,0H93a.1.1,0,0,1-.1-.11c0-.06,0-.1.1-.1h.65a.1.1,0,0,1,.1.11C93.75,358,93.7,358,93.64,358Zm-2.15,0h-.65a.11.11,0,0,1,0-.22h.65a.11.11,0,0,1,.11.11A.11.11,0,0,1,91.49,358Zm-2.15,0H88.7a.11.11,0,0,1-.11-.11.1.1,0,0,1,.1-.11h.65a.1.1,0,0,1,.11.1A.11.11,0,0,1,89.34,358Zm-2.15,0h-.64a.11.11,0,0,1-.11-.11.11.11,0,0,1,.1-.11h.65a.1.1,0,0,1,.11.1A.11.11,0,0,1,87.19,358.05Zm-2.14,0h0c-.21,0-.43-.05-.64-.09a.1.1,0,0,1-.09-.12.11.11,0,0,1,.12-.09l.63.09a.11.11,0,0,1,.1.12A.1.1,0,0,1,85.05,358Zm72.24-1.46a.11.11,0,0,1,0-.2,6,6,0,0,0,.53-.34.1.1,0,0,1,.15,0,.11.11,0,0,1,0,.15,5.21,5.21,0,0,1-.55.36Zm-74.34,1h0a6.37,6.37,0,0,1-.61-.23.11.11,0,0,1-.06-.14.11.11,0,0,1,.14-.06c.2.09.4.16.6.23a.11.11,0,0,1,.06.14A.1.1,0,0,1,83,357.55ZM81,356.62l-.06,0c-.18-.12-.36-.24-.53-.37a.1.1,0,1,1,.12-.17c.17.12.35.25.53.36a.11.11,0,0,1,0,.15A.11.11,0,0,1,81,356.62Zm77.92-1.43a.13.13,0,0,1-.08,0,.12.12,0,0,1,0-.15c.14-.16.27-.33.4-.5a.11.11,0,0,1,.15,0,.1.1,0,0,1,0,.15,5.12,5.12,0,0,1-.4.52A.12.12,0,0,1,158.94,355.19Zm-79.58.08a.09.09,0,0,1-.08,0c-.15-.15-.3-.31-.44-.48a.1.1,0,0,1,0-.15.11.11,0,0,1,.15,0,6.29,6.29,0,0,0,.43.47.11.11,0,0,1,0,.16A.09.09,0,0,1,79.36,355.27Zm80.7-1.9h0a.11.11,0,0,1-.06-.14q.12-.3.21-.6a.12.12,0,0,1,.14-.07.11.11,0,0,1,.07.13,6.5,6.5,0,0,1-.22.62A.12.12,0,0,1,160.06,353.37Zm-82,.2a.11.11,0,0,1-.09-.05c-.11-.19-.22-.38-.32-.57a.12.12,0,0,1,0-.15.1.1,0,0,1,.14.05l.31.56a.1.1,0,0,1,0,.14Zm82.51-2.28a0,0,0,0,1,0,0,.11.11,0,0,1-.1-.12c0-.2.06-.42.08-.63a.11.11,0,1,1,.22,0c0,.22-.06.43-.08.64A.13.13,0,0,1,160.56,351.29Zm-83.39.32a.11.11,0,0,1-.1-.07c-.07-.21-.12-.42-.18-.63a.11.11,0,0,1,.08-.13.11.11,0,0,1,.13.08c.05.21.11.41.17.61a.11.11,0,0,1-.07.14Zm83.65-2.46h0a.1.1,0,0,1-.09-.12c0-.21,0-.42.07-.64a.11.11,0,1,1,.21,0c0,.21-.05.43-.07.64A.11.11,0,0,1,160.82,349.15Zm-84,.36a.11.11,0,0,1-.1-.1c0-.08,0-.15,0-.22l0-.43a.11.11,0,0,1,.11-.11.12.12,0,0,1,.11.1l0,.43a1.48,1.48,0,0,0,0,.21.12.12,0,0,1-.1.12ZM161.06,347h0a.1.1,0,0,1-.09-.12l.06-.64a.12.12,0,0,1,.12-.1.1.1,0,0,1,.09.12l-.06.64A.12.12,0,0,1,161.06,347Zm-84.39.34a.11.11,0,0,1-.11-.1l0-.65a.12.12,0,0,1,.1-.11.13.13,0,0,1,.12.1l0,.65a.11.11,0,0,1-.1.11Zm84.59-2.48h0a.11.11,0,0,1-.1-.12c0-.21,0-.43,0-.64a.11.11,0,0,1,.12-.1.11.11,0,0,1,.1.11l-.06.65A.11.11,0,0,1,161.26,344.88Zm-84.69.33c-.06,0-.1,0-.11-.1l0-.64a.11.11,0,0,1,.1-.11.12.12,0,0,1,.12.1l0,.64a.11.11,0,0,1-.11.11Zm84.86-2.48h0a.1.1,0,0,1-.1-.11c0-.21,0-.43.05-.64a.1.1,0,0,1,.11-.1.1.1,0,0,1,.1.11c0,.22,0,.43,0,.64A.12.12,0,0,1,161.43,342.73Zm-85,.34a.12.12,0,0,1-.11-.1l0-.65a.11.11,0,0,1,.1-.11.12.12,0,0,1,.12.1l0,.65a.12.12,0,0,1-.11.11Zm85.1-2.48h0a.11.11,0,0,1-.1-.11c0-.22,0-.43,0-.65a.11.11,0,1,1,.21,0l0,.65A.12.12,0,0,1,161.57,340.59Zm-85.2.33a.1.1,0,0,1-.11-.1l0-.65a.12.12,0,0,1,.1-.11.13.13,0,0,1,.12.1l0,.65a.11.11,0,0,1-.11.11Zm85.31-2.48h0a.1.1,0,0,1-.1-.11c0-.21,0-.43,0-.64s.06-.12.12-.11a.13.13,0,0,1,.1.11l0,.65A.1.1,0,0,1,161.68,338.44Zm-85.41.33c-.06,0-.1,0-.11-.1l0-.64a.11.11,0,0,1,.1-.11.11.11,0,0,1,.12.1l0,.64a.11.11,0,0,1-.11.11Zm85.48-2.48h0a.11.11,0,0,1-.11-.11c0-.21,0-.42,0-.64a.12.12,0,0,1,.11-.11.12.12,0,0,1,.1.11c0,.22,0,.44,0,.65A.1.1,0,0,1,161.75,336.29Zm-85.58.34a.11.11,0,0,1-.11-.1l0-.65a.11.11,0,0,1,.1-.11.11.11,0,0,1,.12.1l0,.65a.12.12,0,0,1-.11.11Zm85.62-2.48h0a.11.11,0,0,1-.11-.11v-.65a.1.1,0,0,1,.11-.1h0a.1.1,0,0,1,.11.1c0,.22,0,.43,0,.65A.11.11,0,0,1,161.79,334.15Zm-85.72.33a.1.1,0,0,1-.11-.1l0-.65a.11.11,0,1,1,.22,0l0,.64a.11.11,0,0,1-.11.11ZM161.79,332h0a.11.11,0,0,1-.11-.11c0-.21,0-.43,0-.64a.11.11,0,0,1,.11-.11.1.1,0,0,1,.11.1c0,.22,0,.43,0,.65A.11.11,0,0,1,161.79,332ZM76,332.33a.1.1,0,0,1-.11-.1l0-.64a.1.1,0,0,1,.1-.11.12.12,0,0,1,.12.1l0,.64a.11.11,0,0,1-.11.11Zm85.78-2.48a.11.11,0,0,1-.11-.11c0-.21,0-.43,0-.64a.11.11,0,0,1,.11-.11.12.12,0,0,1,.11.1c0,.22,0,.43,0,.65a.11.11,0,0,1-.11.11Zm-85.88.34a.11.11,0,0,1-.11-.1l0-.65a.1.1,0,0,1,.1-.11.12.12,0,0,1,.12.1l0,.65a.11.11,0,0,1-.11.11Zm85.8-2.49a.1.1,0,0,1-.11-.1l0-.64a.11.11,0,0,1,.1-.12.11.11,0,0,1,.11.1l0,.65a.1.1,0,0,1-.1.11Zm-85.9.34a.1.1,0,0,1-.11-.1l0-.64a.12.12,0,0,1,.1-.12.13.13,0,0,1,.12.11l0,.64a.11.11,0,0,1-.11.11Zm85.77-2.48a.12.12,0,0,1-.11-.1c0-.22,0-.43-.05-.65a.1.1,0,0,1,.1-.11.11.11,0,0,1,.12.1c0,.21,0,.43.05.64a.12.12,0,0,1-.1.12Zm-85.87.34a.11.11,0,0,1-.11-.11l0-.64a.1.1,0,0,1,.1-.11.12.12,0,0,1,.12.1l0,.64a.13.13,0,0,1-.11.12Zm85.69-2.49a.09.09,0,0,1-.1-.09c0-.22,0-.43-.07-.64a.11.11,0,0,1,.1-.12.12.12,0,0,1,.12.09l.06.65a.1.1,0,0,1-.1.11Zm-85.79.34a.11.11,0,0,1-.11-.1l0-.65a.1.1,0,0,1,.1-.11.13.13,0,0,1,.12.1l0,.65a.11.11,0,0,1-.11.11Zm85.57-2.47a.1.1,0,0,1-.11-.1c0-.21-.06-.42-.08-.64a.11.11,0,0,1,.09-.12.12.12,0,0,1,.12.1c0,.21.05.42.08.64a.1.1,0,0,1-.09.12Zm-85.67.32a.1.1,0,0,1-.11-.1l0-.64a.12.12,0,0,1,.1-.12.14.14,0,0,1,.12.11l0,.64a.11.11,0,0,1-.11.11Zm84.88-1.87h-.64a.11.11,0,0,1-.11-.11.11.11,0,0,1,.1-.11h.65a.1.1,0,0,1,.11.1A.11.11,0,0,1,160.35,319.73Zm-2.15,0h-.64a.11.11,0,0,1-.11-.11.11.11,0,0,1,.11-.1h.64a.1.1,0,0,1,.11.1A.11.11,0,0,1,158.2,319.76Zm-2.15,0h-.64a.1.1,0,0,1-.11-.1.11.11,0,0,1,.11-.11h.64a.1.1,0,0,1,.11.1A.11.11,0,0,1,156.05,319.79Zm-2.14,0h-.65a.1.1,0,0,1-.11-.1.11.11,0,0,1,.11-.11h.64a.11.11,0,0,1,.11.1A.1.1,0,0,1,153.91,319.82Zm-2.15,0h-.65a.1.1,0,0,1-.11-.1.11.11,0,0,1,.11-.11h.64a.11.11,0,0,1,.11.11A.1.1,0,0,1,151.76,319.85Zm-2.15,0H149c-.06,0-.1,0-.11-.1a.11.11,0,0,1,.11-.11h.65a.11.11,0,0,1,.1.11C149.72,319.84,149.67,319.88,149.61,319.89Zm-2.15,0h-.64a.11.11,0,0,1-.11-.11.1.1,0,0,1,.1-.11h.65a.12.12,0,0,1,.11.11A.11.11,0,0,1,147.46,319.92Zm-2.15,0h-.64a.11.11,0,0,1-.11-.11.1.1,0,0,1,.1-.11h.65a.11.11,0,0,1,0,.22Zm-2.15,0h-.64a.11.11,0,0,1-.11-.11.11.11,0,0,1,.1-.11h.65a.11.11,0,0,1,0,.22ZM141,320h-.64a.11.11,0,0,1-.11-.11.12.12,0,0,1,.11-.11H141a.11.11,0,1,1,0,.22Zm-2.14,0h-.65a.11.11,0,0,1-.11-.11.11.11,0,0,1,.11-.1h.64a.1.1,0,0,1,.11.1A.11.11,0,0,1,138.87,320Zm-2.15,0h-.65a.11.11,0,0,1-.11-.1.11.11,0,0,1,.11-.11h.64a.11.11,0,0,1,0,.21Zm-2.15,0h-.65a.11.11,0,0,1-.11-.1.11.11,0,0,1,.11-.11h.64a.11.11,0,0,1,0,.21Zm-2.15,0h-.65a.1.1,0,0,1-.1-.1.1.1,0,0,1,.1-.11h.65a.12.12,0,0,1,.11.11A.11.11,0,0,1,132.42,320.13Zm-2.15,0h-.64a.1.1,0,0,1-.11-.1.1.1,0,0,1,.1-.11h.65a.11.11,0,0,1,.11.11A.12.12,0,0,1,130.27,320.17Zm-2.15,0h-.64a.11.11,0,0,1-.11-.11.1.1,0,0,1,.1-.11h.65a.11.11,0,0,1,0,.22Zm-2.15,0h-.64a.11.11,0,1,1,0-.22H126a.11.11,0,0,1,0,.22Zm-2.15,0h-.64a.11.11,0,0,1,0-.22h.64a.11.11,0,1,1,0,.22Zm-2.14,0H121a.11.11,0,1,1,0-.22h.64a.11.11,0,0,1,.11.11A.1.1,0,0,1,121.68,320.29Zm-2.15,0h-.65a.11.11,0,0,1-.11-.11.1.1,0,0,1,.11-.1h.64a.1.1,0,0,1,.11.1A.1.1,0,0,1,119.53,320.32Zm-2.15,0h-.65a.1.1,0,0,1-.1-.1.1.1,0,0,1,.1-.11h.65a.09.09,0,0,1,.1.1A.1.1,0,0,1,117.38,320.35Zm-2.15,0h-.64a.11.11,0,0,1,0-.21h.65a.1.1,0,0,1,.11.1A.11.11,0,0,1,115.23,320.38Zm-2.15,0h-.64a.11.11,0,0,1,0-.21h.65a.11.11,0,0,1,.11.1A.11.11,0,0,1,113.08,320.41Zm-2.15,0h-.64a.1.1,0,0,1-.11-.1.11.11,0,0,1,.11-.11h.64a.11.11,0,0,1,.11.11A.1.1,0,0,1,110.93,320.44Zm-2.15,0h-.64a.11.11,0,1,1,0-.22h.64a.11.11,0,0,1,0,.22Zm-2.14,0H106a.11.11,0,0,1,0-.22h.64a.11.11,0,0,1,.11.11A.11.11,0,0,1,106.64,320.51Zm-2.15,0h-.65a.11.11,0,1,1,0-.22h.64a.11.11,0,0,1,.11.11A.1.1,0,0,1,104.49,320.54Zm-2.15,0h-.65a.12.12,0,0,1-.11-.11.11.11,0,0,1,.11-.11h.65a.11.11,0,0,1,.1.11A.1.1,0,0,1,102.34,320.57Zm-2.15,0h-.65a.11.11,0,0,1,0-.22h.65c.06,0,.1,0,.11.1A.11.11,0,0,1,100.19,320.6Zm-2.15,0H97.4a.11.11,0,0,1-.11-.11.1.1,0,0,1,.1-.1H98a.1.1,0,0,1,.11.1A.11.11,0,0,1,98,320.63Zm-2.15,0h-.64a.1.1,0,0,1-.11-.1.11.11,0,0,1,.1-.11h.65a.1.1,0,0,1,.11.1A.11.11,0,0,1,95.89,320.66Zm-2.15,0H93.1a.1.1,0,0,1-.11-.1.11.11,0,0,1,.11-.11h.64a.11.11,0,0,1,.11.1A.11.11,0,0,1,93.74,320.69Zm-2.14,0H91a.1.1,0,0,1-.11-.1.11.11,0,0,1,.11-.11h.64a.11.11,0,0,1,.11.11A.1.1,0,0,1,91.6,320.72Zm-2.15,0H88.8a.11.11,0,0,1,0-.22h.64a.11.11,0,0,1,.11.11A.11.11,0,0,1,89.45,320.76Zm-2.15,0h-.65a.11.11,0,1,1,0-.22h.64a.11.11,0,0,1,.11.11A.1.1,0,0,1,87.3,320.79Zm-2.15,0H84.5a.11.11,0,0,1-.1-.11.1.1,0,0,1,.1-.11h.65a.1.1,0,0,1,.1.11A.1.1,0,0,1,85.15,320.82Zm-2.15,0h-.64a.11.11,0,0,1-.11-.11.1.1,0,0,1,.1-.11H83a.11.11,0,0,1,0,.22Zm-2.15,0h-.64a.11.11,0,0,1-.11-.11.11.11,0,0,1,.1-.11h.65a.1.1,0,0,1,.11.1A.11.11,0,0,1,80.85,320.88Zm-2.15,0h-.64a.11.11,0,0,1-.11-.11.11.11,0,0,1,.11-.1h.64a.1.1,0,0,1,.11.1A.11.11,0,0,1,78.7,320.91Zm-2.15,0h-.64a.1.1,0,0,1-.11-.1.11.11,0,0,1,.11-.11h.64a.1.1,0,0,1,.11.1A.11.11,0,0,1,76.55,320.94Z"/><path class="cls-66" d="M93.84,299l.18-2.3a1.75,1.75,0,0,1,1.32-1.05c2.22-.39,7.72-1.09,10.41.86l.43,2.66Z"/><path class="cls-67" d="M100.75,296.65a3.21,3.21,0,0,1-1.54,0,1.39,1.39,0,0,1-1.08-1.33l-.1-7.19,3.66-.06.1,7.19A1.39,1.39,0,0,1,100.75,296.65Z"/><path class="cls-68" d="M129.29,298.45l.18-2.3a1.75,1.75,0,0,1,1.33-1c2.21-.39,7.71-1.09,10.4.85l.43,2.67Z"/><path class="cls-69" d="M136.2,296.14a3.21,3.21,0,0,1-1.54,0,1.41,1.41,0,0,1-1.08-1.33l-.11-7.95,3.66-.06.11,7.95A1.39,1.39,0,0,1,136.2,296.14Z"/><path class="cls-70" d="M97.68,289.92,137,288.57c.9,0,1.66-.43,1.8-1a5.74,5.74,0,0,0,.08-3c-.34-1.3-2.22-2.24-4.43-2.24-7.35,0-26,.28-36.31,2.86A3,3,0,0,0,96,286.78a3.2,3.2,0,0,0-.06,2.39A1.81,1.81,0,0,0,97.68,289.92Z"/><path class="cls-29" d="M97,288.73c-.11,0-.2-.05-.21-.11a3.31,3.31,0,0,1,.21-1.79,3,3,0,0,1,2.24-1.41,71.46,71.46,0,0,1,9.8-1.24c.13,0,.22.05.23.12s-.09.14-.21.14a68.69,68.69,0,0,0-9.69,1.23,2.61,2.61,0,0,0-2,1.22,3.36,3.36,0,0,0-.2,1.69c0,.07-.07.14-.19.15Z"/><path class="cls-71" d="M75.56,298.33c12.72-.35,67.72-1.72,83.73,0a3.23,3.23,0,0,1,2.83,2.47,107.44,107.44,0,0,1,3,24,2.85,2.85,0,0,1-2.29,2.75l-36.38,7.43-13,.19-39-7.17A3,3,0,0,1,72,325.18c-.32-4.94-.89-16.54.34-24A3.37,3.37,0,0,1,75.56,298.33Z"/><path class="cls-29" d="M113.73,332.09h0l-.64-.12a.11.11,0,0,1-.08-.13.1.1,0,0,1,.12-.08l.64.11a.12.12,0,0,1,.08.13A.11.11,0,0,1,113.73,332.09Zm12.14-.18h-.64a.1.1,0,0,1-.11-.1.11.11,0,0,1,.11-.11h.64a.1.1,0,0,1,.11.1A.11.11,0,0,1,125.87,331.91Zm-2.15,0h-.64a.1.1,0,0,1-.11-.1.11.11,0,0,1,.11-.11h.64a.11.11,0,0,1,.11.1A.11.11,0,0,1,123.72,331.94Zm-2.14,0h-.65a.1.1,0,0,1-.11-.1.11.11,0,0,1,.11-.11h.64a.11.11,0,0,1,.11.11A.11.11,0,0,1,121.58,332Zm-2.15,0h-.65a.1.1,0,0,1-.11-.1.11.11,0,0,1,.11-.11h.64a.11.11,0,0,1,.11.11A.11.11,0,0,1,119.43,332Zm-2.15,0h-.65a.12.12,0,0,1-.11-.11.11.11,0,0,1,.11-.11h.65a.11.11,0,0,1,.1.11A.1.1,0,0,1,117.28,332Zm-2.15,0h-.65a.11.11,0,0,1-.1-.11.1.1,0,0,1,.1-.11h.65a.12.12,0,0,1,.11.11A.11.11,0,0,1,115.13,332.07Zm12.22-.42a.11.11,0,0,1-.11-.09.11.11,0,0,1,.09-.12l.63-.13a.11.11,0,0,1,.13.08.11.11,0,0,1-.09.13l-.63.13Zm-15.74.05h0l-.63-.12a.11.11,0,0,1-.09-.12.11.11,0,0,1,.13-.09l.63.12a.1.1,0,0,1,.09.12A.12.12,0,0,1,111.61,331.7Zm17.85-.48a.11.11,0,0,1-.11-.09.1.1,0,0,1,.08-.12l.63-.13a.11.11,0,1,1,.05.21l-.63.13Zm-20,.09h0l-.64-.12a.1.1,0,0,1-.08-.12.11.11,0,0,1,.12-.09l.64.12a.1.1,0,0,1,.08.12A.11.11,0,0,1,109.5,331.31Zm22.06-.52a.11.11,0,0,1-.11-.09.11.11,0,0,1,.09-.12l.63-.13a.11.11,0,0,1,.13.08.11.11,0,0,1-.09.13l-.63.13Zm-24.17.13h0l-.64-.12a.09.09,0,0,1-.08-.12.1.1,0,0,1,.12-.09l.63.12a.11.11,0,0,1,.09.12A.1.1,0,0,1,107.39,330.92Zm26.28-.56a.11.11,0,0,1-.11-.09.11.11,0,0,1,.08-.12l.64-.13a.1.1,0,0,1,.12.08.11.11,0,0,1-.08.13l-.63.13Zm-28.4.17h0l-.63-.11a.11.11,0,0,1,0-.22l.63.12a.11.11,0,0,1,.09.13A.11.11,0,0,1,105.27,330.53Zm30.5-.6a.1.1,0,0,1-.1-.09.09.09,0,0,1,.08-.12l.63-.13a.11.11,0,0,1,.13.08.11.11,0,0,1-.09.13l-.63.13Zm-32.61.22h0l-.64-.11a.11.11,0,0,1-.08-.13.1.1,0,0,1,.12-.08l.64.11a.11.11,0,0,1,0,.22Zm34.72-.65a.11.11,0,0,1-.11-.09.11.11,0,0,1,.08-.12l.64-.13a.1.1,0,0,1,.12.08.11.11,0,0,1-.08.13l-.63.13Zm-36.83.26h0l-.64-.12a.11.11,0,0,1-.09-.13.12.12,0,0,1,.13-.08l.63.11a.12.12,0,0,1,.09.13A.11.11,0,0,1,101.05,329.76Zm38.93-.69a.1.1,0,0,1-.1-.09.09.09,0,0,1,.08-.12l.63-.13a.11.11,0,0,1,.13.08.11.11,0,0,1-.09.13l-.63.13Zm-41,.3h0l-.63-.12a.11.11,0,0,1-.09-.12.11.11,0,0,1,.13-.09l.63.12a.1.1,0,0,1,.09.12A.12.12,0,0,1,98.93,329.37Zm43.16-.73a.11.11,0,0,1-.11-.09.11.11,0,0,1,.09-.12l.63-.13a.1.1,0,0,1,.12.08.1.1,0,0,1-.08.13l-.63.13ZM96.82,329h0l-.64-.12a.11.11,0,0,1,0-.21l.64.12a.1.1,0,0,1,.08.12A.11.11,0,0,1,96.82,329Zm47.37-.77a.1.1,0,0,1-.1-.09.1.1,0,0,1,.08-.12l.63-.13a.11.11,0,0,1,.13.08.11.11,0,0,1-.08.13l-.64.13Zm-49.48.38h0l-.63-.12a.1.1,0,0,1-.09-.12.12.12,0,0,1,.13-.09l.63.12a.11.11,0,0,1,.09.12A.1.1,0,0,1,94.71,328.59Zm51.59-.81a.11.11,0,0,1-.11-.09.11.11,0,0,1,.09-.12l.63-.13a.1.1,0,0,1,.12.08.1.1,0,0,1-.08.13l-.63.13Zm-53.71.42h0l-.63-.11a.12.12,0,0,1-.09-.13.11.11,0,0,1,.13-.09l.63.12a.11.11,0,0,1,.09.13A.11.11,0,0,1,92.59,328.2Zm55.81-.85a.1.1,0,0,1-.1-.09.1.1,0,0,1,.08-.12L149,327a.11.11,0,0,1,.13.08.11.11,0,0,1-.08.13l-.64.13Zm-57.92.47h0l-.64-.11a.11.11,0,0,1-.08-.13.09.09,0,0,1,.12-.08l.64.11a.11.11,0,0,1,.08.13A.12.12,0,0,1,90.48,327.82Zm60-.9a.11.11,0,0,1-.11-.09.11.11,0,0,1,.09-.12l.63-.13a.11.11,0,0,1,.13.08.11.11,0,0,1-.09.13l-.63.13Zm-62.14.51h0l-.63-.12a.11.11,0,0,1-.09-.13.11.11,0,0,1,.13-.08l.63.11a.11.11,0,0,1,.09.13A.11.11,0,0,1,88.37,327.43Zm64.25-.94a.11.11,0,0,1,0-.21l.63-.13a.11.11,0,0,1,.05.21l-.63.13Zm2.1-.43a.11.11,0,0,1-.11-.09.11.11,0,0,1,.09-.12l.63-.13a.11.11,0,0,1,.13.08.11.11,0,0,1-.09.13l-.63.13Zm-68.47,1h0l-.63-.12a.11.11,0,0,1-.09-.12.11.11,0,0,1,.13-.09l.63.12a.1.1,0,0,1,.09.12A.12.12,0,0,1,86.25,327Zm70.58-1.41a.11.11,0,0,1-.11-.09.11.11,0,0,1,.08-.12l.64-.13a.1.1,0,0,1,.12.08.11.11,0,0,1-.08.13l-.63.13Zm-72.69,1h0l-.64-.12a.11.11,0,0,1,0-.21l.64.12a.1.1,0,0,1,.08.12A.11.11,0,0,1,84.14,326.65Zm74.79-1.45a.1.1,0,0,1-.1-.09.09.09,0,0,1,.08-.12l.63-.13a.11.11,0,0,1,.13.08.11.11,0,0,1-.09.13l-.63.13ZM82,326.26h0l-.63-.12a.1.1,0,0,1-.09-.12.11.11,0,0,1,.13-.09l.63.12a.11.11,0,0,1,.09.12A.11.11,0,0,1,82,326.26Zm79-1.49a.11.11,0,0,1-.11-.09.11.11,0,0,1,.08-.12l.64-.13a.1.1,0,0,1,.12.08.11.11,0,0,1-.08.13l-.63.13Zm-81.13,1.1h0l-.63-.12a.1.1,0,0,1-.09-.12.11.11,0,0,1,.13-.09l.63.12a.11.11,0,0,1,.09.13A.11.11,0,0,1,79.91,325.87Zm-2.11-.39h0l-.64-.11a.11.11,0,0,1-.08-.13.09.09,0,0,1,.12-.08l.64.11a.11.11,0,0,1,.08.13A.1.1,0,0,1,77.8,325.48Zm-2.12-.38h0L75,325v-.16a.12.12,0,0,1,.1-.12.1.1,0,0,1,.11.1l.48.08a.11.11,0,0,1,.09.13A.12.12,0,0,1,75.68,325.1Zm86.26-1.73a.12.12,0,0,1-.11-.11v-.06c0-.2,0-.39,0-.58a.11.11,0,0,1,.11-.11.1.1,0,0,1,.11.1c0,.2,0,.39,0,.58v.07A.11.11,0,0,1,161.94,323.37ZM75,323.42a.11.11,0,0,1-.11-.1c0-.21,0-.43,0-.65a.11.11,0,0,1,.11-.11.1.1,0,0,1,.11.1c0,.22,0,.44,0,.64a.11.11,0,0,1-.1.12Zm86.85-2.2a.12.12,0,0,1-.11-.1l0-.65a.11.11,0,0,1,.11-.11.11.11,0,0,1,.11.1l0,.65a.11.11,0,0,1-.1.11Zm-87,0a.1.1,0,0,1-.11-.1l0-.65a.1.1,0,0,1,.1-.11.1.1,0,0,1,.11.1l0,.65a.1.1,0,0,1-.1.11Zm86.84-2.2a.12.12,0,0,1-.11-.1c0-.21,0-.43,0-.64a.1.1,0,0,1,.1-.11.1.1,0,0,1,.11.09c0,.22,0,.43.05.65a.1.1,0,0,1-.1.11Zm-86.93.05a.1.1,0,0,1-.11-.1c0-.21,0-.43,0-.65a.12.12,0,0,1,.1-.11.11.11,0,0,1,.11.11l0,.64a.11.11,0,0,1-.11.11Zm86.76-2.19a.11.11,0,0,1-.11-.1l-.06-.64a.11.11,0,0,1,.1-.12.1.1,0,0,1,.11.1c0,.21.05.43.07.64a.11.11,0,0,1-.1.12Zm-86.82,0a.1.1,0,0,1-.11-.1c0-.21,0-.43,0-.65a.12.12,0,0,1,.11-.11h0a.11.11,0,0,1,.11.11c0,.22,0,.43,0,.64a.1.1,0,0,1-.1.11Zm86.6-2.18a.11.11,0,0,1-.11-.09c0-.22,0-.43-.08-.64a.12.12,0,0,1,.1-.12.1.1,0,0,1,.12.09c0,.21,0,.43.07.64a.1.1,0,0,1-.09.12Zm-86.64,0h0a.11.11,0,0,1-.11-.11v-.65a.09.09,0,0,1,.1-.1h0a.1.1,0,0,1,.11.1c0,.22,0,.43,0,.65A.12.12,0,0,1,74.73,314.83Zm86.37-2.17a.12.12,0,0,1-.11-.09c0-.22-.05-.43-.08-.64a.1.1,0,0,1,.09-.12.1.1,0,0,1,.12.09l.09.64a.11.11,0,0,1-.09.12Zm-86.38,0h0a.11.11,0,0,1-.11-.11c0-.22,0-.43,0-.65a.11.11,0,1,1,.21,0v.64A.11.11,0,0,1,74.72,312.68Zm86.07-2.15a.1.1,0,0,1-.1-.09c0-.21-.07-.43-.1-.64a.11.11,0,0,1,.21,0c0,.21.07.42.1.64a.1.1,0,0,1-.09.12Zm-86,0h0a.11.11,0,0,1-.11-.11c0-.22,0-.43,0-.65a.11.11,0,0,1,.21,0c0,.21,0,.43,0,.64A.11.11,0,0,1,74.75,310.53Zm85.7-2.12a.11.11,0,0,1-.11-.09c0-.21-.07-.42-.11-.63a.11.11,0,0,1,.08-.13.11.11,0,0,1,.13.09c0,.21.07.42.11.63a.11.11,0,0,1-.09.13Zm-85.63,0h0a.11.11,0,0,1-.1-.11l0-.65a.11.11,0,0,1,.11-.1.11.11,0,0,1,.11.11l0,.65A.12.12,0,0,1,74.82,308.38Zm85.24-2.09a.1.1,0,0,1-.11-.08l-.12-.63a.11.11,0,0,1,.09-.13.11.11,0,0,1,.12.08c0,.21.08.42.13.64a.1.1,0,0,1-.09.12Zm-85.12-.06h0a.1.1,0,0,1-.1-.11c0-.22,0-.43,0-.65a.11.11,0,1,1,.22,0c0,.21,0,.43,0,.64A.11.11,0,0,1,74.94,306.23Zm84.7-2a.12.12,0,0,1-.11-.09c0-.22-.09-.43-.13-.63a.1.1,0,0,1,.08-.13.12.12,0,0,1,.13.09c0,.2.09.41.13.63a.1.1,0,0,1-.08.12Zm-84.51-.1h0A.11.11,0,0,1,75,304c0-.21,0-.43.07-.64a.1.1,0,0,1,.12-.09.11.11,0,0,1,.1.12c0,.21,0,.42-.08.64A.1.1,0,0,1,75.13,304.09Zm84.05-2a.12.12,0,0,1-.11-.09l-.11-.47a.1.1,0,0,1-.11-.11.09.09,0,0,1,.1-.1h0a.24.24,0,0,1,.2.16l.11.48a.1.1,0,0,1-.08.12Zm-1.74-.69h0l-.64,0a.11.11,0,0,1-.1-.12.1.1,0,0,1,.11-.1l.65.05a.12.12,0,0,1,.1.12A.13.13,0,0,1,157.44,301.4Zm-2.14-.16h0l-.65,0a.13.13,0,0,1-.1-.12.12.12,0,0,1,.12-.1l.64,0a.1.1,0,0,1,.1.11A.1.1,0,0,1,155.3,301.24Zm-2.15-.11h0l-.64,0c-.06,0-.11-.06-.1-.11a.11.11,0,0,1,.11-.11l.64,0a.13.13,0,0,1,.11.11A.12.12,0,0,1,153.15,301.13ZM151,301h0l-.65,0a.11.11,0,1,1,0-.21l.65,0a.11.11,0,1,1,0,.21Zm-2.14-.07h0l-.64,0a.11.11,0,0,1-.11-.11.11.11,0,0,1,.11-.1l.65,0a.1.1,0,0,1,.1.11A.11.11,0,0,1,148.86,301Zm-73.45,1h0a.11.11,0,0,1-.09-.12l0-.2a.34.34,0,0,1,.32-.28h.14a.11.11,0,0,1,.11.1.11.11,0,0,1-.11.11h-.14a.12.12,0,0,0-.11.1l0,.19A.11.11,0,0,1,75.41,302Zm71.3-1.06h-.65a.13.13,0,0,1-.11-.11.12.12,0,0,1,.11-.11l.65,0a.1.1,0,0,1,.1.11A.11.11,0,0,1,146.71,300.9Zm-2.15,0h-.65a.1.1,0,0,1-.1-.11.1.1,0,0,1,.1-.1h.65a.1.1,0,0,1,.1.11A.09.09,0,0,1,144.56,300.85Zm-2.15,0h-.65a.1.1,0,0,1-.1-.1.11.11,0,0,1,.11-.11h.64a.11.11,0,0,1,.11.11A.1.1,0,0,1,142.41,300.81Zm-2.15,0h-.65a.1.1,0,0,1-.1-.11.11.11,0,0,1,.1-.11h.65a.11.11,0,0,1,.11.11A.1.1,0,0,1,140.26,300.78Zm-2.15,0h-.64a.11.11,0,0,1-.11-.11.11.11,0,0,1,.1-.11h.65a.11.11,0,0,1,.11.1A.11.11,0,0,1,138.11,300.76Zm-2.15,0h-.64a.11.11,0,0,1-.11-.11.1.1,0,0,1,.11-.1H136a.11.11,0,0,1,.11.11A.1.1,0,0,1,136,300.74Zm-2.15,0h-.64a.11.11,0,0,1-.11-.11.1.1,0,0,1,.11-.1h.64a.11.11,0,0,1,.11.11A.1.1,0,0,1,133.81,300.73Zm-56.51.8a.1.1,0,0,1-.11-.1.1.1,0,0,1,.1-.11l.65,0a.12.12,0,0,1,.11.11.11.11,0,0,1-.11.11Zm54.37-.8H131a.11.11,0,1,1,0-.22h.64a.11.11,0,0,1,.11.11A.11.11,0,0,1,131.67,300.73Zm-52.22.75a.11.11,0,0,1-.11-.11c0-.06,0-.1.1-.11h.65a.11.11,0,0,1,.11.1.11.11,0,0,1-.11.11l-.64,0Zm2.14-.06a.09.09,0,0,1-.1-.1.1.1,0,0,1,.1-.11l.65,0h0a.12.12,0,0,1,.11.11.11.11,0,0,1-.11.11h-.65Zm47.93-.69h-.65a.11.11,0,0,1,0-.22h.64a.11.11,0,0,1,.11.11A.1.1,0,0,1,129.52,300.73Zm-45.78.64a.12.12,0,0,1-.11-.1.11.11,0,0,1,.11-.11l.64,0h0a.11.11,0,0,1,.1.11.1.1,0,0,1-.1.11h-.65Zm43.63-.64h-.65a.11.11,0,0,1-.11-.11.11.11,0,0,1,.11-.1h.65a.09.09,0,0,1,.1.1A.1.1,0,0,1,127.37,300.73Zm-41.48.59a.11.11,0,0,1-.11-.1.11.11,0,0,1,.11-.11l.64,0h0a.11.11,0,0,1,.11.11.1.1,0,0,1-.1.11Zm39.33-.58h-.65a.11.11,0,1,1,0-.22h.65a.11.11,0,0,1,0,.22ZM88,301.27a.1.1,0,0,1-.11-.1.11.11,0,0,1,.11-.11l.64,0a.1.1,0,0,1,.11.11.1.1,0,0,1-.1.11Zm2.15,0a.11.11,0,1,1,0-.22h.64a.11.11,0,1,1,0,.21l-.65,0Zm32.88-.48h-.65a.1.1,0,0,1-.1-.11c0-.06,0-.11.1-.1h.65a.11.11,0,0,1,0,.22Zm-30.73.43a.11.11,0,0,1-.11-.1.11.11,0,0,1,.11-.11l.64,0h0a.11.11,0,0,1,.11.11.1.1,0,0,1-.1.11Zm28.58-.42h-.64a.11.11,0,0,1-.11-.11.1.1,0,0,1,.1-.11h.65a.1.1,0,0,1,.11.1A.11.11,0,0,1,120.92,300.76Zm-26.43.38a.11.11,0,1,1,0-.22h.64a.1.1,0,0,1,.11.1.11.11,0,0,1-.1.11l-.65,0Zm24.28-.36h-.64a.1.1,0,0,1-.11-.1.11.11,0,0,1,.1-.11h.65a.11.11,0,0,1,0,.22Zm-22.13.31a.1.1,0,0,1-.11-.1.11.11,0,0,1,.11-.11h.64a.1.1,0,0,1,.11.1.11.11,0,0,1-.11.11Zm20-.29H116a.1.1,0,0,1-.11-.1.11.11,0,0,1,.11-.11h.64a.11.11,0,0,1,0,.22Zm-17.83.25a.1.1,0,0,1-.11-.1.11.11,0,0,1,.1-.11h.65a.1.1,0,0,1,.11.1.11.11,0,0,1-.11.11Zm15.68-.23h-.64a.11.11,0,0,1,0-.22h.64a.1.1,0,0,1,.11.1A.11.11,0,0,1,114.47,300.82Zm-13.53.2a.11.11,0,0,1-.11-.11.1.1,0,0,1,.1-.11h.65a.11.11,0,0,1,.11.11.11.11,0,0,1-.11.1l-.64,0Zm11.39-.17h-.65a.1.1,0,0,1-.11-.1.11.11,0,0,1,.11-.11h.64a.11.11,0,0,1,.11.11A.12.12,0,0,1,112.33,300.85Zm-9.24.13a.11.11,0,0,1-.11-.11.11.11,0,0,1,.1-.11h.65a.11.11,0,0,1,0,.22Zm7.09-.11h-.65a.11.11,0,0,1-.11-.1.11.11,0,0,1,.11-.11h.64a.11.11,0,1,1,0,.21Zm-4.94.07a.11.11,0,0,1,0-.21h.65a.11.11,0,0,1,.11.1.11.11,0,0,1-.11.11Zm2.14,0a.11.11,0,0,1-.11-.1.11.11,0,0,1,.11-.11H108a.11.11,0,1,1,0,.21Z"/><path class="cls-72" d="M125.28,340.4l-11.35.16a2.93,2.93,0,0,1-3-2.53l-1.47-10.91a2.94,2.94,0,0,1,2.87-3.31l13.64-.2a2.93,2.93,0,0,1,3,3.14l-.81,10.94A2.94,2.94,0,0,1,125.28,340.4Z"/><g class="cls-73"><path class="cls-74" d="M123.85,338.41l-8.64.12a2.23,2.23,0,0,1-2.25-1.92l-1.11-8.3a2.23,2.23,0,0,1,2.18-2.53l10.38-.15a2.23,2.23,0,0,1,2.26,2.39l-.62,8.33A2.24,2.24,0,0,1,123.85,338.41Z"/></g><path class="cls-75" d="M114.52,127.27a.39.39,0,0,1,.31.08.36.36,0,0,1,0,.52c-.32.39-.65.77-1,1.13a.37.37,0,0,1-.52,0,.38.38,0,0,1,0-.53c.33-.36.66-.73,1-1.11A.3.3,0,0,1,114.52,127.27Z"/><path class="cls-76" d="M35.45,103.41h0a.38.38,0,0,1,.42.33c.1.86.23,1.74.38,2.6l.07.36a.38.38,0,0,1-.3.43.36.36,0,0,1-.43-.3l-.07-.36c-.16-.88-.29-1.77-.39-2.65A.37.37,0,0,1,35.45,103.41Zm1.62,7.75a.38.38,0,0,1,.42.26c.29,1,.61,1.9,1,2.83a.38.38,0,0,1-.22.48.37.37,0,0,1-.48-.21c-.36-1-.69-1.92-1-2.89a.37.37,0,0,1,.25-.46Zm3,7.34a.37.37,0,0,1,.4.2c.29.57.6,1.15.91,1.7l.54.92a.38.38,0,0,1-.13.51.36.36,0,0,1-.51-.13c-.19-.3-.37-.62-.54-.93-.32-.57-.64-1.15-.93-1.73a.37.37,0,0,1,.16-.5Zm4.19,6.72a.39.39,0,0,1,.36.14c.6.8,1.23,1.58,1.88,2.33a.39.39,0,0,1,0,.53.38.38,0,0,1-.53,0c-.66-.76-1.3-1.56-1.9-2.37a.37.37,0,0,1,.07-.52A.33.33,0,0,1,44.21,125.22Zm5.29,5.88a.36.36,0,0,1,.32.1c.72.67,1.48,1.33,2.25,2a.37.37,0,1,1-.46.58c-.79-.64-1.56-1.31-2.3-2a.37.37,0,0,1,0-.52A.45.45,0,0,1,49.5,131.1ZM55.74,136a.37.37,0,0,1,.27,0c.83.54,1.7,1.06,2.57,1.54a.37.37,0,0,1-.36.65c-.89-.49-1.77-1-2.62-1.56a.37.37,0,0,1,.14-.68Zm7,3.69a.31.31,0,0,1,.21,0c.92.38,1.86.74,2.8,1.06a.37.37,0,0,1-.24.71c-1-.33-1.92-.69-2.85-1.09a.36.36,0,0,1-.2-.48A.37.37,0,0,1,62.74,139.65Zm47.31-7.82a.38.38,0,0,1,.32.65c-.76.66-1.55,1.32-2.35,1.93a.37.37,0,0,1-.52-.06.36.36,0,0,1,.07-.52c.79-.61,1.56-1.25,2.3-1.91A.38.38,0,0,1,110.05,131.83ZM70.28,142.06h.15c1,.22,1.95.41,2.94.56a.38.38,0,0,1,.31.43.39.39,0,0,1-.43.31c-1-.16-2-.35-3-.58a.37.37,0,0,1-.28-.44A.36.36,0,0,1,70.28,142.06Zm33.41-5.53a.38.38,0,0,1,.26.69c-.47.28-1,.57-1.43.84l-1.22.66a.38.38,0,0,1-.5-.16.36.36,0,0,1,.16-.5l1.19-.65,1.41-.83Zm-25.57,6.59h.08c1,0,2,.06,3,0a.38.38,0,0,1,.38.36.37.37,0,0,1-.37.38c-1,0-2,0-3,0a.36.36,0,0,1-.35-.38A.35.35,0,0,1,78.12,143.12Zm18.48-3.06a.38.38,0,0,1,.42.23.37.37,0,0,1-.21.48c-1,.37-1.91.72-2.87,1a.37.37,0,1,1-.23-.71c1-.3,1.9-.64,2.82-1ZM86,142.79h0c1-.12,2-.29,3-.48a.37.37,0,0,1,.44.29.38.38,0,0,1-.29.44c-1,.2-2,.36-3,.49a.36.36,0,0,1-.41-.32A.36.36,0,0,1,86,142.79Z"/><path class="cls-77" d="M35.16,97h.08a.39.39,0,0,1,.36.39c0,.49,0,1,0,1.47a.37.37,0,0,1-.37.37.36.36,0,0,1-.37-.37c0-.49,0-1,0-1.49A.38.38,0,0,1,35.16,97Z"/><path class="cls-78" d="M49.49,65.17a.37.37,0,0,1,.34.11.38.38,0,0,1,0,.53c-.36.33-.71.67-1.06,1a.37.37,0,0,1-.53-.53l1.08-1A.37.37,0,0,1,49.49,65.17Z"/><path class="cls-79" d="M74.66,53.43h0c1-.12,2-.21,3-.27a.37.37,0,0,1,.39.35.37.37,0,0,1-.35.4c-1,.05-2,.14-2.93.26a.39.39,0,0,1-.42-.33A.38.38,0,0,1,74.66,53.43Zm-4.75.85a.37.37,0,0,1,.15.73c-1,.22-1.91.48-2.85.77a.37.37,0,0,1-.46-.25.36.36,0,0,1,.25-.46c.94-.3,1.92-.56,2.89-.79Zm12.53-1.12h.09c1,.05,2,.14,3,.25a.38.38,0,0,1,.33.42.37.37,0,0,1-.42.32c-1-.11-2-.2-2.93-.25a.36.36,0,0,1-.35-.39A.37.37,0,0,1,82.44,53.16ZM62.51,56.71a.37.37,0,0,1,.21.71c-.9.39-1.8.81-2.67,1.25a.37.37,0,0,1-.34-.66c.89-.46,1.81-.88,2.72-1.27Zm27.65-2.49h.15c1,.22,1.94.47,2.89.76a.37.37,0,1,1-.21.71c-.94-.28-1.9-.53-2.85-.75a.36.36,0,0,1-.28-.44A.39.39,0,0,1,90.16,54.22ZM55.64,60.38a.35.35,0,0,1,.37.16.36.36,0,0,1-.11.52c-.82.53-1.63,1.1-2.41,1.68a.38.38,0,0,1-.52-.07.37.37,0,0,1,.07-.52c.8-.6,1.62-1.17,2.46-1.72ZM97.57,56.6a.38.38,0,0,1,.21,0c.92.38,1.83.8,2.73,1.25a.36.36,0,0,1,.16.49.37.37,0,0,1-.5.17c-.87-.43-1.77-.85-2.67-1.22a.37.37,0,0,1-.2-.49A.35.35,0,0,1,97.57,56.6Zm6.9,3.61a.38.38,0,0,1,.27,0c.83.54,1.66,1.11,2.46,1.7a.37.37,0,0,1,.08.52.38.38,0,0,1-.52.08c-.78-.58-1.6-1.14-2.42-1.67a.37.37,0,0,1-.12-.52A.38.38,0,0,1,104.47,60.21ZM110.64,65a.39.39,0,0,1,.32.1c.73.67,1.45,1.37,2.13,2.09a.38.38,0,0,1,0,.53.39.39,0,0,1-.53,0c-.67-.71-1.38-1.41-2.1-2.07a.37.37,0,0,1,0-.52A.45.45,0,0,1,110.64,65Zm5.25,5.75a.37.37,0,0,1,.36.14c.61.79,1.19,1.61,1.74,2.43a.37.37,0,0,1-.1.52.38.38,0,0,1-.52-.1c-.54-.82-1.12-1.62-1.71-2.4a.38.38,0,0,1,.07-.52A.33.33,0,0,1,115.89,70.7Zm4.19,6.56a.38.38,0,0,1,.39.2c.47.88.9,1.79,1.31,2.69a.39.39,0,0,1-.19.5.38.38,0,0,1-.49-.19c-.4-.9-.83-1.79-1.29-2.66a.38.38,0,0,1,.16-.5Zm3,7.19a.37.37,0,0,1,.42.25c.3,1,.57,1.92.81,2.88a.37.37,0,0,1-.27.45.36.36,0,0,1-.45-.27c-.23-1-.51-1.9-.8-2.83a.36.36,0,0,1,.24-.47Zm1.71,7.6h0a.39.39,0,0,1,.42.32c.13,1,.24,2,.3,3a.37.37,0,0,1-.34.4.38.38,0,0,1-.4-.35c-.07-1-.17-2-.3-2.93A.36.36,0,0,1,124.8,92.05Z"/><path class="cls-80" d="M125.18,99.85h.08a.38.38,0,0,1,.36.38c0,.5-.05,1-.09,1.5a.36.36,0,0,1-.4.34.37.37,0,0,1-.34-.39c0-.49.06-1,.08-1.48A.38.38,0,0,1,125.18,99.85Z"/><path class="cls-81" d="M114.16,105.29a.55.55,0,0,0-.19-.6l-5.29-3.91a28.42,28.42,0,0,0-.82-9.24l4.52-4.78a.55.55,0,0,0,.09-.62l-3.65-7a.54.54,0,0,0-.56-.29l-6.5,1a28.46,28.46,0,0,0-7.12-6l-.18-6.58a.55.55,0,0,0-.38-.5l-7.53-2.36a.53.53,0,0,0-.59.19l-3.91,5.29a28.46,28.46,0,0,0-9.25.82L68,66.22a.53.53,0,0,0-.62-.09l-7,3.65a.54.54,0,0,0-.28.56l1,6.5a28.89,28.89,0,0,0-6,7.12l-6.57.18a.55.55,0,0,0-.5.38L45.7,92a.54.54,0,0,0,.2.6l5.29,3.91A28.75,28.75,0,0,0,52,105.8l-4.52,4.77a.53.53,0,0,0-.08.62l3.64,7a.54.54,0,0,0,.56.28l6.5-1a29.08,29.08,0,0,0,7.12,6L65.4,130a.55.55,0,0,0,.38.5l7.53,2.37a.54.54,0,0,0,.6-.2l3.91-5.29a28.69,28.69,0,0,0,9.24-.81l4.78,4.52a.53.53,0,0,0,.62.08l7-3.65a.53.53,0,0,0,.29-.55l-1-6.51a28.42,28.42,0,0,0,6-7.11l6.58-.19a.53.53,0,0,0,.5-.37Z"/><path class="cls-29" d="M78.59,91.22a7.46,7.46,0,0,1,1.77-.1,7.47,7.47,0,1,1-1.77.1ZM81.08,105a6.44,6.44,0,0,0,3.66-10.63h0a6.44,6.44,0,0,0-9.1-.53,6.46,6.46,0,0,0-.52,9.11,6.48,6.48,0,0,0,6,2.05Z"/><path class="cls-29" d="M76.32,79.34A19.63,19.63,0,0,1,97.14,89.57h0a19.57,19.57,0,0,1,1.53,3.88l-1.08.29a18.2,18.2,0,0,0-1.44-3.66h0a18.47,18.47,0,0,0-24.72-7.94l-.21.11a18.48,18.48,0,1,0,24.3,26.05l1,.59a19.6,19.6,0,0,1-34.07-1.2,19.34,19.34,0,0,1-1.92-5.61A19.61,19.61,0,0,1,70.7,81.26,19.4,19.4,0,0,1,76.32,79.34Z"/><path class="cls-82" d="M153.85,150.54a.35.35,0,0,1,.3.09.37.37,0,0,1,0,.52c-.33.38-.67.76-1,1.12a.37.37,0,1,1-.53-.52c.33-.35.66-.71,1-1.08A.38.38,0,0,1,153.85,150.54Z"/><path class="cls-83" d="M113.41,141.38a.38.38,0,0,1,.43.27,21.48,21.48,0,0,0,1,2.93.37.37,0,0,1-.2.49.39.39,0,0,1-.49-.21,22.81,22.81,0,0,1-1-3,.36.36,0,0,1,.26-.45Zm3.46,7.44a.37.37,0,0,1,.37.16,23.56,23.56,0,0,0,1.93,2.4.38.38,0,0,1,0,.53.37.37,0,0,1-.52,0,24,24,0,0,1-2-2.49.37.37,0,0,1,.09-.52Zm5.81,5.8a.33.33,0,0,1,.27.06,25.37,25.37,0,0,0,2.65,1.58.36.36,0,0,1,.16.5.36.36,0,0,1-.5.16,24.28,24.28,0,0,1-2.73-1.63.37.37,0,0,1-.09-.52A.3.3,0,0,1,122.68,154.62Zm7.45,3.42h.16a22.19,22.19,0,0,0,3,.58.37.37,0,1,1-.09.74,24,24,0,0,1-3.13-.6.37.37,0,0,1-.27-.45A.36.36,0,0,1,130.13,158Zm18.8-3.14a.41.41,0,0,1,.38.16.38.38,0,0,1-.11.52c-.47.31-1,.61-1.47.9s-.86.47-1.3.68a.37.37,0,0,1-.33-.67c.43-.21.85-.43,1.27-.66s1-.57,1.42-.87A.35.35,0,0,1,148.93,154.9Zm-10.62,3.79h0a22.17,22.17,0,0,0,3-.51.37.37,0,1,1,.17.73,23.37,23.37,0,0,1-3.14.52.37.37,0,0,1-.41-.33A.37.37,0,0,1,138.31,158.69Z"/><path class="cls-84" d="M112.65,134.84h.07a.38.38,0,0,1,.37.38c0,.49,0,1,0,1.47a.38.38,0,0,1-.36.38.37.37,0,0,1-.39-.36c0-.5,0-1,0-1.51A.37.37,0,0,1,112.65,134.84Z"/><path class="cls-85" d="M120.62,117.83a.39.39,0,0,1,.35.12.37.37,0,0,1,0,.52c-.37.33-.73.66-1.07,1a.37.37,0,0,1-.53,0,.38.38,0,0,1,0-.53c.35-.35.72-.69,1.1-1A.42.42,0,0,1,120.62,117.83Z"/><path class="cls-86" d="M132.36,112.33h0a23.35,23.35,0,0,1,3.12-.29.38.38,0,0,1,0,.75,22,22,0,0,0-3,.27.37.37,0,0,1-.42-.31A.36.36,0,0,1,132.36,112.33Zm-4.84,1.31a.37.37,0,0,1,.2.71,24.58,24.58,0,0,0-2.75,1.3.37.37,0,0,1-.5-.15.37.37,0,0,1,.14-.51,25.26,25.26,0,0,1,2.84-1.33Zm12.91-1.17a.33.33,0,0,1,.14,0,22.88,22.88,0,0,1,3,.79.37.37,0,0,1-.24.71,22.27,22.27,0,0,0-2.94-.77.38.38,0,0,1-.29-.44A.36.36,0,0,1,140.43,112.47Zm7.54,2.86a.4.4,0,0,1,.26,0,23.07,23.07,0,0,1,2.58,1.77.37.37,0,0,1-.46.59,21.31,21.31,0,0,0-2.5-1.72.37.37,0,0,1-.13-.51A.37.37,0,0,1,148,115.33Zm6.12,5.26a.36.36,0,0,1,.35.13,25.25,25.25,0,0,1,1.83,2.55.38.38,0,1,1-.64.4,21.77,21.77,0,0,0-1.76-2.48.37.37,0,0,1,0-.52A.38.38,0,0,1,154.09,120.59Zm4,7a.37.37,0,0,1,.41.24,23,23,0,0,1,.85,3,.37.37,0,1,1-.72.16,22.76,22.76,0,0,0-.83-2.93.36.36,0,0,1,.23-.47Z"/><path class="cls-87" d="M159.39,135.6h.07a.37.37,0,0,1,.37.38c0,.5,0,1-.06,1.51a.37.37,0,0,1-.74-.06c0-.48.05-1,.06-1.46A.37.37,0,0,1,159.39,135.6Z"/><path class="cls-88" d="M153.69,139.31a.27.27,0,0,0-.1-.31l-2.75-2a14.76,14.76,0,0,0-.42-4.8l2.35-2.48a.27.27,0,0,0,0-.32l-1.89-3.63a.28.28,0,0,0-.29-.15l-3.38.51a14.67,14.67,0,0,0-3.69-3.09l-.1-3.42a.28.28,0,0,0-.19-.26l-3.91-1.23a.29.29,0,0,0-.31.11L137,121a15,15,0,0,0-4.8.42L129.74,119a.29.29,0,0,0-.32,0l-3.63,1.9a.27.27,0,0,0-.15.29l.51,3.37a15,15,0,0,0-3.1,3.7l-3.41.09a.29.29,0,0,0-.26.2l-1.23,3.91a.31.31,0,0,0,.1.31l2.75,2a14.73,14.73,0,0,0,.42,4.8l-2.34,2.48a.29.29,0,0,0,0,.33l1.9,3.63a.28.28,0,0,0,.29.14l3.37-.5a14.75,14.75,0,0,0,3.7,3.09l.09,3.41a.27.27,0,0,0,.2.26l3.9,1.23a.27.27,0,0,0,.31-.1l2-2.74a15,15,0,0,0,4.8-.43l2.48,2.35a.27.27,0,0,0,.32,0l3.63-1.89a.28.28,0,0,0,.15-.29l-.5-3.38a14.88,14.88,0,0,0,3.09-3.69l3.41-.1a.27.27,0,0,0,.26-.19Z"/><path class="cls-29" d="M135.18,131.74a4.57,4.57,0,0,1,1-.05,4.15,4.15,0,0,1,2.89,1.39h0a4.19,4.19,0,1,1-5.92-.34A4.25,4.25,0,0,1,135.18,131.74Zm1.29,7.16a2.94,2.94,0,0,0,1.5-.73,3.09,3.09,0,0,0,.25-4.35h0a3.08,3.08,0,1,0-2.47,5.13A2.91,2.91,0,0,0,136.47,138.9Z"/><path class="cls-29" d="M134,125.58A10.46,10.46,0,0,1,145.09,131h0a10.75,10.75,0,0,1,.82,2.07l-1.08.3a8.9,8.9,0,0,0-.73-1.85h0a9.34,9.34,0,0,0-10.55-4.73,10.22,10.22,0,0,0-1.07.34l0,0-.08,0-.45.2-.32.15-.07,0a9.34,9.34,0,0,0-4.86,9.91,9.18,9.18,0,0,0,.91,2.67,9.32,9.32,0,0,0,16.21.56l.95.59a10.43,10.43,0,0,1-18.15-.64,10.44,10.44,0,0,1,7.42-15.1Z"/><path class="cls-29" d="M454.57,86.58l1.75.79a.55.55,0,0,0,.72-.28.54.54,0,0,0-.28-.72h0L455,85.59a.55.55,0,0,0-.72.28A.53.53,0,0,0,454.57,86.58Z"/><path class="cls-29" d="M460.3,89.3l1.7.89a.56.56,0,1,0,.51-1h0l-1.7-.88a.54.54,0,0,0-.74.23A.55.55,0,0,0,460.3,89.3Z"/><path class="cls-29" d="M465.85,92.36l1.64,1a.58.58,0,0,0,.79-.2.57.57,0,0,0-.2-.78h0l-1.64-1a.57.57,0,0,0-.59,1Z"/><path class="cls-29" d="M471.22,95.74l1.57,1.08a.58.58,0,0,0,.81-.15.57.57,0,0,0-.15-.81h0l-1.58-1.08a.58.58,0,0,0-.81.16A.57.57,0,0,0,471.22,95.74Z"/><path class="cls-29" d="M476.37,99.43l1.51,1.17a.6.6,0,0,0,.84-.11.59.59,0,0,0-.11-.83h0l-1.52-1.17a.59.59,0,0,0-.72.94Z"/><path class="cls-29" d="M481.3,103.41l1.45,1.25a.59.59,0,0,0,.85-.06.61.61,0,0,0-.06-.86h0l-1.45-1.25a.61.61,0,0,0-.79.92Z"/><path class="cls-29" d="M486,107.66l1.38,1.33a.61.61,0,0,0,.87,0,.62.62,0,0,0,0-.88h0l-1.38-1.33a.62.62,0,0,0-.86.89Z"/><path class="cls-29" d="M490.46,112.17l1.3,1.41a.63.63,0,1,0,.93-.86h0l-1.3-1.4a.63.63,0,0,0-.93.85Z"/><path class="cls-29" d="M494.66,116.92l1.22,1.48a.64.64,0,0,0,.91.09.66.66,0,0,0,.09-.91h0l-1.22-1.47a.64.64,0,0,0-.9-.09A.65.65,0,0,0,494.66,116.92Z"/><path class="cls-29" d="M498.6,121.9l1.13,1.54a.65.65,0,0,0,.92.14.66.66,0,0,0,.14-.92h0l-1.14-1.54a.66.66,0,0,0-.92-.13A.64.64,0,0,0,498.6,121.9Z"/><path class="cls-29" d="M502.24,127.08l1.05,1.61a.67.67,0,0,0,1.12-.73h0l-1.05-1.6a.67.67,0,0,0-.92-.19A.66.66,0,0,0,502.24,127.08Z"/><path class="cls-29" d="M505.6,132.46l.95,1.66a.69.69,0,0,0,1.19-.68h0l-1-1.66a.68.68,0,0,0-.93-.24A.67.67,0,0,0,505.6,132.46Z"/><path class="cls-29" d="M508.65,138l.86,1.71a.69.69,0,0,0,1.24-.62h0l-.87-1.7a.69.69,0,0,0-.92-.31A.7.7,0,0,0,508.65,138Z"/><path class="cls-29" d="M511.38,143.74l.76,1.75a.71.71,0,1,0,1.3-.56h0l-.76-1.75a.7.7,0,1,0-1.29.56Z"/><path class="cls-29" d="M513.78,149.6l.65,1.79a.73.73,0,0,0,.93.43.71.71,0,0,0,.42-.92h0l-.66-1.8a.72.72,0,0,0-1.34.5Z"/><path class="cls-29" d="M515.83,155.58l.55,1.83a.73.73,0,1,0,1.4-.42h0l-.56-1.83a.73.73,0,0,0-1.39.42Z"/><path class="cls-29" d="M517.52,161.68l.44,1.86a.74.74,0,0,0,1.45-.34h0l-.45-1.86a.74.74,0,0,0-1.44.34Z"/><path class="cls-29" d="M518.85,167.87l.32,1.88h0a.76.76,0,0,0,1.49-.26h0l-.33-1.89a.76.76,0,0,0-.87-.61A.75.75,0,0,0,518.85,167.87Z"/><path class="cls-29" d="M519.79,174.13,520,176a.76.76,0,0,0,.84.68.77.77,0,0,0,.68-.85h0l-.21-1.9a.78.78,0,0,0-.85-.68A.76.76,0,0,0,519.79,174.13Z"/><path class="cls-29" d="M520.35,180.43l.09,1.91a.78.78,0,0,0,1.56-.08h0l-.1-1.91a.77.77,0,0,0-.82-.73A.76.76,0,0,0,520.35,180.43Z"/><path class="cls-29" d="M520.54,186.75l0,1.91a.78.78,0,1,0,1.56,0h0l0-1.91a.78.78,0,0,0-.78-.78A.77.77,0,0,0,520.54,186.75Z"/><path class="cls-29" d="M520.35,193.07l-.12,1.91a.79.79,0,1,0,1.57.1h0l.12-1.9a.79.79,0,0,0-1.57-.11Z"/><path class="cls-29" d="M519.81,199.38l-.24,1.89a.81.81,0,0,0,.69.89.8.8,0,0,0,.88-.69h0l.24-1.9a.79.79,0,1,0-1.57-.19Z"/><path class="cls-29" d="M518.91,205.64l-.35,1.88a.81.81,0,0,0,.64.93.8.8,0,0,0,.93-.64h0l.34-1.89a.79.79,0,0,0-1.56-.28Z"/><path class="cls-29" d="M517.65,211.85l-.44,1.86a.8.8,0,0,0,1.55.37h0l.44-1.86a.79.79,0,0,0-.59-1A.8.8,0,0,0,517.65,211.85Z"/><path class="cls-29" d="M516.06,218l-.55,1.83a.8.8,0,0,0,1.54.46h0l.54-1.83a.8.8,0,1,0-1.53-.46Z"/><path class="cls-29" d="M514.12,224l-.65,1.8a.81.81,0,0,0,1.52.54h0l.65-1.8a.81.81,0,1,0-1.52-.54Z"/><path class="cls-29" d="M511.86,229.92l-.75,1.76a.82.82,0,0,0,1.5.64h0l.74-1.76a.81.81,0,1,0-1.49-.63Z"/><path class="cls-29" d="M509.27,235.7l-.84,1.71a.81.81,0,1,0,1.46.72h0l.84-1.71a.81.81,0,0,0-1.46-.72Z"/><path class="cls-29" d="M506.37,241.32l-.94,1.67a.81.81,0,0,0,.31,1.12.83.83,0,0,0,1.12-.32h0l.93-1.66a.83.83,0,0,0-.31-1.12A.82.82,0,0,0,506.37,241.32Z"/><path class="cls-29" d="M503.15,246.77l-1,1.61a.83.83,0,1,0,1.39.89h0l1-1.61a.83.83,0,0,0-1.39-.89Z"/><path class="cls-29" d="M499.63,252l-1.12,1.55a.82.82,0,0,0,.18,1.15.83.83,0,0,0,1.16-.18h0L501,253a.83.83,0,0,0-1.34-1Z"/><path class="cls-29" d="M495.81,257.07l-1.21,1.48a.83.83,0,0,0,.12,1.17.84.84,0,0,0,1.17-.11h0l1.21-1.48a.83.83,0,0,0-1.29-1.05Z"/><path class="cls-29" d="M491.71,261.88l-1.3,1.4a.85.85,0,0,0,0,1.19.84.84,0,0,0,1.18-.05h0l1.3-1.41a.84.84,0,1,0-1.23-1.13Z"/><path class="cls-29" d="M487.32,266.43l-1.38,1.32a.84.84,0,0,0,0,1.19.83.83,0,0,0,1.18,0h0l1.37-1.33a.84.84,0,0,0,0-1.19A.85.85,0,0,0,487.32,266.43Z"/><path class="cls-29" d="M482.67,270.71,481.21,272a.84.84,0,0,0-.1,1.19.85.85,0,0,0,1.19.1h0l1.45-1.24a.84.84,0,0,0-1.09-1.28Z"/><path class="cls-29" d="M477.77,274.71l-1.53,1.15a.85.85,0,0,0,1,1.36h0l1.52-1.16a.85.85,0,0,0-1-1.35Z"/><path class="cls-29" d="M472.65,278.43l-1.59,1.07a.85.85,0,1,0,.95,1.41h0l1.59-1.07a.85.85,0,0,0,.23-1.18A.84.84,0,0,0,472.65,278.43Z"/><path class="cls-29" d="M467.33,281.86l-1.64,1a.86.86,0,1,0,.88,1.47h0l1.64-1a.86.86,0,0,0-.88-1.47Z"/><path class="cls-29" d="M461.84,285l-1.69.89a.86.86,0,0,0,.8,1.52h0l1.69-.89a.87.87,0,0,0,.36-1.17A.85.85,0,0,0,461.84,285Z"/><path class="cls-29" d="M456.19,287.86l-1.74.81a.87.87,0,0,0,.73,1.57h0l1.73-.81a.87.87,0,1,0-.73-1.57Z"/><path class="cls-29" d="M450.4,290.44l-1.77.72a.87.87,0,1,0,.66,1.61h0l1.77-.72a.87.87,0,0,0,.47-1.14A.86.86,0,0,0,450.4,290.44Z"/><path class="cls-29" d="M444.5,292.73l-1.81.63a.88.88,0,1,0,.59,1.65h0l1.8-.64a.87.87,0,0,0-.58-1.64Z"/><path class="cls-29" d="M438.49,294.74l-1.83.55a.88.88,0,1,0,.51,1.68h0l1.83-.55a.88.88,0,0,0-.51-1.68Z"/><path class="cls-29" d="M432.4,296.47l-1.85.48a.88.88,0,1,0,.43,1.71h0l1.86-.48a.88.88,0,0,0-.44-1.71Z"/><path class="cls-29" d="M426.23,297.94l-1.87.39a.89.89,0,0,0,.36,1.74h0l1.88-.4a.88.88,0,0,0,.68-1A.89.89,0,0,0,426.23,297.94Z"/><path class="cls-29" d="M420,299.14l-1.89.3a.89.89,0,1,0,.29,1.76h0l1.89-.31a.89.89,0,1,0-.29-1.75Z"/><path class="cls-29" d="M413.74,300.07l-1.9.22a.91.91,0,0,0-.79,1,.9.9,0,0,0,1,.78h0l1.9-.23a.89.89,0,1,0-.21-1.77Z"/><path class="cls-29" d="M407.43,300.73l-1.91.15a.9.9,0,0,0-.82,1,.91.91,0,0,0,1,.83h0l1.9-.16a.9.9,0,1,0-.14-1.79Z"/><path class="cls-29" d="M401.1,301.14l-1.91.07a.9.9,0,1,0,.07,1.8h0l1.91-.07a.9.9,0,1,0-.07-1.8Z"/><path class="cls-29" d="M394.77,301.28h-1.91a.91.91,0,1,0,0,1.82h1.91a.91.91,0,0,0,0-1.82Z"/><path class="cls-29" d="M388.43,301.19l-1.91-.08a.92.92,0,1,0-.07,1.83h0l1.91.07a.91.91,0,1,0,.07-1.82Z"/><path class="cls-29" d="M382.1,300.86l-1.91-.14a.9.9,0,0,0-1,.84.92.92,0,0,0,.84,1h0l1.91.14a.92.92,0,0,0,.14-1.83Z"/><path class="cls-29" d="M375.78,300.31l-1.9-.21a.92.92,0,1,0-.2,1.83h0l1.9.21a.92.92,0,0,0,.2-1.83Z"/><path class="cls-29" d="M369.48,299.54l-1.89-.27a.92.92,0,0,0-.27,1.83h0l1.89.27a.92.92,0,0,0,.26-1.83Z"/><path class="cls-29" d="M363.21,298.57l-1.88-.33a.93.93,0,0,0-.33,1.83h0l1.89.33a.93.93,0,0,0,.32-1.83Z"/><path class="cls-29" d="M357,297.4,355.1,297a.93.93,0,1,0-.38,1.82h0l1.87.39a.93.93,0,0,0,.38-1.83Z"/><path class="cls-29" d="M350.77,296.05l-1.86-.44a.94.94,0,1,0-.43,1.82h0l1.86.44a.94.94,0,0,0,.43-1.82Z"/><path class="cls-29" d="M344.61,294.52l-1.85-.49a.94.94,0,1,0-.48,1.82h0l1.84.49a.94.94,0,0,0,.49-1.82Z"/><path class="cls-29" d="M338.49,292.82l-1.83-.54a.95.95,0,0,0-.54,1.82h0l1.84.54a.95.95,0,0,0,.53-1.82Z"/><path class="cls-29" d="M332.42,291l-1.82-.59a1,1,0,0,0-.59,1.81h0l1.82.58a.95.95,0,1,0,.59-1.8Z"/><path class="cls-29" d="M326.39,289l-1.81-.63a1,1,0,1,0-.63,1.8h0l1.81.63a1,1,0,0,0,.63-1.8Z"/><path class="cls-29" d="M320.41,286.81l-1.79-.67a1,1,0,0,0-1.24.56,1,1,0,0,0,.56,1.23h0l1.79.67a1,1,0,1,0,.68-1.79Z"/><path class="cls-29" d="M314.48,284.53l-1.78-.71a1,1,0,1,0-.72,1.78h0l1.78.71a1,1,0,0,0,.72-1.78Z"/><path class="cls-29" d="M308.59,282.12l-1.75-.75h0a1,1,0,1,0-.76,1.78h0l1.76.74a1,1,0,1,0,.75-1.77Z"/><path class="cls-29" d="M302.76,279.59l-1.74-.78a1,1,0,1,0-.8,1.77h0l1.75.78a1,1,0,0,0,.79-1.77Z"/><path class="cls-29" d="M297,277l-1.73-.81a1,1,0,0,0-.83,1.77h0l1.73.8A1,1,0,1,0,297,277Z"/><path class="cls-29" d="M291.22,274.24l-1.72-.83a1,1,0,1,0-.86,1.76h0l1.72.83a1,1,0,1,0,.85-1.76Z"/><path class="cls-29" d="M285.49,271.45l-1.71-.85a1,1,0,0,0-.87,1.77h0l1.71.84a1,1,0,1,0,.87-1.76Z"/><path class="cls-29" d="M279.79,268.61l-1.71-.86a1,1,0,1,0-.89,1.77h0l1.72.86a1,1,0,0,0,.88-1.77Z"/><path class="cls-29" d="M274.1,265.74l-1.7-.87a1,1,0,1,0-.9,1.77h0l1.71.86a1,1,0,1,0,.89-1.76Z"/><path class="cls-29" d="M268.42,262.84l-1.7-.87a1,1,0,0,0-1.34.43,1,1,0,0,0,.43,1.35h0l1.71.86a1,1,0,1,0,.9-1.77Z"/><path class="cls-29" d="M262.74,259.94l-1.7-.87a1,1,0,0,0-.91,1.79h0l1.71.86a1,1,0,0,0,.9-1.78Z"/><path class="cls-29" d="M257.05,257.05l-1.71-.86a1,1,0,0,0-.9,1.8h0l1.71.86a1,1,0,0,0,1.35-.45A1,1,0,0,0,257.05,257.05Z"/><path class="cls-29" d="M251.34,254.19l-1.71-.85a1,1,0,0,0-.9,1.81h0l1.72.85a1,1,0,1,0,.89-1.81Z"/><path class="cls-29" d="M245.61,251.38l-1.73-.83a1,1,0,1,0-.87,1.81l1.72.83a1,1,0,1,0,.88-1.81Z"/><path class="cls-29" d="M239.84,248.63l-1.74-.81a1,1,0,0,0-.84,1.81l1.73.81a1,1,0,1,0,.85-1.81Z"/><path class="cls-29" d="M234,246l-1.75-.78a1,1,0,0,0-1.3.49,1,1,0,0,0,.5,1.31l1.74.78a1,1,0,0,0,1.31-.49A1,1,0,0,0,234,246Z"/><path class="cls-29" d="M228.18,243.39l-1.76-.74a1,1,0,0,0-.77,1.8l1.76.75a1,1,0,0,0,1.29-.52,1,1,0,0,0-.52-1.28Z"/><path class="cls-29" d="M222.28,240.94l-1.78-.71a1,1,0,1,0-.72,1.79l1.77.72a1,1,0,0,0,1.27-.54,1,1,0,0,0-.54-1.26Z"/><path class="cls-29" d="M216.32,238.61l-1.8-.67a1,1,0,0,0-1.23.56,1,1,0,0,0,.56,1.24l1.79.67h0a1,1,0,1,0,.67-1.8Z"/><path class="cls-29" d="M210.29,236.43l-1.81-.61a.93.93,0,0,0-1.2.59,1,1,0,0,0,.59,1.21l1.81.62a1,1,0,0,0,.62-1.81Z"/><path class="cls-29" d="M204.21,234.44l-1.83-.56a.94.94,0,1,0-.55,1.8l1.82.56a.94.94,0,0,0,.56-1.8Z"/><path class="cls-29" d="M198.06,232.63l-1.85-.49a.93.93,0,1,0-.48,1.79l1.84.51a.94.94,0,0,0,1.15-.66.93.93,0,0,0-.66-1.14Z"/><path class="cls-29" d="M191.86,231,190,230.6a.92.92,0,0,0-.42,1.8l1.86.44a.93.93,0,1,0,.43-1.8Z"/><path class="cls-29" d="M185.6,229.66l-1.88-.37a.92.92,0,0,0-1.07.72.9.9,0,0,0,.72,1.07l1.87.38a.93.93,0,0,0,1.08-.72.91.91,0,0,0-.72-1.08Z"/><path class="cls-29" d="M179.29,228.52l-1.89-.3a.91.91,0,0,0-.28,1.79l1.89.3a.92.92,0,0,0,1-.76.9.9,0,0,0-.76-1Z"/><path class="cls-29" d="M172.94,227.63l-1.9-.22a.9.9,0,1,0-.2,1.78l1.9.22a.9.9,0,0,0,.2-1.78Z"/><path class="cls-29" d="M166.55,227l-1.91-.13a.89.89,0,0,0-.12,1.77l1.91.13a.89.89,0,0,0,.13-1.77Z"/><path class="cls-29" d="M160.14,226.69l-1.91,0a.88.88,0,0,0,0,1.75l1.91,0a.88.88,0,1,0,0-1.75Z"/><path class="cls-29" d="M153.72,226.68l-1.91.06a.87.87,0,1,0,.06,1.73l1.91-.05a.87.87,0,0,0,.84-.9.86.86,0,0,0-.89-.84Z"/><path class="cls-29" d="M147.31,227l-1.9.16a.86.86,0,0,0,.14,1.71l1.91-.16a.86.86,0,1,0-.15-1.71Z"/><path class="cls-29" d="M140.92,227.69,139,228a.85.85,0,1,0,.24,1.68l1.9-.27a.85.85,0,0,0-.24-1.69Z"/><path class="cls-29" d="M134.59,228.76l-1.88.39a.84.84,0,1,0,.35,1.64l1.87-.39a.84.84,0,1,0-.34-1.64Z"/><path class="cls-29" d="M128.32,230.22l-1.84.51a.83.83,0,0,0,.44,1.6l1.85-.51a.83.83,0,0,0,.58-1,.82.82,0,0,0-1-.58Z"/><path class="cls-29" d="M122.17,232.08l-1.8.64a.82.82,0,0,0,.54,1.55l1.81-.63a.83.83,0,0,0-.55-1.56Z"/><path class="cls-29" d="M116.15,234.37l-1.75.76a.81.81,0,0,0,.65,1.49l1.75-.76a.82.82,0,1,0-.64-1.5Z"/><path class="cls-29" d="M110.33,237.11l-1.69.91a.81.81,0,0,0-.32,1.09.8.8,0,0,0,1.09.32l1.68-.9a.81.81,0,0,0-.76-1.42Z"/><path class="cls-29" d="M104.76,240.37l-1.59,1.07a.8.8,0,0,0,.89,1.32l1.59-1.07a.8.8,0,0,0-.89-1.32Z"/><path class="cls-29" d="M99.55,244.19l-1.46,1.24a.78.78,0,1,0,1,1.19l1.46-1.23a.79.79,0,0,0,.09-1.11.78.78,0,0,0-1.1-.09Z"/><path class="cls-29" d="M94.81,248.61,93.54,250a.76.76,0,1,0,1.13,1L96,249.65a.77.77,0,0,0-1.14-1Z"/><path class="cls-29" d="M90.75,253.66l-1,1.6a.73.73,0,0,0,.22,1,.72.72,0,0,0,1-.21L92,254.48a.74.74,0,1,0-1.24-.82Z"/><path class="cls-29" d="M87.53,259.29l-.39.87-.38.9a.71.71,0,0,0,1.31.55l.37-.86.4-.87a.73.73,0,0,0-.36-.95.71.71,0,0,0-1,.35Z"/><path class="cls-29" d="M85.4,265.45,85,267.33a.68.68,0,0,0,1.34.27l.39-1.87a.69.69,0,1,0-1.35-.28Z"/><path class="cls-29" d="M84.56,271.9v1.91a.65.65,0,0,0,.65.66.66.66,0,0,0,.66-.65l0-1.91a.67.67,0,1,0-1.33,0Z"/><path class="cls-29" d="M85,278.38l.37,1.87a.63.63,0,0,0,.74.5.64.64,0,0,0,.5-.74l-.36-1.88a.64.64,0,0,0-1.25.24Z"/><path class="cls-29" d="M86.72,284.64l.77,1.75a.59.59,0,0,0,.79.31.6.6,0,0,0,.32-.79l-.76-1.75a.61.61,0,0,0-.8-.33.62.62,0,0,0-.32.81Z"/><path class="cls-29" d="M89.83,290.36,91,291.87a.58.58,0,0,0,.91-.71l-1.16-1.52a.59.59,0,0,0-.82-.1.57.57,0,0,0-.11.81Z"/><path class="cls-29" d="M94.33,295.07l1.55,1.12a.55.55,0,0,0,.77-.13.55.55,0,0,0-.12-.76L95,294.17a.56.56,0,0,0-.65.9Z"/><circle class="cls-89" cx="486.45" cy="57.74" r="28.99" transform="translate(358.69 530.64) rotate(-81.65)"/><circle class="cls-90" cx="486.45" cy="57.74" r="28.03" transform="translate(358.69 530.64) rotate(-81.65)"/><path class="cls-29" d="M463.34,47a.79.79,0,0,1-.4-.1.89.89,0,0,1-.4-1.2A26.85,26.85,0,0,1,491.28,31.4a.9.9,0,0,1-.32,1.77,25.22,25.22,0,0,0-4.51-.41A24.87,24.87,0,0,0,464.14,46.5.9.9,0,0,1,463.34,47Z"/><circle class="cls-91" cx="487.06" cy="58.35" r="23.72" transform="translate(351.45 529.77) rotate(-80.78)"/><path class="cls-92" d="M484.73,76V73.4a21,21,0,0,1-7.24-1.57,1.49,1.49,0,0,1-.82-1.76l.65-2.41a1.5,1.5,0,0,1,2-1,17.61,17.61,0,0,0,6.69,1.4c2.59,0,4.52-.87,4.52-2.67,0-1.63-1.49-2.6-5.09-3.56-5.14-1.41-8.83-3.65-8.83-8.17,0-4.08,3-7.2,8.17-8V43.06a1.5,1.5,0,0,1,1.5-1.5h1.52a1.5,1.5,0,0,1,1.5,1.5v2.32a19.07,19.07,0,0,1,5.74,1,1.5,1.5,0,0,1,.94,1.81l-.61,2.22a1.48,1.48,0,0,1-2,1,15.72,15.72,0,0,0-5.63-1c-3.08,0-4,1.27-4,2.42,0,1.4,1.85,2.37,5.84,3.6,5.71,1.71,8.09,4.08,8.09,8.34,0,3.91-2.9,7.42-8.52,8.3V76a1.51,1.51,0,0,1-1.51,1.5h-1.51A1.51,1.51,0,0,1,484.73,76Z"/><circle class="cls-93" cx="443.92" cy="97.71" r="22.65" transform="translate(246.83 507.31) rotate(-76.72)"/><circle class="cls-94" cx="443.92" cy="97.71" r="21.89" transform="translate(256.18 511.68) rotate(-78.02)"/><path class="cls-29" d="M425.87,89.32a.76.76,0,0,1-.32-.08.71.71,0,0,1-.31-.94,20.84,20.84,0,0,1,18.68-11.5,21.49,21.49,0,0,1,3.77.34.7.7,0,1,1-.25,1.38A19.51,19.51,0,0,0,426.5,88.93.7.7,0,0,1,425.87,89.32Z"/><circle class="cls-91" cx="444.4" cy="98.19" r="18.53" transform="translate(268.49 517.94) rotate(-79.72)"/><path class="cls-95" d="M442.58,112v-2a16.42,16.42,0,0,1-5.65-1.23,1.17,1.17,0,0,1-.65-1.38l.51-1.87a1.18,1.18,0,0,1,1.6-.77,13.69,13.69,0,0,0,5.22,1.1c2,0,3.53-.69,3.53-2.1s-1.16-2-4-2.77c-4-1.1-6.89-2.85-6.89-6.39,0-3.19,2.33-5.62,6.38-6.27v-2a1.17,1.17,0,0,1,1.17-1.17H445a1.17,1.17,0,0,1,1.17,1.17v1.81a14.93,14.93,0,0,1,4.49.81,1.17,1.17,0,0,1,.73,1.41L450.93,92a1.17,1.17,0,0,1-1.55.79A12.28,12.28,0,0,0,445,92c-2.4,0-3.08,1-3.08,1.88,0,1.1,1.44,1.86,4.56,2.82,4.46,1.33,6.31,3.19,6.31,6.51,0,3.06-2.26,5.8-6.65,6.49V112a1.18,1.18,0,0,1-1.18,1.18h-1.18A1.18,1.18,0,0,1,442.58,112Z"/><circle class="cls-96" cx="491.41" cy="123.16" r="19.18" transform="translate(301.29 592.74) rotate(-82.03)"/><circle class="cls-97" cx="491.41" cy="123.16" r="18.54" transform="translate(301.29 592.74) rotate(-82.03)"/><path class="cls-29" d="M476.12,116.05a.58.58,0,0,1-.26-.06.6.6,0,0,1-.27-.8,17.65,17.65,0,0,1,15.82-9.74,18,18,0,0,1,3.2.29.6.6,0,0,1,.48.69.59.59,0,0,1-.69.47,17.49,17.49,0,0,0-3-.26,16.46,16.46,0,0,0-14.76,9.08A.58.58,0,0,1,476.12,116.05Z"/><circle class="cls-91" cx="491.82" cy="123.56" r="15.69" transform="translate(291.07 589.24) rotate(-80.78)"/><path class="cls-98" d="M490.28,135.23v-1.71a13.83,13.83,0,0,1-4.79-1,1,1,0,0,1-.55-1.16l.43-1.59a1,1,0,0,1,1.36-.65,11.55,11.55,0,0,0,4.42.93c1.71,0,3-.58,3-1.78s-1-1.71-3.37-2.35c-3.4-.93-5.84-2.41-5.84-5.4,0-2.71,2-4.77,5.41-5.32v-1.71a1,1,0,0,1,1-1h1a1,1,0,0,1,1,1V115a12.6,12.6,0,0,1,3.8.69,1,1,0,0,1,.62,1.19l-.4,1.47A1,1,0,0,1,496,119a10.46,10.46,0,0,0-3.73-.67c-2,0-2.61.84-2.61,1.59,0,.93,1.22,1.57,3.86,2.39,3.78,1.13,5.35,2.7,5.35,5.52,0,2.58-1.92,4.91-5.64,5.49v1.91a1,1,0,0,1-1,1h-1A1,1,0,0,1,490.28,135.23Z"/><path class="cls-99" d="M399.66,54.55c-2.49-3.56-6.21-5-9.85-4-4,1.16-6.21,5.6-9.9,7.38-6.45,3.1-15.36-3-20.25,5C353.67,72.71,349,65.38,349,72s41.36,1.75,61.77,2.1c2.94,0,15.74-.2,10.23-7.37-1.71-2.23-4.15-2.6-6.42-3.12-3-.68-10-1-12.18-3.76-1.15-1.45-1.6-3.55-2.64-5.1C399.75,54.69,399.7,54.62,399.66,54.55Z"/><path class="cls-99" d="M195.7,86.82a5.29,5.29,0,0,0-5.91-2.38c-2.39.7-3.74,3.37-5.95,4.44-3.88,1.86-9.23-1.82-12.17,3-3.6,5.87-6.37,1.47-6.37,5.45s24.84,1,37.1,1.26c1.77,0,9.46-.12,6.15-4.43-1-1.33-2.49-1.56-3.86-1.87-1.78-.41-6-.63-7.31-2.26-.7-.87-1-2.13-1.59-3.06Z"/></g></g></g></svg>