<svg xmlns="http://www.w3.org/2000/svg" xmlns:xlink="http://www.w3.org/1999/xlink" viewBox="0 0 1931.74 1056.38"><defs><style>.cls-1{fill:url(#Gradiente_sem_nome_13);}.cls-2{fill:url(#Gradiente_sem_nome_12);}.cls-3{opacity:0.5;fill:url(#Gradiente_sem_nome_8);}.cls-4{fill:none;}.cls-5{isolation:isolate;}.cls-6{fill:#fff;}.cls-7{mask:url(#mask);}.cls-37,.cls-8{fill:#f0d2e6;}.cls-8{opacity:0.2;}.cls-9{mask:url(#mask-2);}.cls-10{fill:#ccf0ee;opacity:0.3;}.cls-11{mask:url(#mask-3);}.cls-12{opacity:0.4;}.cls-13{fill:#99e1dd;}.cls-14{fill:#9de0dd;}.cls-15{fill:#a0e0de;}.cls-16{fill:#a4dfde;}.cls-17{fill:#a8dedf;}.cls-18{fill:#abdedf;}.cls-19{fill:#afdddf;}.cls-20{fill:#b2dde0;}.cls-21{fill:#b6dce0;}.cls-22{fill:#badbe0;}.cls-23{fill:#bddbe1;}.cls-24{fill:#c1dae1;}.cls-25{fill:#c5d9e2;}.cls-26{fill:#c8d9e2;}.cls-27{fill:#ccd8e2;}.cls-28{fill:#cfd8e3;}.cls-29{fill:#d3d7e3;}.cls-30{fill:#d7d6e3;}.cls-31{fill:#dad6e4;}.cls-32{fill:#ded5e4;}.cls-33{fill:#e2d4e5;}.cls-34{fill:#e5d4e5;}.cls-35{fill:#e9d3e5;}.cls-36{fill:#ecd3e6;}.cls-38{opacity:0.35;}.cls-39{fill:#00b4aa;}.cls-40,.cls-41{fill:#2a2a3d;}.cls-41{mix-blend-mode:multiply;}.cls-42{fill:#fcfcfc;}.cls-43{fill:#ff7069;}.cls-44{fill:#db9c7d;}.cls-45{fill:#ef5050;}.cls-46{fill:#151521;}.cls-47{fill:#ffad80;}.cls-48{fill:#ddd;}.cls-49{fill:#e84683;}.cls-50{fill:#ef6aa0;}.cls-51{fill:#42b4e4;}.cls-52{fill:#5b2d84;}.cls-53{clip-path:url(#clip-path);}.cls-54{fill:#6c4c8e;}.cls-55{fill:#b51e84;}</style><linearGradient id="Gradiente_sem_nome_13" x1="-1" y1="787.93" x2="1243" y2="787.93" gradientUnits="userSpaceOnUse"><stop offset="0" stop-color="#fff"/><stop offset="0.22" stop-color="#c4c4c4"/><stop offset="0.76" stop-color="#383838"/><stop offset="1"/></linearGradient><linearGradient id="Gradiente_sem_nome_12" x1="1931.74" y1="655.62" x2="1" y2="655.62" gradientUnits="userSpaceOnUse"><stop offset="0" stop-color="#fff"/><stop offset="0.2" stop-color="#fcfcfc"/><stop offset="0.33" stop-color="#f3f3f3"/><stop offset="0.45" stop-color="#e4e4e4"/><stop offset="0.55" stop-color="#cecece"/><stop offset="0.65" stop-color="#b2b2b2"/><stop offset="0.74" stop-color="#909090"/><stop offset="0.83" stop-color="#676767"/><stop offset="0.91" stop-color="#383838"/><stop offset="0.99" stop-color="#040404"/><stop offset="1"/></linearGradient><linearGradient id="Gradiente_sem_nome_8" x1="11716.8" y1="-1854.74" x2="11716.8" y2="-2934.74" gradientTransform="translate(-11673.93 2923.65)" gradientUnits="userSpaceOnUse"><stop offset="0" stop-color="#fff"/><stop offset="0.02" stop-color="#f6f6f6"/><stop offset="0.18" stop-color="#b6b6b6"/><stop offset="0.34" stop-color="#7e7e7e"/><stop offset="0.49" stop-color="#515151"/><stop offset="0.64" stop-color="#2e2e2e"/><stop offset="0.78" stop-color="#151515"/><stop offset="0.9" stop-color="#050505"/><stop offset="1"/></linearGradient><mask id="mask" x="-1" y="519.85" width="1245" height="536.15" maskUnits="userSpaceOnUse"><rect class="cls-1" x="-1" y="519.85" width="1244" height="536.15"/></mask><mask id="mask-2" x="1" y="255.24" width="1930.74" height="800.76" maskUnits="userSpaceOnUse"><rect class="cls-2" x="1" y="255.24" width="1930.74" height="800.76"/></mask><mask id="mask-3" x="-43.51" y="-11.09" width="172.76" height="1080" maskUnits="userSpaceOnUse"><rect class="cls-3" x="-43.51" y="-11.09" width="172.76" height="1080" transform="translate(85.75 1057.82) rotate(180)"/></mask><clipPath id="clip-path"><path class="cls-4" d="M1422.52,914.36c-8.13,6.33-31.49,16.49-58.77,27.15l13.76,114.21H1120.77l11-208.42s-73.71,45.93-107,42.25-52.36-132.42-52.36-132.42l5.57-1.46,49.35-12.92,9.38-2.46,17,48.68s95.77-111.14,104.49-119,81.16-11.15,82.69-11.22l-1.17,6.4s5.29,44.44,9.42,48.92,80.61-59.25,80.61-59.25,62,15.38,71.19,34S1446.41,895.76,1422.52,914.36Z"/></clipPath></defs><g class="cls-5"><g id="Camada_2" data-name="Camada 2"><g id="Camada_4" data-name="Camada 4"><rect class="cls-6" width="1931.74" height="1056"/><g class="cls-7"><path class="cls-8" d="M1244,1056H0V569.18C186.85,928.1,679.15,1023.36,1244,1056Z"/></g><g class="cls-9"><path class="cls-10" d="M1,569.65V1056H1931.74V328.92C1642,245.52,1009.15,910.36,1,569.65Z"/></g><g class="cls-11"><g class="cls-12"><circle class="cls-13" cx="100.98" cy="20.05" r="14.13"/><circle class="cls-13" cx="61.13" cy="20.05" r="14.13"/><circle class="cls-13" cx="21.27" cy="20.05" r="14.13"/><circle class="cls-14" cx="100.98" cy="62.45" r="14.13"/><circle class="cls-14" cx="61.13" cy="62.45" r="14.13"/><circle class="cls-14" cx="21.27" cy="62.45" r="14.13"/><circle class="cls-15" cx="100.98" cy="104.86" r="14.13"/><circle class="cls-15" cx="61.13" cy="104.86" r="14.13"/><circle class="cls-15" cx="21.27" cy="104.86" r="14.13"/><circle class="cls-16" cx="100.98" cy="147.26" r="14.13"/><circle class="cls-16" cx="61.13" cy="147.26" r="14.13"/><circle class="cls-16" cx="21.27" cy="147.26" r="14.13"/><circle class="cls-17" cx="100.98" cy="189.67" r="14.13"/><circle class="cls-17" cx="61.13" cy="189.67" r="14.13"/><circle class="cls-17" cx="21.27" cy="189.67" r="14.13"/><circle class="cls-18" cx="100.98" cy="232.07" r="14.13"/><circle class="cls-18" cx="61.13" cy="232.07" r="14.13"/><circle class="cls-18" cx="21.27" cy="232.07" r="14.13"/><circle class="cls-19" cx="100.98" cy="274.48" r="14.13"/><circle class="cls-19" cx="61.13" cy="274.48" r="14.13"/><circle class="cls-19" cx="21.27" cy="274.48" r="14.13"/><circle class="cls-20" cx="100.98" cy="316.88" r="14.13"/><circle class="cls-20" cx="61.13" cy="316.88" r="14.13"/><circle class="cls-20" cx="21.27" cy="316.88" r="14.13"/><circle class="cls-21" cx="100.98" cy="359.29" r="14.13"/><circle class="cls-21" cx="61.13" cy="359.29" r="14.13"/><circle class="cls-21" cx="21.27" cy="359.29" r="14.13"/><circle class="cls-22" cx="100.98" cy="401.69" r="14.13"/><circle class="cls-22" cx="61.13" cy="401.69" r="14.13"/><circle class="cls-22" cx="21.27" cy="401.69" r="14.13"/><circle class="cls-23" cx="100.98" cy="444.1" r="14.13"/><circle class="cls-23" cx="61.13" cy="444.1" r="14.13"/><circle class="cls-23" cx="21.27" cy="444.1" r="14.13"/><circle class="cls-24" cx="100.98" cy="486.5" r="14.13"/><circle class="cls-24" cx="61.13" cy="486.5" r="14.13"/><circle class="cls-24" cx="21.27" cy="486.5" r="14.13"/><circle class="cls-25" cx="100.98" cy="528.91" r="14.13"/><circle class="cls-25" cx="61.13" cy="528.91" r="14.13"/><circle class="cls-25" cx="21.27" cy="528.91" r="14.13"/><circle class="cls-26" cx="100.98" cy="571.31" r="14.13"/><circle class="cls-26" cx="61.13" cy="571.31" r="14.13"/><circle class="cls-26" cx="21.27" cy="571.31" r="14.13"/><circle class="cls-27" cx="100.98" cy="613.72" r="14.13"/><circle class="cls-27" cx="61.13" cy="613.72" r="14.13"/><circle class="cls-27" cx="21.27" cy="613.72" r="14.13"/><circle class="cls-28" cx="100.98" cy="656.12" r="14.13"/><circle class="cls-28" cx="61.13" cy="656.12" r="14.13"/><circle class="cls-28" cx="21.27" cy="656.12" r="14.13"/><circle class="cls-29" cx="100.98" cy="698.53" r="14.13"/><circle class="cls-29" cx="61.13" cy="698.53" r="14.13"/><circle class="cls-29" cx="21.27" cy="698.53" r="14.13"/><circle class="cls-30" cx="100.98" cy="740.93" r="14.13"/><circle class="cls-30" cx="61.13" cy="740.93" r="14.13"/><circle class="cls-30" cx="21.27" cy="740.93" r="14.13"/><circle class="cls-31" cx="100.98" cy="783.34" r="14.13"/><circle class="cls-31" cx="61.13" cy="783.34" r="14.13"/><circle class="cls-31" cx="21.27" cy="783.34" r="14.13"/><circle class="cls-32" cx="100.98" cy="825.74" r="14.13"/><circle class="cls-32" cx="61.13" cy="825.74" r="14.13"/><circle class="cls-32" cx="21.27" cy="825.74" r="14.13"/><circle class="cls-33" cx="100.98" cy="868.15" r="14.13"/><circle class="cls-33" cx="61.13" cy="868.15" r="14.13"/><circle class="cls-33" cx="21.27" cy="868.15" r="14.13"/><circle class="cls-34" cx="100.98" cy="910.55" r="14.13"/><circle class="cls-34" cx="61.13" cy="910.55" r="14.13"/><circle class="cls-34" cx="21.27" cy="910.55" r="14.13"/><circle class="cls-35" cx="100.98" cy="952.96" r="14.13"/><circle class="cls-35" cx="61.13" cy="952.96" r="14.13"/><circle class="cls-35" cx="21.27" cy="952.96" r="14.13"/><circle class="cls-36" cx="100.98" cy="995.36" r="14.13"/><circle class="cls-36" cx="61.13" cy="995.36" r="14.13"/><circle class="cls-36" cx="21.27" cy="995.36" r="14.13"/><circle class="cls-37" cx="100.98" cy="1037.77" r="14.13"/><circle class="cls-37" cx="61.13" cy="1037.77" r="14.13"/><circle class="cls-37" cx="21.27" cy="1037.77" r="14.13"/></g></g><g class="cls-38"><path class="cls-39" d="M1869.64,663c-20.84-5.9-51.64-9.28-77.39-3.21a78,78,0,0,0-5.49-18.76c-13.17-30.49-42.38-49.94-73.59-58.52-87.28-24-163.11,37.74-235,76.82-43.56,23.65-95,44.1-145.39,33.21-33-7.12-64.4-31.93-77.24-63.81,22.22-3.43,43.31-12.17,55-30.26,14.56-22.45,1.52-63-30.21-55.2-33.93,8.36-40.87,52-31.9,80.75a177.3,177.3,0,0,1-62.22-3.61c-96.76-22.6-159.34-104.79-218.35-178.07-27-33.57-54.66-70-91.46-93.48-14.3-9.13-35-17.76-54.94-19.38a76.4,76.4,0,0,0-13-22.11c-27.59-32-73.1-36.67-112.49-30.5-42.26,6.64-81.72,25.19-116.6,49.56-77.67,54.3-129.84,134.92-190.19,206.24-30.23,35.72-65,73.46-112.64,83.74-30.24,6.51-64.66-.64-82.47-23.6,12.12-22.63,17.2-48.38,10.46-74a2.58,2.58,0,0,0-3.26-1.62c-26.11,10.74-28.82,42.05-19,65.45a62.22,62.22,0,0,0,5.84,10.76c-16.4,28.06-44.71,50.64-73.82,62.38C81.4,669,44.71,671.86,9.81,665.38v4.82c63.27,11.86,131.68-5.72,172.53-59.17a137.68,137.68,0,0,0,9-13.4c17.17,21.29,46.61,28.75,74.34,25.65C308.47,618.49,343,591,371.46,560.5c32.92-35.26,61.55-74.39,91.86-111.86C521,377.3,590.3,304.73,683.55,284.36c44.58-9.76,101.27-7.1,128.12,35.8a69.08,69.08,0,0,1,4.69,9c-16.3-.28-31.59,4.58-41.92,18.32-15.45,20.58,0,59.3,28.9,46.82,24.27-10.51,27.06-36.52,20-59.3a96.61,96.61,0,0,1,19,3.51c22.32,6.53,41.74,20.45,58.68,36,35,32.19,63,71.73,93,108.45,54.74,67.06,122.08,135.58,212.72,146.19a191.88,191.88,0,0,0,43.61.21c12.3,31.31,40.93,56.12,72.83,65.9,42.46,13.05,89.07.65,128.25-17,43.21-19.48,81.72-47.56,124-68.83,39.42-19.81,82.82-33.29,127.08-24.24,36.82,7.53,73.52,30.7,83.38,69.08a61,61,0,0,1,1.36,6.77c-21.19,6.23-38,19.55-41.28,44.25a2.64,2.64,0,0,0,2,3c14.58,5,30.45-2.05,38.54-14.81,5.44-8.54,7.08-18.5,6.33-28.45,2.87-.84,5.77-1.53,8.64-2.12,25.37-5,51.79-.29,76,7.76a214.74,214.74,0,0,1,54.17,27.11v-6.17A220,220,0,0,0,1869.64,663ZM191,588.33a59.11,59.11,0,0,1-8.72-27c-1.33-15.53,4-30.88,18.1-38.1C205.61,546.22,201.3,568.52,191,588.33ZM805.6,387.22c-23.42,15.83-40.46-15.76-28.32-34.88,8.74-13.76,25.09-18,41.18-17.58C824.61,353.39,823.08,375.4,805.6,387.22Zm447.95,236.06a82.83,82.83,0,0,1-3.3-13.89c-3-20.91,3.59-45.95,22.65-57.5,24.83-15.1,44.61,12.19,37.36,35.41-7.2,23-34.64,32.36-56,35.88C1254,623.23,1253.78,623.25,1253.55,623.28Zm527.19,69.6c-6.94,9.14-18.27,13.78-29.26,11.14,3.56-19.22,18.86-31,36.36-37.31C1788.28,676,1786.4,685.44,1780.74,692.88Z"/><path class="cls-39" d="M1834.17,855.75c-35.64,12.38-76.26,40.92-86.41,79.62-1.77.28-3.48.59-5.17,1-27.88,5.68-54.23,18.06-80.85,27.77-26.81,9.79-53.89,18.89-81.41,26.42-55.94,15.35-114.93,24.68-172.85,16.63-26.8-3.71-54.86-10.5-78.61-23.85a92.66,92.66,0,0,1-18.68-13.92c12.32-3.15,23.9-8.76,31.85-18.5,9.84-12,12.53-32,.84-43.9-10.94-11.12-27.42-7.38-38.36,1.64-13,10.74-18.24,27-12.48,42.95a54.19,54.19,0,0,0,8.2,14.71,146.65,146.65,0,0,1-28.11,1.67c-57.86-1.82-110.42-32.47-163.46-52.25-49.89-18.58-102-32.83-155.32-36.26-50.2-3.21-101.88,3.94-147,27.13-18.61,9.56-37.13,23.2-46.08,42.67-18.83,2.87-37.61,10-55,15.56-57.58,18.45-114.29,41.23-174.1,51.6-54,9.36-115.75,10.15-165.54-16a88.94,88.94,0,0,1-18.37-13c11.71-5.38,22-13.12,29.06-24.7,7.46-12.35,8.35-29.39-5.31-38-13.5-8.48-30.59.77-38.95,12.25-10.19,14.09-7.35,31.23,2.52,44.74,1.1,1.48,2.25,2.89,3.45,4.28-12.88,4.74-27.06,6.89-40.18,7.92-29.44,2.33-59-2.16-87.61-9-62.34-15-134.4-45.66-200.41-40v5.3c54.37-6.18,108.31,13.3,159.62,28.7,50.66,15.22,105.5,28.68,158.13,15.3a132.09,132.09,0,0,0,14.07-4.43c12,11.63,28,19,43.56,24.34,25.65,8.89,52.76,12.79,79.87,13.09,55.48.62,109.55-13.76,161.88-30.85,28-9.12,55.63-19,83.67-27.93,14.27-4.51,30.95-10.92,47.58-14-5.66,16.12-4.82,35.55,5.87,49.41,19.07,24.75,69.85,14.45,62.58-21.68-4-20.17-23.71-32.31-43-33.95a93,93,0,0,0-17.17.23c9-16.79,25.88-29,42.72-37.6,25.34-13,53.37-20.93,81.56-24.54,52.84-6.8,106.53,1,157.57,15.06,53.51,14.76,102.71,39.57,155,57.56,25.14,8.66,51.51,14.94,78.26,14.14a143.49,143.49,0,0,0,22.5-2.36c7.79,8.36,17.76,14.92,27.78,19.94,45.94,23.06,101.4,27.42,151.88,23.14,55.43-4.69,109.47-20.09,161.77-38.41,25.91-9.1,51.23-20,77.34-28.47a187.44,187.44,0,0,1,23.73-6.15c-.08.43-.18.87-.26,1.31-3.1,18.8,3.77,39.43,20.07,50.27,14.35,9.54,32.23,7.28,43.56-5.81,10.63-12.28,10.92-29.22-1.77-40-14.53-12.38-35.57-14.17-54.4-12a84.08,84.08,0,0,1,13.09-25.19c28.5-37.85,76.88-58,123.54-57.78a151.26,151.26,0,0,1,41.31,5.87v-5.23A165.64,165.64,0,0,0,1834.17,855.75ZM337.35,938.44c6.56-8,19-15.45,29.37-10.25,13.83,6.92,10.94,23.53,3.66,34.14-6.79,9.86-16.25,16.65-26.88,21.39C331.35,970.91,324.54,954.2,337.35,938.44Zm462.87,19.09c11.61,5.38,22.11,17.71,22,31-.16,13.86-11.71,22.62-24.6,24.08-26.81,3-40.85-23.11-37.06-46.81a55.06,55.06,0,0,1,3.57-12.33C776.69,951.82,789.1,952.41,800.22,957.53Zm505.94,7.59c-9.89-11.35-15.5-25.55-8.22-40.31,4.66-9.48,14.55-18.17,25.31-19.55,16.28-2.08,24.5,14.32,21.5,28.42C1340.86,952.15,1324.25,961.1,1306.16,965.12ZM1765,938.83c15.22-.18,37,3.46,45.38,17.86,6.43,10.94,0,24.29-9.33,31.18-12.15,9-27.39,5.69-37.57-4.53-12.3-12.38-14.55-28.24-11.09-43.51A102.21,102.21,0,0,1,1765,938.83Z"/></g><path class="cls-40" d="M1835.57,504.86c-.24,3.16-.42,6.29-.35,9.37a53.43,53.43,0,0,0,11.7,31.89c7.33,9.08,17.43,15.48,26,23.42s16,18.64,15.17,30.29c-.73,10.35-7.85,19.24-16,25.62a73.05,73.05,0,0,1-22.57,11.89c-5.67,1.81-11.68,3-16.62,6.26-13.84,9.15-13.9,30.11-25.46,42-7.23,7.46-18.61,10.32-28.74,7.95s-18.8-9.62-23.67-18.81c-3.47-6.55-5.19-14.11-9.87-19.88-12.33-15.18-39.84-12.16-49.57-29.11-5.1-8.9-3.11-20.1.06-29.85s7.44-19.61,6.46-29.82c-1.8-18.47-19.94-31.46-24.41-49.48-2.61-10.49-.25-21.68,4.17-31.54,3.17-7.1,7.66-14,14.43-17.85,15.06-8.59,34.39.8,51.21-3.41,19.55-4.89,32.28-27.18,52.38-28.51,13.6-.89,26.23,8.92,32.1,21.22s6.11,26.5,4.66,40.05c-.28,2.73-.65,5.47-1,8.18A.27.27,0,0,0,1835.57,504.86Z"/><path class="cls-41" d="M1865.51,599a43.8,43.8,0,0,1-11.65,11.5c-4.77,3.21-10.13,5.4-15.39,7.65s-10.59,4.6-15.11,8.18-7.66,8.17-10.44,13c-5.46,9.43-9.68,19.92-18.41,26.91s-20.72,9.49-31.27,5.38a27.87,27.87,0,0,1-12.5-9.62c-3.26-4.55-4.68-10-5.49-15.48-.86-5.69-1-11.5-2.3-17.13a28,28,0,0,0-8.3-14.8c-4.21-3.91-9.26-6.77-14.21-9.63-5.9-3.39-11.73-6.93-17.43-10.65-9.16-6-21.11-12.71-21.83-25-.76-12.79,9-22.38,16.92-31a102.52,102.52,0,0,0,19.71-30.87,107.38,107.38,0,0,0,5.43-18.18c1.35-6.3,2.5-12.72,5-18.69a31.84,31.84,0,0,1,9.47-12.89A24.06,24.06,0,0,1,1753,453c6.15-.71,12.34.88,18.45,1.37a85.72,85.72,0,0,0,21.1-1c6.35-1.08,12.84-2.61,19.27-1.22,11.19,2.42,19.25,12,22.66,22.52A58.24,58.24,0,0,1,1837,493.1c-.06,6.74-.79,13.71,1.07,20.29,2.87,10.21,11.21,17.48,18.37,24.78a75.26,75.26,0,0,1,10,12,44.23,44.23,0,0,1-1,48.84Z"/><path class="cls-41" d="M1847,579.29c-3.15,3.17-7.3,4.89-11.45,6.35-4.49,1.57-8.82,3.12-12.79,5.82a37.4,37.4,0,0,0-9.89,9.9c-2.67,3.94-4.64,8.28-7,12.37-4.39,7.47-10.86,14.2-19.56,16.22-8.43,1.95-17.3-.8-22.28-8.06-5.11-7.46-5.26-16.91-3.46-25.48,2.11-10,6.69-19.44,7.72-29.72a35.69,35.69,0,0,0-1.77-15.2,47.51,47.51,0,0,0-6.59-12c-5.22-7.38-10.23-14.58-9.58-24.07a40.44,40.44,0,0,1,3.53-13.4,63.06,63.06,0,0,1,10.09-16.25c10.35-12.6,25.58-24,42.82-20.56,7.71,1.54,14.21,6.3,17.28,13.62,3.57,8.54,2.14,18.14.68,27-.86,5.2-1.76,10.45-1.54,15.74a34.58,34.58,0,0,0,3.72,14.12,43.22,43.22,0,0,0,8,10.92c3.49,3.5,7.47,6.46,10.7,10.23C1851,563.2,1853.52,572.71,1847,579.29Z"/><polygon class="cls-42" points="1738.1 491.28 1730.47 506.49 1722.84 491.28 1730.47 476.7 1738.1 491.28"/><polygon class="cls-42" points="1836.63 579.79 1829 595.01 1821.37 579.79 1829 565.21 1836.63 579.79"/><polygon class="cls-42" points="1745.52 619.2 1737.89 634.41 1730.26 619.2 1737.89 604.61 1745.52 619.2"/><polygon class="cls-42" points="1787.74 553.58 1780.11 568.79 1772.48 553.58 1780.11 538.99 1787.74 553.58"/><path class="cls-42" d="M1715.56,589.84c-2.86,0-2.57,4.43.28,4.43S1718.42,589.84,1715.56,589.84Z"/><path class="cls-42" d="M1730.12,584.62c-2.86,0-2.58,4.44.28,4.44S1733,584.62,1730.12,584.62Z"/><path class="cls-42" d="M1802.63,608.79c-2.86,0-2.58,4.44.28,4.44S1805.49,608.79,1802.63,608.79Z"/><path class="cls-42" d="M1825.15,603c-2.86,0-2.57,4.44.28,4.44S1828,603,1825.15,603Z"/><path class="cls-42" d="M1796.59,535.45c-2.86,0-2.58,4.44.28,4.44S1799.45,535.45,1796.59,535.45Z"/><path class="cls-42" d="M1776.54,511c-2.86,0-2.58,4.44.28,4.44S1779.4,511,1776.54,511Z"/><path class="cls-42" d="M1809,476.13c-2.86,0-2.58,4.43.28,4.43S1811.81,476.13,1809,476.13Z"/><path class="cls-42" d="M1754,474.48c-2.86,0-2.58,4.44.28,4.44S1756.87,474.48,1754,474.48Z"/><path class="cls-42" d="M1743.58,513.75c-2.86,0-2.58,4.44.28,4.44S1746.44,513.75,1743.58,513.75Z"/><path class="cls-42" d="M1817.78,596.07c-1.9,0-1.71,3,.19,3S1819.69,596.07,1817.78,596.07Z"/><path class="cls-42" d="M1816.41,618.59c-1.91,0-1.72,3,.19,3S1818.32,618.59,1816.41,618.59Z"/><path class="cls-42" d="M1815.86,521.36c-1.9,0-1.72,3,.19,3S1817.77,521.36,1815.86,521.36Z"/><path class="cls-42" d="M1792.79,493.89c-1.91,0-1.72,3,.19,3S1794.69,493.89,1792.79,493.89Z"/><path class="cls-42" d="M1710.39,490.05c-1.91,0-1.72,3,.19,3S1712.3,490.05,1710.39,490.05Z"/><path class="cls-42" d="M1749.94,570.53c-1.9,0-1.72,3,.19,3S1751.85,570.53,1749.94,570.53Z"/><path class="cls-42" d="M1753,606.51c-1.9,0-1.71,3,.19,3S1754.87,606.51,1753,606.51Z"/><polygon class="cls-42" points="1749.39 537.27 1744.83 546.38 1740.26 537.27 1744.83 528.54 1749.39 537.27"/><polygon class="cls-42" points="1845.76 553.7 1841.2 562.81 1836.63 553.7 1841.2 544.97 1845.76 553.7"/><polygon class="cls-42" points="1759.06 627.32 1754.49 636.43 1749.92 627.32 1754.49 618.59 1759.06 627.32"/><path class="cls-43" d="M1511.73,733.2c-14.33,22.66-28.9,46.78-38.44,65.49C1474.75,735.13,1511.73,733.2,1511.73,733.2Z"/><path class="cls-40" d="M1738.42,595l-23.61,19.5-8.16-.45-15.89-.84v0l3-7.18s-23.15-3.39-30.07,5.76l-42.43-2.28-1-.05-17-.91-1.54-18-1.68-19.72-.27-2.86a14.67,14.67,0,0,1,2.28-9.35l12.67-19.6a8,8,0,0,0-.91,5.12l6.07,39.14a8.63,8.63,0,0,0,8.16,7.14l105.69,5.63A9,9,0,0,0,1738.42,595Z"/><path class="cls-44" d="M1779.55,859l56.12,197.35h-51.45l-27.08-54.07v0c-5.89-52.32-15.93-115.67-15.93-115.67l14-17.76,23.68-11.16Z"/><path class="cls-43" d="M1787,853.88l-8.11,3.82-23.68,11.16-14,17.76s10,63.35,15.93,115.67v0c2.44,21.7,4.17,41.48,4.17,54.07H1517.2s22.67-63.14,38.35-89.33L1522.49,865c9.9-12.56,40.31-99.47,57-148.31l6.94-2.47s26.43,82,65.71,77.52,13.33-75.05,13.33-75.05,62,9.81,70.62,27.81S1787,853.88,1787,853.88Z"/><path class="cls-45" d="M1583.5,776.58c-5.31,0-4.78,8.25.52,8.25S1588.81,776.58,1583.5,776.58Z"/><path class="cls-45" d="M1580.75,744.89c-5.32,0-4.79,8.25.52,8.25S1586.05,744.89,1580.75,744.89Z"/><path class="cls-45" d="M1564.21,797.94c-5.31,0-4.79,8.24.52,8.24S1569.52,797.94,1564.21,797.94Z"/><path class="cls-45" d="M1592.46,820c-5.31,0-4.79,8.25.52,8.25S1597.77,820,1592.46,820Z"/><path class="cls-45" d="M1556.63,849.61c-5.31,0-4.78,8.24.52,8.24S1561.94,849.61,1556.63,849.61Z"/><path class="cls-45" d="M1560.08,826.18c-5.31,0-4.79,8.25.52,8.25S1565.39,826.18,1560.08,826.18Z"/><path class="cls-45" d="M1584.19,864.07c-5.31,0-4.79,8.25.52,8.25S1589.5,864.07,1584.19,864.07Z"/><path class="cls-45" d="M1618,800c-5.31,0-4.79,8.25.52,8.25S1623.26,800,1618,800Z"/><path class="cls-45" d="M1614.5,853.74c-5.31,0-4.78,8.25.52,8.25S1619.81,853.74,1614.5,853.74Z"/><path class="cls-45" d="M1636.55,826.87c-5.31,0-4.79,8.25.52,8.25S1641.86,826.87,1636.55,826.87Z"/><path class="cls-45" d="M1602.79,890.25c-5.31,0-4.78,8.25.52,8.25S1608.1,890.25,1602.79,890.25Z"/><path class="cls-45" d="M1561.46,892.32c-5.32,0-4.79,8.25.52,8.25S1566.76,892.32,1561.46,892.32Z"/><path class="cls-45" d="M1544.23,871.65c-5.31,0-4.78,8.25.52,8.25S1549.54,871.65,1544.23,871.65Z"/><path class="cls-45" d="M1568.35,926.77c-5.32,0-4.79,8.24.52,8.24S1573.65,926.77,1568.35,926.77Z"/><path class="cls-45" d="M1600.73,915.74c-5.32,0-4.79,8.25.52,8.25S1606,915.74,1600.73,915.74Z"/><path class="cls-45" d="M1595.21,956.39c-5.31,0-4.78,8.25.52,8.25S1600.52,956.39,1595.21,956.39Z"/><path class="cls-45" d="M1574.55,975.68c-5.32,0-4.79,8.25.52,8.25S1579.85,975.68,1574.55,975.68Z"/><path class="cls-45" d="M1553.19,1019.08c-5.31,0-4.79,8.25.52,8.25S1558.5,1019.08,1553.19,1019.08Z"/><path class="cls-45" d="M1606.24,1035.62c-5.32,0-4.79,8.24.52,8.24S1611.55,1035.62,1606.24,1035.62Z"/><path class="cls-45" d="M1602.79,992.22c-5.31,0-4.78,8.24.52,8.24S1608.1,992.22,1602.79,992.22Z"/><path class="cls-45" d="M1637.93,967.41c-5.31,0-4.79,8.25.52,8.25S1643.24,967.41,1637.93,967.41Z"/><path class="cls-45" d="M1633.11,928.14c-5.32,0-4.79,8.25.52,8.25S1638.41,928.14,1633.11,928.14Z"/><path class="cls-45" d="M1653.08,883.36c-5.31,0-4.78,8.25.52,8.25S1658.39,883.36,1653.08,883.36Z"/><path class="cls-45" d="M1637.93,856.5c-5.31,0-4.79,8.24.52,8.24S1643.24,856.5,1637.93,856.5Z"/><path class="cls-45" d="M1627.59,892.32c-5.31,0-4.78,8.25.52,8.25S1632.9,892.32,1627.59,892.32Z"/><path class="cls-45" d="M1580.75,1018.39c-5.32,0-4.79,8.25.52,8.25S1586.05,1018.39,1580.75,1018.39Z"/><path class="cls-45" d="M1559.39,1040.44c-5.31,0-4.79,8.25.52,8.25S1564.7,1040.44,1559.39,1040.44Z"/><path class="cls-45" d="M1637.24,1009.44c-5.31,0-4.79,8.24.52,8.24S1642.55,1009.44,1637.24,1009.44Z"/><path class="cls-45" d="M1651,1041.82c-5.32,0-4.79,8.24.52,8.24S1656.33,1041.82,1651,1041.82Z"/><path class="cls-45" d="M1673.06,986c-5.31,0-4.78,8.25.52,8.25S1678.37,986,1673.06,986Z"/><path class="cls-45" d="M1675.82,957.08c-5.31,0-4.79,8.25.52,8.25S1681.13,957.08,1675.82,957.08Z"/><path class="cls-45" d="M1712.33,946.06c-5.31,0-4.79,8.24.52,8.24S1717.64,946.06,1712.33,946.06Z"/><path class="cls-45" d="M1709.58,986c-5.32,0-4.79,8.25.52,8.25S1714.88,986,1709.58,986Z"/><path class="cls-45" d="M1673.75,1019.77c-5.31,0-4.79,8.25.52,8.25S1679.06,1019.77,1673.75,1019.77Z"/><path class="cls-45" d="M1704.75,1041.82c-5.31,0-4.78,8.24.52,8.24S1710.06,1041.82,1704.75,1041.82Z"/><path class="cls-45" d="M1712.33,1014.26c-5.31,0-4.79,8.25.52,8.25S1717.64,1014.26,1712.33,1014.26Z"/><path class="cls-45" d="M1739.2,1035.62c-5.31,0-4.79,8.24.52,8.24S1744.51,1035.62,1739.2,1035.62Z"/><path class="cls-45" d="M1737.82,982.57c-5.31,0-4.79,8.25.52,8.25S1743.13,982.57,1737.82,982.57Z"/><path class="cls-45" d="M1737.13,940.55c-5.31,0-4.78,8.24.52,8.24S1742.44,940.55,1737.13,940.55Z"/><path class="cls-45" d="M1723.35,907.48c-5.31,0-4.78,8.24.53,8.24S1728.66,907.48,1723.35,907.48Z"/><path class="cls-45" d="M1682.71,924.7c-5.31,0-4.79,8.25.52,8.25S1688,924.7,1682.71,924.7Z"/><path class="cls-45" d="M1675.13,904.72c-5.31,0-4.79,8.25.52,8.25S1680.44,904.72,1675.13,904.72Z"/><path class="cls-45" d="M1706.13,876.48c-5.31,0-4.79,8.24.52,8.24S1711.44,876.48,1706.13,876.48Z"/><path class="cls-45" d="M1646.2,906.1c-5.32,0-4.79,8.25.52,8.25S1651.5,906.1,1646.2,906.1Z"/><path class="cls-45" d="M1678.57,864.07c-5.31,0-4.78,8.25.52,8.25S1683.88,864.07,1678.57,864.07Z"/><path class="cls-45" d="M1665.49,840c-5.32,0-4.79,8.25.52,8.25S1670.79,840,1665.49,840Z"/><path class="cls-45" d="M1664.11,804.83c-5.32,0-4.79,8.24.52,8.24S1669.42,804.83,1664.11,804.83Z"/><path class="cls-45" d="M1691.66,782.09c-5.31,0-4.78,8.25.52,8.25S1697,782.09,1691.66,782.09Z"/><path class="cls-45" d="M1691,735.24c-5.32,0-4.79,8.25.52,8.25S1696.28,735.24,1691,735.24Z"/><path class="cls-45" d="M1717.15,743.51c-5.31,0-4.78,8.25.52,8.25S1722.46,743.51,1717.15,743.51Z"/><path class="cls-45" d="M1691.66,758c-5.31,0-4.78,8.25.52,8.25S1697,758,1691.66,758Z"/><path class="cls-45" d="M1724,780c-5.31,0-4.78,8.24.52,8.24S1729.35,780,1724,780Z"/><path class="cls-45" d="M1748.16,804.14c-5.32,0-4.79,8.24.52,8.24S1753.46,804.14,1748.16,804.14Z"/><path class="cls-45" d="M1690.29,847.54c-5.32,0-4.79,8.25.52,8.25S1695.59,847.54,1690.29,847.54Z"/><path class="cls-45" d="M1685.46,820c-5.31,0-4.78,8.25.52,8.25S1690.77,820,1685.46,820Z"/><path class="cls-45" d="M1713,809.65c-5.31,0-4.79,8.25.52,8.25S1718.33,809.65,1713,809.65Z"/><path class="cls-45" d="M1714.4,837.9c-5.31,0-4.79,8.24.52,8.24S1719.71,837.9,1714.4,837.9Z"/><path class="cls-45" d="M1735.07,859.94c-5.32,0-4.79,8.25.52,8.25S1740.37,859.94,1735.07,859.94Z"/><path class="cls-45" d="M1744,824.81c-5.31,0-4.78,8.24.52,8.24S1749.33,824.81,1744,824.81Z"/><path class="cls-45" d="M1761.25,842c-5.32,0-4.79,8.25.52,8.25S1766.55,842,1761.25,842Z"/><path class="cls-45" d="M1739.89,771.07c-5.31,0-4.79,8.25.52,8.25S1745.2,771.07,1739.89,771.07Z"/><path class="cls-45" d="M1616.57,954.32c-5.31,0-4.79,8.25.52,8.25S1621.88,954.32,1616.57,954.32Z"/><path class="cls-45" d="M1658.6,937.79c-5.32,0-4.79,8.25.52,8.25S1663.9,937.79,1658.6,937.79Z"/><path class="cls-42" d="M1738.44,595l0,0a8.91,8.91,0,0,1-4.64,1l-105.69-5.63a8.63,8.63,0,0,1-8.16-7.14l-6.07-39.14a8,8,0,0,1,.91-5.12l0-.07.54-.84a8.78,8.78,0,0,1,7.55-3.52l53.65,2.86,52,2.78a8.66,8.66,0,0,1,8.16,7.15l6.06,39.16A8.17,8.17,0,0,1,1738.44,595Z"/><path class="cls-44" d="M1609.55,645.56c-.82,14.65-8.42,26.17-13.76,32.51v0a50.12,50.12,0,0,1-5.19,5.42s-4.44,13.48-11.15,33.14c-16.65,48.84-47.07,135.74-57,148.3-13.88,17.61-62,1.72-60-38a21.65,21.65,0,0,1,.59-3.82c1.41-5.85,5.09-14.36,10.21-24.42,9.55-18.7,24.11-42.82,38.45-65.47,23-36.45,45.51-69,45.51-69s-3.93-17.83-5-30.1a38.6,38.6,0,0,1,5.16-22c2.56-22.43,12.16-35.07,12.16-35.07a167.21,167.21,0,0,1,15.91-12.23l.06,0c5-3.22,9.39-5.06,9.73-2,.8,7.27-10.29,17-11,17.61l0,0-4,10s13.46-8.84,20.58-9.85c2.17-.29,3.75.1,4.2,1.67.53,1.79-.93,4.79-3.34,8.26-6.72,9.65-21,22.84-21,22.84l.45,14.49,8.91,11.92s17.1-24.37,25.52-30.53c2-1.45,3.47-1.91,4.16-.81a3.11,3.11,0,0,1,.42,1C1622.14,617.22,1609.55,645.56,1609.55,645.56Z"/><path class="cls-43" d="M1724.18,549.63v.22a2,2,0,0,1-2.15,1.91l-91.13-4.86a2,2,0,0,1-1.93-2.13v-.22a2.07,2.07,0,0,1,2.16-1.94l91.12,4.86A2.05,2.05,0,0,1,1724.18,549.63Z"/><path class="cls-46" d="M1615.36,538a5.84,5.84,0,0,0-.56.84l0,.07-12.67,19.6a14.59,14.59,0,0,0-2.27,9.35l.25,2.86-15.75,9.66c.68-.57,11.76-10.35,11-17.61-.34-3.06-4.7-1.23-9.73,2l-.06,0c-1.54.66-25.86,11.11-26.69,14.87-.85,3.91-1.39,32.44-1.39,32.44a38.56,38.56,0,0,0-5.15,22c1,12.28,5,30.09,5,30.09s-22.47,32.59-45.52,69c0,0-37,1.93-38.44,65.49-5.13,10.06-8.82,18.55-10.21,24.41-5.57.08-11.12-3.3-15.33-7.27a55,55,0,0,1-15.61-51.12c3.26-14.42,12.3-26.89,22.46-37.62s21.63-20.2,31.36-31.34a136.06,136.06,0,0,0,31-64.21c4.51-24.21,2.73-50.6,15.54-71.62,12.45-20.42,38.49-31.51,61.84-26.48a31.38,31.38,0,0,1,13-12.93c6.38-3.53,13.58-5.27,20.78-6.38,8.75-1.34,17.88-1.8,26.28,1a35.61,35.61,0,0,1,22,22.19l-53.63-2.86A8.72,8.72,0,0,0,1615.36,538Z"/><path class="cls-44" d="M1660.75,691.14l4.69,25.51s26,70.6-13.33,75-65.7-77.52-65.7-77.52l9.38-36.08v0c5.34-6.34,12.94-17.86,13.76-32.51,0,0,12.59-28.34,10.71-36.17l43.47,2.33c6.92-9.15,30.07-5.76,30.07-5.76l-3,7.18v0l15.89.84C1706.83,625.8,1705.67,688.6,1660.75,691.14Z"/><path class="cls-44" d="M1603.31,608.49l12.37.67c-8.43,6.16-25.52,30.54-25.52,30.54l-8.9-11.93-.46-14.5s14.25-13.17,21-22.83Z"/><path class="cls-40" d="M1600.08,570.72l.83,9.79c-7.12,1-20.58,9.85-20.58,9.85l4-10,0,0Z"/><path class="cls-44" d="M1558.81,579.67c.83-3.76,25.15-14.21,26.69-14.87A168,168,0,0,0,1569.58,577s-9.59,12.64-12.16,35.08C1557.42,612.11,1558,583.58,1558.81,579.67Z"/><path class="cls-46" d="M1742.68,827c-6.73-12.84-14.29-25.29-22.17-37.44q-6.79-10.47-14-20.61c-1.24-1.73-4,.07-2.77,1.81q12.45,17.44,23.53,35.8c7.2,11.93,14.39,24.09,19.58,37.05A93,93,0,0,1,1752.9,866c.27,2.09,3.58,1.91,3.3-.21C1754.39,852,1749.07,839.2,1742.68,827Z"/><path class="cls-46" d="M1719.53,888.81q-50.91,2.9-101.65,8c-2.11.21-1.92,3.51.2,3.3q50.75-5.1,101.66-8A1.65,1.65,0,0,0,1719.53,888.81Z"/><path class="cls-46" d="M1568.87,578c5.89-7.25,14.88-11.11,21.79-17.22,1.6-1.41-.87-3.61-2.45-2.21-7.25,6.4-16.71,10.3-22.58,18.23-3.07,4.14-4.89,9-6.36,13.87a156.58,156.58,0,0,0-4.16,17.88,1.08,1.08,0,0,0,0,.36c-.68.66-1.37,1.29-2,1.95-1.52,1.5.94,3.7,2.45,2.21a300.28,300.28,0,0,1,28.6-24.84c1.68-1.29-.11-4.06-1.81-2.77q-12.09,9.22-23.2,19.63,1.28-6.4,3.08-12.7C1563.67,587.34,1565.49,582.2,1568.87,578Z"/><path class="cls-46" d="M1620.32,610.3a135.74,135.74,0,0,1-11.46,33.24c0,.05,0,.1,0,.15a1.41,1.41,0,0,0-.27.73,59.43,59.43,0,0,1-13.63,33c-1.36,1.63,1.09,3.85,2.46,2.22a62.61,62.61,0,0,0,14.41-34.51v0l0,0A139.29,139.29,0,0,0,1623.55,611,1.65,1.65,0,0,0,1620.32,610.3Z"/><path class="cls-46" d="M1614,607.22a237.66,237.66,0,0,0-24.06,28l-7.49-8.84a1.09,1.09,0,0,0-.11-.1q-.09-6.4.21-12.83,10.41-10.8,20.46-22a1.65,1.65,0,0,0-2.45-2.22q-10.18,11.29-20.72,22.23l0,0a1.93,1.93,0,0,0-.53,1.28q-.35,6.95-.23,13.89a1.45,1.45,0,0,0,.37.9,1.2,1.2,0,0,0,.27.57l8.89,10.5a1.7,1.7,0,0,0,2.29.48,1.87,1.87,0,0,0,.41-.43,1.54,1.54,0,0,0,.41-.37,238,238,0,0,1,24.77-28.94C1617.93,607.93,1615.47,605.72,1614,607.22Z"/><path class="cls-46" d="M1657.67,691c-14.5,3.57-29-1.72-42-7.9-1.92-.92-3.43,2-1.51,2.93,13.86,6.61,29.1,11.9,44.54,8.11C1660.79,693.65,1659.73,690.52,1657.67,691Z"/><path class="cls-46" d="M1690,612.49a62,62,0,0,1-15.12,7.29,1.65,1.65,0,0,0,1.05,3.13,65.52,65.52,0,0,0,15.88-7.65A1.66,1.66,0,0,0,1690,612.49Z"/><path class="cls-46" d="M1655.07,649.54a29,29,0,0,1-24.42-18.69c-.73-2-3.87-1-3.13,1a32.21,32.21,0,0,0,26.88,20.87C1656.49,653,1657.19,649.75,1655.07,649.54Z"/><path class="cls-47" d="M739.68,587.41h-27.5l-4.34-12.56S733.26,572.5,739.68,587.41Z"/><path class="cls-46" d="M830.45,621.71c7.35,9.41,20,13.6,30.57,19.64,9.34,5.35,17.71,12.73,23,22.15s7.06,20.93,3.69,31.15A67.29,67.29,0,0,1,882.85,705c7.83,2.14,13.53,9.67,14.69,17.71,1.06,7.47-1.42,15.17-5.83,21.34-13.07-16.93-27.76-19.8-27.76-19.8-11.2-19.14-19.65-31.8-19.65-31.8l-11,4.63L815,635.74s-1.88-27.38-6.47-44.29l23.32,24.8A20.53,20.53,0,0,0,830.45,621.71Z"/><path class="cls-46" d="M851,537.31c6.93,10.68,10.12,24,7.47,36.46-2,9.35-7.12,17.8-13.38,25-2.44,2.8-5.05,5.44-7.42,8.29l-32.62-53,1.36-9.23a15.81,15.81,0,0,0-1.81-9.95l-11.57-21-.08-.13a9.19,9.19,0,0,0-.73-1.34,8.59,8.59,0,0,0-2.44-2.44c10-4.29,22.26-1.68,32.34,3.07C833.62,518.5,844.06,526.62,851,537.31Z"/><path class="cls-40" d="M805,554.12l32.62,53c-.84,1-1.64,2-2.39,3.08a30.54,30.54,0,0,0-3.39,6.1l-23.32-24.8c-1.45-5.33-3.17-9.61-5.18-11.68-.63-.64-1.25-1.23-1.88-1.77Z"/><path class="cls-47" d="M815,635.74l18.23,61.37-33.93,14.18s-23.93-22.31-4.51-68.56l-6.89-55.34L786,572s7.66-.76,15.49,6c.63.54,1.25,1.13,1.88,1.77,2,2.07,3.73,6.35,5.18,11.68C813.14,608.36,815,635.74,815,635.74Z"/><path class="cls-40" d="M804.58,534.94a15.81,15.81,0,0,1,1.81,9.95L805,554.12,801.49,578c-7.83-6.77-15.49-6-15.49-6l1.92,15.4-.1,0H739.68c-6.42-14.91-31.84-12.56-31.84-12.56l4.34,12.56H687.84l-22.78-21.83a8.71,8.71,0,0,0,4.64,1.33h107a8.79,8.79,0,0,0,8.61-7L793.51,519a8.72,8.72,0,0,0-.5-5.13Z"/><path class="cls-47" d="M739.68,587.41h48.14l.1,0,6.89,55.34c-19.42,46.25,4.51,68.56,4.51,68.56l-5.79,2.42s1.3,8.19,3.91,21.18c-7.9,9.67-27.6,30.85-49.17,31.52-28,.86-29.71-41.64-29.71-41.64l7.17-56.84h0a37.41,37.41,0,0,1-30.32-23.19,81.19,81.19,0,0,1-5.6-19.61,160.62,160.62,0,0,1-2.33-27.18v0c0-3.48.12-7,.36-10.49h51.84Zm-20.06,38.25c4.16-1.47,5.89-7.27,3.88-12.94s-7-9.06-11.15-7.58-5.89,7.27-3.88,12.91S715.48,627.13,719.62,625.66Z"/><path class="cls-48" d="M793.5,519l-8.23,40.82a8.78,8.78,0,0,1-8.6,7h-107a8.76,8.76,0,0,1-8.61-10.52l8.23-40.81a8.76,8.76,0,0,1,8.6-7h107a8.73,8.73,0,0,1,7.31,3.91l.72,1.34.09.14A8.68,8.68,0,0,1,793.5,519Z"/><path class="cls-49" d="M776,516.6a2.27,2.27,0,1,1,0,4.53H684.13a2.27,2.27,0,0,1,0-4.53Z"/><path class="cls-46" d="M725.73,667.92h0l-7.17,56.84s-14.41-.78-31.91-.36h0c-5.13-1.27-8.9-6.14-9.72-11.36s1-10.6,4.05-14.89c-5.82-1.6-11.78-3.26-16.63-6.86-7.57-5.59-11.37-15.41-11-24.83s4.57-18.4,10.37-25.81c3.37-4.33,7.3-8.21,10.68-12.51a65.08,65.08,0,0,0,13.06-30.2,160.62,160.62,0,0,0,2.33,27.18,81.19,81.19,0,0,0,5.6,19.61,37.41,37.41,0,0,0,30.32,23.19Z"/><path class="cls-6" d="M723.5,612.72c2,5.67.28,11.47-3.88,12.94s-9.13-1.94-11.15-7.61-.28-11.44,3.88-12.91S721.48,607.07,723.5,612.72Z"/><path class="cls-47" d="M430.05,657.83c-1.1-2-19-34-11-36.51,8.29-2.6,53.55,74.26,53.55,74.26s-7.08-36.61-1.73-38.68,22.8,39.89,25.13,47.33,0,65.42,0,65.42L456.2,786s-16.78-24.48-32.32-45.54-39.93-55.1-33.5-56.31,31.09,25.22,31.09,25.22S384,643.76,389.34,643.07s24.6,24.88,25.2,25.67c-.47-1-18-37.62-13.11-40.66S428.71,656,430.05,657.83Z"/><path class="cls-46" d="M773.41,645.25c-4.92,7.71-12.57,13.33-20.94,16.83a74.5,74.5,0,0,1-14.17,4.23c-5,1-10.88,2.4-15.89,1.24-2.07-.48-2.75,2.75-.68,3.24,5.34,1.23,11.34-.12,16.62-1.15a76.16,76.16,0,0,0,15.86-4.72c8.95-3.87,16.86-9.89,22.14-18.16C777.5,645,774.55,643.47,773.41,645.25Z"/><path class="cls-46" d="M799.89,709.4c-11-20-16.75-45.56-2.94-65.73,0-.06.06-.12.09-.17a1.3,1.3,0,0,0,.62-1.41q-4.47-26.65-8.62-53.35c-.33-2.08-3.63-1.9-3.3.21q4.13,26.47,8.54,52.89a1.75,1.75,0,0,0-.27.32c-14.48,21.14-8.44,48.15,3.11,69.05C798.15,713.07,800.91,711.25,799.89,709.4Z"/><path class="cls-46" d="M800.42,578c-.63-2-3.77-1-3.13,1.05a372.73,372.73,0,0,1,12.07,51.08c.34,2.08,3.65,1.9,3.3-.21A379,379,0,0,0,800.42,578Z"/><path class="cls-46" d="M482.57,728.08a203.58,203.58,0,0,0-36.27-5.32c-2.11-.12-1.89,3.18.21,3.3a198.63,198.63,0,0,1,35.39,5.25C484,731.81,484.64,728.58,482.57,728.08Z"/><path class="cls-46" d="M435.05,701.78q-9.07-16.24-18.16-32.5c-1-1.86-3.8,0-2.77,1.81l18.17,32.5C433.33,705.45,436.09,703.63,435.05,701.78Z"/><path class="cls-46" d="M452.37,692.09l-21.6-34.44c-1.14-1.81-3.9,0-2.77,1.81l21.6,34.44C450.73,695.7,453.5,693.89,452.37,692.09Z"/><path class="cls-46" d="M723.56,593.33a41.91,41.91,0,0,1-10-6.72,1.65,1.65,0,0,0-2.21,2.46,46.13,46.13,0,0,0,10.71,7.2,1.65,1.65,0,1,0,1.51-2.94Z"/><path class="cls-50" d="M797.44,734.89c-2.61-13-3.91-21.18-3.91-21.18l5.79-2.42,33.93-14.18,11-4.63s8.45,12.66,19.65,31.8c15.58,26.64,36.53,65.86,47.57,101.09,11.31,36.16,12.21,68.13-13.85,78-15.55,5.89-29.34-.28-41.38-13.44C824.82,855.62,805.27,773.74,797.44,734.89Z"/><path class="cls-50" d="M891.71,744.08c11.18,14.48,21.17,39.24,19.81,81.29-11-35.23-32-74.45-47.57-101.09C864,724.28,878.64,727.15,891.71,744.08Z"/><path class="cls-50" d="M843.26,944.31l33.68,111.41H645.32l14-145.61-21.25-25.39s-84,73.83-106.75,74.09S446.86,789.9,446.86,789.9L456.2,786,496,769.65l7.86-3.24,47.88,91.15s62-102.91,74.92-120c7.42-9.79,36.5-12.57,60-13.15,17.5-.42,31.91.36,31.91.36s1.73,42.5,29.71,41.64c21.57-.67,41.27-21.85,49.17-31.52,7.83,38.85,27.38,120.73,58.85,155.05Z"/><path class="cls-46" d="M567.59,880q-7.17-11.14-13.79-22.64c-1.07-1.85-3.83,0-2.77,1.8q6.62,11.5,13.8,22.65A1.65,1.65,0,0,0,567.59,880Z"/><path class="cls-46" d="M662.2,798.48c-6.18,14.19-12.37,28.38-17.87,42.85-2.68,7-5.3,14.13-7.46,21.34-2,6.61-3.2,13.68-.72,20.33.74,2,3.88,1,3.13-1-2.55-6.83-.65-14.06,1.49-20.73,2.23-7,4.73-13.81,7.36-20.62,5.28-13.7,11.15-27.15,17-40.61C666,798.05,663.05,796.53,662.2,798.48Z"/><path class="cls-46" d="M911.25,822.48A539,539,0,0,0,878.5,747.1q-5.47-10.35-11.41-20.47c-1.08-1.84-3.84,0-2.77,1.81a532,532,0,0,1,35.79,73.47q4.25,10.73,8,21.62C908.81,825.54,912,824.5,911.25,822.48Z"/><path class="cls-46" d="M852.71,887.61c-11.13-16.28-18.63-34.61-24.9-53.23-6.67-19.81-12.47-39.93-18.27-60q-5.12-17.72-10.09-35.49c-.58-2-3.72-1-3.14,1,6,21.18,12,42.35,18.31,63.42,5.83,19.38,11.58,38.93,19.73,57.5A175.05,175.05,0,0,0,850,889.42C851.15,891.18,853.92,889.37,852.71,887.61Z"/><path class="cls-46" d="M770.4,911.14l-87.26-.43c-2.12,0-1.91,3.29.21,3.3l87.26.43C772.74,914.45,772.53,911.15,770.4,911.14Z"/><path class="cls-49" d="M641,748.74a4.2,4.2,0,0,0-5.83.29l-8.84,9.75a4.26,4.26,0,0,0-1.06,3,4.13,4.13,0,0,0,7.19,2.51l8.84-9.75a4.3,4.3,0,0,0,1.06-3A4.23,4.23,0,0,0,641,748.74Z"/><path class="cls-49" d="M633.89,798a77,77,0,0,0-6.77-16.76A4.15,4.15,0,0,0,621.4,780a4.23,4.23,0,0,0-1.19,5.71c.34.64.68,1.28,1,1.92.15.3.31.6.45.91l-.13-.28.29.64c.57,1.22,1.1,2.46,1.6,3.71a71.41,71.41,0,0,1,2.62,8,4.16,4.16,0,0,0,5.23,2.6A4.23,4.23,0,0,0,633.89,798Z"/><path class="cls-49" d="M662.35,771.67a4.23,4.23,0,0,0-5.72-1.19l-15.19,8.89a4.16,4.16,0,0,0-1.2,5.71,4.22,4.22,0,0,0,5.72,1.2l15.2-8.89A4.16,4.16,0,0,0,662.35,771.67Z"/><path class="cls-49" d="M672.91,757.53a68.06,68.06,0,0,1-4.57-7.18c-.33-.59-.65-1.19-1-1.79a4.17,4.17,0,0,1-.48-1c.26.55.3.62.1.22-.07-.16-.15-.32-.23-.49-.61-1.31-1.17-2.63-1.7-4a4.13,4.13,0,0,0-7.84,2.62A72.52,72.52,0,0,0,666,762.05a4.13,4.13,0,1,0,6.91-4.52Z"/><path class="cls-49" d="M638.31,816.64l-17.21-2.81a4.13,4.13,0,1,0-1.69,8.08l17.21,2.81a4.13,4.13,0,1,0,1.69-8.08Z"/><path class="cls-49" d="M605.08,822.47q-1.38-7.23-2.77-14.47a4.55,4.55,0,0,0-1.35-2.8,4.13,4.13,0,0,0-5.83.29,4,4,0,0,0-1.06,3q1.38,7.23,2.77,14.47a4.55,4.55,0,0,0,1.35,2.8,4.14,4.14,0,0,0,5.84-.29A4,4,0,0,0,605.08,822.47Z"/><path class="cls-49" d="M599.47,847.44a4.89,4.89,0,0,0-2-2.37L582.2,834.86a4.09,4.09,0,0,0-3.2-.24,4.13,4.13,0,0,0-2.6,5.23,4.84,4.84,0,0,0,2,2.36l15.24,10.21a4.14,4.14,0,0,0,3.2.25,4.22,4.22,0,0,0,2.36-2A4.15,4.15,0,0,0,599.47,847.44Z"/><path class="cls-49" d="M624.93,840.43a4.2,4.2,0,0,0-5.56,1.78l-8.31,16.52a4.13,4.13,0,0,0,7.35,3.78q4.15-8.26,8.3-16.52A4.18,4.18,0,0,0,624.93,840.43Z"/><path class="cls-49" d="M714.69,779a4.21,4.21,0,0,0-5.84.29L700,789a4.13,4.13,0,0,0,6.13,5.54l8.84-9.75a4.13,4.13,0,0,0-.29-5.83Z"/><path class="cls-49" d="M707.61,828.23a76.54,76.54,0,0,0-6.77-16.76,4.14,4.14,0,0,0-5.71-1.19,4.24,4.24,0,0,0-1.2,5.71c.35.64.68,1.28,1,1.92.15.3.32.6.45.91l-.12-.28c.08.19.24.53.28.64.57,1.22,1.1,2.46,1.6,3.71a74.14,74.14,0,0,1,2.63,8,4.14,4.14,0,0,0,5.22,2.61A4.22,4.22,0,0,0,707.61,828.23Z"/><path class="cls-49" d="M736.07,801.93a4.21,4.21,0,0,0-5.71-1.19l-15.2,8.89a4.14,4.14,0,0,0-1.19,5.71,4.21,4.21,0,0,0,5.71,1.2l15.2-8.89A4.16,4.16,0,0,0,736.07,801.93Z"/><path class="cls-49" d="M753.94,794.91a70.9,70.9,0,0,1-4.58-7.18c-.32-.6-.64-1.19-1-1.79a4,4,0,0,1-.49-1c.27.54.3.62.11.22-.08-.16-.15-.33-.23-.49-.61-1.31-1.18-2.63-1.71-4a4.13,4.13,0,0,0-7.83,2.63A72.52,72.52,0,0,0,747,799.43a4.13,4.13,0,0,0,6.91-4.52Z"/><path class="cls-49" d="M712,846.9l-17.21-2.81a4.13,4.13,0,1,0-1.69,8.08L710.34,855A4.13,4.13,0,1,0,712,846.9Z"/><path class="cls-49" d="M678.81,852.73q-1.39-7.23-2.77-14.47a4.57,4.57,0,0,0-1.36-2.8,4.13,4.13,0,0,0-5.83.29,4,4,0,0,0-1.06,3q1.38,7.23,2.77,14.47a4.55,4.55,0,0,0,1.35,2.8,4.23,4.23,0,0,0,3,1.06,4.18,4.18,0,0,0,2.81-1.35A4,4,0,0,0,678.81,852.73Z"/><path class="cls-49" d="M673.19,877.7a4.83,4.83,0,0,0-2-2.37l-15.23-10.21a4.1,4.1,0,0,0-3.2-.24,4.12,4.12,0,0,0-2.61,5.23,4.81,4.81,0,0,0,2,2.36l15.23,10.21a4.14,4.14,0,0,0,3.2.25,4.12,4.12,0,0,0,2.61-5.23Z"/><path class="cls-49" d="M698.65,870.69a4.2,4.2,0,0,0-5.56,1.78L684.78,889a4.13,4.13,0,0,0,7.35,3.78l8.31-16.52A4.19,4.19,0,0,0,698.65,870.69Z"/><path class="cls-49" d="M578.85,888.56a4.21,4.21,0,0,0-2.41,5.33l4.61,12.32a4.31,4.31,0,0,0,2.21,2.33,4.14,4.14,0,0,0,5.53-5.24L584.17,891a4.28,4.28,0,0,0-2.21-2.33A4.23,4.23,0,0,0,578.85,888.56Z"/><path class="cls-49" d="M570.39,912.39a77.14,77.14,0,0,0-18-1.66,4.16,4.16,0,0,0-3.68,4.54,4.25,4.25,0,0,0,4.54,3.68c.72,0,1.44,0,2.17,0,.33,0,.67,0,1,0l-.31,0,.7,0c1.35.06,2.69.15,4,.29a70.08,70.08,0,0,1,8.27,1.31,4.17,4.17,0,0,0,4.72-3.45A4.24,4.24,0,0,0,570.39,912.39Z"/><path class="cls-49" d="M535.26,919.1a4.22,4.22,0,0,0-3.68,4.54q.46,8.79.94,17.58a4.17,4.17,0,0,0,4.54,3.68,4.23,4.23,0,0,0,3.68-4.54q-.48-8.77-1-17.57A4.16,4.16,0,0,0,535.26,919.1Z"/><path class="cls-49" d="M600.55,864.87a67,67,0,0,1-8.48.78c-.68,0-1.35,0-2,0a3.9,3.9,0,0,1-1.08,0c.61,0,.69,0,.25,0h-.55c-1.44-.06-2.88-.16-4.31-.31a4.13,4.13,0,0,0-1.26,8.17,72.87,72.87,0,0,0,18.31-.43,4.13,4.13,0,0,0-.85-8.22Z"/><path class="cls-49" d="M680.18,794.51l-10.38,14a4.13,4.13,0,1,0,6.42,5.2l10.38-14a4.13,4.13,0,0,0-6.42-5.21Z"/><path class="cls-49" d="M705,761.16,690.89,757a4.5,4.5,0,0,0-3.11-.08,4.13,4.13,0,0,0-2.41,5.32,4,4,0,0,0,2.21,2.33l14.13,4.16a4.5,4.5,0,0,0,3.11.08,4.13,4.13,0,0,0,2.41-5.32A4,4,0,0,0,705,761.16Z"/><path class="cls-49" d="M621.54,878a4.79,4.79,0,0,0-3,.72l-16.06,8.87a4.17,4.17,0,0,0-1.68,2.73,4.23,4.23,0,0,0,.72,3,4.18,4.18,0,0,0,2.73,1.68,4.77,4.77,0,0,0,3-.72q8-4.42,16.06-8.87a4.09,4.09,0,0,0,1.68-2.73,4.13,4.13,0,0,0-3.45-4.71Z"/><path class="cls-49" d="M698.65,733.24a4.21,4.21,0,0,0-1,5.77L708.57,754a4.13,4.13,0,0,0,6.72-4.8l-10.88-14.94A4.18,4.18,0,0,0,698.65,733.24Z"/><path class="cls-49" d="M469.71,813a4.21,4.21,0,0,0-2.41,5.32l4.62,12.33a4.15,4.15,0,0,0,5.32,2.41,4.21,4.21,0,0,0,2.41-5.33q-2.31-6.15-4.61-12.32a4.31,4.31,0,0,0-2.21-2.33A4.21,4.21,0,0,0,469.71,813Z"/><path class="cls-49" d="M510.24,841.8a76.6,76.6,0,0,0-18-1.66,4.14,4.14,0,0,0-3.68,4.53,4.24,4.24,0,0,0,4.54,3.68c.72,0,1.44,0,2.17,0,.33,0,.67,0,1,0l-.31,0,.7,0c1.35.06,2.69.15,4,.28A72.24,72.24,0,0,1,509,850a4.17,4.17,0,0,0,4.72-3.46A4.24,4.24,0,0,0,510.24,841.8Z"/><path class="cls-49" d="M499.9,804.45a4.22,4.22,0,0,0-3.68,4.54q.46,8.79.94,17.58a4.17,4.17,0,0,0,4.54,3.68,4.23,4.23,0,0,0,3.68-4.54q-.48-8.79-.95-17.58A4.16,4.16,0,0,0,499.9,804.45Z"/><path class="cls-49" d="M501.84,785.35a68.88,68.88,0,0,1-8.48.78c-.68,0-1.35,0-2,0a3.9,3.9,0,0,1-1.08,0c.6,0,.68,0,.24,0H490c-1.44-.06-2.88-.16-4.31-.31a4.13,4.13,0,1,0-1.26,8.17,72.87,72.87,0,0,0,18.31-.43,4.13,4.13,0,0,0-.85-8.22Z"/><path class="cls-49" d="M528.86,846.42l-10.38,14a4.13,4.13,0,0,0,6.41,5.21l10.38-14a4.13,4.13,0,1,0-6.41-5.2Z"/><path class="cls-49" d="M518.82,878.62l-14.12-4.16a4.58,4.58,0,0,0-3.12-.08,4.15,4.15,0,0,0-2.41,5.32,4,4,0,0,0,2.21,2.33l14.13,4.16a4.5,4.5,0,0,0,3.11.08,4.18,4.18,0,0,0,2.33-2.21A4.13,4.13,0,0,0,521,881,4,4,0,0,0,518.82,878.62Z"/><path class="cls-49" d="M538.45,895.05a4.84,4.84,0,0,0-3,.72l-16.06,8.87a4.13,4.13,0,0,0-1.68,2.73,4.14,4.14,0,0,0,3.45,4.72,4.85,4.85,0,0,0,3-.73l16.06-8.86a4.12,4.12,0,0,0,1.68-2.74,4.13,4.13,0,0,0-3.45-4.71Z"/><path class="cls-49" d="M543.88,869.21a4.2,4.2,0,0,0-1,5.76l10.88,14.95a4.13,4.13,0,0,0,6.72-4.8l-10.88-15A4.18,4.18,0,0,0,543.88,869.21Z"/><path class="cls-49" d="M784,772.09a4.2,4.2,0,0,0-5.84.29L766.2,786.64a4.13,4.13,0,1,0,6.13,5.54l11.91-14.26A4.19,4.19,0,0,0,784,772.09Z"/><path class="cls-49" d="M797.4,793.28c.16.3.36.61,0,0Z"/><path class="cls-49" d="M802.59,802.33q-2.13-3.21-4-6.6c-.3-.56-.59-1.12-.88-1.68a9.44,9.44,0,0,0-.45-.9l.09.13-.12-.21c-.55-1.18-1.08-2.37-1.57-3.57a4.42,4.42,0,0,0-2-2.37,4.28,4.28,0,0,0-3.2-.24c-2,.76-3.49,3.09-2.61,5.23a86.14,86.14,0,0,0,7.81,14.73,4.13,4.13,0,0,0,6.91-4.52Z"/><path class="cls-49" d="M785.14,823c-.47-1.64-.87-3.29-1.22-5-.39-2.11-.69-4.23-.87-6.37a4.13,4.13,0,1,0-8.24.52,69.3,69.3,0,0,0,2.5,13.45,4.16,4.16,0,0,0,5.23,2.6A4.22,4.22,0,0,0,785.14,823Z"/><path class="cls-49" d="M762.18,829.88l-6.43-11.48a4.13,4.13,0,0,0-5.72-1.19,4.1,4.1,0,0,0-1.78,2.61,4.55,4.55,0,0,0,.58,3.1q3.23,5.75,6.43,11.49A4.13,4.13,0,0,0,761,835.6a4.1,4.1,0,0,0,1.78-2.61A4.58,4.58,0,0,0,762.18,829.88Z"/><path class="cls-49" d="M744.86,846l-13.79-3.63a4.14,4.14,0,0,0-4.88,3.19,4.21,4.21,0,0,0,3.19,4.89l13.79,3.63a4.15,4.15,0,0,0,4.89-3.2A4.21,4.21,0,0,0,744.86,846Z"/><path class="cls-49" d="M735.29,869.54a4.44,4.44,0,0,0-1.36-2.8,4.21,4.21,0,0,0-3-1.06c-2.06.22-4.22,2.1-3.86,4.39a52.83,52.83,0,0,1,.5,11.92l0-.51a4.44,4.44,0,0,0,.6,3,4.12,4.12,0,0,0,5.71,1.19,4,4,0,0,0,1.79-2.61A57.63,57.63,0,0,0,735.29,869.54Z"/><path class="cls-49" d="M760.8,891a4.22,4.22,0,0,0-5.23-2.61l-8.72,2.76a4.27,4.27,0,0,0-2.37,2,4.13,4.13,0,0,0,5,5.8l8.72-2.75A4.12,4.12,0,0,0,760.8,891Z"/><path class="cls-49" d="M723.12,900.19c-.22-.27-.45-.54-.68-.8a4.09,4.09,0,0,0-1.93-1l-11.94-4.14a4.13,4.13,0,0,0-4.3,6.3l.69.81a4.19,4.19,0,0,0,1.92,1l11.94,4.13a4.11,4.11,0,0,0,3.11-.58,4.19,4.19,0,0,0,1.78-2.61A4.15,4.15,0,0,0,723.12,900.19Z"/><path class="cls-49" d="M779.17,864.36a4.11,4.11,0,0,0-2-2.36l-1-.37a4.17,4.17,0,0,0-2.16.12l-10.56,2.3a4.11,4.11,0,0,0-2.36,2,4.23,4.23,0,0,0-.25,3.2,4.19,4.19,0,0,0,2,2.36l1.05.37a4.13,4.13,0,0,0,2.15-.12l10.57-2.3a4.13,4.13,0,0,0,2.6-5.23Z"/><path class="cls-49" d="M800.71,859.81a4,4,0,0,0-1.15-1.75l-10-11.55a4.17,4.17,0,0,0-3-1.06,4.27,4.27,0,0,0-2.81,1.36,4.16,4.16,0,0,0-1.05,3c.06.35.13.7.2,1a4.12,4.12,0,0,0,1.15,1.75l10,11.55a4.16,4.16,0,0,0,3,1,4.22,4.22,0,0,0,2.81-1.35,4.17,4.17,0,0,0,1.06-3Z"/><path class="cls-49" d="M821,846a97,97,0,0,1-6.43-11,4.09,4.09,0,0,0-2.61-1.78,4.23,4.23,0,0,0-3.1.59,4.1,4.1,0,0,0-1.78,2.61c0,.37-.06.74-.08,1.11a4.1,4.1,0,0,0,.66,2,97.75,97.75,0,0,0,6.43,11A4.13,4.13,0,0,0,821,846Z"/><path class="cls-49" d="M815.69,874.09a4.14,4.14,0,0,0-5.84.29L802,884a4.41,4.41,0,0,0-1.06,3,4.23,4.23,0,0,0,1.36,2.8,4.13,4.13,0,0,0,5.83-.29l7.81-9.65a4.36,4.36,0,0,0,1.06-3A4.22,4.22,0,0,0,815.69,874.09Z"/><path class="cls-49" d="M792,906.16l-3.21-12.86a4.12,4.12,0,0,0-5.23-2.61,4.24,4.24,0,0,0-2.61,5.23q1.6,6.42,3.22,12.86a4.16,4.16,0,0,0,2,2.36,4.13,4.13,0,0,0,5.81-5Z"/><path class="cls-49" d="M832,897.44a4.21,4.21,0,0,0-5.72-1.19,74.11,74.11,0,0,1-7,4l0,0-.21.11-.74.34q-1,.45-2,.87c-1.24.52-2.5,1-3.78,1.45a4.13,4.13,0,0,0,2.63,7.84,74.49,74.49,0,0,0,15.68-7.74A4.17,4.17,0,0,0,832,897.44Z"/><path class="cls-49" d="M819.13,721.49a4.19,4.19,0,0,0-2.61-1.78,4.24,4.24,0,0,0-4.89,3.2q-1.85,6.2-3.68,12.4a4.18,4.18,0,0,0,.59,3.1A4.13,4.13,0,0,0,816,737q1.83-6.21,3.67-12.4A4.16,4.16,0,0,0,819.13,721.49Z"/><path class="cls-49" d="M835.9,762l-11.5-10.55a4.13,4.13,0,0,0-5.54,6.13q5.76,5.26,11.5,10.55A4.13,4.13,0,1,0,835.9,762Z"/><path class="cls-49" d="M846.23,730.22a4.22,4.22,0,0,0-5.72-1.2l-8.27,5.05a4.23,4.23,0,0,0-1.78,2.62,4.14,4.14,0,0,0,.59,3.1,4.21,4.21,0,0,0,5.71,1.2l8.27-5a4.23,4.23,0,0,0,1.78-2.62A4.18,4.18,0,0,0,846.23,730.22Z"/><path class="cls-49" d="M855.22,713.19a48.62,48.62,0,0,1-4.85-2.91,49.33,49.33,0,0,1-5.75-4.75,4.16,4.16,0,0,0-5.83.3,4.21,4.21,0,0,0,.29,5.83,53.36,53.36,0,0,0,12.36,8.88,4.13,4.13,0,1,0,3.78-7.35Z"/><path class="cls-49" d="M863.92,753.8a4.35,4.35,0,0,0-1.35-2.8,4.13,4.13,0,0,0-6.89,3.32q.69,6.2,1.39,12.4a4.34,4.34,0,0,0,1.36,2.8,4.13,4.13,0,0,0,6.89-3.32Q864.63,760,863.92,753.8Z"/><path class="cls-49" d="M850.07,803.41q-.92-7.11-1.84-14.23c-.28-2.14-2.06-4.12-4.38-3.87-2.11.23-4.16,2.09-3.87,4.39q.93,7.11,1.85,14.23a4.21,4.21,0,0,0,4.38,3.87C848.32,807.57,850.37,805.71,850.07,803.41Z"/><path class="cls-49" d="M843.49,825.27l-8.75-12.84a4.14,4.14,0,0,0-6.92,4.53l8.76,12.84a4.13,4.13,0,0,0,6.91-4.53Z"/><path class="cls-49" d="M877.93,814.28a4.18,4.18,0,0,0-2.61-1.78,4.1,4.1,0,0,0-3.11.59l-11.44,8.77a4.43,4.43,0,0,0-1.79,2.61,4.25,4.25,0,0,0,.59,3.11,4.17,4.17,0,0,0,2.61,1.78,4.05,4.05,0,0,0,3.11-.59L876.74,820a4.4,4.4,0,0,0,1.78-2.61A4.26,4.26,0,0,0,877.93,814.28Z"/><path class="cls-49" d="M893.35,798.71,882.29,791a4.48,4.48,0,0,0-3-1.06,4.13,4.13,0,0,0-3.86,4.38,4,4,0,0,0,1.35,2.81l11.06,7.76a4.56,4.56,0,0,0,3,1.06,4.23,4.23,0,0,0,2.8-1.36,4.17,4.17,0,0,0,1.06-3A4,4,0,0,0,893.35,798.71Z"/><path class="cls-49" d="M905,840.45a74.49,74.49,0,0,1-6.43-10.11,4.14,4.14,0,0,0-7.5,1.42,4.67,4.67,0,0,0,.59,3.1A74.49,74.49,0,0,0,898.1,845a4.39,4.39,0,0,0,2.61,1.78,4.21,4.21,0,0,0,3.11-.59,4.14,4.14,0,0,0,1.78-2.61A4.08,4.08,0,0,0,905,840.45Z"/><path class="cls-49" d="M874.39,844.63a4.22,4.22,0,0,0-4.89,3.2l-2.3,11a4.13,4.13,0,0,0,8.09,1.69l2.29-11A4.17,4.17,0,0,0,874.39,844.63Z"/><path class="cls-49" d="M860.92,874.89q-2.17-3.46-4.1-7.08a37.86,37.86,0,0,1-1.83-3.59c.43,1.1,0-.07-.14-.3l-.36-.75c-.31-.67-.61-1.35-.91-2a4.5,4.5,0,0,0-2-2.37,4.19,4.19,0,0,0-3.2-.24c-1.93.74-3.55,3.12-2.61,5.23A126.34,126.34,0,0,0,854,879.42a4.13,4.13,0,1,0,6.91-4.53Z"/><path class="cls-49" d="M895.83,874.89a4.24,4.24,0,0,0-5.72-1.19q-2.21,1.21-4.47,2.32c-2.44,1.16-4.92,2.23-7.44,3.19a4.13,4.13,0,1,0,2.62,7.83,106.22,106.22,0,0,0,13.81-6.43A4.16,4.16,0,0,0,895.83,874.89Z"/><path class="cls-49" d="M827.86,792.71a104.58,104.58,0,0,1-4.6-14.24,4.14,4.14,0,0,0-5.23-2.6,4.24,4.24,0,0,0-2.6,5.23A104.4,104.4,0,0,0,820,795.33a4.22,4.22,0,0,0,5.23,2.61C827.23,797.18,828.72,794.85,827.86,792.71Z"/><path class="cls-49" d="M912.51,860.25a4.21,4.21,0,0,0-4.89,3.2,149.58,149.58,0,0,0-2.76,15.16,4.38,4.38,0,0,0,.59,3.1,4.14,4.14,0,0,0,2.61,1.78c2.07.34,4.59-.9,4.89-3.2a144.51,144.51,0,0,1,2.76-15.15A4.18,4.18,0,0,0,912.51,860.25Z"/><path class="cls-49" d="M723.12,939.79,705.91,937a4.13,4.13,0,1,0-1.69,8.08l17.21,2.81a4.13,4.13,0,1,0,1.69-8.08Z"/><path class="cls-49" d="M689.89,945.62q-1.38-7.23-2.77-14.47a4.55,4.55,0,0,0-1.35-2.8,4.13,4.13,0,0,0-5.83.29,4,4,0,0,0-1.06,3q1.38,7.25,2.77,14.47a4.5,4.5,0,0,0,1.35,2.8,4.14,4.14,0,0,0,5.84-.29A4,4,0,0,0,689.89,945.62Z"/><path class="cls-49" d="M684.28,970.59a4.82,4.82,0,0,0-2-2.36L667,958a4.13,4.13,0,0,0-5.8,5,4.8,4.8,0,0,0,2,2.36l15.24,10.21a4.14,4.14,0,0,0,3.2.25,4.22,4.22,0,0,0,2.36-2A4.15,4.15,0,0,0,684.28,970.59Z"/><path class="cls-49" d="M709.74,963.58a4.2,4.2,0,0,0-5.56,1.79l-8.31,16.51a4.13,4.13,0,1,0,7.35,3.78l8.3-16.51A4.19,4.19,0,0,0,709.74,963.58Z"/><path class="cls-49" d="M756,938.92l-13.79-3.63a4.16,4.16,0,0,0-4.89,3.2,4.22,4.22,0,0,0,3.2,4.88L754.26,947a4.16,4.16,0,0,0,4.89-3.19A4.23,4.23,0,0,0,756,938.92Z"/><path class="cls-49" d="M746.37,962.44a4.48,4.48,0,0,0-1.35-2.81,4.21,4.21,0,0,0-3-1.06c-2.06.22-4.22,2.1-3.86,4.39a52.83,52.83,0,0,1,.49,11.92l0-.51a4.43,4.43,0,0,0,.59,3,4.19,4.19,0,0,0,2.61,1.78,4.15,4.15,0,0,0,3.11-.59,3.9,3.9,0,0,0,1.78-2.61A57,57,0,0,0,746.37,962.44Z"/><path class="cls-49" d="M771.89,983.89a4.22,4.22,0,0,0-5.23-2.61L757.93,984a4.25,4.25,0,0,0-2.36,2,4.13,4.13,0,0,0,5,5.81l8.73-2.76a4.15,4.15,0,0,0,2.61-5.23Z"/><path class="cls-49" d="M734.21,993.08c-.23-.27-.46-.53-.68-.8a4.09,4.09,0,0,0-1.93-1l-11.94-4.14a4.12,4.12,0,0,0-3.11.59,4.13,4.13,0,0,0-1.19,5.72l.69.8a4.1,4.1,0,0,0,1.92,1l11.94,4.14a4.12,4.12,0,0,0,3.11-.59,4.27,4.27,0,0,0,1.78-2.61A4.2,4.2,0,0,0,734.21,993.08Z"/><path class="cls-49" d="M790.26,957.25a4.19,4.19,0,0,0-2-2.36l-1-.37a4.07,4.07,0,0,0-2.16.13l-10.56,2.29a4.2,4.2,0,0,0-2.37,2,4.28,4.28,0,0,0-.24,3.2,4.19,4.19,0,0,0,2,2.36l1,.37a4.17,4.17,0,0,0,2.16-.12l10.56-2.3a4.16,4.16,0,0,0,2.37-2A4.28,4.28,0,0,0,790.26,957.25Z"/><path class="cls-49" d="M811.8,952.7a4.22,4.22,0,0,0-1.15-1.75l-10-11.55a4.14,4.14,0,0,0-6.9,3.33l.21,1a4,4,0,0,0,1.15,1.75l10,11.55a4.11,4.11,0,0,0,5.83-.3,4.13,4.13,0,0,0,1.06-3C811.93,953.4,811.87,953.05,811.8,952.7Z"/><path class="cls-49" d="M832.05,938.85a96.26,96.26,0,0,1-6.43-11A4.13,4.13,0,0,0,823,926a4.26,4.26,0,0,0-3.11.59,4.21,4.21,0,0,0-1.78,2.61c0,.37,0,.74-.08,1.11a4.11,4.11,0,0,0,.67,2,94,94,0,0,0,6.43,11,4.13,4.13,0,1,0,6.91-4.52Z"/><path class="cls-49" d="M826.77,967a4.11,4.11,0,0,0-5.83.3l-7.81,9.64a4.36,4.36,0,0,0-1.06,3,4.26,4.26,0,0,0,1.35,2.81,4.18,4.18,0,0,0,3,1,4.13,4.13,0,0,0,2.81-1.35q3.9-4.82,7.81-9.64a4.44,4.44,0,0,0,1.06-3A4.25,4.25,0,0,0,826.77,967Z"/><path class="cls-49" d="M803.12,999.05q-1.61-6.43-3.22-12.86a4.18,4.18,0,0,0-2-2.37,4.28,4.28,0,0,0-3.2-.24,4.23,4.23,0,0,0-2.61,5.23l3.21,12.86a4.18,4.18,0,0,0,2,2.36,4.13,4.13,0,0,0,5.81-5Z"/><path class="cls-49" d="M843.11,990.34a4.2,4.2,0,0,0-5.72-1.2,74.11,74.11,0,0,1-7,4l-.05,0-.22.1-.73.34-2,.87c-1.24.52-2.51,1-3.78,1.46a4.13,4.13,0,0,0,2.62,7.83,74.09,74.09,0,0,0,15.69-7.74A4.18,4.18,0,0,0,843.11,990.34Z"/><path class="cls-49" d="M673.32,1010.07l-17.22-2.81a4.13,4.13,0,0,0-1.68,8.09l17.21,2.81a4.13,4.13,0,1,0,1.69-8.09Z"/><path class="cls-49" d="M851.76,1031.34q-1.38-7.23-2.77-14.47a4.55,4.55,0,0,0-1.35-2.8,4.13,4.13,0,0,0-5.83.29,4,4,0,0,0-1.06,3q1.38,7.25,2.77,14.47a4.5,4.5,0,0,0,1.35,2.8,4.13,4.13,0,0,0,5.83-.29A3.94,3.94,0,0,0,851.76,1031.34Z"/><path class="cls-49" d="M848.77,1047.37a4.83,4.83,0,0,0-2-2.37l-15.23-10.21a4.1,4.1,0,0,0-3.2-.24,4.11,4.11,0,0,0-2.61,5.22,4.83,4.83,0,0,0,2,2.37L843,1052.35a4.1,4.1,0,0,0,3.2.24,4.11,4.11,0,0,0,2.61-5.22Z"/><path class="cls-49" d="M667.7,1027.24a4.21,4.21,0,0,0-5.57,1.78l-8.3,16.52a4.13,4.13,0,0,0,7.35,3.78l8.3-16.52A4.18,4.18,0,0,0,667.7,1027.24Z"/><path class="cls-49" d="M706.15,1009.2l-13.79-3.63a4.16,4.16,0,0,0-4.89,3.2,4.23,4.23,0,0,0,3.2,4.89l13.79,3.63a4.16,4.16,0,0,0,4.89-3.2A4.23,4.23,0,0,0,706.15,1009.2Z"/><path class="cls-49" d="M700.77,1037.12a4.45,4.45,0,0,0-1.35-2.8,4.21,4.21,0,0,0-3-1.06c-2.06.22-4.22,2.1-3.86,4.38a52.92,52.92,0,0,1,.49,11.93l0-.52a4.43,4.43,0,0,0,.59,3,4.25,4.25,0,0,0,2.61,1.79,4.19,4.19,0,0,0,3.11-.59,3.93,3.93,0,0,0,1.78-2.61A57.07,57.07,0,0,0,700.77,1037.12Z"/><path class="cls-49" d="M739.54,921.44a4.21,4.21,0,0,0-5.23-2.6l-8.73,2.75a4.25,4.25,0,0,0-2.36,2,4.14,4.14,0,0,0,5,5.81l8.72-2.76a4.12,4.12,0,0,0,2.61-5.23Z"/><path class="cls-49" d="M668.67,905l-.8.69a4.26,4.26,0,0,0-1,1.93l-4.06,12a4.11,4.11,0,0,0,.6,3.1,4.11,4.11,0,0,0,5.72,1.16l.8-.69a4.07,4.07,0,0,0,1-1.93q2-6,4.07-12a4.12,4.12,0,0,0-.6-3.11,4.15,4.15,0,0,0-5.73-1.16Z"/><path class="cls-49" d="M740.46,1027.54a4.21,4.21,0,0,0-2-2.37l-1-.37a4.14,4.14,0,0,0-2.15.13l-10.56,2.3a4.15,4.15,0,0,0-2.37,2,4.14,4.14,0,0,0,1.79,5.57l1,.37a4.07,4.07,0,0,0,2.16-.13l10.56-2.29a4.15,4.15,0,0,0,2.36-2A4.24,4.24,0,0,0,740.46,1027.54Z"/><path class="cls-49" d="M762,1023a4.25,4.25,0,0,0-1.15-1.76l-10-11.54a4.14,4.14,0,0,0-3-1.06,4.13,4.13,0,0,0-3.86,4.38l.21,1a4.13,4.13,0,0,0,1.14,1.76l10,11.54a4.14,4.14,0,0,0,3,1.06,4.13,4.13,0,0,0,3.86-4.38C762.13,1023.69,762.06,1023.34,762,1023Z"/><path class="cls-49" d="M782.25,1009.13a95.41,95.41,0,0,1-6.43-11,4.13,4.13,0,0,0-7.5,1.42c0,.37-.05.73-.08,1.1a4.08,4.08,0,0,0,.67,2,94.11,94.11,0,0,0,6.43,11,4.13,4.13,0,0,0,6.91-4.53Z"/><path class="cls-49" d="M777,1037.27a4.13,4.13,0,0,0-5.83.29q-3.92,4.82-7.81,9.64a4.4,4.4,0,0,0-1.06,3,4.24,4.24,0,0,0,1.35,2.8,4.13,4.13,0,0,0,5.84-.3l7.81-9.64a4.35,4.35,0,0,0,1.05-3A4.17,4.17,0,0,0,777,1037.27Z"/><path class="cls-49" d="M783.86,934.75q-1.61-6.43-3.22-12.86a4.16,4.16,0,0,0-2-2.37,4.13,4.13,0,0,0-5.8,5L776,937.37a4.18,4.18,0,0,0,2,2.36,4.13,4.13,0,0,0,5.81-5Z"/><path class="cls-49" d="M813.7,1021.73a4.2,4.2,0,0,0-5.72-1.2,72.88,72.88,0,0,1-7,4l0,0-.22.1-.74.34q-1,.45-2,.87c-1.24.52-2.5,1-3.77,1.46a4.13,4.13,0,1,0,2.62,7.83,74,74,0,0,0,15.68-7.74A4.16,4.16,0,0,0,813.7,1021.73Z"/><path class="cls-51" d="M601.09,477.23l52.25,62.91-76.89,35.43a67.9,67.9,0,0,0,24.64-98.34Z"/><path class="cls-51" d="M601.09,477.23a67.9,67.9,0,0,1-24.64,98.34l-6.14,2.84A67.89,67.89,0,1,1,601,477.12Z"/><circle class="cls-42" cx="525.2" cy="516.18" r="34.48"/><g class="cls-5"><path class="cls-40" d="M501.71,568.55a1.68,1.68,0,0,1-.79-.2l-44.24-24.06a1.65,1.65,0,0,1-.87-1.46L456,449.6a1.65,1.65,0,0,1,2.44-1.45l44.24,24.06a1.66,1.66,0,0,1,.86,1.46l-.17,93.23a1.65,1.65,0,0,1-.81,1.42A1.69,1.69,0,0,1,501.71,568.55Zm-42.59-26.7,40.94,22.27.17-89.47-40.94-22.27Z"/><path class="cls-40" d="M501.88,475.32a1.66,1.66,0,0,1-.79-.2l-44.24-24.07a1.67,1.67,0,0,1-.84-1.75,1.66,1.66,0,0,1,1.4-1.34l86.38-12.14a1.63,1.63,0,0,1,1,.19l44.24,24.06a1.65,1.65,0,0,1-.56,3.09L502.11,475.3Zm-39.06-24.78L502.19,472l80.89-11.37-39.37-21.41Z"/><path class="cls-40" d="M501.71,568.55a1.65,1.65,0,0,1-1.66-1.65l.18-93.24a1.65,1.65,0,0,1,1.42-1.63L588,459.89a1.65,1.65,0,0,1,1.32.39,1.61,1.61,0,0,1,.56,1.25l-.17,93.23a1.67,1.67,0,0,1-1.42,1.64l-86.38,12.14Zm1.82-93.45-.17,89.9,83.08-11.68.17-89.89Z"/></g><path class="cls-52" d="M1422.52,914.36c-8.13,6.33-31.49,16.49-58.77,27.15l13.76,114.21H1120.77l11-208.42s-73.71,45.93-107,42.25-52.36-132.42-52.36-132.42l5.57-1.46,49.35-12.92,9.38-2.46,17,48.68s95.77-111.14,104.49-119,81.16-11.15,82.69-11.22l-1.17,6.4s5.29,44.44,9.42,48.92,80.61-59.25,80.61-59.25,62,15.38,71.19,34S1446.41,895.76,1422.52,914.36Z"/><g class="cls-53"><path class="cls-54" d="M1458.53,696.89q-71.94-4.49-143.94-7.58-71.6-3.07-143.23-4.79-40.35-1-80.71-1.49c-2.23,0-4,2.28-3.86,4.38a4.22,4.22,0,0,0,4.38,3.86q72.07,1,144.1,3.28,71.63,2.31,143.19,6,40.3,2.07,80.59,4.58c2.23.14,4-2.35,3.86-4.38C1462.76,698.29,1460.76,697,1458.53,696.89Z"/><path class="cls-54" d="M1449.65,727.91l-196.37,13.8-196.37,13.81L946.7,763.27c-5.29.37-4.8,8.62.52,8.24l196.37-13.8L1340,743.9l110.21-7.75C1455.47,735.78,1455,727.53,1449.65,727.91Z"/><path class="cls-54" d="M1486.09,802.4q-102.91-3.71-205.87-5.52-102.43-1.8-204.88-1.7-57.79.06-115.58.71c-5.31.06-4.79,8.31.52,8.25q103-1.17,205.94-.43,102.45.74,204.86,3.37,57.78,1.49,115.53,3.57c2.23.08,4-2.32,3.86-4.38A4.22,4.22,0,0,0,1486.09,802.4Z"/><path class="cls-54" d="M1479.19,835.35q-97,3.92-194,9t-193.9,11.24q-54.4,3.47-108.77,7.29c-5.29.38-4.8,8.62.52,8.25q96.88-6.83,193.83-12.51t194-10.23q54.43-2.55,108.9-4.75C1485,843.38,1484.51,835.14,1479.19,835.35Z"/><path class="cls-54" d="M1502.62,907.57l-188.92-3.42-188-3.4-106-1.92c-5.3-.1-4.77,8.15.53,8.25l188.92,3.41,187.95,3.4,106,1.92C1508.45,915.91,1507.92,907.66,1502.62,907.57Z"/><path class="cls-54" d="M1471.4,954.82q-79,4.7-158.09,8.77-78.64,4-157.33,7.46-44.49,1.94-89,3.66c-5.31.21-4.8,8.45.52,8.25q79.11-3.09,158.19-6.79,78.67-3.69,157.3-8,44.48-2.45,88.92-5.09C1477.22,962.75,1476.72,954.5,1471.4,954.82Z"/><path class="cls-54" d="M1442,1029.86q-72.06-3.09-144.09-6.78-71.61-3.68-143.2-7.93-40.32-2.4-80.63-5c-2.22-.14-4,2.36-3.86,4.38.15,2.46,2.15,3.72,4.38,3.87q72,4.61,144,8.63,71.61,4,143.23,7.41,40.35,1.92,80.7,3.65c2.23.09,4-2.33,3.86-4.38C1446.22,1031.3,1444.23,1030,1442,1029.86Z"/></g><path class="cls-46" d="M1337.15,488.16a28.85,28.85,0,0,1,1.53,11.17c-.19,10.08-2.37,20-4.62,29.83l-41-3.17A19.89,19.89,0,0,0,1275,514.31h-93c-3.62-4.64-3.45-11.91-.26-17,3.65-5.88,10.26-9.33,16.93-11.17-6.87-5.23-12.55-12.57-14-21.09s2.15-18.16,9.78-22.21c8.15-4.31,18.26-1.5,26.32,3s15.37,10.55,24.19,13.18c7.76,2.31,16.06,1.75,24.1.79s16.15-2.29,24.19-1.45,16.26,4.23,20.9,10.86c3.06,4.34,4.31,9.66,5.5,14.83,1.75-3.34,6.2-4.71,9.82-3.58S1335.74,484.66,1337.15,488.16Z"/><path class="cls-40" d="M1331.89,540l-37.05,6.48V534.14a19.46,19.46,0,0,0-1.77-8.15l41,3.17,4,.32v9.42Z"/><path class="cls-46" d="M1331.89,540c-.8,4.59-1.63,9.19-2.44,13.78-6-18.79-25.56-6.35-26.57,15l-8-22.3Z"/><path class="cls-47" d="M1329.45,553.75q.15.46.3,1c5.61,20.21-15.38,31.69-15.38,31.69l15.38,68.43s-76.48,63.72-80.61,59.25-9.42-48.92-9.42-48.92l1.17-6.4h0l2-11v-.13c-1.34.08-2.71.13-4.12.13-41.8,0-44-66.37-44-66.37H1275a19.88,19.88,0,0,0,19.83-19.82v-15.1l8,22.3C1303.89,547.4,1323.44,535,1329.45,553.75Zm-75.19,68.35c13.17-5.67,8.13-20.82,8.13-20.82l-31.08,13.93S1241.11,627.77,1254.26,622.1Z"/><path class="cls-40" d="M1294.84,546.45v15.1A19.88,19.88,0,0,1,1275,581.37h-15.84A19.88,19.88,0,0,0,1279,561.55V534.14a19.88,19.88,0,0,0-19.82-19.83H1275A19.89,19.89,0,0,1,1293.07,526a19.46,19.46,0,0,1,1.77,8.15Z"/><rect class="cls-48" x="1158.2" y="514.31" width="120.79" height="67.06" rx="19.83"/><path class="cls-6" d="M1262.39,601.28s5,15.15-8.13,20.82-23-6.89-23-6.89Z"/><path class="cls-39" d="M1257,526a2,2,0,1,1,0,4h-81.39a2,2,0,0,1,0-4Z"/><path class="cls-47" d="M1152.59,935.81a5.84,5.84,0,0,1-2.2-3.54c-.35-4.94,17.91-11.48,39.63-5.75s34.91,3.18,34.91,3.18l15.86,47.61c-18,8.69-33,16.06-44.75,21.4-10.54,4.79-18.47,7.94-23.61,8.92-3.32.63-5.49.36-6.43-1-4-5.62-5.85-10.44-6-15.38s-5.85-12.06-9.65-21.13a6.54,6.54,0,0,1-.5-2.27c-.62-9.55,14.74-25.29,14.74-25.29S1156.58,939.48,1152.59,935.81Z"/><path class="cls-46" d="M1196,998.71s4.87,22.89-7.75,23.57c-10.71.6-14.64-10.11-15.6-13.38l-.26-1.27C1177.57,1006.65,1185.5,1003.5,1196,998.71Z"/><path class="cls-46" d="M1152.59,935.81c4,3.67,12,6.79,12,6.79s-15.36,15.74-14.74,25.29c-12.09-.08-17.06-4.74-17-16.1C1133.06,940.63,1151.88,936,1152.59,935.81Z"/><path class="cls-47" d="M1034.66,636.41c10-4.13-13.63,50.37-7.32,106.34L978,755.67,976,743s-13.74-22.8-14.55-40.93c0,0-16-13.38-15.6-20.53s8.62-9.27,8.62-9.27-7.23-13.29,10.12-20.47c0,0,3.07-15.71,22.22-3.55,0,0-27.74-51.39-22-59s51.61,78.5,51.61,78.5S1024.63,640.57,1034.66,636.41Z"/><path class="cls-46" d="M1138.08,744.71q-5.13,49.35-6.17,99c0,2.13,3.25,1.91,3.3-.21q1-49.17,6.11-98.14C1141.54,743.29,1138.3,742.59,1138.08,744.71Z"/><path class="cls-46" d="M1062.39,817.71q-2.55-11.34-5.11-22.68c-.47-2.07-3.6-1-3.13,1.05l5.11,22.68C1059.72,820.83,1062.85,819.77,1062.39,817.71Z"/><path class="cls-46" d="M1071.45,809.06q-3.83-6.66-7.3-13.5a1.66,1.66,0,0,0-2.29-.48,1.7,1.7,0,0,0-.48,2.29q3.48,6.84,7.3,13.5a1.65,1.65,0,0,0,2.77-1.81Z"/><path class="cls-46" d="M998.38,681.68a108.44,108.44,0,0,0-5.87-18.78c-.79-2-3.93-.93-3.13,1.05A110.88,110.88,0,0,1,995,681.44c.62,2.78,1.54,6.2.41,9-.46,1.13-1.44,2.45-2.78,2.53s-2.74-1.43-3.63-2.41a57.46,57.46,0,0,1-5.23-7.34q-2.52-3.87-4.91-7.83-4.85-8.05-9.08-16.46c-1-1.89-3.72-.07-2.77,1.81a211.87,211.87,0,0,0,17.58,29.58,23.28,23.28,0,0,0,3.43,3.86c-2,2.38-5.18,5.53-8.5,5.54-3.57,0-6.49-3.91-8.58-6.35-5-5.79-9.07-12.29-13.14-18.73-1.14-1.81-3.9,0-2.76,1.8,4.76,7.54,9.58,15.12,15.71,21.65a22,22,0,0,0,3.47,3.06,11.76,11.76,0,0,1-3.75,1.82,7.8,7.8,0,0,1-4.67-.15,1.65,1.65,0,0,0-1.51,2.94c4.37,1.74,9,.33,12.59-2.47a2,2,0,0,0,.51-.62,7.57,7.57,0,0,0,3.4.23c3.84-.62,7.3-3.62,9.7-6.52a1.68,1.68,0,0,0,.27-.51,5.18,5.18,0,0,0,5.21-.83C1000.13,691.86,999.29,686.12,998.38,681.68Z"/><path class="cls-46" d="M1291.23,605.48c-2.47,10.51-7,20.4-15.63,27.28A68,68,0,0,1,1245.85,646c-2.06.38-1.88,3.69.21,3.3,11.44-2.16,22.85-6.76,31.89-14.24s13.89-17.74,16.52-28.92C1295,604.09,1291.72,603.41,1291.23,605.48Z"/><path class="cls-46" d="M1341.75,843.06a889.51,889.51,0,0,0-21.21-90.9c-.59-2-3.72-1-3.13,1a885,885,0,0,1,20.9,89.34q-43.74,31.29-89.21,60.08-12.93,8.18-26,16.15c-1.82,1.11,0,3.88,1.81,2.77q46.3-28.27,91-59.16,12.59-8.71,25-17.63a1.85,1.85,0,0,0,.37-.37A1.27,1.27,0,0,0,1341.75,843.06Z"/><path class="cls-46" d="M1361.23,942.42c-29.77,9.4-60.3,16.11-90,25.57-8.42,2.67-16.76,5.58-25,8.8-2,.77-.94,3.91,1,3.13,29.08-11.4,59.53-18.58,89.58-26.89,8.52-2.36,17-4.81,25.45-7.48C1364.31,944.91,1363.26,941.78,1361.23,942.42Z"/><path class="cls-46" d="M1233.88,592l-13.18.49a67.07,67.07,0,0,1,.53-10.69,1.65,1.65,0,0,0-3.24-.67,72.83,72.83,0,0,0-.57,12.61,1.67,1.67,0,0,0,1.35,1.49,1.51,1.51,0,0,0,1.31.59l14-.52C1236.21,595.24,1236,591.94,1233.88,592Z"/><path class="cls-46" d="M958.34,631.93a39.77,39.77,0,1,1,39.77-39.77A39.82,39.82,0,0,1,958.34,631.93Zm0-76.24a36.47,36.47,0,1,0,36.46,36.47A36.51,36.51,0,0,0,958.34,555.69Z"/><path class="cls-46" d="M958.34,618a25.88,25.88,0,1,1,25.87-25.88A25.91,25.91,0,0,1,958.34,618Zm0-48.45a22.58,22.58,0,1,0,22.57,22.57A22.6,22.6,0,0,0,958.34,569.59Z"/><path class="cls-46" d="M958.34,603a10.84,10.84,0,1,1,10.83-10.84A10.85,10.85,0,0,1,958.34,603Zm0-18.37a7.53,7.53,0,1,0,7.53,7.53A7.54,7.54,0,0,0,958.34,584.63Z"/><path class="cls-55" d="M1126,959.08c-5.43,8.85-14.87,17.53-25.41,19.47-4.94.91-10.41,0-12.52-5.15-1.19-2.9-1.48-6.24-1.78-9.34a77,77,0,0,1-.31-10c.21-6.59,2-12.92,2.41-19.47.3-5-.85-10.44-4.76-13.86-4.43-3.88-10.48-3-15.6-1.16a72.5,72.5,0,0,0-13,6.15c-17,10.15-29.72,25.9-43.32,40-6.92,7.16-14.17,14.07-22.39,19.72-8.7,6-21.64,12-31.3,4.53-7.86-6-9.46-17.34-9.46-26.61,0-11.7,2.33-23.26,5.58-34.46,6.59-22.74,17-44.31,21.92-67.55,1.65-7.78,4.1-19.56-2.87-25.66-4.34-3.8-9.35-1.76-14.37-1.06-5.45.75-10.8-1.5-14.85-5.06-9.26-8.15-10.79-21.92-11.49-33.49a158.36,158.36,0,0,1,2.7-39q1.82-9.58,4.53-19c1.76-6.1,4.23-12.09,5.42-18.34,1-5.23.75-10.64-1.91-15.36a13.52,13.52,0,0,0-11.82-7.1c-5.65-.06-11,2.92-16.68,2.09-2.48-.36-4.8-1.51-5.79-4-1.1-2.7-.48-5.93,0-8.71A83.08,83.08,0,0,1,921.14,655a81.83,81.83,0,0,1,10.5-13c1.5-1.53-1-3.73-2.45-2.22a86.09,86.09,0,0,0-23.31,45c-.89,5-2,11.23,2.13,15.16,3.34,3.2,8.63,3.34,12.92,2.55,5.86-1.09,12.72-3.87,17.58,1.13,4.09,4.21,4.39,10.46,3.3,15.9-1.29,6.48-3.87,12.72-5.66,19.08a188.78,188.78,0,0,0-6.91,39.1c-.82,12.54-.65,26,2.9,38.15,3,10.31,10.43,20.52,21.79,22.06a22.4,22.4,0,0,0,8.07-.55c2.71-.6,5.73-1.36,8.24.25,3.66,2.35,4.26,7.72,4.24,11.66,0,5.43-1.48,11-2.77,16.22-1.45,6-3.24,11.81-5.19,17.62-3.86,11.55-8.35,22.87-12.25,34.41-3.82,11.34-7.08,22.94-8.38,34.86-1.12,10.29-1.36,21.57,3.12,31.16a23.57,23.57,0,0,0,8.72,10.25,22,22,0,0,0,15.67,2.45c10.56-2,19.64-8.84,27.61-15.71,15.54-13.39,27.84-30.13,43.62-43.27,7.69-6.4,16.44-12.16,26.1-15.08,3-.89,6.45-1.46,9.32.11a10.25,10.25,0,0,1,4.57,6.55c1.69,6.41-1,13.45-1.62,19.85a79.23,79.23,0,0,0,.49,19.94c.79,5.1,2.48,10.22,7.6,12.4,9.37,4,20.42-2.38,27.42-8.29a50.12,50.12,0,0,0,10.38-12.15C1130,958.77,1127.06,957.28,1126,959.08Z"/></g></g></g></svg>