<svg xmlns="http://www.w3.org/2000/svg" viewBox="0 0 58.04 91.48"><defs><style>.cls-1{fill:#044da4;}</style></defs><g id="Camada_2" data-name="Camada 2"><g id="Camada_1-2" data-name="Camada 1"><path class="cls-1" d="M36.34,91.48C26.05,91.48,18.74,88,14,80.73,10.12,74.84,1,61.07,1,61.07a6.22,6.22,0,0,1-.88-4.69A5.31,5.31,0,0,1,2.49,53a6,6,0,0,1,8,2.1l4.73,6.48v-48a4.68,4.68,0,0,1,9.35,0V49.18a.9.9,0,0,0,1.79,0V30.92a4.68,4.68,0,1,1,9.35,0V49.18a.9.9,0,0,0,.91.88.89.89,0,0,0,.89-.88V38.06a4.68,4.68,0,1,1,9.35,0V52a.9.9,0,0,0,1.79,0V42.06a4.68,4.68,0,0,1,8-3.3A4.64,4.64,0,0,1,58,42.06V71.47C58,74.81,57,91.48,36.34,91.48ZM1.85,60.53s9.1,13.76,13,19.66c4.61,7,11.45,10.29,21.51,10.29,19.7,0,20.7-15.84,20.7-19V42.06A3.65,3.65,0,0,0,56,39.46a3.68,3.68,0,0,0-6.29,2.6V52a1.9,1.9,0,0,1-3.79,0V38.06a3.68,3.68,0,1,0-7.35,0V49.18a1.9,1.9,0,0,1-3.8,0V30.92a3.68,3.68,0,1,0-7.35,0V49.18a1.9,1.9,0,0,1-3.79,0V13.61a3.68,3.68,0,0,0-7.35,0v49.5a.5.5,0,0,1-.91.29L9.68,55.67A5,5,0,0,0,3,53.85,4.33,4.33,0,0,0,1.11,56.6,5.25,5.25,0,0,0,1.85,60.53Zm0,0h0Z"/><path class="cls-1" d="M14.17,20.06a.51.51,0,0,1-.31-.11,9.49,9.49,0,1,1,11.93-.11.5.5,0,0,1-.64-.78,8.5,8.5,0,1,0-10.67.11.49.49,0,0,1,.08.7A.51.51,0,0,1,14.17,20.06Z"/><path class="cls-1" d="M14,23.52a.53.53,0,0,1-.24-.06A12.49,12.49,0,1,1,26,23.34a.5.5,0,0,1-.68-.19.49.49,0,0,1,.18-.68,11.51,11.51,0,1,0-11.27.11.5.5,0,0,1,.2.68A.49.49,0,0,1,14,23.52Z"/></g></g></svg>