<svg xmlns="http://www.w3.org/2000/svg" viewBox="0 0 159.7 159.7"><defs><style>.cls-1{fill:none;stroke:#ff4a9a;stroke-miterlimit:10;stroke-width:10px;}.cls-2{fill:#ff4a9a;}</style></defs><g id="Camada_2" data-name="Camada 2"><g id="Desenho"><rect class="cls-1" x="5" y="5" width="149.7" height="149.7" rx="12"/><path class="cls-2" d="M99,32.5h24.18q3.38,0,1.18,3L95.24,77.65,127.37,124a2.42,2.42,0,0,1,.51,2.19q-.34,1-1.86,1H101.67A3.35,3.35,0,0,1,99,125.51L79.85,97.1,60.58,125.51a2.66,2.66,0,0,1-2.71,1.69H33.69q-1.52,0-1.86-1a2.36,2.36,0,0,1,.51-2.19L64.46,77.65,35.21,35.55c-1.47-2-1-3,1.35-3H60.74a4,4,0,0,1,3,1.53L79.85,58,95.92,34A3.4,3.4,0,0,1,99,32.5Z"/></g></g></svg>