<svg xmlns="http://www.w3.org/2000/svg" viewBox="0 0 143.76 137.77"><defs><style>.cls-1{fill:#00eb6b;}</style></defs><g id="Camada_2" data-name="Camada 2"><g id="Camada_1-2" data-name="Camada 1"><path class="cls-1" d="M116.8,137.77H89.85a6,6,0,0,1-6-6v-24a12,12,0,1,0-23.94,0v24a6,6,0,0,1-6,6H27a9,9,0,0,1-9-9V74.88a3,3,0,0,1,6,0v53.9a3,3,0,0,0,3,3H53.91v-24a18,18,0,1,1,35.94,0v24h27a3,3,0,0,0,3-3V77.87a3,3,0,0,1,6,0v50.91A9,9,0,0,1,116.8,137.77Z"/><path class="cls-1" d="M3,74.88A3,3,0,0,1,.88,74a3,3,0,0,1,0-4.24L69.76.88A3,3,0,0,1,74,.88l68.88,68.88A3,3,0,0,1,138.64,74L71.88,7.24,5.12,74A3,3,0,0,1,3,74.88Z"/><path class="cls-1" d="M116.8,33a3,3,0,0,1-3-3V12h-18a3,3,0,0,1,0-6h18a6,6,0,0,1,6,6V30A3,3,0,0,1,116.8,33Z"/></g></g></svg>