<svg xmlns="http://www.w3.org/2000/svg" viewBox="0 0 244.76 244.76"><defs><style>.cls-1{fill:#b9375e;}</style></defs><g id="Camada_2" data-name="Camada 2"><g id="Camada_1-2" data-name="Camada 1"><g id="Video_instruction_webinar" data-name="Video instruction webinar"><g id="financial_report_flip_chart_chart" data-name="financial report, flip chart, chart"><g id="training"><path class="cls-1" d="M232.53,24.48H12.24A12.24,12.24,0,0,1,12.24,0H232.53a12.24,12.24,0,0,1,0,24.48ZM12.24,8.16a4.08,4.08,0,0,0,0,8.16H232.53a4.08,4.08,0,1,0,0-8.16Z"/><path class="cls-1" d="M232.53,212.13H12.24a4.08,4.08,0,0,1-4.08-4.08V36.71a4.08,4.08,0,0,1,8.16,0V204H228.45V36.71a4.08,4.08,0,0,1,8.16,0V208.05A4.08,4.08,0,0,1,232.53,212.13Z"/></g></g><g id="video_marketing" data-name="video marketing"><path class="cls-1" d="M183.57,171.34H61.19A12.26,12.26,0,0,1,49,159.1V69.35A12.25,12.25,0,0,1,61.19,57.11H183.57a12.25,12.25,0,0,1,12.24,12.24V159.1A12.26,12.26,0,0,1,183.57,171.34ZM61.19,65.27a4.1,4.1,0,0,0-4.08,4.08V159.1a4.1,4.1,0,0,0,4.08,4.08H183.57a4.09,4.09,0,0,0,4.08-4.08V69.35a4.09,4.09,0,0,0-4.08-4.08Z"/><path class="cls-1" d="M102,138.7a4,4,0,0,1-2.26-.69,4.06,4.06,0,0,1-1.82-3.39V93.83a4.08,4.08,0,0,1,5.65-3.77l48.95,20.39a4.08,4.08,0,0,1,0,7.54l-48.95,20.4A4.21,4.21,0,0,1,102,138.7ZM106.06,100V128.5l34.27-14.28Z"/></g><path class="cls-1" d="M159.1,240.69v0Z"/><path class="cls-1" d="M159.1,244.76a4.08,4.08,0,0,1-4.08-4.07V224.37a4.08,4.08,0,0,1,8.16,0v16.32A4.08,4.08,0,0,1,159.1,244.76Z"/><path class="cls-1" d="M85.67,240.69v0Z"/><path class="cls-1" d="M85.67,244.76a4.08,4.08,0,0,1-4.08-4.07V224.37a4.08,4.08,0,1,1,8.16,0v16.32A4.08,4.08,0,0,1,85.67,244.76Z"/></g></g></g></svg>