<svg xmlns="http://www.w3.org/2000/svg" viewBox="0 0 293.35 291.58"><defs><style>.cls-1{fill:#b9375e;}</style></defs><g id="Camada_2" data-name="Camada 2"><g id="Camada_1-2" data-name="Camada 1"><path class="cls-1" d="M125,268.72a4.91,4.91,0,0,1-1.17-.16,4.59,4.59,0,0,1-3.28-5.59l7.64-29.34a4.59,4.59,0,0,1,8.88,2.31l-7.64,29.34A4.59,4.59,0,0,1,125,268.72Zm43.35,0a4.59,4.59,0,0,1-4.43-3.44l-7.64-29.34a4.59,4.59,0,0,1,8.88-2.31L172.8,263a4.59,4.59,0,0,1-3.28,5.59A4.77,4.77,0,0,1,168.35,268.72Z"/><path class="cls-1" d="M206.68,291.58h-120A4.58,4.58,0,0,1,82.09,287a27.49,27.49,0,0,1,27.46-27.46H183.8A27.5,27.5,0,0,1,211.27,287,4.58,4.58,0,0,1,206.68,291.58ZM91.83,282.41H201.51A18.34,18.34,0,0,0,183.8,268.7H109.55a18.37,18.37,0,0,0-17.72,13.71Zm189.3-43H12.22A12.23,12.23,0,0,1,0,227.16V46.64A12.23,12.23,0,0,1,12.22,34.42H74.45a4.58,4.58,0,1,1,0,9.16H12.22a3.06,3.06,0,0,0-3.05,3.06V227.16a3.06,3.06,0,0,0,3.05,3.05H281.13a3.06,3.06,0,0,0,3.06-3.05V46.64a3.07,3.07,0,0,0-3.06-3.06H218.91a4.58,4.58,0,1,1,0-9.16h62.22a12.23,12.23,0,0,1,12.22,12.22V227.16A12.23,12.23,0,0,1,281.13,239.38Z"/><path class="cls-1" d="M288.77,208.48H4.58a4.59,4.59,0,0,1,0-9.17H288.77a4.59,4.59,0,0,1,0,9.17Z"/><path class="cls-1" d="M218.22,37.62H190.45A4.57,4.57,0,0,1,185.87,33V5.27a4.58,4.58,0,0,1,9.16,0V28.46h23.19a4.58,4.58,0,1,1,0,9.16Z"/><path class="cls-1" d="M211.27,184.32H82.09A12.23,12.23,0,0,1,69.86,172.1V12.22A12.23,12.23,0,0,1,82.09,0H187.28a12.24,12.24,0,0,1,8.65,3.57l24,24a12.53,12.53,0,0,1,2.48,3.59,12.06,12.06,0,0,1,1.09,5.06V172.08A12.21,12.21,0,0,1,211.27,184.32ZM82.09,9.17A3.06,3.06,0,0,0,79,12.22V172.1a3.06,3.06,0,0,0,3.06,3.05H211.27a3.06,3.06,0,0,0,3-3.05V36.21a3.12,3.12,0,0,0-.26-1.26,3,3,0,0,0-.63-.9l-24-24a3.32,3.32,0,0,0-.9-.63,3.12,3.12,0,0,0-1.26-.26Z"/><path class="cls-1" d="M196.37,141.81h-56.8a4.59,4.59,0,0,1,0-9.17h56.8a4.59,4.59,0,0,1,0,9.17Zm0-81.52h-56.8a4.58,4.58,0,1,1,0-9.16h56.8a4.58,4.58,0,0,1,0,9.16ZM117,110.77H97.56A4.58,4.58,0,0,1,93,106.19V86.75a4.58,4.58,0,0,1,4.59-4.59H117a4.58,4.58,0,0,1,4.58,4.59v19.44A4.57,4.57,0,0,1,117,110.77Zm-14.86-9.17h10.27V91.33H102.14Zm94.23-.55h-56.8a4.59,4.59,0,0,1,0-9.17h56.8a4.59,4.59,0,0,1,0,9.17ZM117,151.53H97.56A4.58,4.58,0,0,1,93,146.94V127.5a4.58,4.58,0,0,1,4.59-4.58H117a4.57,4.57,0,0,1,4.58,4.58v19.44A4.58,4.58,0,0,1,117,151.53Zm-14.86-9.17h10.27V132.09H102.14Zm1.7-75.19a4.58,4.58,0,0,1-3.25-1.34L93.74,59a4.58,4.58,0,1,1,6.47-6.48l3.61,3.61,10.5-10.5a4.58,4.58,0,1,1,6.48,6.47L107.05,65.83a4.41,4.41,0,0,1-3.21,1.34Z"/></g></g></svg>