<svg xmlns="http://www.w3.org/2000/svg" viewBox="0 0 417.43 82.37"><defs><style>.cls-1{fill:#fff;}</style></defs><g id="Camada_2" data-name="Camada 2"><g id="Camada_1-2" data-name="Camada 1"><path class="cls-1" d="M44.12,15v6.8c0,5.87-.68,10.71-8.08,15.05l-17.42,10c-3.74,1.95-4.85,3.65-4.85,6.8v2.21H44.12c.51,0,.59.08.59.51v8.58c0,.43-.17.52-.51.52h-42C.43,65.46,0,64.52,0,63.07V55.51C0,48.37,2.81,44.88,10.8,40L30,28.48c2.72-1.7,3.23-4.17,3.23-7.82V16.58c0-6-5.1-7.06-13-7.06H4c-.6,0-.77-.17-.77-.76V2.64c0-.85.34-1.11,1.11-1.37A97.71,97.71,0,0,1,21,0C33.15,0,44.12,1.7,44.12,15Z"/><path class="cls-1" d="M138.39.42c1,0,1.27.26,1.1,1.37L128.44,55.85c-1.78,8.84-3.31,10-11.9,10-9.61,0-10.63-1.11-12.75-10L95.37,20.4,87,55.85c-2.21,8.92-3.15,10-12.84,10-8.5,0-10-1.19-11.81-10L51.25,1.79C51.08.68,51.34.42,52.36.42H61.2c.77,0,.94.26,1.19,1.37l10,49.89c.6,3,1.11,3.57,2.55,3.57,1.79,0,2.13-.59,3-3.57L89.59,4.25a1.48,1.48,0,0,1,1.62-1.36h8.33a1.47,1.47,0,0,1,1.61,1.36L112.8,51.68c.76,3,1.19,3.57,3,3.57,1.45,0,1.88-.59,2.56-3.57l10-49.89c.17-1.11.42-1.37,1.1-1.37Z"/><path class="cls-1" d="M188.11,2.47a.67.67,0,0,1,.76.76V5.87a.67.67,0,0,1-.76.76H154.36V33.15H185c.51,0,.77.34.77.85v2.64a.68.68,0,0,1-.77.76h-30.6V61.29h33.75a.67.67,0,0,1,.76.76v2.64a.68.68,0,0,1-.76.77H150.87c-.85,0-1.27-.43-1.27-1.19V3.74a1.12,1.12,0,0,1,1.27-1.27Z"/><path class="cls-1" d="M235.71,38.08V64.69c0,.51-.34.77-.85.77H232a.68.68,0,0,1-.77-.77V38.08c0-13.34-3.82-14.62-12.58-14.62h-14.2V64.69a.68.68,0,0,1-.76.77h-3a.68.68,0,0,1-.76-.77V21.17c0-.6.25-.77.93-.85A113.9,113.9,0,0,1,218,19.38C230.61,19.38,235.71,21.51,235.71,38.08Z"/><path class="cls-1" d="M282.54,40.8v2.47c0,1.1-.17,1.61-1.87,1.61H251.85c.26,13.43,2.47,16.92,13.35,16.92h12.67a.8.8,0,0,1,.85.85V64.6c0,.43-.26.69-.77.77-3.48.42-9.61.51-12.75.51-15,0-17.85-4.76-17.85-23.29s2.89-23.21,17.85-23.21C279.06,19.38,282.29,23.72,282.54,40.8Zm-30.69-.08H278c-.17-14.2-2.47-17.26-12.84-17.26C254.15,23.46,251.94,26.86,251.85,40.72Z"/><path class="cls-1" d="M312.63,20c.51.17.68.42.68.85V22.7a.7.7,0,0,1-.85.76h-7.57c-3.23,0-7.22.43-7.22,4.93v36.3a.68.68,0,0,1-.77.77h-3a.68.68,0,0,1-.77-.77v-37c0-8.24,8.25-8.33,11-8.33A63.49,63.49,0,0,1,312.63,20Z"/><path class="cls-1" d="M354.62,20.06c.76.09,1,.6,1,1.28V64.18c-.09,14.2-3.32,18.19-18.19,18.19-3.49,0-7.48-.08-11.39-.42-.51,0-.77-.34-.77-.85v-2c0-.51.26-.85.77-.85h11.39c11.22,0,13.68-2.8,13.68-12.24v-.68c-4.42.42-8.07.51-12.07.51-16.57,0-19-4.34-19-22.87,0-19,2.47-23.63,17.6-23.63C343.48,19.38,348.16,19.64,354.62,20.06Zm-17,3.4C326,23.46,324.53,27.2,324.53,43c0,15.22,1.53,18.79,14.53,18.79,3.91,0,8.16-.09,12.07-.42V23.46Z"/><path class="cls-1" d="M374.25,7.91c0,2.12-1.1,3.23-3.14,3.23s-3.06-1.11-3.06-3.23a3.1,3.1,0,0,1,6.2,0ZM372.64,20a.67.67,0,0,1,.76.76v44a.68.68,0,0,1-.76.77h-3a.68.68,0,0,1-.76-.77V20.74a.67.67,0,0,1,.76-.76Z"/><path class="cls-1" d="M417.43,32.73V62.56c0,.69,0,1.53-1.53,2-3.06.94-11.81,1.36-17.08,1.36-11.48,0-15.3-3.32-15.3-13.26,0-8.59,4.08-12.07,13.68-12.07h15.73V33.24c0-7.74-5.87-9.78-13.77-9.78H388.62c-.6,0-.77-.17-.77-.76V20.83c0-.51.09-.68.68-.85a86.61,86.61,0,0,1,10.63-.6C409.53,19.38,417.43,22.19,417.43,32.73ZM397.2,44.54c-6.63,0-9.09,2.38-9.09,8.08,0,6.8,2.46,9.26,11.47,9.26,2.38,0,9.61-.17,13.35-1V44.54Z"/></g></g></svg>