<?xml version="1.0" encoding="utf-8"?>
<!-- Generator: Adobe Illustrator 25.2.3, SVG Export Plug-In . SVG Version: 6.00 Build 0)  -->
<svg version="1.1" id="Camada_1" xmlns="http://www.w3.org/2000/svg" xmlns:xlink="http://www.w3.org/1999/xlink" x="0px" y="0px"
	 viewBox="0 0 24 24" style="enable-background:new 0 0 24 24;" xml:space="preserve">
<style type="text/css">
	.st0{fill-rule:evenodd;clip-rule:evenodd;fill:#E3E0CF;}
</style>
<desc></desc>
<g id="Page-1">
	<g id="Group">
		<path id="Shape" class="st0" d="M5,6h14c0.6,0,1,0.4,1,1s-0.4,1-1,1H5C4.4,8,4,7.6,4,7S4.4,6,5,6z M5,11h14c0.6,0,1,0.4,1,1
			s-0.4,1-1,1H5c-0.6,0-1-0.4-1-1S4.4,11,5,11z M5,16h14c0.6,0,1,0.4,1,1s-0.4,1-1,1H5c-0.6,0-1-0.4-1-1S4.4,16,5,16z"/>
	</g>
</g>
</svg>
