<svg xmlns="http://www.w3.org/2000/svg" viewBox="0 0 630.54 344.88"><defs><style>.cls-1{opacity:0.2;}.cls-2{fill:none;stroke:#fff;stroke-miterlimit:10;}</style></defs><g id="Camada_2" data-name="Camada 2"><g id="Camada_1-2" data-name="Camada 1"><g class="cls-1"><path class="cls-2" d="M52.62,15.46v6.8c0,5.87-.68,10.71-8.08,15.05l-17.42,10c-3.74,1.95-4.85,3.65-4.85,6.8v2.21H52.62c.51,0,.59.08.59.51v8.58c0,.43-.17.52-.51.52h-42C8.93,66,8.5,65,8.5,63.57V56c0-7.14,2.81-10.63,10.8-15.47L38.51,29c2.72-1.7,3.23-4.17,3.23-7.82V17.08c0-6-5.1-7.06-13-7.06H12.5c-.6,0-.77-.17-.77-.76V3.14c0-.85.34-1.11,1.11-1.37A97.71,97.71,0,0,1,29.5.5C41.65.5,52.62,2.2,52.62,15.46Z"/><path class="cls-2" d="M146.89.92c1,0,1.27.26,1.1,1.37L136.94,56.35c-1.78,8.84-3.31,10-11.9,10-9.61,0-10.63-1.11-12.75-10L103.87,20.9,95.46,56.35c-2.21,8.92-3.15,10-12.84,10-8.5,0-10-1.19-11.81-10L59.75,2.29c-.17-1.11.09-1.37,1.11-1.37H69.7c.77,0,.94.26,1.19,1.37l10,49.89c.6,3,1.11,3.57,2.55,3.57,1.79,0,2.13-.59,3-3.57L98.09,4.75a1.48,1.48,0,0,1,1.62-1.36H108a1.47,1.47,0,0,1,1.61,1.36L121.3,52.18c.76,3,1.19,3.57,3,3.57,1.45,0,1.88-.59,2.56-3.57l10-49.89c.17-1.11.42-1.37,1.1-1.37Z"/><path class="cls-2" d="M74.62,109.46v6.8c0,5.87-.68,10.71-8.08,15l-17.42,10c-3.74,1.95-4.85,3.65-4.85,6.8v2.21H74.62c.51,0,.59.08.59.51v8.58c0,.43-.17.52-.51.52h-42c-1.78,0-2.21-.94-2.21-2.39V150c0-7.14,2.81-10.63,10.8-15.47L60.51,123c2.72-1.7,3.23-4.17,3.23-7.82v-4.08c0-6-5.1-7.06-13-7.06H34.5c-.6,0-.77-.17-.77-.76V97.14c0-.85.34-1.11,1.11-1.37A97.71,97.71,0,0,1,51.5,94.5C63.65,94.5,74.62,96.2,74.62,109.46Z"/><path class="cls-2" d="M168.89,94.92c1,0,1.27.26,1.1,1.37l-11.05,54.06c-1.78,8.84-3.31,10-11.9,10-9.61,0-10.63-1.11-12.75-10l-8.42-35.45-8.41,35.45c-2.21,8.92-3.15,10-12.84,10-8.5,0-10-1.19-11.81-10L81.75,96.29c-.17-1.11.09-1.37,1.11-1.37H91.7c.77,0,.94.26,1.19,1.37l10,49.89c.6,3,1.11,3.57,2.55,3.57,1.79,0,2.13-.59,3-3.57l11.64-47.43a1.48,1.48,0,0,1,1.62-1.36H130a1.47,1.47,0,0,1,1.61,1.36l11.65,47.43c.76,3,1.19,3.57,3,3.57,1.45,0,1.88-.59,2.56-3.57l10-49.89c.17-1.11.42-1.37,1.1-1.37Z"/><path class="cls-2" d="M44.62,199.46v6.8c0,5.87-.68,10.71-8.08,15.05l-17.42,10c-3.74,1.95-4.85,3.65-4.85,6.8v2.21H44.62c.51,0,.59.08.59.51v8.58c0,.43-.17.52-.51.52h-42C.93,250,.5,249,.5,247.57V240c0-7.14,2.81-10.63,10.8-15.47L30.51,213c2.72-1.7,3.23-4.17,3.23-7.82v-4.08c0-6-5.1-7.06-13-7.06H4.5c-.6,0-.77-.17-.77-.76v-6.12c0-.85.34-1.11,1.11-1.37A97.71,97.71,0,0,1,21.5,184.5C33.65,184.5,44.62,186.2,44.62,199.46Z"/><path class="cls-2" d="M138.89,184.92c1,0,1.27.26,1.1,1.37l-11.05,54.06c-1.78,8.84-3.31,10-11.9,10-9.61,0-10.63-1.11-12.75-10L95.87,204.9l-8.41,35.45c-2.21,8.92-3.15,10-12.84,10-8.5,0-10-1.19-11.81-10L51.75,186.29c-.17-1.11.09-1.37,1.11-1.37H61.7c.77,0,.94.26,1.19,1.37l10,49.89c.6,3,1.11,3.57,2.55,3.57,1.79,0,2.13-.59,3-3.57l11.64-47.43a1.48,1.48,0,0,1,1.62-1.36H100a1.47,1.47,0,0,1,1.61,1.36l11.65,47.43c.76,3,1.19,3.57,3,3.57,1.45,0,1.88-.59,2.56-3.57l10-49.89c.17-1.11.42-1.37,1.1-1.37Z"/><path class="cls-2" d="M66.62,293.46v6.8c0,5.87-.68,10.71-8.08,15.05l-17.42,10c-3.74,2-4.85,3.65-4.85,6.8v2.21H66.62c.51,0,.59.08.59.51v8.58c0,.43-.17.52-.51.52h-42c-1.78,0-2.21-.94-2.21-2.39V334c0-7.14,2.81-10.63,10.8-15.47L52.51,307c2.72-1.7,3.23-4.17,3.23-7.82v-4.08c0-6-5.1-7.06-13-7.06H26.5c-.6,0-.77-.17-.77-.76v-6.12c0-.85.34-1.11,1.11-1.37A97.71,97.71,0,0,1,43.5,278.5C55.65,278.5,66.62,280.2,66.62,293.46Z"/><path class="cls-2" d="M160.89,278.92c1,0,1.27.26,1.1,1.37l-11.05,54.06c-1.78,8.84-3.31,10-11.9,10-9.61,0-10.63-1.11-12.75-10l-8.42-35.45-8.41,35.45c-2.21,8.92-3.15,10-12.84,10-8.5,0-10-1.19-11.81-10L73.75,280.29c-.17-1.11.09-1.37,1.11-1.37H83.7c.77,0,.94.26,1.19,1.37l10,49.89c.6,3,1.11,3.57,2.55,3.57,1.79,0,2.13-.59,3-3.57l11.64-47.43a1.48,1.48,0,0,1,1.62-1.36H122a1.47,1.47,0,0,1,1.61,1.36l11.65,47.43c.76,3,1.19,3.57,3,3.57,1.45,0,1.88-.59,2.56-3.57l10-49.89c.17-1.11.42-1.37,1.1-1.37Z"/><path class="cls-2" d="M205.62,15.46v6.8c0,5.87-.68,10.71-8.08,15.05l-17.42,10c-3.74,1.95-4.85,3.65-4.85,6.8v2.21h30.35c.51,0,.59.08.59.51v8.58c0,.43-.17.52-.51.52h-42c-1.78,0-2.21-.94-2.21-2.39V56c0-7.14,2.81-10.63,10.8-15.47L191.51,29c2.72-1.7,3.23-4.17,3.23-7.82V17.08c0-6-5.1-7.06-13-7.06H165.5c-.6,0-.77-.17-.77-.76V3.14c0-.85.34-1.11,1.11-1.37A97.71,97.71,0,0,1,182.5.5C194.65.5,205.62,2.2,205.62,15.46Z"/><path class="cls-2" d="M299.89.92c1,0,1.27.26,1.1,1.37L289.94,56.35c-1.78,8.84-3.31,10-11.9,10-9.61,0-10.63-1.11-12.75-10L256.87,20.9l-8.41,35.45c-2.21,8.92-3.15,10-12.84,10-8.5,0-10-1.19-11.81-10L212.75,2.29c-.17-1.11.09-1.37,1.11-1.37h8.84c.77,0,.94.26,1.19,1.37l10,49.89c.6,3,1.11,3.57,2.55,3.57,1.79,0,2.13-.59,3-3.57L251.09,4.75a1.48,1.48,0,0,1,1.62-1.36H261a1.47,1.47,0,0,1,1.61,1.36L274.3,52.18c.76,3,1.19,3.57,3,3.57,1.45,0,1.88-.59,2.56-3.57l10-49.89c.17-1.11.42-1.37,1.1-1.37Z"/><path class="cls-2" d="M227.62,109.46v6.8c0,5.87-.68,10.71-8.08,15l-17.42,10c-3.74,1.95-4.85,3.65-4.85,6.8v2.21h30.35c.51,0,.59.08.59.51v8.58c0,.43-.17.52-.51.52h-42c-1.78,0-2.21-.94-2.21-2.39V150c0-7.14,2.81-10.63,10.8-15.47L213.51,123c2.72-1.7,3.23-4.17,3.23-7.82v-4.08c0-6-5.1-7.06-13-7.06H187.5c-.6,0-.77-.17-.77-.76V97.14c0-.85.34-1.11,1.11-1.37A97.71,97.71,0,0,1,204.5,94.5C216.65,94.5,227.62,96.2,227.62,109.46Z"/><path class="cls-2" d="M321.89,94.92c1,0,1.27.26,1.1,1.37l-11.05,54.06c-1.78,8.84-3.31,10-11.9,10-9.61,0-10.63-1.11-12.75-10l-8.42-35.45-8.41,35.45c-2.21,8.92-3.15,10-12.84,10-8.5,0-10-1.19-11.81-10L234.75,96.29c-.17-1.11.09-1.37,1.11-1.37h8.84c.77,0,.94.26,1.19,1.37l10,49.89c.6,3,1.11,3.57,2.55,3.57,1.79,0,2.13-.59,3-3.57l11.64-47.43a1.48,1.48,0,0,1,1.62-1.36H283a1.47,1.47,0,0,1,1.61,1.36l11.65,47.43c.76,3,1.19,3.57,3,3.57,1.45,0,1.88-.59,2.56-3.57l10-49.89c.17-1.11.42-1.37,1.1-1.37Z"/><path class="cls-2" d="M197.62,199.46v6.8c0,5.87-.68,10.71-8.08,15.05l-17.42,10c-3.74,1.95-4.85,3.65-4.85,6.8v2.21h30.35c.51,0,.59.08.59.51v8.58c0,.43-.17.52-.51.52h-42c-1.78,0-2.21-.94-2.21-2.39V240c0-7.14,2.81-10.63,10.8-15.47L183.51,213c2.72-1.7,3.23-4.17,3.23-7.82v-4.08c0-6-5.1-7.06-13-7.06H157.5c-.6,0-.77-.17-.77-.76v-6.12c0-.85.34-1.11,1.11-1.37a97.71,97.71,0,0,1,16.66-1.27C186.65,184.5,197.62,186.2,197.62,199.46Z"/><path class="cls-2" d="M291.89,184.92c1,0,1.27.26,1.1,1.37l-11.05,54.06c-1.78,8.84-3.31,10-11.9,10-9.61,0-10.63-1.11-12.75-10l-8.42-35.45-8.41,35.45c-2.21,8.92-3.15,10-12.84,10-8.5,0-10-1.19-11.81-10l-11.06-54.06c-.17-1.11.09-1.37,1.11-1.37h8.84c.77,0,.94.26,1.19,1.37l10,49.89c.6,3,1.11,3.57,2.55,3.57,1.79,0,2.13-.59,3-3.57l11.64-47.43a1.48,1.48,0,0,1,1.62-1.36H253a1.47,1.47,0,0,1,1.61,1.36l11.65,47.43c.76,3,1.19,3.57,3,3.57,1.45,0,1.88-.59,2.56-3.57l10-49.89c.17-1.11.42-1.37,1.1-1.37Z"/><path class="cls-2" d="M219.62,293.46v6.8c0,5.87-.68,10.71-8.08,15.05l-17.42,10c-3.74,2-4.85,3.65-4.85,6.8v2.21h30.35c.51,0,.59.08.59.51v8.58c0,.43-.17.52-.51.52h-42c-1.78,0-2.21-.94-2.21-2.39V334c0-7.14,2.81-10.63,10.8-15.47L205.51,307c2.72-1.7,3.23-4.17,3.23-7.82v-4.08c0-6-5.1-7.06-13-7.06H179.5c-.6,0-.77-.17-.77-.76v-6.12c0-.85.34-1.11,1.11-1.37a97.71,97.71,0,0,1,16.66-1.27C208.65,278.5,219.62,280.2,219.62,293.46Z"/><path class="cls-2" d="M313.89,278.92c1,0,1.27.26,1.1,1.37l-11.05,54.06c-1.78,8.84-3.31,10-11.9,10-9.61,0-10.63-1.11-12.75-10l-8.42-35.45-8.41,35.45c-2.21,8.92-3.15,10-12.84,10-8.5,0-10-1.19-11.81-10l-11.06-54.06c-.17-1.11.09-1.37,1.11-1.37h8.84c.77,0,.94.26,1.19,1.37l10,49.89c.6,3,1.11,3.57,2.55,3.57,1.79,0,2.13-.59,3-3.57l11.64-47.43a1.48,1.48,0,0,1,1.62-1.36H275a1.47,1.47,0,0,1,1.61,1.36l11.65,47.43c.76,3,1.19,3.57,3,3.57,1.45,0,1.88-.59,2.56-3.57l10-49.89c.17-1.11.42-1.37,1.1-1.37Z"/><path class="cls-2" d="M359.62,15.46v6.8c0,5.87-.68,10.71-8.08,15.05l-17.42,10c-3.74,1.95-4.85,3.65-4.85,6.8v2.21h30.35c.51,0,.59.08.59.51v8.58c0,.43-.17.52-.51.52h-42c-1.78,0-2.21-.94-2.21-2.39V56c0-7.14,2.81-10.63,10.8-15.47L345.51,29c2.72-1.7,3.23-4.17,3.23-7.82V17.08c0-6-5.1-7.06-13-7.06H319.5c-.6,0-.77-.17-.77-.76V3.14c0-.85.34-1.11,1.11-1.37A97.71,97.71,0,0,1,336.5.5C348.65.5,359.62,2.2,359.62,15.46Z"/><path class="cls-2" d="M453.89.92c1,0,1.27.26,1.1,1.37L443.94,56.35c-1.78,8.84-3.31,10-11.9,10-9.61,0-10.63-1.11-12.75-10L410.87,20.9l-8.41,35.45c-2.21,8.92-3.15,10-12.84,10-8.5,0-10-1.19-11.81-10L366.75,2.29c-.17-1.11.09-1.37,1.11-1.37h8.84c.77,0,.94.26,1.19,1.37l10,49.89c.6,3,1.11,3.57,2.55,3.57,1.79,0,2.13-.59,3-3.57L405.09,4.75a1.48,1.48,0,0,1,1.62-1.36H415a1.47,1.47,0,0,1,1.61,1.36L428.3,52.18c.76,3,1.19,3.57,3,3.57,1.45,0,1.88-.59,2.56-3.57l10-49.89c.17-1.11.42-1.37,1.1-1.37Z"/><path class="cls-2" d="M381.62,109.46v6.8c0,5.87-.68,10.71-8.08,15l-17.42,10c-3.74,1.95-4.85,3.65-4.85,6.8v2.21h30.35c.51,0,.59.08.59.51v8.58c0,.43-.17.52-.51.52h-42c-1.78,0-2.21-.94-2.21-2.39V150c0-7.14,2.81-10.63,10.8-15.47L367.51,123c2.72-1.7,3.23-4.17,3.23-7.82v-4.08c0-6-5.1-7.06-13-7.06H341.5c-.6,0-.77-.17-.77-.76V97.14c0-.85.34-1.11,1.11-1.37A97.71,97.71,0,0,1,358.5,94.5C370.65,94.5,381.62,96.2,381.62,109.46Z"/><path class="cls-2" d="M475.89,94.92c1,0,1.27.26,1.1,1.37l-11.05,54.06c-1.78,8.84-3.31,10-11.9,10-9.61,0-10.63-1.11-12.75-10l-8.42-35.45-8.41,35.45c-2.21,8.92-3.15,10-12.84,10-8.5,0-10-1.19-11.81-10L388.75,96.29c-.17-1.11.09-1.37,1.11-1.37h8.84c.77,0,.94.26,1.19,1.37l10,49.89c.6,3,1.11,3.57,2.55,3.57,1.79,0,2.13-.59,3-3.57l11.64-47.43a1.48,1.48,0,0,1,1.62-1.36H437a1.47,1.47,0,0,1,1.61,1.36l11.65,47.43c.76,3,1.19,3.57,3,3.57,1.45,0,1.88-.59,2.56-3.57l10-49.89c.17-1.11.42-1.37,1.1-1.37Z"/><path class="cls-2" d="M351.62,199.46v6.8c0,5.87-.68,10.71-8.08,15.05l-17.42,10c-3.74,1.95-4.85,3.65-4.85,6.8v2.21h30.35c.51,0,.59.08.59.51v8.58c0,.43-.17.52-.51.52h-42c-1.78,0-2.21-.94-2.21-2.39V240c0-7.14,2.81-10.63,10.8-15.47L337.51,213c2.72-1.7,3.23-4.17,3.23-7.82v-4.08c0-6-5.1-7.06-13-7.06H311.5c-.6,0-.77-.17-.77-.76v-6.12c0-.85.34-1.11,1.11-1.37a97.71,97.71,0,0,1,16.66-1.27C340.65,184.5,351.62,186.2,351.62,199.46Z"/><path class="cls-2" d="M445.89,184.92c1,0,1.27.26,1.1,1.37l-11.05,54.06c-1.78,8.84-3.31,10-11.9,10-9.61,0-10.63-1.11-12.75-10l-8.42-35.45-8.41,35.45c-2.21,8.92-3.15,10-12.84,10-8.5,0-10-1.19-11.81-10l-11.06-54.06c-.17-1.11.09-1.37,1.11-1.37h8.84c.77,0,.94.26,1.19,1.37l10,49.89c.6,3,1.11,3.57,2.55,3.57,1.79,0,2.13-.59,3-3.57l11.64-47.43a1.48,1.48,0,0,1,1.62-1.36H407a1.47,1.47,0,0,1,1.61,1.36l11.65,47.43c.76,3,1.19,3.57,3,3.57,1.45,0,1.88-.59,2.56-3.57l10-49.89c.17-1.11.42-1.37,1.1-1.37Z"/><path class="cls-2" d="M373.62,293.46v6.8c0,5.87-.68,10.71-8.08,15.05l-17.42,10c-3.74,2-4.85,3.65-4.85,6.8v2.21h30.35c.51,0,.59.08.59.51v8.58c0,.43-.17.52-.51.52h-42c-1.78,0-2.21-.94-2.21-2.39V334c0-7.14,2.81-10.63,10.8-15.47L359.51,307c2.72-1.7,3.23-4.17,3.23-7.82v-4.08c0-6-5.1-7.06-13-7.06H333.5c-.6,0-.77-.17-.77-.76v-6.12c0-.85.34-1.11,1.11-1.37a97.71,97.71,0,0,1,16.66-1.27C362.65,278.5,373.62,280.2,373.62,293.46Z"/><path class="cls-2" d="M467.89,278.92c1,0,1.27.26,1.1,1.37l-11.05,54.06c-1.78,8.84-3.31,10-11.9,10-9.61,0-10.63-1.11-12.75-10l-8.42-35.45-8.41,35.45c-2.21,8.92-3.15,10-12.84,10-8.5,0-10-1.19-11.81-10l-11.06-54.06c-.17-1.11.09-1.37,1.11-1.37h8.84c.77,0,.94.26,1.19,1.37l10,49.89c.6,3,1.11,3.57,2.55,3.57,1.79,0,2.13-.59,3-3.57l11.64-47.43a1.48,1.48,0,0,1,1.62-1.36H429a1.47,1.47,0,0,1,1.61,1.36l11.65,47.43c.76,3,1.19,3.57,3,3.57,1.45,0,1.88-.59,2.56-3.57l10-49.89c.17-1.11.42-1.37,1.1-1.37Z"/><path class="cls-2" d="M512.62,15.46v6.8c0,5.87-.68,10.71-8.08,15.05l-17.42,10c-3.74,1.95-4.85,3.65-4.85,6.8v2.21h30.35c.51,0,.59.08.59.51v8.58c0,.43-.17.52-.51.52h-42c-1.78,0-2.21-.94-2.21-2.39V56c0-7.14,2.81-10.63,10.8-15.47L498.51,29c2.72-1.7,3.23-4.17,3.23-7.82V17.08c0-6-5.1-7.06-13-7.06H472.5c-.6,0-.77-.17-.77-.76V3.14c0-.85.34-1.11,1.11-1.37A97.71,97.71,0,0,1,489.5.5C501.65.5,512.62,2.2,512.62,15.46Z"/><path class="cls-2" d="M606.89.92c1,0,1.27.26,1.1,1.37l-11,54.06c-1.78,8.84-3.31,10-11.9,10-9.61,0-10.63-1.11-12.75-10L563.87,20.9l-8.41,35.45c-2.21,8.92-3.15,10-12.84,10-8.5,0-10-1.19-11.81-10L519.75,2.29c-.17-1.11.09-1.37,1.11-1.37h8.84c.77,0,.94.26,1.19,1.37l10,49.89c.6,3,1.11,3.57,2.55,3.57,1.79,0,2.13-.59,3-3.57L558.09,4.75a1.48,1.48,0,0,1,1.62-1.36H568a1.47,1.47,0,0,1,1.61,1.36L581.3,52.18c.76,3,1.19,3.57,3,3.57,1.45,0,1.88-.59,2.56-3.57l10-49.89c.17-1.11.42-1.37,1.1-1.37Z"/><path class="cls-2" d="M534.62,109.46v6.8c0,5.87-.68,10.71-8.08,15l-17.42,10c-3.74,1.95-4.85,3.65-4.85,6.8v2.21h30.35c.51,0,.59.08.59.51v8.58c0,.43-.17.52-.51.52h-42c-1.78,0-2.21-.94-2.21-2.39V150c0-7.14,2.81-10.63,10.8-15.47L520.51,123c2.72-1.7,3.23-4.17,3.23-7.82v-4.08c0-6-5.1-7.06-13-7.06H494.5c-.6,0-.77-.17-.77-.76V97.14c0-.85.34-1.11,1.11-1.37A97.71,97.71,0,0,1,511.5,94.5C523.65,94.5,534.62,96.2,534.62,109.46Z"/><path class="cls-2" d="M628.89,94.92c1,0,1.27.26,1.1,1.37l-11,54.06c-1.78,8.84-3.31,10-11.9,10-9.61,0-10.63-1.11-12.75-10l-8.42-35.45-8.41,35.45c-2.21,8.92-3.15,10-12.84,10-8.5,0-10-1.19-11.81-10L541.75,96.29c-.17-1.11.09-1.37,1.11-1.37h8.84c.77,0,.94.26,1.19,1.37l10,49.89c.6,3,1.11,3.57,2.55,3.57,1.79,0,2.13-.59,3-3.57l11.64-47.43a1.48,1.48,0,0,1,1.62-1.36H590a1.47,1.47,0,0,1,1.61,1.36l11.65,47.43c.76,3,1.19,3.57,3,3.57,1.45,0,1.88-.59,2.56-3.57l10-49.89c.17-1.11.42-1.37,1.1-1.37Z"/><path class="cls-2" d="M504.62,199.46v6.8c0,5.87-.68,10.71-8.08,15.05l-17.42,10c-3.74,1.95-4.85,3.65-4.85,6.8v2.21h30.35c.51,0,.59.08.59.51v8.58c0,.43-.17.52-.51.52h-42c-1.78,0-2.21-.94-2.21-2.39V240c0-7.14,2.81-10.63,10.8-15.47L490.51,213c2.72-1.7,3.23-4.17,3.23-7.82v-4.08c0-6-5.1-7.06-13-7.06H464.5c-.6,0-.77-.17-.77-.76v-6.12c0-.85.34-1.11,1.11-1.37a97.71,97.71,0,0,1,16.66-1.27C493.65,184.5,504.62,186.2,504.62,199.46Z"/><path class="cls-2" d="M598.89,184.92c1,0,1.27.26,1.1,1.37l-11,54.06c-1.78,8.84-3.31,10-11.9,10-9.61,0-10.63-1.11-12.75-10l-8.42-35.45-8.41,35.45c-2.21,8.92-3.15,10-12.84,10-8.5,0-10-1.19-11.81-10l-11.06-54.06c-.17-1.11.09-1.37,1.11-1.37h8.84c.77,0,.94.26,1.19,1.37l10,49.89c.6,3,1.11,3.57,2.55,3.57,1.79,0,2.13-.59,3-3.57l11.64-47.43a1.48,1.48,0,0,1,1.62-1.36H560a1.47,1.47,0,0,1,1.61,1.36l11.65,47.43c.76,3,1.19,3.57,3,3.57,1.45,0,1.88-.59,2.56-3.57l10-49.89c.17-1.11.42-1.37,1.1-1.37Z"/><path class="cls-2" d="M526.62,293.46v6.8c0,5.87-.68,10.71-8.08,15.05l-17.42,10c-3.74,2-4.85,3.65-4.85,6.8v2.21h30.35c.51,0,.59.08.59.51v8.58c0,.43-.17.52-.51.52h-42c-1.78,0-2.21-.94-2.21-2.39V334c0-7.14,2.81-10.63,10.8-15.47L512.51,307c2.72-1.7,3.23-4.17,3.23-7.82v-4.08c0-6-5.1-7.06-13-7.06H486.5c-.6,0-.77-.17-.77-.76v-6.12c0-.85.34-1.11,1.11-1.37a97.71,97.71,0,0,1,16.66-1.27C515.65,278.5,526.62,280.2,526.62,293.46Z"/><path class="cls-2" d="M620.89,278.92c1,0,1.27.26,1.1,1.37l-11,54.06c-1.78,8.84-3.31,10-11.9,10-9.61,0-10.63-1.11-12.75-10l-8.42-35.45-8.41,35.45c-2.21,8.92-3.15,10-12.84,10-8.5,0-10-1.19-11.81-10l-11.06-54.06c-.17-1.11.09-1.37,1.11-1.37h8.84c.77,0,.94.26,1.19,1.37l10,49.89c.6,3,1.11,3.57,2.55,3.57,1.79,0,2.13-.59,3-3.57l11.64-47.43a1.48,1.48,0,0,1,1.62-1.36H582a1.47,1.47,0,0,1,1.61,1.36l11.65,47.43c.76,3,1.19,3.57,3,3.57,1.45,0,1.88-.59,2.56-3.57l10-49.89c.17-1.11.42-1.37,1.1-1.37Z"/></g></g></g></svg>