<svg xmlns="http://www.w3.org/2000/svg" viewBox="0 0 135.04 134.14"><defs><style>.cls-1{fill:#044da4;}</style></defs><g id="Camada_2" data-name="Camada 2"><g id="Camada_1-2" data-name="Camada 1"><g id="Layer_2" data-name="Layer 2"><path class="cls-1" d="M72.9,63.92,10.43,1.52a6.32,6.32,0,0,0-8.91,8.92L58.8,67.72,3.16,123.35a6.33,6.33,0,0,0,0,8.92h0a6.34,6.34,0,0,0,9,0l0,0L72.9,71.51A5.71,5.71,0,0,0,72.9,63.92Z"/><path class="cls-1" d="M133.47,63.92,71,1.52a6.32,6.32,0,0,0-8.91,8.92l57.28,57.28L63.73,123.35a6.33,6.33,0,0,0,0,8.92h0a6.33,6.33,0,0,0,8.92,0l60.82-60.76A5.38,5.38,0,0,0,133.47,63.92Z"/></g></g></g></svg>